<?xml version="1.0" encoding="UTF-8"?>
<svg xmlns="http://www.w3.org/2000/svg" xmlns:xlink="http://www.w3.org/1999/xlink" width="75pt" height="59pt" viewBox="0 0 75 59" version="1.1">
<g id="surface1">
<path style=" stroke:none;fill-rule:evenodd;fill:rgb(0%,28.999329%,56.098938%);fill-opacity:1;" d="M 15.90625 37.964844 C 10.652344 37.964844 6.371094 34.28125 6.371094 29.761719 C 6.371094 25.246094 10.652344 21.5625 15.90625 21.5625 C 21.15625 21.5625 25.4375 25.246094 25.4375 29.761719 C 25.4375 34.28125 21.15625 37.964844 15.90625 37.964844 "/>
<path style=" stroke:none;fill-rule:evenodd;fill:rgb(100%,100%,100%);fill-opacity:1;" d="M 22.023438 30.59375 L 23.085938 30.640625 C 22.453125 35.058594 18.261719 35.382813 16.148438 31.101563 L 16.425781 30.640625 C 18.613281 32.027344 21.171875 32.550781 22.023438 30.59375 "/>
<path style=" stroke:none;fill-rule:evenodd;fill:rgb(92.89856%,10.998535%,14.099121%);fill-opacity:1;" d="M 14.808594 24.164063 L 16.933594 23.46875 L 17.027344 35.496094 L 14.714844 36.28125 L 14.808594 24.164063 "/>
<path style=" stroke:none;fill-rule:evenodd;fill:rgb(100%,100%,100%);fill-opacity:1;" d="M 22.070313 28.972656 L 23.039063 28.972656 C 22.664063 26.953125 21.640625 25.679688 19.664063 25.503906 C 18.015625 25.535156 16.609375 26.492188 15.453125 28.371094 C 14.691406 29.53125 13.46875 31.351563 11.984375 31.566406 C 10.195313 31.824219 9.15625 30.25 9.929688 28.894531 C 10.398438 28.066406 11.667969 27.722656 12.554688 27.804688 C 12.558594 27.804688 12.566406 27.808594 12.570313 27.808594 C 13.382813 27.890625 14.132813 28.097656 14.773438 28.488281 L 14.785156 26.785156 C 14.382813 26.441406 14.054688 26.097656 13.582031 25.863281 C 12.941406 25.542969 12.316406 25.441406 11.707031 25.550781 C 9.011719 26.144531 8.515625 28.347656 9.027344 31.285156 C 10.074219 34.695313 13.34375 34.957031 15.222656 32.765625 C 16.511719 31.226563 19.710938 26.019531 22.070313 28.972656 "/>
<path style=" stroke:none;fill-rule:evenodd;fill:rgb(92.89856%,10.998535%,14.099121%);fill-opacity:1;" d="M 36.472656 31.886719 C 38.144531 31.886719 39.464844 30.917969 39.464844 29.246094 C 39.464844 27.574219 38.144531 26.515625 36.472656 26.515625 C 34.796875 26.515625 33.476563 27.574219 33.476563 29.246094 C 33.476563 30.917969 34.796875 31.886719 36.472656 31.886719 Z M 36.472656 30.65625 C 35.679688 30.65625 35.328125 29.949219 35.328125 29.246094 C 35.328125 28.453125 35.679688 27.746094 36.472656 27.746094 C 37.265625 27.746094 37.617188 28.453125 37.617188 29.246094 C 37.617188 29.949219 37.265625 30.65625 36.472656 30.65625 Z M 39.289063 27.925781 L 40.257813 27.925781 L 40.257813 29.949219 C 40.257813 31.183594 40.699219 31.886719 42.285156 31.886719 C 42.722656 31.886719 42.988281 31.796875 43.339844 31.796875 L 43.253906 30.65625 C 43.078125 30.65625 42.898438 30.742188 42.722656 30.742188 C 42.195313 30.742188 42.019531 30.390625 42.019531 29.773438 L 42.019531 27.925781 L 43.253906 27.925781 L 43.253906 26.691406 L 42.019531 26.691406 L 42.019531 24.929688 L 40.347656 25.546875 L 40.347656 26.691406 L 39.289063 26.691406 Z M 49.414063 31.796875 L 51.175781 31.796875 L 51.175781 29.246094 L 51.265625 29.246094 L 52.675781 31.796875 L 54.789063 31.796875 L 52.851563 28.980469 L 54.613281 26.691406 L 52.675781 26.691406 L 51.265625 28.804688 L 51.175781 28.804688 L 51.175781 24.929688 L 49.414063 25.546875 Z M 28.808594 31.796875 L 30.570313 31.796875 L 30.570313 29.246094 L 31.980469 31.796875 L 34.09375 31.796875 L 32.246094 28.980469 L 34.007813 26.691406 L 32.070313 26.691406 L 30.570313 28.804688 L 30.570313 24.929688 L 28.808594 25.460938 Z M 48.800781 31.796875 C 48.710938 31.359375 48.710938 31.007813 48.710938 30.566406 L 48.710938 28.628906 C 48.710938 27.042969 47.566406 26.515625 46.246094 26.515625 C 45.542969 26.515625 44.839844 26.601563 44.21875 26.867188 L 44.21875 28.101563 C 44.75 27.835938 45.277344 27.746094 45.894531 27.746094 C 46.511719 27.746094 47.039063 27.925781 47.039063 28.628906 C 46.863281 28.539063 46.511719 28.539063 46.246094 28.539063 C 45.277344 28.539063 43.515625 28.71875 43.515625 30.300781 C 43.515625 31.449219 44.484375 31.886719 45.453125 31.886719 C 46.246094 31.886719 46.6875 31.621094 47.128906 31.007813 C 47.128906 31.269531 47.214844 31.535156 47.214844 31.796875 Z M 45.191406 30.128906 C 45.191406 29.6875 45.71875 29.511719 46.335938 29.511719 C 46.597656 29.511719 46.863281 29.511719 47.039063 29.511719 C 47.039063 30.128906 46.597656 30.742188 45.984375 30.742188 C 45.542969 30.742188 45.191406 30.480469 45.191406 30.128906 "/>
<path style=" stroke:none;fill-rule:evenodd;fill:rgb(0%,28.999329%,56.098938%);fill-opacity:1;" d="M 55.367188 25.195313 C 55.503906 25.195313 55.640625 25.230469 55.773438 25.300781 C 55.90625 25.371094 56.007813 25.472656 56.082031 25.605469 C 56.15625 25.738281 56.191406 25.878906 56.191406 26.023438 C 56.191406 26.164063 56.15625 26.300781 56.082031 26.433594 C 56.011719 26.566406 55.910156 26.667969 55.777344 26.738281 C 55.648438 26.8125 55.507813 26.847656 55.367188 26.847656 C 55.222656 26.847656 55.085938 26.8125 54.953125 26.738281 C 54.824219 26.667969 54.71875 26.566406 54.648438 26.433594 C 54.574219 26.300781 54.535156 26.164063 54.535156 26.023438 C 54.535156 25.878906 54.574219 25.738281 54.648438 25.605469 C 54.722656 25.472656 54.828125 25.371094 54.957031 25.300781 C 55.089844 25.230469 55.226563 25.195313 55.367188 25.195313 Z M 55.367188 25.332031 C 55.25 25.332031 55.136719 25.359375 55.027344 25.421875 C 54.914063 25.480469 54.828125 25.566406 54.769531 25.675781 C 54.707031 25.785156 54.675781 25.902344 54.675781 26.023438 C 54.675781 26.140625 54.707031 26.253906 54.765625 26.363281 C 54.828125 26.472656 54.914063 26.558594 55.023438 26.621094 C 55.132813 26.679688 55.246094 26.710938 55.367188 26.710938 C 55.484375 26.710938 55.597656 26.679688 55.710938 26.621094 C 55.820313 26.558594 55.902344 26.472656 55.964844 26.363281 C 56.027344 26.253906 56.054688 26.140625 56.054688 26.023438 C 56.054688 25.902344 56.023438 25.785156 55.964844 25.675781 C 55.902344 25.566406 55.816406 25.480469 55.703125 25.421875 C 55.59375 25.359375 55.480469 25.332031 55.367188 25.332031 Z M 55.003906 26.476563 L 55.003906 25.589844 L 55.308594 25.589844 C 55.414063 25.589844 55.488281 25.597656 55.535156 25.613281 C 55.582031 25.628906 55.621094 25.660156 55.648438 25.699219 C 55.675781 25.742188 55.691406 25.785156 55.691406 25.832031 C 55.691406 25.894531 55.667969 25.953125 55.621094 26 C 55.574219 26.046875 55.511719 26.074219 55.433594 26.082031 C 55.464844 26.09375 55.492188 26.109375 55.511719 26.128906 C 55.546875 26.164063 55.589844 26.222656 55.640625 26.304688 L 55.75 26.476563 L 55.578125 26.476563 L 55.496094 26.339844 C 55.433594 26.226563 55.382813 26.160156 55.34375 26.132813 C 55.320313 26.109375 55.28125 26.101563 55.230469 26.101563 L 55.144531 26.101563 L 55.144531 26.476563 Z M 55.144531 25.976563 L 55.320313 25.976563 C 55.40625 25.976563 55.460938 25.964844 55.492188 25.941406 C 55.523438 25.914063 55.535156 25.882813 55.535156 25.84375 C 55.535156 25.816406 55.53125 25.792969 55.515625 25.773438 C 55.5 25.75 55.480469 25.734375 55.453125 25.726563 C 55.425781 25.714844 55.378906 25.710938 55.308594 25.710938 L 55.144531 25.710938 L 55.144531 25.976563 "/>
<path style=" stroke:none;fill-rule:nonzero;fill:rgb(0%,22.399902%,45.498657%);fill-opacity:1;" d="M 31.023438 36.574219 L 30.546875 36.574219 L 29.355469 35.179688 C 29.3125 35.132813 29.289063 35.097656 29.273438 35.078125 L 29.265625 35.078125 L 29.265625 36.574219 L 28.929688 36.574219 L 28.929688 33.53125 L 29.265625 33.53125 L 29.265625 34.960938 L 29.273438 34.960938 C 29.292969 34.933594 29.320313 34.898438 29.355469 34.859375 L 30.511719 33.53125 L 30.929688 33.53125 L 29.609375 34.992188 Z M 31.179688 35.515625 C 31.179688 35.15625 31.28125 34.871094 31.476563 34.660156 C 31.671875 34.453125 31.941406 34.351563 32.28125 34.351563 C 32.601563 34.351563 32.851563 34.449219 33.03125 34.652344 C 33.214844 34.851563 33.304688 35.128906 33.304688 35.484375 C 33.304688 35.828125 33.207031 36.101563 33.011719 36.3125 C 32.8125 36.523438 32.554688 36.625 32.230469 36.625 C 31.917969 36.625 31.664063 36.527344 31.46875 36.324219 C 31.277344 36.121094 31.179688 35.851563 31.179688 35.515625 Z M 31.515625 35.503906 C 31.515625 35.757813 31.582031 35.964844 31.714844 36.117188 C 31.851563 36.269531 32.03125 36.347656 32.253906 36.347656 C 32.480469 36.347656 32.65625 36.273438 32.785156 36.125 C 32.90625 35.972656 32.972656 35.765625 32.972656 35.496094 C 32.972656 35.21875 32.910156 35.003906 32.785156 34.855469 C 32.660156 34.703125 32.484375 34.628906 32.253906 34.628906 C 32.027344 34.628906 31.847656 34.707031 31.714844 34.863281 C 31.582031 35.019531 31.515625 35.230469 31.515625 35.503906 Z M 34.855469 36.554688 C 34.777344 36.597656 34.671875 36.621094 34.539063 36.621094 C 34.167969 36.621094 33.980469 36.414063 33.980469 35.992188 L 33.980469 34.683594 L 33.601563 34.683594 L 33.601563 34.402344 L 33.980469 34.402344 L 33.980469 33.867188 L 34.304688 33.761719 L 34.304688 34.402344 L 34.855469 34.402344 L 34.855469 34.683594 L 34.304688 34.683594 L 34.304688 35.933594 C 34.304688 36.082031 34.332031 36.1875 34.378906 36.25 C 34.429688 36.3125 34.515625 36.34375 34.628906 36.34375 C 34.71875 36.34375 34.796875 36.320313 34.855469 36.269531 Z M 35.378906 34.554688 C 35.59375 34.417969 35.835938 34.351563 36.113281 34.351563 C 36.617188 34.351563 36.867188 34.617188 36.867188 35.15625 L 36.867188 36.574219 L 36.539063 36.574219 L 36.539063 36.234375 L 36.527344 36.234375 C 36.378906 36.496094 36.15625 36.625 35.859375 36.625 C 35.644531 36.625 35.476563 36.570313 35.351563 36.453125 C 35.226563 36.339844 35.167969 36.1875 35.167969 36 C 35.167969 35.597656 35.40625 35.363281 35.882813 35.292969 L 36.539063 35.199219 C 36.539063 34.824219 36.386719 34.632813 36.085938 34.632813 C 35.824219 34.632813 35.585938 34.722656 35.378906 34.902344 Z M 36.007813 35.542969 C 35.820313 35.570313 35.691406 35.613281 35.617188 35.679688 C 35.542969 35.742188 35.507813 35.84375 35.507813 35.976563 C 35.507813 36.085938 35.546875 36.175781 35.625 36.242188 C 35.703125 36.3125 35.804688 36.34375 35.929688 36.34375 C 36.105469 36.34375 36.25 36.28125 36.367188 36.160156 C 36.480469 36.035156 36.539063 35.878906 36.539063 35.691406 L 36.539063 35.472656 Z M 39.3125 36.574219 L 38.847656 36.574219 L 37.867188 35.535156 L 37.859375 35.535156 L 37.859375 36.574219 L 37.53125 36.574219 L 37.53125 33.359375 L 37.859375 33.359375 L 37.859375 35.398438 L 37.867188 35.398438 L 38.796875 34.402344 L 39.230469 34.402344 L 38.210938 35.453125 Z M 43.472656 36.574219 L 43.472656 34.519531 C 43.472656 34.363281 43.484375 34.167969 43.503906 33.929688 L 43.496094 33.929688 C 43.457031 34.074219 43.425781 34.171875 43.402344 34.21875 L 42.34375 36.574219 L 42.195313 36.574219 L 41.132813 34.234375 C 41.105469 34.171875 41.078125 34.074219 41.046875 33.929688 L 41.035156 33.929688 C 41.046875 34.039063 41.054688 34.234375 41.054688 34.515625 L 41.054688 36.574219 L 40.726563 36.574219 L 40.726563 33.53125 L 41.164063 33.53125 L 42.117188 35.675781 C 42.191406 35.84375 42.238281 35.964844 42.257813 36.035156 L 42.273438 36.035156 C 42.3125 35.929688 42.359375 35.804688 42.417969 35.664063 L 43.394531 33.53125 L 43.804688 33.53125 L 43.804688 36.574219 Z M 44.617188 34.554688 C 44.832031 34.417969 45.074219 34.351563 45.351563 34.351563 C 45.855469 34.351563 46.105469 34.617188 46.105469 35.15625 L 46.105469 36.574219 L 45.777344 36.574219 L 45.777344 36.234375 L 45.765625 36.234375 C 45.617188 36.496094 45.394531 36.625 45.097656 36.625 C 44.882813 36.625 44.714844 36.570313 44.589844 36.453125 C 44.464844 36.339844 44.40625 36.1875 44.40625 36 C 44.40625 35.597656 44.644531 35.363281 45.121094 35.292969 L 45.777344 35.199219 C 45.777344 34.824219 45.625 34.632813 45.324219 34.632813 C 45.0625 34.632813 44.824219 34.722656 44.617188 34.902344 Z M 45.242188 35.542969 C 45.058594 35.570313 44.929688 35.613281 44.855469 35.679688 C 44.78125 35.742188 44.746094 35.84375 44.746094 35.976563 C 44.746094 36.085938 44.785156 36.175781 44.863281 36.242188 C 44.941406 36.3125 45.042969 36.34375 45.167969 36.34375 C 45.34375 36.34375 45.488281 36.28125 45.601563 36.160156 C 45.71875 36.035156 45.777344 35.878906 45.777344 35.691406 L 45.777344 35.472656 Z M 48.554688 36.574219 L 48.230469 36.574219 L 48.230469 35.320313 C 48.230469 34.859375 48.058594 34.628906 47.714844 34.628906 C 47.539063 34.628906 47.390625 34.695313 47.273438 34.832031 C 47.15625 34.964844 47.097656 35.136719 47.097656 35.34375 L 47.097656 36.574219 L 46.769531 36.574219 L 46.769531 33.359375 L 47.097656 33.359375 L 47.097656 34.765625 L 47.105469 34.765625 C 47.273438 34.488281 47.511719 34.351563 47.824219 34.351563 C 48.3125 34.351563 48.554688 34.644531 48.554688 35.238281 Z M 49.175781 33.621094 C 49.175781 33.558594 49.199219 33.503906 49.238281 33.464844 C 49.28125 33.421875 49.332031 33.398438 49.390625 33.398438 C 49.449219 33.398438 49.503906 33.421875 49.546875 33.464844 C 49.589844 33.507813 49.609375 33.558594 49.609375 33.621094 C 49.609375 33.675781 49.589844 33.726563 49.546875 33.769531 C 49.503906 33.8125 49.449219 33.835938 49.390625 33.835938 C 49.328125 33.835938 49.277344 33.816406 49.238281 33.773438 C 49.199219 33.730469 49.175781 33.679688 49.175781 33.621094 Z M 49.222656 36.574219 L 49.222656 34.402344 L 49.546875 34.402344 L 49.546875 36.574219 Z M 52.050781 36.574219 L 51.722656 36.574219 L 51.722656 35.332031 C 51.722656 34.863281 51.550781 34.628906 51.207031 34.628906 C 51.027344 34.628906 50.878906 34.695313 50.765625 34.832031 C 50.648438 34.964844 50.59375 35.132813 50.59375 35.335938 L 50.59375 36.574219 L 50.265625 36.574219 L 50.265625 34.402344 L 50.59375 34.402344 L 50.59375 34.765625 L 50.601563 34.765625 C 50.765625 34.488281 51.003906 34.351563 51.316406 34.351563 C 51.554688 34.351563 51.734375 34.425781 51.863281 34.582031 C 51.988281 34.734375 52.050781 34.957031 52.050781 35.246094 Z M 54.550781 36.574219 L 54.222656 36.574219 L 54.222656 36.203125 L 54.214844 36.203125 C 54.054688 36.484375 53.804688 36.625 53.464844 36.625 C 53.191406 36.625 52.972656 36.527344 52.808594 36.332031 C 52.648438 36.136719 52.566406 35.871094 52.566406 35.539063 C 52.566406 35.183594 52.65625 34.894531 52.839844 34.675781 C 53.019531 34.460938 53.261719 34.351563 53.558594 34.351563 C 53.859375 34.351563 54.078125 34.46875 54.214844 34.707031 L 54.222656 34.707031 L 54.222656 33.359375 L 54.550781 33.359375 Z M 54.222656 35.265625 C 54.222656 35.089844 54.164063 34.9375 54.042969 34.816406 C 53.921875 34.691406 53.773438 34.628906 53.597656 34.628906 C 53.378906 34.628906 53.210938 34.710938 53.085938 34.871094 C 52.960938 35.03125 52.898438 35.246094 52.898438 35.523438 C 52.898438 35.773438 52.960938 35.972656 53.078125 36.121094 C 53.195313 36.273438 53.355469 36.347656 53.554688 36.347656 C 53.75 36.347656 53.90625 36.277344 54.035156 36.136719 C 54.160156 35.996094 54.222656 35.816406 54.222656 35.597656 Z M 56.378906 34.738281 C 56.320313 34.691406 56.234375 34.667969 56.121094 34.667969 C 55.964844 34.667969 55.839844 34.742188 55.742188 34.886719 C 55.640625 35.035156 55.59375 35.226563 55.59375 35.464844 L 55.59375 36.574219 L 55.265625 36.574219 L 55.265625 34.402344 L 55.59375 34.402344 L 55.59375 34.851563 L 55.601563 34.851563 C 55.652344 34.695313 55.726563 34.578125 55.832031 34.492188 C 55.933594 34.40625 56.042969 34.363281 56.167969 34.363281 C 56.261719 34.363281 56.332031 34.375 56.378906 34.394531 Z M 56.8125 34.554688 C 57.027344 34.417969 57.269531 34.351563 57.546875 34.351563 C 58.050781 34.351563 58.300781 34.617188 58.300781 35.15625 L 58.300781 36.574219 L 57.972656 36.574219 L 57.972656 36.234375 L 57.960938 36.234375 C 57.8125 36.496094 57.589844 36.625 57.292969 36.625 C 57.078125 36.625 56.910156 36.570313 56.785156 36.453125 C 56.660156 36.339844 56.601563 36.1875 56.601563 36 C 56.601563 35.597656 56.839844 35.363281 57.316406 35.292969 L 57.972656 35.199219 C 57.972656 34.824219 57.820313 34.632813 57.519531 34.632813 C 57.257813 34.632813 57.023438 34.722656 56.8125 34.902344 Z M 57.441406 35.542969 C 57.253906 35.570313 57.125 35.613281 57.050781 35.679688 C 56.980469 35.742188 56.941406 35.84375 56.941406 35.976563 C 56.941406 36.085938 56.980469 36.175781 57.058594 36.242188 C 57.136719 36.3125 57.238281 36.34375 57.367188 36.34375 C 57.539063 36.34375 57.683594 36.28125 57.800781 36.160156 C 57.914063 36.035156 57.972656 35.878906 57.972656 35.691406 L 57.972656 35.472656 Z M 60.019531 36.574219 L 60.019531 33.53125 L 60.871094 33.53125 C 61.121094 33.53125 61.328125 33.59375 61.480469 33.722656 C 61.636719 33.847656 61.714844 34.015625 61.714844 34.226563 C 61.714844 34.398438 61.667969 34.546875 61.578125 34.675781 C 61.484375 34.800781 61.355469 34.894531 61.191406 34.953125 L 61.191406 34.960938 C 61.394531 34.980469 61.554688 35.054688 61.679688 35.1875 C 61.804688 35.320313 61.867188 35.492188 61.867188 35.703125 C 61.867188 35.960938 61.773438 36.171875 61.589844 36.332031 C 61.402344 36.492188 61.167969 36.574219 60.886719 36.574219 Z M 60.351563 33.839844 L 60.351563 34.84375 L 60.722656 34.84375 C 60.921875 34.84375 61.082031 34.792969 61.195313 34.699219 C 61.308594 34.601563 61.363281 34.464844 61.363281 34.292969 C 61.363281 33.992188 61.167969 33.839844 60.773438 33.839844 Z M 60.351563 35.152344 L 60.351563 36.265625 L 60.847656 36.265625 C 61.054688 36.265625 61.21875 36.214844 61.339844 36.113281 C 61.457031 36.015625 61.515625 35.875 61.515625 35.699219 C 61.515625 35.332031 61.265625 35.152344 60.765625 35.152344 Z M 62.496094 34.554688 C 62.710938 34.417969 62.953125 34.351563 63.226563 34.351563 C 63.734375 34.351563 63.984375 34.617188 63.984375 35.15625 L 63.984375 36.574219 L 63.65625 36.574219 L 63.65625 36.234375 L 63.644531 36.234375 C 63.496094 36.496094 63.273438 36.625 62.976563 36.625 C 62.761719 36.625 62.59375 36.570313 62.46875 36.453125 C 62.34375 36.339844 62.28125 36.1875 62.28125 36 C 62.28125 35.597656 62.523438 35.363281 63 35.292969 L 63.65625 35.199219 C 63.65625 34.824219 63.503906 34.632813 63.203125 34.632813 C 62.941406 34.632813 62.703125 34.722656 62.496094 34.902344 Z M 63.121094 35.542969 C 62.9375 35.570313 62.808594 35.613281 62.734375 35.679688 C 62.660156 35.742188 62.625 35.84375 62.625 35.976563 C 62.625 36.085938 62.664063 36.175781 62.742188 36.242188 C 62.820313 36.3125 62.921875 36.34375 63.046875 36.34375 C 63.222656 36.34375 63.367188 36.28125 63.480469 36.160156 C 63.597656 36.035156 63.65625 35.878906 63.65625 35.691406 L 63.65625 35.472656 Z M 66.433594 36.574219 L 66.105469 36.574219 L 66.105469 35.332031 C 66.105469 34.863281 65.933594 34.628906 65.59375 34.628906 C 65.410156 34.628906 65.265625 34.695313 65.148438 34.832031 C 65.035156 34.964844 64.976563 35.132813 64.976563 35.335938 L 64.976563 36.574219 L 64.648438 36.574219 L 64.648438 34.402344 L 64.976563 34.402344 L 64.976563 34.765625 L 64.984375 34.765625 C 65.148438 34.488281 65.386719 34.351563 65.699219 34.351563 C 65.9375 34.351563 66.121094 34.425781 66.246094 34.582031 C 66.371094 34.734375 66.433594 34.957031 66.433594 35.246094 Z M 68.878906 36.574219 L 68.410156 36.574219 L 67.433594 35.535156 L 67.425781 35.535156 L 67.425781 36.574219 L 67.097656 36.574219 L 67.097656 33.359375 L 67.425781 33.359375 L 67.425781 35.398438 L 67.433594 35.398438 L 68.363281 34.402344 L 68.796875 34.402344 L 67.773438 35.453125 L 68.878906 36.574219 "/>
</g>
</svg>
