<svg width="2500" height="1809" viewBox="0 0 2500 1809" fill="none" xmlns="http://www.w3.org/2000/svg">
<g clip-path="url(#clip0_29_2)">
<path d="M1371.48 1808.58L369.066 1809.63V1786.55L1106.99 1761.38C1247.09 1757.19 1383.56 1750.9 1515.2 1711.05C1784.53 1632.4 2000.71 1472.99 2063.51 1275.84C2131.14 1064 1975.35 858.458 1681.87 840.63C1930.66 777.709 2143.22 640.329 2199.98 464.148C2273.66 235.533 2140.81 119.128 1916.17 77.1798C2289.36 71.9363 2580.42 181.001 2481.38 490.366C2424.62 666.547 2207.23 800.78 1959.65 859.507C2250.71 878.383 2408.92 1118.53 2332.83 1328.27C2253.12 1546.4 2050.23 1681.68 1779.69 1760.34C1648.05 1797.04 1511.58 1803.33 1371.48 1808.58Z" fill="#F15A29"/>
<path d="M846.119 1698.46L372.689 1718.39C372.689 1707.9 371.481 1704.76 370.274 1694.27L1565.93 1394.34L1567.13 1377.56L355.781 1630.3C352.158 1620.86 350.95 1617.71 346.119 1608.28L1619.07 994.788L1610.61 978.009L308.679 1555.84C300.225 1546.4 301.433 1545.35 292.979 1536.96L1805.06 298.455L1791.77 284.822L233.8 1495.02C226.554 1490.82 222.931 1486.63 214.477 1482.43L1319.55 82.4233L1300.23 77.1798L148.052 1456.21C142.013 1454.12 134.766 1453.07 128.728 1450.97L761.578 97.1049L744.67 95.0077L32.1095 1438.39C23.6553 1438.39 13.9937 1438.39 5.53962 1439.44H-0.499023L458.438 -1.47238L1317.13 0.625143C1722.93 -19.3001 2044.19 76.1312 1937.91 404.373C1881.14 580.554 1668.58 717.933 1421 776.66L1419.79 780.854C1713.27 798.682 1878.73 1004.23 1811.1 1216.06C1748.29 1413.22 1521.24 1567.38 1251.92 1646.03C1121.48 1687.98 985.008 1694.27 846.119 1698.46Z" fill="#F15A29"/>
</g>
<defs>
<clipPath id="clip0_29_2">
<rect width="2500" height="1809" fill="white"/>
</clipPath>
</defs>
</svg>
