<svg width="2458" height="586" viewBox="0 0 2458 586" fill="none" xmlns="http://www.w3.org/2000/svg">
<g clip-path="url(#clip0_30_1114)">
<path d="M434.475 503.845L137.252 504L137.138 498.555L355.979 492.606C397.524 491.521 437.849 490.048 476.87 480.98C556.897 462.688 620.675 425.465 639.42 379.348C659.583 329.937 613.302 281.882 526.129 277.736C599.974 262.932 662.957 230.979 679.689 189.784C701.496 136.342 662.078 109.35 595.606 99.4484C706.175 98.247 792.696 123.631 763.26 195.965C746.529 237.121 682.042 268.454 608.708 282.115C694.86 286.513 742.077 342.59 719.22 391.439C695.484 442.342 635.393 473.946 555.366 492.18C516.317 501.268 476.048 502.76 434.475 503.845Z" fill="#F15A29"/>
<path d="M278.505 478.446L138.103 483C138.046 480.539 137.904 479.803 137.507 477.439L492.014 407.546L492.241 403.651L132.857 462.732C131.751 460.426 131.439 459.786 129.936 457.597L507.384 314.382L504.974 310.41L118.961 445.273C116.579 443.006 116.948 442.909 114.282 440.913L562.966 151.848L559.053 148.593L97.2386 431.089C95.1117 430.023 93.949 429.171 91.6236 428.221L419.332 101.585L413.518 100.48L71.9713 422.215C70.0713 421.788 68.1713 421.362 66.2713 420.994L253.776 105.053L248.813 104.685L37.3743 418.204C34.7653 418.204 32.1563 418.242 29.4907 418.359L27.7041 418.455L163.937 82.1688L418.424 82.7114C538.805 78.0028 633.89 100.228 602.64 177.038C585.851 218.195 522.924 250.186 449.477 263.866L449.051 264.951C536.224 269.098 585.284 317.037 565.207 366.467C546.433 412.545 479.395 448.528 399.367 466.801C360.29 475.889 319.964 477.4 278.505 478.446Z" fill="#F15A29"/>
<path d="M1528.1 126.857C1519.1 149.242 1503.29 150.477 1483.56 150.477H1445.11C1412.96 150.477 1410.35 141.523 1416.85 126.857H1454.89C1451.2 134.48 1446.54 141.446 1466.74 141.446C1480.09 141.446 1484.54 139.362 1489.68 127.282L1528.1 126.857ZM1859.18 243.434L1830.3 219.196L1827.8 225.333C1820.4 243.916 1820.76 251.539 1838.29 251.539C1848.04 251.539 1854.28 249.069 1859.18 243.434ZM1837.22 207.656L1866.07 232.048L1868.93 225.41C1874.75 210.609 1879.33 200.342 1858.59 200.227C1848.07 200.13 1841.74 202.909 1837.22 207.656ZM2027.19 195.499L2034.91 174.156H1926.93L1886.1 277.301H1849.58L1859.21 254.8C1848.78 261.998 1830.45 264.256 1815.77 264.256C1775.98 264.256 1782.46 239.401 1788.52 224.155C1794.43 209.238 1806.68 187.432 1845.33 187.432C1859.21 187.432 1874.51 189.864 1879.95 196.135L1888.6 174.156H1800.14L1805.61 162.828H2065.19L2033.31 137.201L2059.87 124.541L2093.89 162.828H2104.23L2076.96 116.263L2109.11 107L2127.89 162.828H2373L2367.53 174.156H2347.06L2306.2 277.417H2269.71L2310.51 174.156H2278.9L2266.21 200.381H2215.19C2198.58 200.381 2194.03 213.291 2187.23 232.318C2179.05 255.225 2172.73 269.022 2195.64 269.022C2197.24 269.022 2199.8 268.617 2202.97 267.903C2200.57 253.797 2213.02 237.374 2238.69 237.374C2262.2 237.374 2262.23 245.711 2259.02 253.083C2254.56 263.465 2246.36 269.042 2230.55 271.917C2238.69 281.855 2258.3 282.646 2258.3 282.646L2219.08 296.656C2210.02 289.709 2204.64 283.631 2203.06 276.529C2193.41 278.189 2182.71 278.671 2174.63 278.671C2127.56 278.671 2135.4 248.741 2143.34 228.536C2151.45 207.714 2165.45 189.458 2204.13 189.458C2218.01 189.458 2233.67 190.037 2233.67 190.037L2240.56 174.156H2137.78L2096.92 277.417H2060.44L2101.26 174.156H2072.02L2057.46 210.531H2020.86C2023.98 202.581 2018.27 199.609 2002.7 199.609C1988.62 199.609 1984.46 200.902 1978.63 213.947C1974.47 225.101 1979.4 227.475 1996.4 227.204H2025.55C2046.95 227.204 2050.84 232.396 2043.2 253.083C2033.81 276.355 2016.37 277.706 1994.47 277.706H1951.8C1914.51 277.706 1913.14 266.9 1921.55 249.262H1963.66C1959.79 258.563 1951.35 267.729 1975.78 267.729C1990.58 267.729 1995.54 265.394 2001.13 252.021C2005.76 242.392 2006.92 237.374 1984.46 237.374C1984.46 237.374 1964.49 237.201 1954.98 237.201C1929.96 237.201 1933.94 223.441 1938.46 212.056C1947.37 191.06 1953.67 188.32 1990.93 188.32C2013.84 188.32 2023.98 189.98 2027.19 195.499ZM1018.92 251.732C1031.91 251.732 1037.43 243.955 1044.83 225.41C1050.66 210.609 1054.99 200.381 1039.19 200.381C1022.58 200.381 1018.8 210.609 1012.98 225.41C1005.61 243.955 1004.95 251.732 1018.92 251.732ZM1025.7 277.282C1035.29 254.761 1035.08 254.8 1035.08 254.8L1025.7 277.282ZM899.053 242.507L869.903 217.98C868.893 220.277 867.883 222.708 866.872 225.333C859.474 243.916 859.83 251.539 877.332 251.539C887.613 251.539 893.972 248.779 899.053 242.507ZM877.213 206.768L905.739 230.813L907.997 225.41C913.821 210.609 918.397 200.342 897.656 200.227C887.791 200.13 881.64 202.6 877.213 206.768ZM905.293 162.828L873.409 137.201L900.063 124.541L934.056 162.828H944.308L917.149 116.263L949.27 107L968.049 162.828H1180.71L1175.28 174.156H1101.41L1092.28 198.104C1102.18 190.906 1114.42 188.166 1129.13 188.166C1168.86 188.166 1160.18 212.577 1154.12 227.783C1148.3 242.72 1138.22 264.275 1099.59 264.275C1091.96 264.275 1085.06 263.31 1081.14 260.995L1083.88 254.318C1084.89 254.395 1086.34 254.935 1087.47 254.935C1104.08 254.935 1108.63 242.006 1114.48 227.224C1121.85 208.66 1122.44 200.902 1108.54 200.902C1096.95 200.902 1090.15 206.498 1083.61 220.74L1061.95 277.301L1025.7 277.282L1035.08 254.8C1024.63 261.998 1012.98 264.449 998.328 264.449C958.541 264.449 967.604 238.706 973.636 223.48C979.519 208.563 989.176 187.683 1027.83 187.683C1041.74 187.683 1050.42 189.864 1055.86 196.135L1064.38 174.156H966.029L925.201 277.301H888.653L898.28 254.8C887.791 261.998 869.547 264.256 854.779 264.256C815.08 264.256 822.925 237.895 828.957 222.689C834.9 207.791 845.716 187.432 884.344 187.432C898.28 187.432 913.672 189.864 919.08 196.135L927.638 174.156H838.644L844.082 162.828H905.293ZM1278.12 277.204H1223.59L1228.23 265.529H1275.71C1287.75 265.529 1305.51 261.13 1311.67 245.653C1315.44 235.85 1308.96 224.522 1287.3 224.522H1251.61L1256.34 211.728H1297.7C1312.35 211.728 1323.58 203.604 1327.92 192.913C1331.13 184.788 1330.39 173.905 1308.6 173.905H1264.24L1268.85 162.23H1322.21C1349.28 162.23 1378.67 169.794 1370.8 190.867C1364.97 206.575 1352.52 214.449 1324.03 217.401C1353.53 220.026 1359.36 232.762 1353.41 247.969C1342.27 275.95 1296.42 277.204 1278.12 277.204ZM1606.97 174.156H1578.08L1555.56 230.485C1552.98 237.046 1553.24 241.89 1565.48 241.89C1577.76 241.89 1582.42 234.383 1585.01 227.783L1606.97 174.156ZM1390.26 162.828H1717L1711.53 174.156H1645.45L1634.51 201.346C1644.7 194.881 1657.03 191.967 1671.39 191.967C1689.66 191.967 1703.39 197.834 1699.38 208.042L1675.9 267.324H1637.45L1657.63 216.417C1660.24 209.798 1660.1 204.684 1647.82 204.684C1638.97 204.684 1632.91 209.509 1629.19 214.661L1619.65 238.494C1617.78 243.337 1607.06 272.457 1606.02 277.301H1566.26L1578.41 245.672C1567.65 252.272 1556.39 254.626 1541.92 254.626C1523.65 254.626 1509.92 248.721 1514.02 238.494L1539.69 174.156H1509.3L1468.41 277.417H1431.89L1472.75 174.156H1443.83L1403.07 277.417H1366.55L1388.03 223.171H1358.38L1363.4 211.612H1392.61L1407.46 174.156H1384.73L1390.26 162.828ZM982.699 134.692H1017.46L1009.71 153.507H974.943L982.699 134.692ZM1510.22 269.698H1544.92L1537.14 288.455H1502.37L1510.22 269.698ZM1951.21 288.204H1985.94L1978.1 307H1943.39L1951.21 288.204Z" fill="#F15A29"/>
<path d="M883.886 418.129H908.049C928.939 418.129 933.227 425.434 929.518 437.47C923.637 456.396 903.79 456.633 894.954 456.633H871.95L883.886 418.129ZM901.154 362.738H926.708C940.673 362.738 948.292 370.102 945.192 380.02C941.078 393.165 927.171 397.283 918.103 397.283H890.376L901.154 362.738ZM897.301 477.42C914.887 477.42 959.07 475.935 969.703 441.588C975.526 423.058 971.847 410.032 943.338 407.241L943.425 406.845C966.893 403.856 981.669 392.591 986.536 377.011C995.547 348.128 971.354 341.892 939.687 341.892H866.126L824 477.42H897.301Z" fill="#F15A29"/>
<path d="M1059.26 431.649C1056.04 441.963 1053.14 463.007 1030.29 463.007C1017.65 463.007 1018.52 454.712 1020.64 448.001C1025.88 431.035 1039.85 432.203 1059.26 431.649ZM1103.12 412.506C1108.48 395.203 1106.63 380.772 1057.52 380.772C1042.66 380.772 1029.5 382.454 1019.3 386.968C1008.93 391.284 1001.37 398.628 997.865 410.031H1035.76C1038.14 402.587 1041.38 395.599 1054.8 395.599C1068.85 395.599 1068.65 401.439 1066.12 409.536L1063.89 416.801C1028.05 416.445 992.158 417.732 982.452 449.09C977.266 465.6 982.886 479.319 1009.8 479.319C1026.55 479.319 1039.3 474.628 1050.6 464.888H1051.15L1048.86 477.419H1084.87C1085.83 471.618 1086.58 465.6 1088.4 459.8L1103.12 412.506Z" fill="#F15A29"/>
<path d="M1171.7 382.673H1132.97L1103.53 477.42H1142.24L1162.58 412.111C1165.18 403.677 1169.41 397.085 1181.75 397.085C1194.16 397.085 1194.27 403.677 1191.66 412.111L1171.32 477.42H1210.06L1233.73 401.44C1237.82 388.315 1223.94 380.773 1205.54 380.773C1190.94 380.773 1179.61 383.762 1169.27 392.235H1168.75L1171.7 382.673Z" fill="#F15A29"/>
<path d="M1267.16 477.439L1283.22 425.829H1283.77L1303.73 477.439H1347.45L1320.04 424.898L1372.45 382.692H1332.09L1284.78 422.622H1284.26L1309.38 341.911H1270.58L1228.46 477.439H1267.16Z" fill="#F15A29"/>
<path d="M1450.36 462.433C1436.07 462.433 1434.45 456.236 1443.43 427.313C1449.55 407.596 1454.04 397.658 1470.52 397.658C1487.01 397.658 1485.3 407.596 1479.16 427.313C1470.15 456.236 1464.64 462.433 1450.36 462.433ZM1445.17 479.319C1495.12 479.319 1508.19 458.493 1517.46 428.818C1525.46 402.904 1526.85 380.771 1475.8 380.771C1424.66 380.771 1412.29 402.904 1404.23 428.818C1395.02 458.493 1395.14 479.319 1445.17 479.319Z" fill="#F15A29"/>
<path d="M1620.17 341.356C1615.56 341.158 1611.15 341 1606.52 341C1559.24 341 1558.08 355.432 1549.88 382.672H1532.29L1527.22 398.965H1544.52L1520.12 477.419H1558.86L1583.23 398.965H1601.39L1606.46 382.672H1588.32L1591.89 371.21C1594.9 361.608 1599.42 357.471 1614.86 358.243L1620.17 341.356Z" fill="#F15A29"/>
<path d="M1694.68 418.129H1718.85C1739.71 418.129 1744.02 425.434 1740.32 437.47C1734.38 456.396 1714.53 456.633 1705.75 456.633H1682.69L1694.68 418.129ZM1711.89 362.738H1737.42C1751.44 362.738 1759.06 370.102 1755.96 380.02C1751.9 393.165 1737.94 397.283 1728.9 397.283H1701.14L1711.89 362.738ZM1708.07 477.42C1725.63 477.42 1769.81 475.935 1780.5 441.588C1786.27 423.058 1782.62 410.032 1754.11 407.241L1754.19 406.845C1777.63 403.856 1792.41 392.591 1797.3 377.011C1806.26 348.128 1782.12 341.892 1750.49 341.892H1676.87L1634.74 477.42H1708.07Z" fill="#F15A29"/>
<path d="M1870.03 431.649C1866.75 441.963 1863.85 463.007 1841.05 463.007C1828.42 463.007 1829.35 454.712 1831.49 448.001C1836.71 431.035 1850.64 432.203 1870.03 431.649ZM1913.92 412.506C1919.28 395.203 1917.45 380.772 1868.26 380.772C1853.45 380.772 1840.3 382.454 1830.1 386.968C1819.67 391.284 1812.17 398.628 1808.6 410.031H1846.53C1848.88 402.587 1852.15 395.599 1865.56 395.599C1879.59 395.599 1879.41 401.439 1876.92 409.536L1874.63 416.801C1838.76 416.445 1802.93 417.732 1793.19 449.09C1788.09 465.6 1793.68 479.319 1820.57 479.319C1837.34 479.319 1850.09 474.628 1861.36 464.888H1861.91L1859.65 477.419H1895.58C1896.62 471.618 1897.4 465.6 1899.2 459.8L1913.92 412.506Z" fill="#F15A29"/>
<path d="M1943.73 382.673L1914.3 477.42H1953.03L1969.08 425.83C1971.98 416.446 1976.73 402.905 2010.34 404.43L2017.67 380.773C2002.03 380.773 1987.86 383.96 1977.31 394.848H1976.76L1980.56 382.673H1943.73Z" fill="#F15A29"/>
<path d="M2052 462.433C2037.75 462.433 2036.07 456.236 2045.11 427.313C2051.22 407.596 2055.71 397.658 2072.2 397.658C2088.68 397.658 2086.94 407.596 2080.8 427.313C2071.79 456.236 2066.34 462.433 2052 462.433ZM2046.82 479.319C2096.76 479.319 2109.8 458.493 2119.04 428.818C2127.16 402.904 2128.52 380.771 2077.41 380.771C2026.33 380.771 2013.93 402.904 2005.88 428.818C1996.66 458.493 1996.81 479.319 2046.82 479.319Z" fill="#F15A29"/>
<path d="M2175.95 463.007C2161.98 463.007 2162.65 453.069 2170.01 429.194C2175.89 410.249 2179.71 397.084 2196.52 397.084C2212.39 397.084 2208.05 410.249 2202.2 429.194C2194.81 453.069 2189.16 463.007 2175.95 463.007ZM2225.9 477.419L2268.05 341.91H2229.29L2213.78 391.659H2213.32C2207.82 383.563 2199.07 380.771 2185.07 380.771C2146.05 380.771 2138.02 410.249 2132.05 429.352C2126 448.931 2115.13 479.319 2155.26 479.319C2170.09 479.319 2181.83 476.132 2191.82 466.926H2192.32L2189.13 477.419H2225.9Z" fill="#F15A29"/>
<path d="M2327.15 431.649C2323.97 441.963 2320.98 463.007 2298.18 463.007C2285.58 463.007 2286.45 454.712 2288.56 448.001C2293.84 431.035 2307.74 432.203 2327.15 431.649ZM2371.08 412.505C2376.44 395.203 2374.61 380.771 2325.42 380.771C2310.58 380.771 2297.46 382.454 2287.23 386.968C2276.83 391.283 2269.3 398.628 2265.79 410.031H2303.69C2306 402.587 2309.25 395.599 2322.75 395.599C2336.74 395.599 2336.6 401.439 2334.11 409.536L2331.76 416.801C2295.98 416.445 2260.05 417.732 2250.29 449.09C2245.16 465.6 2250.81 479.319 2277.73 479.319C2294.47 479.319 2307.22 474.627 2318.43 464.887H2318.98L2316.75 477.419H2352.79C2353.72 471.618 2354.48 465.6 2356.39 459.8L2371.08 412.505Z" fill="#F15A29"/>
</g>
<defs>
<clipPath id="clip0_30_1114">
<rect width="2458" height="585.004" fill="white" transform="translate(0 0.447632)"/>
</clipPath>
</defs>
</svg>
