<?xml version="1.0" encoding="utf-8"?>
<!-- Generator: Adobe Illustrator 24.3.0, SVG Export Plug-In . SVG Version: 6.00 Build 0)  -->
<svg version="1.1" id="Layer_1" xmlns="http://www.w3.org/2000/svg" xmlns:xlink="http://www.w3.org/1999/xlink" x="0px" y="0px"
	 viewBox="0 0 512 512" style="enable-background:new 0 0 512 512;" xml:space="preserve">
<style type="text/css">
	.st0{fill:#F15A29;}
</style>
<g id="XMLID_1_">
	<path id="XMLID_51_" class="st0" d="M341.43,204.26c-1.82,7.01-5.05,7.29-8.98,7.29h-7.72c-6.45,0-7.01-2.81-5.75-7.29h7.72
		c-0.7,2.38-1.68,4.49,2.38,4.49c2.67,0,3.65-0.7,4.63-4.35L341.43,204.26z M408.34,240.45l-5.89-7.57l-0.56,1.96
		c-1.54,5.75-1.4,8.14,2.1,8.14C406.09,242.98,407.36,242.28,408.34,240.45z M403.85,229.37l5.89,7.57l0.56-2.1
		c1.12-4.63,2.1-7.86-2.1-7.86C406.09,226.99,404.83,227.97,403.85,229.37z M442.14,225.59l1.54-6.59h-21.74l-8.28,32.12h-7.43
		l1.96-7.01c-2.1,2.24-5.75,2.95-8.84,2.95c-8,0-6.73-7.72-5.47-12.48c1.26-4.63,3.65-11.36,11.5-11.36c2.81,0,5.89,0.7,7.01,2.67
		l1.68-6.87h-17.81l1.12-3.51h52.46l-6.45-8l5.33-3.93l6.87,11.92h2.1l-5.47-14.45l6.45-2.95l3.79,17.39H512l-1.12,3.51h-4.07
		l-8.28,32.12h-7.43l8.28-32.12h-6.31l-2.52,8.14H480.3c-3.37,0-4.21,4.07-5.61,9.96c-1.68,7.15-2.95,11.36,1.68,11.36
		c0.28,0,0.84-0.14,1.54-0.28c-0.42-4.35,1.96-9.54,7.15-9.54c4.77,0,4.77,2.52,4.07,4.91c-0.84,3.23-2.52,4.91-5.75,5.89
		c1.68,3.09,5.61,3.37,5.61,3.37l-7.86,4.35c-1.82-2.1-2.95-4.07-3.23-6.31c-1.96,0.56-4.07,0.7-5.75,0.7
		c-9.54,0-7.86-9.26-6.31-15.57c1.68-6.45,4.49-12.2,12.2-12.2c2.81,0,6.03,0.14,6.03,0.14l1.4-4.91h-20.76l-8.28,32.12h-7.43
		l8.28-32.12h-5.89l-2.95,11.36h-7.43c0.56-2.52-0.56-3.37-3.65-3.37c-2.81,0-3.65,0.42-4.91,4.49c-0.84,3.51,0.14,4.21,3.65,4.07
		H442c4.35,0,5.05,1.68,3.51,8c-1.96,7.29-5.47,7.72-9.82,7.72h-8.56c-7.57,0-7.86-3.37-6.17-8.84h8.56
		c-0.84,2.95-2.52,5.75,2.38,5.75c2.95,0,3.93-0.7,5.05-4.91c0.98-2.95,1.12-4.49-3.37-4.49c0,0-4.07,0-5.89,0
		c-5.05,0-4.21-4.21-3.37-7.86c1.82-6.59,3.09-7.43,10.66-7.43C439.48,223.34,441.58,223.9,442.14,225.59z M238.61,243.12
		c2.67,0,3.79-2.38,5.19-8.14c1.12-4.63,2.1-7.72-1.12-7.72c-3.37,0-4.07,3.23-5.33,7.72C235.94,240.59,235.8,243.12,238.61,243.12z
		 M240.01,250.98c1.96-7.01,1.96-7.01,1.96-7.01L240.01,250.98z M214.48,240.17l-5.89-7.57c-0.14,0.7-0.42,1.4-0.56,2.24
		c-1.54,5.75-1.4,8.14,2.1,8.14C212.23,242.98,213.5,242.14,214.48,240.17z M210.13,229.09l5.75,7.43l0.42-1.68
		c1.12-4.63,2.1-7.86-2.1-7.86C212.23,226.99,210.97,227.83,210.13,229.09z M215.74,215.49l-6.45-8l5.33-3.93l6.87,11.92h2.1
		l-5.47-14.45l6.45-2.95l3.79,17.39h42.92l-1.12,3.51H255.3l-1.82,7.43c1.96-2.24,4.49-3.09,7.43-3.09c8,0,6.31,7.57,5.05,12.34
		c-1.12,4.63-3.23,11.36-10.94,11.36c-1.54,0-2.95-0.28-3.79-0.98l0.56-2.1l0.7,0.14c3.37,0,4.21-4.07,5.47-8.56
		c1.54-5.75,1.54-8.14-1.26-8.14c-2.38,0-3.65,1.68-5.05,6.17l-4.35,17.53h-7.29l1.96-7.01c-2.1,2.24-4.49,2.95-7.43,2.95
		c-8,0-6.17-8-5.05-12.76c1.12-4.63,3.09-11.08,10.94-11.08c2.81,0,4.49,0.7,5.61,2.67l1.68-6.87h-19.78l-8.28,32.12h-7.43
		l1.96-7.01c-2.1,2.24-5.75,2.95-8.84,2.95c-8,0-6.45-8.14-5.19-12.91c1.26-4.63,3.37-10.94,11.22-10.94c2.81,0,5.89,0.7,7.01,2.67
		l1.68-6.87h-17.96l1.12-3.51H215.74z M290.93,250.98h-10.94l0.98-3.65h9.54c2.38,0,6.03-1.4,7.29-6.17
		c0.7-3.09-0.56-6.59-4.91-6.59h-7.15l0.98-3.93h8.42c2.95,0,5.19-2.52,6.03-5.89c0.7-2.52,0.56-5.89-3.93-5.89h-8.98l0.98-3.65
		h10.8c5.47,0,11.36,2.38,9.82,8.84c-1.12,4.91-3.65,7.29-9.4,8.28c5.89,0.84,7.15,4.77,5.89,9.54
		C303.97,250.55,294.72,250.98,290.93,250.98z M357.42,218.99h-5.89l-4.49,17.53c-0.56,2.1-0.42,3.51,1.96,3.51
		c2.52,0,3.37-2.38,3.93-4.35L357.42,218.99z M313.65,215.49h65.93l-1.12,3.51h-13.33l-2.24,8.42c2.1-1.96,4.49-2.95,7.43-2.95
		c3.65,0,6.45,1.82,5.61,5.05l-4.77,18.38h-7.72l4.07-15.85c0.56-2.1,0.56-3.65-1.96-3.65c-1.82,0-2.95,1.54-3.79,3.09l-1.96,7.43
		c-0.42,1.54-2.52,10.52-2.81,12.06h-8l2.38-9.82c-2.1,2.1-4.49,2.81-7.43,2.81c-3.65,0-6.45-1.82-5.61-5.05l5.19-20.06h-6.17
		l-8.28,32.12h-7.43l8.28-32.12h-5.89l-8.28,32.12h-7.43l4.35-16.83h-6.03l0.98-3.65h5.89l2.95-11.64h-4.63L313.65,215.49z
		 M231.31,206.65h7.01l-1.54,5.89h-7.01L231.31,206.65z M337.78,248.73h7.01l-1.54,5.89h-7.01L337.78,248.73z M426.85,254.48h7.01
		l-1.54,5.89h-7.01L426.85,254.48"/>
	<path id="XMLID_55_" class="st0" d="M203.68,298.67h5.05c4.35,0,5.19,2.24,4.49,5.89c-1.26,5.75-5.33,5.75-7.15,5.75h-4.77
		L203.68,298.67z M207.18,281.84h5.33c2.95,0,4.49,2.24,3.79,5.19c-0.84,3.93-3.79,5.19-5.61,5.19h-5.75L207.18,281.84z
		 M206.34,316.62c3.65,0,12.76-0.42,15.01-10.8c1.26-5.61,0.42-9.54-5.47-10.38v-0.14c4.91-0.84,7.86-4.35,8.98-8.98
		c1.82-8.7-3.09-10.66-9.68-10.66h-15.29l-8.7,41.1h15.15"/>
	<path id="XMLID_58_" class="st0" d="M239.87,302.74c-0.7,3.09-1.26,9.54-6.03,9.54c-2.67,0-2.38-2.52-1.96-4.49
		C233,302.6,235.94,302.88,239.87,302.74z M248.99,296.98c1.12-5.19,0.7-9.68-9.4-9.68c-3.09,0-5.75,0.56-7.86,1.82
		c-2.1,1.26-3.65,3.51-4.49,7.01h7.86c0.56-2.24,1.12-4.35,3.93-4.35c2.95,0,2.81,1.82,2.38,4.21l-0.42,2.24
		c-7.43-0.14-14.87,0.28-16.83,9.82c-1.12,5.05,0.14,9.12,5.61,9.12c3.51,0,6.17-1.4,8.42-4.35h0.14l-0.42,3.79h7.43
		c0.14-1.82,0.42-3.65,0.7-5.33L248.99,296.98"/>
	<path id="XMLID_59_" class="st0" d="M263.15,287.87h-8l-6.03,28.76h8l4.21-19.78c0.56-2.52,1.4-4.49,3.93-4.49
		c2.52,0,2.52,1.96,2.1,4.49l-4.21,19.78h8l4.91-23c0.84-3.93-1.96-6.31-5.89-6.31c-3.09,0-5.33,0.84-7.57,3.51h-0.14L263.15,287.87
		"/>
	<polyline id="XMLID_60_" class="st0" points="282.93,316.62 286.3,300.91 286.44,300.91 290.51,316.62 299.63,316.62 
		293.87,300.63 304.82,287.87 296.4,287.87 286.58,299.93 286.58,299.93 291.77,275.52 283.63,275.52 274.94,316.62 282.93,316.62 	
		"/>
	<path id="XMLID_63_" class="st0" d="M320.95,311.99c-2.95,0-3.23-1.82-1.4-10.66c1.26-6.03,2.24-8.98,5.61-8.98
		c3.37,0,3.09,2.95,1.82,8.98C325.01,310.17,323.89,311.99,320.95,311.99z M319.82,317.18c10.38,0,13.05-6.31,15.01-15.29
		c1.68-7.86,1.96-14.59-8.56-14.59s-13.19,6.73-14.87,14.59C309.44,310.87,309.44,317.18,319.82,317.18"/>
	<path id="XMLID_64_" class="st0" d="M356.02,275.38c-0.98,0-1.82-0.14-2.81-0.14c-9.82,0-9.96,4.35-11.78,12.62h-3.65l-0.98,4.91
		h3.65l-5.05,23.71h8l5.05-23.71h3.79l0.98-4.91h-3.79l0.7-3.51c0.56-2.95,1.54-4.21,4.77-3.93L356.02,275.38"/>
	<path id="XMLID_68_" class="st0" d="M371.45,298.67h5.05c4.35,0,5.19,2.24,4.49,5.89c-1.26,5.75-5.33,5.75-7.15,5.75h-4.77
		L371.45,298.67z M375.09,281.84h5.33c2.95,0,4.49,2.24,3.79,5.19c-0.84,3.93-3.79,5.19-5.61,5.19h-5.75L375.09,281.84z
		 M374.25,316.62c3.65,0,12.76-0.42,15.01-10.8c1.26-5.61,0.42-9.54-5.47-10.38v-0.14c4.91-0.84,7.86-4.35,8.98-8.98
		c1.82-8.7-3.09-10.66-9.68-10.66H367.8l-8.7,41.1h15.15"/>
	<path id="XMLID_71_" class="st0" d="M407.78,302.74c-0.7,3.09-1.26,9.54-6.03,9.54c-2.67,0-2.38-2.52-1.96-4.49
		C400.9,302.6,403.71,302.88,407.78,302.74z M416.89,296.98c1.12-5.19,0.7-9.68-9.4-9.68c-3.09,0-5.75,0.56-7.86,1.82
		c-2.1,1.26-3.65,3.51-4.49,7.01h7.86c0.42-2.24,1.12-4.35,3.93-4.35c2.95,0,2.81,1.82,2.38,4.21l-0.42,2.24
		c-7.43-0.14-14.87,0.28-16.83,9.82c-1.12,5.05,0.14,9.12,5.61,9.12c3.51,0,6.17-1.4,8.42-4.35h0.14l-0.42,3.79h7.43
		c0.28-1.82,0.42-3.65,0.7-5.33L416.89,296.98"/>
	<path id="XMLID_72_" class="st0" d="M423.07,287.87l-6.03,28.76h8l3.37-15.57c0.56-2.81,1.54-7.01,8.56-6.45l1.54-7.15
		c-3.23,0-6.17,0.98-8.42,4.21h-0.14l0.84-3.65h-7.72"/>
	<path id="XMLID_75_" class="st0" d="M445.51,311.99c-2.95,0-3.37-1.82-1.4-10.66c1.26-6.03,2.24-8.98,5.61-8.98
		c3.37,0,3.09,2.95,1.82,8.98C449.58,310.17,448.46,311.99,445.51,311.99z M444.39,317.18c10.38,0,13.05-6.31,15.01-15.29
		c1.68-7.86,1.96-14.59-8.56-14.59s-13.19,6.73-14.87,14.59C434.01,310.87,434.01,317.18,444.39,317.18"/>
	<path id="XMLID_78_" class="st0" d="M471.18,312.27c-2.95,0-2.81-2.95-1.26-10.24c1.26-5.75,1.96-9.68,5.47-9.68
		c3.23,0,2.38,3.93,1.12,9.68C474.97,309.19,473.85,312.27,471.18,312.27z M481.42,316.62l8.7-41.1h-8l-3.23,15.01h-0.14
		c-1.12-2.38-2.95-3.37-5.89-3.37c-8.14,0-9.68,8.98-10.94,14.73c-1.26,5.89-3.51,15.15,4.77,15.15c3.09,0,5.47-0.98,7.57-3.79h0.14
		l-0.7,3.23h7.72"/>
	<path id="XMLID_81_" class="st0" d="M502.46,302.74c-0.7,3.09-1.26,9.54-6.03,9.54c-2.67,0-2.38-2.52-1.96-4.49
		C495.45,302.6,498.39,302.88,502.46,302.74z M511.44,296.98c1.12-5.19,0.7-9.68-9.4-9.68c-3.09,0-5.75,0.56-7.86,1.82
		c-2.1,1.26-3.65,3.51-4.49,7.01h7.86c0.42-2.24,1.12-4.35,3.93-4.35c2.95,0,2.81,1.82,2.38,4.21l-0.42,2.24
		c-7.43-0.14-14.87,0.28-16.83,9.82c-1.12,5.05,0.14,9.12,5.61,9.12c3.51,0,6.17-1.4,8.42-4.35h0.14l-0.42,3.79h7.43
		c0.14-1.82,0.28-3.65,0.7-5.33L511.44,296.98"/>
	<path id="XMLID_82_" class="st0" d="M85.99,321.25H23.15v-1.68l46.29-1.82c8.84-0.28,17.25-0.84,25.53-3.65
		c16.97-5.61,30.44-17.25,34.37-31.42c4.21-15.29-5.47-30.16-23.99-31.42c15.57-4.63,28.9-14.45,32.54-27.21
		c4.63-16.55-3.79-24.83-17.81-27.91c23.43-0.42,41.66,7.43,35.49,29.88c-3.51,12.76-17.11,22.44-32.68,26.65
		c18.24,1.4,28.2,18.66,23.43,33.81c-5.05,15.71-17.67,25.53-34.65,31.14C103.38,320.55,94.83,320.97,85.99,321.25"/>
	<path id="XMLID_83_" class="st0" d="M53.02,313.4l-29.74,1.4c0-0.7,0-0.98-0.14-1.68l75.05-21.6v-1.26l-76.03,18.24
		c-0.28-0.7-0.28-0.84-0.56-1.54l79.82-44.33l-0.56-1.26l-81.64,41.8c-0.56-0.7-0.42-0.7-0.98-1.4l94.97-89.49l-0.84-0.98
		l-97.63,87.39c-0.42-0.28-0.7-0.56-1.12-0.84l69.3-101.14l-1.26-0.28L9.4,296l-1.26-0.42l39.7-97.77l-0.98-0.14L2.1,294.74
		c-0.56,0-1.12,0-1.68,0H0l28.76-104.08l53.87,0.14c25.53-1.4,45.59,5.47,39,29.18c-3.51,12.76-16.83,22.58-32.4,26.93l-0.14,0.28
		c18.38,1.26,28.76,16.13,24.55,31.42c-3.93,14.31-18.1,25.39-35.07,31C70.28,312.56,61.86,313.12,53.02,313.4"/>
</g>
</svg>
