<?xml version="1.0" encoding="UTF-8"?>
<svg xmlns="http://www.w3.org/2000/svg" xmlns:xlink="http://www.w3.org/1999/xlink" width="2500px" height="1250px" viewBox="0 0 2500 1250" version="1.1">
<g id="surface1">
<path style=" stroke:none;fill-rule:nonzero;fill:rgb(9.019608%,43.529412%,75.686275%);fill-opacity:1;" d="M 337.5 741.25 L 799 741.25 L 799 508.75 L 337.5 508.75 Z M 337.5 741.25 "/>
<path style=" stroke:none;fill-rule:nonzero;fill:rgb(9.019608%,43.529412%,75.686275%);fill-opacity:1;" d="M 811 509.25 L 2162.5 509.25 L 2162.5 741.5 L 811 741.5 Z M 811 509.25 "/>
<path style=" stroke:none;fill-rule:nonzero;fill:rgb(100%,100%,100%);fill-opacity:1;" d="M 2048.5 676 L 2048.5 676.75 L 2046 680.5 L 2045 681 L 2044.5 681.75 L 2039.5 684.25 L 2039 684.25 L 2038.5 684.5 L 2037.5 684.5 L 2037 684.75 L 2028.5 684.75 L 2028 684.5 L 2027.5 684.5 L 2025 683.25 L 2025 682.5 L 2024 681.5 L 2023.5 680.75 L 2023.5 677.25 L 2025 675 L 2025.5 674.5 L 2026 673.75 L 2027 673 L 2033 670 L 2033.5 670 L 2034.5 669.75 L 2035 669.5 L 2042 669.5 L 2042.5 669.75 L 2043.5 669.75 L 2047 671.5 L 2048.5 673 L 2049 673.75 L 2049 676 Z M 2053.5 661.5 L 2052.5 664.75 L 2051.5 663.75 L 2051 663.5 L 2050.5 663 L 2049.5 662.75 L 2049 662.5 L 2042 660.75 L 2034 660.75 L 2032.5 661 L 2031 661 L 2023.5 662.25 L 2022.5 662.5 L 2021 663 L 2020 663.5 L 2018.5 664 L 2017.5 664.5 L 2016 665 L 2015 665.5 L 2013.5 666 L 2007.5 670.5 L 2007 671.25 L 2006 672 L 2003 676.5 L 2002.5 677.5 L 2001.5 679 L 2001.5 682.75 L 2002 683.5 L 2002 684.25 L 2004 687.25 L 2004.5 687.75 L 2005 688.5 L 2006 689.25 L 2006.5 689.75 L 2011.5 692.25 L 2016.5 693.5 L 2018 693.75 L 2029 693.75 L 2034 692.5 L 2034.5 692.5 L 2035 692.25 L 2037 691.75 L 2041 689.75 L 2041.5 689.25 L 2042 689.25 L 2040.5 692.75 L 2060 692.75 L 2071.5 661.25 L 2053.5 661.25 Z M 2003.5 652.5 L 2005 651 L 2005.5 650.25 L 2006 649.75 L 2006 647.5 L 2004 645.5 L 2002.5 644.75 L 1998.5 643.75 L 1994.5 643.75 L 1989.5 645 L 1985.5 647 L 1983.5 649 L 1983.5 652.5 L 1985.5 654.5 L 1986 654.75 L 1989 655.5 L 1995.5 655.5 L 1999.5 654.5 Z M 1969 693.25 L 1980.5 661.75 L 2000 661.75 L 1988 693.25 Z M 1944 676 L 1944 677.5 L 1942 680.5 L 1941 681 L 1940 681.75 L 1935 684.25 L 1934.5 684.25 L 1934 684.5 L 1933.5 684.5 L 1933 684.75 L 1923.5 684.75 L 1923 684.5 L 1922.5 684.5 L 1919.5 683 L 1918.5 682 L 1918 681.25 L 1917.5 680.75 L 1917.5 678.5 L 1919.5 675.5 L 1920 675 L 1920.5 674.25 L 1921.5 673.5 L 1927.5 670.5 L 1928 670.5 L 1928.5 670.25 L 1929.5 670 L 1936.5 670 L 1937 670.25 L 1938 670.25 L 1941.5 672 L 1943 673.5 L 1943 676 Z M 1956.5 642 L 1948 664.75 L 1947 663.75 L 1944 662.25 L 1937 660.5 L 1935 660.25 L 1929 660.25 L 1927.5 660.5 L 1926 660.5 L 1917 662 L 1914 663 L 1913 663.5 L 1911.5 664 L 1910.5 664.5 L 1909 665 L 1908 665.5 L 1899 672.25 L 1898 673.75 L 1900 675 L 1899 676.5 L 1898.5 677.5 L 1897.5 679 L 1897.5 683.5 L 1900 687.25 L 1900.5 687.75 L 1901 688.5 L 1902 689.25 L 1908 692.25 L 1912 693.25 L 1915 693.75 L 1926 693.75 L 1930 692.75 L 1931.5 692.5 L 1932 692.5 L 1935 691.75 L 1940 689.25 L 1940.5 689.25 L 1939 692.75 L 1958.5 692.75 L 1977.5 641.5 L 1956.5 641.5 Z M 1891 667.75 L 1891 670.75 L 1890.5 672.25 L 1890.5 673 L 1890 673.75 L 1883 693.25 L 1863.5 693.25 L 1869 677.75 L 1869 671.25 L 1868.5 670.75 L 1868.5 670.25 L 1866.5 669.25 L 1866 669.25 L 1865.5 669 L 1864.5 668.75 L 1856.5 668.75 L 1856 669 L 1855.5 669 L 1852 670.75 L 1850.5 672.25 L 1848 676 L 1842 692.25 L 1822.5 692.25 L 1834 660.75 L 1853.5 660.75 L 1852 664.75 L 1852.5 664.75 L 1853.5 664 L 1859.5 661 L 1862.5 660.25 L 1867 659.5 L 1877 659.5 L 1884 661.25 L 1885.5 662 L 1889 665.5 L 1889 666 L 1889.5 666.5 Z M 1808.5 646.75 L 1791 693.25 L 1812 693.25 L 1829 646.75 Z M 1764.5 642 L 1763.5 641.75 L 1752.5 641.75 L 1743.5 643.25 L 1740.5 644.25 L 1739.5 644.75 L 1738 645.25 L 1731 648.75 L 1727.5 652.25 L 1727 653.25 L 1725.5 657 L 1724 661 L 1717 661 L 1713.5 670.25 L 1720.5 670.25 L 1712 692.75 L 1731.5 692.75 L 1740 670.25 L 1753.5 670.25 L 1757 661 L 1743.5 661 L 1745.5 656 L 1746 655.25 L 1746 654.75 L 1748.5 652.25 L 1751 651 L 1752 650.75 L 1757 650.75 L 1757.5 651 L 1758 651 L 1758.5 651.25 L 1759.5 651.25 L 1760 651.5 L 1760.5 651.5 L 1764 642 L 1763 641.75 Z M 1689.5 676 L 1689.5 676.75 L 1687 680.5 L 1686.5 681 L 1685.5 681.75 L 1680.5 684.25 L 1680 684.25 L 1679.5 684.5 L 1679 684.5 L 1678.5 684.75 L 1669.5 684.75 L 1669 684.5 L 1668.5 684.5 L 1665.5 683 L 1664.5 682 L 1664 681.25 L 1664 678.5 L 1666 675.5 L 1666.5 675 L 1667 674.25 L 1668 673.5 L 1674 670.5 L 1674.5 670.5 L 1675.5 670 L 1683 670 L 1683.5 670.25 L 1684.5 670.25 L 1688 672 L 1689.5 673.5 L 1690 674.25 L 1690 676 Z M 1710 672 L 1707 667.5 L 1706.5 667 L 1705.5 666.25 L 1699.5 663.25 L 1697 662.5 L 1686.5 660.75 L 1675.5 660.75 L 1669.5 661.75 L 1666.5 662.5 L 1665 662.75 L 1654.5 666.25 L 1653 667 L 1651.5 667.5 L 1646.5 671.25 L 1646 672 L 1645 673 L 1644.5 673.75 L 1641 680.75 L 1641 684.25 L 1643.5 688 L 1644.5 688.75 L 1650.5 691.75 L 1652 692.25 L 1654 692.75 L 1663 694.25 L 1675.5 694.25 L 1686 692.5 L 1689 691.75 L 1693.5 690.25 L 1696.5 689 L 1698 688.25 L 1699.5 687.75 L 1706.5 682.5 L 1707 681.75 L 1707.5 680.75 L 1708 680 L 1710 676 Z M 1587 661.5 L 1562.5 673 L 1574 642 L 1554.5 642 L 1535.5 693.25 L 1555 693.25 L 1560 680.25 L 1576.5 693.25 L 1604 693.25 L 1581 676.25 L 1614 661.75 L 1587 661.75 Z M 1531 667.75 L 1531 666.75 L 1527 662.75 L 1525.5 662 L 1519.5 660.5 L 1509 660.5 L 1507.5 660.75 L 1506.5 661 L 1504 661.5 L 1503 661.75 L 1497 664.75 L 1496 665.5 L 1495.5 665.5 L 1497 661.5 L 1477.5 661.5 L 1466 693 L 1485.5 693 L 1491.5 676.75 L 1494 673 L 1495 672 L 1499 670 L 1499.5 670 L 1500.5 669.5 L 1508 669.5 L 1509 669.75 L 1510 669.75 L 1510.5 670 L 1510.5 670.25 L 1511 670.5 L 1511 678 L 1505.5 693.5 L 1525 693.5 L 1532 674 L 1532 668.75 Z M 1439.5 676 L 1439.5 677.5 L 1437 681.25 L 1431 684.25 L 1430.5 684.25 L 1429 685 L 1421 685 L 1420 684.5 L 1419.5 684.5 L 1417 683.25 L 1417 683 L 1415.5 681.5 L 1415.5 678 L 1417.5 675 L 1418 674.5 L 1418.5 673.75 L 1425.5 670.25 L 1426.5 670.25 L 1427.5 670 L 1432.5 670 L 1433 670.25 L 1433.5 670.25 L 1437 672 L 1438.5 673.5 L 1439 674.25 L 1439 676 Z M 1443.5 664.5 L 1442.5 663.5 L 1442 663.25 L 1441.5 662.75 L 1440 662.5 L 1432 660.5 L 1424 660.5 L 1413.5 662.25 L 1407.5 664.25 L 1404.5 665.75 L 1395.5 672.5 L 1391.5 678.5 L 1391.5 684.5 L 1393.5 687.5 L 1394 688 L 1395.5 690.25 L 1397 691.25 L 1400 692.75 L 1405 694 L 1408 694.5 L 1418.5 694.5 L 1422.5 693.5 L 1423.5 693.5 L 1425.5 693 L 1430.5 690.5 L 1431 690.5 L 1429.5 694 L 1449 694 L 1460.5 662.5 L 1441 662.5 Z M 1367 659.75 L 1367 660.5 L 1366 662 L 1365 663 L 1361.5 664.75 L 1361 664.75 L 1357 665.75 L 1350 665.75 L 1353.5 656.75 L 1361 656.75 L 1365 657.75 L 1365.5 658 L 1366 658 L 1367 658.5 L 1367 660.25 Z M 1366 677.5 L 1366 678.25 L 1365 679.75 L 1362.5 682.25 L 1357.5 683.5 L 1355.5 683.75 L 1354.5 684 L 1344.5 684 L 1348 674 L 1360 674 L 1364 675 L 1364.5 675.25 L 1365 675.25 L 1366 675.75 Z M 1387 653 L 1387 652.5 L 1385 650.5 L 1385 650 L 1384.5 649.5 L 1384 649.25 L 1383 649 L 1382.5 648.75 L 1381.5 648.5 L 1381 648.25 L 1375 646.75 L 1337.5 646.75 L 1320.5 693.25 L 1360.5 693.25 L 1375.5 690.75 L 1377.5 690.25 L 1383.5 687.25 L 1384.5 686.5 L 1385.5 686 L 1389 680.75 L 1389.5 679.5 L 1389.5 674.75 L 1389 674.25 L 1388.5 673.25 L 1388 672.5 L 1387.5 672 L 1383.5 670 L 1378.5 668.75 L 1376.5 668.75 L 1378 668.25 L 1384 665.25 L 1384.5 664.75 L 1385 664 L 1385.5 663.5 L 1388.5 659 L 1388.5 654 Z M 1250.5 693 L 1270 693 L 1289 641.75 L 1269.5 641.75 Z M 1225 676 L 1225 676.75 L 1224.5 677.5 L 1224 679 L 1222.5 681.25 L 1222 681.75 L 1217 684.25 L 1216.5 684.25 L 1215 685 L 1207.5 685 L 1206.5 684.5 L 1206 684.5 L 1203 683 L 1201.5 681.5 L 1201.5 678 L 1203.5 675 L 1204.5 674.5 L 1205 673.75 L 1212 670.25 L 1213 670.25 L 1214 670 L 1219.5 670 L 1220 670.25 L 1220.5 670.25 L 1224 672 L 1225.5 673.5 L 1226 674.25 L 1226 675 Z M 1229 664.5 L 1228 663.5 L 1227.5 663.25 L 1227 662.75 L 1226 662.5 L 1225.5 662.25 L 1218.5 660.5 L 1216.5 660.25 L 1210.5 660.25 L 1200 662 L 1194 664 L 1191 665.5 L 1184 670.75 L 1183.5 671.5 L 1182.5 672.25 L 1179 677.5 L 1179 684.25 L 1181 687.25 L 1182 688.5 L 1182.5 689.25 L 1183.5 690 L 1184 690.5 L 1188 692.5 L 1192 693.5 L 1196.5 694.25 L 1207 694.25 L 1211 693.25 L 1212 693.25 L 1214 692.75 L 1219 690.25 L 1219.5 690.25 L 1218.5 693.75 L 1238 693.75 L 1249.5 662.25 L 1230 662.25 Z M 1178.5 661 L 1182.5 661 L 1178.5 671.75 L 1178 671.75 L 1177 671.25 L 1175 670.75 L 1165.5 670.75 L 1164.5 671 L 1163.5 671 L 1162.5 671.25 L 1161.5 671.75 L 1160.5 672 L 1157.5 673.5 L 1155.5 675 L 1154.5 676.5 L 1155 677.5 L 1153.5 680.5 L 1148.5 693.25 L 1129 693.25 L 1140.5 661.75 L 1160 661.75 L 1158 667 L 1158.5 667 L 1160.5 665.5 L 1163.5 664 L 1165 663.5 L 1166 663 L 1168.5 662.25 L 1174.5 661.25 L 1178.5 661.25 Z M 1134.5 661.5 L 1123.5 661.5 L 1127 652 L 1107.5 652 L 1104 661.5 L 1097.5 661.5 L 1094 670.75 L 1100.5 670.75 L 1092.5 693 L 1112 693 L 1120 670.75 L 1131 670.75 Z M 1085.5 667.75 L 1085.5 667.25 L 1085 666.75 L 1085 666.25 L 1081.5 662.75 L 1080 662 L 1074 660.5 L 1063 660.5 L 1061 661 L 1058.5 661.5 L 1057.5 661.75 L 1051.5 664.75 L 1050.5 665.5 L 1052 661.5 L 1032.5 661.5 L 1021 693 L 1040.5 693 L 1046.5 676.75 L 1049 673 L 1050.5 671.5 L 1053.5 670 L 1054 670 L 1055 669.5 L 1056 669.25 L 1062 669.25 L 1063 669.5 L 1064 669.5 L 1065 670 L 1065 670.25 L 1065.5 670.5 L 1065.5 670.75 L 1066 671.25 L 1066 677.75 L 1060.5 693.25 L 1080 693.25 L 1087 673.75 L 1087.5 672.25 L 1087.5 668.5 Z M 978 672.75 L 1000.5 672.75 L 1000.5 671.25 L 999 669.75 L 998.5 669.5 L 998 669 L 997 668.5 L 994 667.75 L 987 667.75 L 982 669 L 981 669.5 L 980.5 670 L 979.5 670.5 L 978 672 Z M 1017.5 671.5 L 1017.5 676.25 L 1016.5 678.25 L 1016 679.5 L 975 679.5 L 975 683.25 L 976 684.25 L 976 684.5 L 979.5 686.25 L 990 686.25 L 994 684.25 L 994.5 683.75 L 1013.5 683.75 L 1012.5 685.25 L 1012 685.75 L 1011.5 686.5 L 1010.5 687 L 1010 687.5 L 1003 691 L 1001 691.75 L 990 694.5 L 989 694.5 L 988 694.75 L 979 694.75 L 970 693.25 L 967.5 692.5 L 966.5 692 L 964.5 691.25 L 960.5 689.25 L 957.5 684.75 L 957.5 679.5 L 960 674.5 L 960.5 673.75 L 961 672.75 L 961.5 672 L 968.5 666.75 L 970.5 665.75 L 979.5 662.75 L 990 661 L 999.5 661 L 1001 661.25 L 1002.5 661.25 L 1008.5 662.25 L 1010.5 662.75 L 1016.5 665.75 L 1017.5 667.25 L 1018 667.75 L 1020 670.75 L 1020 671.5 Z M 959 647.75 L 953 646.25 L 950.5 646 L 949.5 646 L 947.5 645.5 L 938.5 645.5 L 930.5 646.5 L 920.5 649 L 918.5 649.75 L 916.5 650.25 L 908.5 653.25 L 905 655 L 897.5 660 L 895.5 662.5 L 893.5 664.5 L 892.5 665.75 L 892 667 L 890 667.5 L 888 672.5 L 888 678.5 L 888.5 679.75 L 890 682.75 L 894 686.75 L 901.5 690.5 L 906 692 L 910 693 L 918 694 L 932 694 L 944 692 L 949.5 677.5 L 942.5 681 L 936.5 682 L 935.5 682.25 L 934 682.5 L 927 682.5 L 926 682.25 L 925 682.25 L 918 680.5 L 917.5 680.25 L 916.5 680 L 912.5 676 L 912.5 675.5 L 912 675 L 912 670 L 912.5 669.25 L 913 668.75 L 914 667.25 L 915.5 665.75 L 916.5 664.5 L 917 664 L 918 663.5 L 918.5 663 L 925.5 659.5 L 934.5 657.25 L 944 657.25 L 945.5 657.5 L 949.5 658.5 L 954.5 661 L 955.5 662 Z M 959 647.75 "/>
<path style=" stroke:none;fill-rule:nonzero;fill:rgb(100%,100%,100%);fill-opacity:1;" d="M 2016.5 594 L 2019 580.75 L 2003.5 580.75 L 2004 581.25 L 2005 581.75 L 2006.5 583.25 L 2007 584 L 2007 586.5 L 2004.5 589 L 2003.5 589.75 L 2003 590.25 L 2002 590.5 L 2001.5 590.5 L 2001 590.75 L 1997 591.75 L 1991 592.75 L 1989.5 592.75 L 1987.5 593 L 1984 593 L 1984 594.5 L 1985.5 596.75 L 1986.5 597.75 L 1989.5 599.25 L 1990.5 599.5 L 1993.5 600 L 2004 600 L 2010 599 L 2014.5 597.5 L 2016.5 596.5 L 2018.5 595 Z M 1923 572 L 1923 570.25 L 1921 568.25 L 1920 567.75 L 1913 566 L 1897 566 L 1894 566.25 L 1891 566.25 L 1888 566.5 L 1883 567 L 1875 569 L 1870.5 571.25 L 1870.5 574.25 L 1871 574.75 L 1871 575 L 1871.5 575.25 L 1871.5 575.5 L 1874.5 575.5 L 1874.5 575.25 L 1919 575.25 L 1918.5 575 L 1920.5 574.5 L 1921.5 574 L 1923.5 572 Z M 1938 575.5 L 2086 575.5 L 2085 580.75 L 2075 580.75 L 2069.5 610.25 L 2050 610.25 L 2055.5 580.75 L 2037.5 580.75 L 2032 610.25 L 2013 610.25 L 2014.5 603.5 L 2010 605 L 2008.5 605.25 L 2007 605.75 L 2001 606.75 L 1999.5 606.75 L 1998 607 L 1995 607.25 L 1985.5 607.25 L 1981.5 606.75 L 1970.5 604 L 1970 603.75 L 1969 603.5 L 1968 603 L 1967 602.75 L 1966.5 602.25 L 1965.5 601.75 L 1962.5 598.75 L 1960.5 594.75 L 1960 593.5 L 1960 589.75 L 1963 589 L 1975 589 L 1976.5 588.75 L 1977.5 588.5 L 1979 588.25 L 1981 587.75 L 1984 586.25 L 1984 586 L 1984.5 585.75 L 1984.5 582.75 L 1984 582.5 L 1985 582.5 L 1981.5 580.75 L 1947.5 580.75 L 1946 588.75 L 1909 588.75 L 1908.5 589 L 1908.5 592 L 1910 592.75 L 1911 592.75 L 1912 593 L 1934 593 L 1936 593.25 L 1937 593.25 L 1938 593.5 L 1939 593.5 L 1941 594 L 1941.5 594.25 L 1943 594.75 L 1945 595.25 L 1945.5 595.5 L 1946.5 595.75 L 1947 596 L 1947.5 596.5 L 1948.5 597 L 1949 597.5 L 1949.5 597.75 L 1952 600.25 L 1952 604 L 1948 608 L 1946.5 609 L 1942.5 611 L 1940.5 611.75 L 1937.5 612.5 L 1936 612.75 L 1935 613 L 1929 614 L 1926 614.25 L 1917.5 614.25 L 1912.5 613.75 L 1909.5 613.5 L 1906 613.25 L 1902.5 612.75 L 1893.5 611.25 L 1891 610.75 L 1889.5 610.5 L 1885.5 609.5 L 1885 609.25 L 1882 608.5 L 1879 607 L 1885.5 599 L 1885.5 599.25 L 1888.5 600.75 L 1890 601.25 L 1894 602.25 L 1906.5 604.75 L 1911.5 605.25 L 1913.5 605.5 L 1924.5 605.5 L 1925.5 605.25 L 1926.5 605.25 L 1928.5 604.75 L 1931.5 603.25 L 1932 602.75 L 1932.5 602.5 L 1932.5 602.25 L 1932.5 602.5 L 1932.5 602.25 L 1929 600.5 L 1928.5 600.5 L 1928 600.25 L 1906 600.25 L 1904 600 L 1902 600 L 1900 599.5 L 1898.5 599.25 L 1893.5 598 L 1893 597.75 L 1892 597.5 L 1891.5 597.25 L 1891 596.75 L 1890.5 596.5 L 1889.5 595.5 L 1889 595.25 L 1887.5 593.75 L 1887 593.5 L 1887 591 L 1887.5 590.5 L 1887.5 590 L 1888 589.5 L 1888 589 L 1888.5 588.5 L 1889 588.25 L 1890 587.25 L 1891.5 586.5 L 1893.5 586 L 1894 585.75 L 1895 585.5 L 1898 584.5 L 1900 584 L 1906 583.25 L 1928.5 583.25 L 1929 580.75 L 1875 580.75 L 1869.5 610.25 L 1850.5 610.25 L 1856 580.75 L 1846 580.75 L 1847 575.5 L 1854.5 575.5 L 1853.5 575 L 1853.5 572.5 L 1856.5 568 L 1857.5 567.25 L 1858 566.5 L 1859 566 L 1860 565.25 L 1863 563.75 L 1869 561.75 L 1870.5 561.5 L 1872 561 L 1886 559.25 L 1913 559.25 L 1920.5 560 L 1930.5 561.25 L 1935 562.75 L 1939 564.75 L 1941.5 567.25 L 1942 568.5 L 1942.5 569.25 L 1942.5 574 L 1939 575.75 Z M 1848 571.75 L 1851 570.25 L 1852.5 568.75 L 1853 568 L 1853 565.25 L 1851 563.25 L 1848 561.75 L 1844 560.75 L 1838.5 560.75 L 1834 561.5 L 1833 562 L 1832 562.25 L 1830.5 562.75 L 1826.5 564.75 L 1826 565.25 L 1825 566.75 L 1825 569.75 L 1825.5 570 L 1825.5 570.25 L 1830 572.5 L 1832 573 L 1833.5 573.25 L 1834.5 573.5 L 1836 573.75 L 1842 573.75 L 1846 572.75 Z M 1761.5 580.75 L 1812.5 580.75 L 1812 583.5 L 1784.5 583.5 L 1780.5 584 L 1776 584.75 L 1774.5 585.25 L 1770.5 586.25 L 1768 587.5 L 1767 588.5 L 1766.5 588.75 L 1766 589.5 L 1765.5 590 L 1765.5 591.75 L 1766 592.25 L 1766 593 L 1769.5 594.75 L 1770.5 595 L 1771 595.25 L 1772 595.5 L 1773.5 596 L 1779.5 597 L 1781.5 597.25 L 1805.5 597.25 L 1805.5 597.5 L 1806 597.5 L 1806 599.25 L 1805.5 599.75 L 1803.5 600.75 L 1802.5 601 L 1784.5 601 L 1779.5 600.5 L 1773.5 599.75 L 1765.5 597.75 L 1763 603.75 L 1766 604.75 L 1768 605 L 1769.5 605.25 L 1771.5 608.25 L 1772.5 609.5 L 1775 612 L 1776 612.75 L 1777.5 613.5 L 1781.5 614.5 L 1787.5 615.5 L 1789.5 615.5 L 1791.5 615.75 L 1810 615.75 L 1811.5 609.75 L 1798.5 609.75 L 1797 609.5 L 1794 608.75 L 1792.5 608 L 1792.5 607.5 L 1793 607.5 L 1793 607 L 1810.5 607 L 1814.5 606.5 L 1822 605.25 L 1825 603.75 L 1825.5 603.25 L 1826 603 L 1826.5 602.5 L 1827.5 602 L 1829.5 600 L 1829.5 599.5 L 1830 599 L 1830 596.5 L 1829.5 595.75 L 1829 595.25 L 1828.5 595 L 1828 594.5 L 1825 593 L 1824 592.75 L 1823 592.25 L 1818.5 591.5 L 1815 592.5 L 1787.5 592.5 L 1787 592.25 L 1787 590.75 L 1789.5 589.5 L 1829.5 589.5 L 1831 581.25 L 1842 581.25 L 1843 576 L 1762.5 576 Z M 1652 607.75 L 1652 610.75 L 1650 612.75 L 1650 612.5 L 1644 614 L 1639 614 L 1637.5 613.75 L 1633.5 612.75 L 1635 612.5 L 1634 612 L 1633 611 L 1633 609 L 1635.5 606.5 L 1636 606.25 L 1642 604.75 L 1647 604.75 L 1650 605.5 L 1650.5 605.75 L 1651.5 606 L 1652 606.25 L 1652.5 606.75 L 1653.5 607.25 Z M 1643 592 L 1643 591 L 1643.5 589.25 L 1644.5 586.25 L 1645.5 583.75 L 1645.5 581.25 L 1664 581.25 L 1661.5 594 L 1659.5 595 L 1657.5 595.5 L 1657 595.75 L 1654 596.5 L 1647 596.5 L 1646 596.25 L 1645 596.25 L 1642 594.75 L 1642 594.25 L 1641.5 593.75 L 1641.5 592 Z M 1621.5 580.75 L 1627 580.75 L 1627 583 L 1626.5 584.25 L 1626 585.75 L 1625.5 587.5 L 1625 589.5 L 1624.5 591.75 L 1624.5 594.75 L 1629 599.25 L 1630 599.75 L 1630.5 600.25 L 1631.5 600.75 L 1640.5 603 L 1642.5 603.25 L 1651.5 603.25 L 1653.5 603 L 1658 602.25 L 1659.5 601.75 L 1658 609.5 L 1677 609.5 L 1680 593.5 L 1682.5 592.25 L 1683.5 592 L 1684.5 591.5 L 1685.5 591.25 L 1686 591 L 1687 590.75 L 1689 590.75 L 1690 590.5 L 1697 590.5 L 1701 591.5 L 1702 592 L 1702.5 592.5 L 1703 592.75 L 1703.5 593.25 L 1703.5 595.25 L 1703 595.75 L 1702.5 596 L 1702 596.5 L 1700 597.5 L 1697 598.25 L 1686.5 598.25 L 1685 605.25 L 1685.5 605.5 L 1686 605.5 L 1687.5 606.25 L 1703 606.25 L 1715 603.25 L 1717 602.25 L 1718 602 L 1720 601 L 1722.5 598.5 L 1723 597.25 L 1723.5 596.75 L 1724 596 L 1724 591.75 L 1723.5 590.5 L 1720 587 L 1716 585 L 1707 582.75 L 1706 582.75 L 1704.5 582.5 L 1698 582.5 L 1688 583.75 L 1684 584.75 L 1685 579.25 L 1729.5 579.25 L 1730.5 574 L 1624.5 574 Z M 1623.5 573.5 L 1627.5 572.5 L 1632 571 L 1637 567.25 L 1641 563.25 L 1620.5 563.25 L 1620.5 564.25 L 1620 564.75 L 1618 565.75 L 1614 566.75 L 1612.5 567 L 1602 567 L 1600.5 566.75 L 1600 566.75 L 1599.5 566.5 L 1598.5 566.5 L 1594.5 564.5 L 1594.5 563.25 L 1574 563.25 L 1576 567.25 L 1577 568.75 L 1581 571.75 L 1582 572.25 L 1583.5 572.75 L 1589.5 574.25 L 1594 575 L 1595.5 575 L 1597 575.25 L 1613 575.25 L 1614.5 575 L 1616 575 L 1622 574 Z M 1540 580.75 L 1541 575.75 L 1618 575.75 L 1617 581 L 1607 581 L 1601.5 610.5 L 1582.5 610.5 L 1588 581 L 1578 581 L 1578 580.75 L 1570.5 580.75 L 1565 610.5 L 1546 610.5 L 1549 595.75 L 1534.5 595.75 L 1535 591.75 L 1535.5 589 L 1550 589 L 1551.5 580.75 Z M 1535.5 598.5 L 1535.5 597.25 L 1533 594.75 L 1528 592.25 L 1526.5 591.75 L 1530.5 590.75 L 1531.5 590.25 L 1533.5 589.75 L 1536.5 586.75 L 1536.5 585.75 L 1537 585.25 L 1537 583 L 1534 580 L 1533 579.5 L 1532.5 579 L 1531.5 578.5 L 1521.5 576 L 1520.5 576 L 1515.5 575.5 L 1506.5 575.5 L 1505 575.75 L 1495 577 L 1491 578 L 1489 578.25 L 1487 578.75 L 1492.5 585.5 L 1496.5 584.5 L 1504.5 583.5 L 1508.5 583.25 L 1513.5 583.25 L 1517 585 L 1517 587 L 1514.5 588.25 L 1514 588.25 L 1513.5 588.5 L 1497 588.5 L 1496 594.5 L 1512.5 594.5 L 1513 594.75 L 1513.5 594.75 L 1516.5 596.25 L 1516.5 598.25 L 1514.5 600.25 L 1513.5 600.75 L 1512.5 601 L 1512 601.25 L 1510 602.5 L 1509 602.75 L 1508 602.75 L 1507 603 L 1500 603 L 1498 602.75 L 1490 600.75 L 1489 600.25 L 1487 599.75 L 1479 595.75 L 1469 602.25 L 1469.5 602.75 L 1476 606 L 1485 609 L 1497 611 L 1513 611 L 1517.5 610.25 L 1518.5 610 L 1520 609.75 L 1526 608.25 L 1527 607.75 L 1529 607.25 L 1529.5 606.75 L 1530.5 606.25 L 1534 602.75 L 1534 598.25 Z M 1336.5 580.75 L 1380 580.75 L 1377 596.25 L 1374.5 597.5 L 1373 598 L 1370 598.75 L 1369 598.75 L 1368 599 L 1361.5 599 L 1357.5 597 L 1357.5 594.5 L 1358 594 L 1358 593.5 L 1358.5 593 L 1361.5 591.5 L 1364.5 590.75 L 1370.5 590.75 L 1373.5 591.5 L 1375.5 592.5 L 1377 585.25 L 1375.5 584.5 L 1374.5 584.25 L 1374 584 L 1373.5 584 L 1371.5 583.5 L 1357.5 583.5 L 1352.5 584.75 L 1350 585 L 1348 585.5 L 1347 586 L 1346 586.25 L 1344 587.25 L 1343.5 587.75 L 1342.5 588.25 L 1337.5 593.25 L 1337.5 599 L 1338 599.5 L 1338 600 L 1342.5 604.5 L 1343 604.75 L 1352 607 L 1362 607 L 1372 606 L 1374.5 605.5 L 1376.5 605 L 1375.5 610.75 L 1394.5 610.75 L 1397.5 594.75 L 1398 594.25 L 1398.5 594 L 1399 593.5 L 1400 593 L 1401 592.75 L 1402.5 592 L 1403.5 591.75 L 1404 591.5 L 1404.5 591.5 L 1405.5 591.25 L 1413 591.25 L 1416 592.75 L 1416 593 L 1416.5 593.75 L 1416.5 596.75 L 1415.5 597.75 L 1415 598 L 1414.5 598.5 L 1412.5 599.5 L 1406 599.5 L 1405 599.25 L 1403 599.25 L 1401 598.75 L 1399.5 607.5 L 1401 608.25 L 1414 608.25 L 1424 605.75 L 1425 605.25 L 1426 605 L 1431 602.5 L 1433.5 600 L 1434.5 598.75 L 1434.5 598.25 L 1435 597.5 L 1435.5 596.25 L 1435.5 591.75 L 1431.5 587.75 L 1427.5 585.75 L 1425.5 585.25 L 1424.5 584.75 L 1418.5 583.25 L 1409 583.25 L 1403 584 L 1397 585.5 L 1398 580.25 L 1450 580.25 L 1451 575 L 1337.5 575 Z M 1338.5 573.5 L 1337 573.5 L 1332 572.25 L 1330 571.25 L 1329.5 570.75 L 1328 570 L 1328 566.5 L 1329 565 L 1330 564 L 1334 562 L 1335 561.75 L 1336 561.25 L 1340.5 560.5 L 1346.5 560.5 L 1350.5 561.5 L 1353.5 563 L 1355.5 565 L 1355.5 567 L 1354.5 568.5 L 1353 570 L 1352 570.5 L 1351.5 571 L 1348.5 572.5 L 1344.5 573.5 Z M 1283 598 L 1281 598.25 L 1272 598.25 L 1270 597.75 L 1269.5 597.75 L 1267.5 596.75 L 1267 596.25 L 1267 593 L 1270.5 591.25 L 1275.5 593.5 L 1284.5 597.5 Z M 1331 575.5 L 1326 575.5 L 1317.5 567 L 1316.5 566.25 L 1315 565.5 L 1313.5 564.5 L 1303.5 559.5 L 1299 558 L 1300 557.5 L 1286.5 563 L 1290.5 564 L 1292.5 564.75 L 1300 568.5 L 1307.5 573.5 L 1309.5 575.5 L 1303 575.5 L 1302.5 575.25 L 1301.5 574.25 L 1297 571.25 L 1291 568.25 L 1285 566 L 1276 572.25 L 1279 572.25 L 1280 572.5 L 1280.5 572.75 L 1281.5 573 L 1283 573.75 L 1285 575.25 L 1247.5 575.25 L 1246.5 580.5 L 1298 580.5 L 1295.5 594.75 L 1294.5 595 L 1294 595.25 L 1293 595.5 L 1292.5 595.5 L 1291.5 596 L 1278 589.5 L 1285 589.5 L 1286.5 589.75 L 1288.5 590 L 1291.5 590.5 L 1293 590.5 L 1294.5 584.5 L 1293.5 584 L 1293 584 L 1292.5 583.75 L 1291 583.5 L 1289 583.25 L 1286.5 583 L 1271.5 583 L 1269 583.25 L 1268 583.5 L 1266.5 583.75 L 1258.5 585.75 L 1252.5 588.75 L 1250.5 590.75 L 1250 591.5 L 1249.5 592 L 1248.5 593.5 L 1248.5 598.25 L 1252 601.75 L 1256 603.75 L 1263 605.5 L 1264 605.5 L 1266 606 L 1282 606 L 1283.5 605.75 L 1285 605.75 L 1294 604.25 L 1296 603.75 L 1294.5 610.75 L 1313.5 610.75 L 1319 581.25 L 1331.5 581.25 L 1332.5 577.5 Z M 983.5 575.5 L 1228.5 575.5 L 1227.5 580.75 L 1209.5 580.75 L 1208 587 L 1209 587.5 L 1209.5 588 L 1211 589 L 1212 590 L 1212.5 590.75 L 1213 591.25 L 1213.5 592 L 1213.5 598.25 L 1210 603.5 L 1209.5 604 L 1208.5 604.75 L 1208 605.25 L 1205 606.75 L 1205 607.5 L 1199 610.5 L 1193 612 L 1178.5 612 L 1176.5 611.75 L 1174.5 611.75 L 1174 611.5 L 1173.5 611.5 L 1173 611.25 L 1172.5 611.25 L 1171.5 610.75 L 1173 603.5 L 1174 604 L 1177 604.5 L 1179 604.75 L 1185.5 604.75 L 1187.5 604.25 L 1189.5 603.5 L 1190.5 603.25 L 1192.5 601.25 L 1194.5 598.25 L 1194.5 594 L 1194 593.5 L 1194 593 L 1193.5 592.5 L 1192 591.75 L 1192 591.5 L 1190.5 590.75 L 1184 590.75 L 1180 591.75 L 1178 592.75 L 1177.5 593.5 L 1176 595 L 1175.5 598.25 L 1157.5 598.25 L 1158.5 594.5 L 1158.5 593.25 L 1157 592.5 L 1156 592.25 L 1155.5 592 L 1154.5 591.75 L 1148.5 591.75 L 1148 592 L 1147 592 L 1143 594 L 1141 596 L 1139.5 598.25 L 1139.5 602 L 1140 602.75 L 1140.5 603.25 L 1142.5 604.25 L 1143 604.75 L 1146 605.5 L 1147 605.5 L 1148 605.75 L 1151 605.75 L 1154 605 L 1158.5 604.25 L 1160 603.75 L 1158.5 611.75 L 1157 612.5 L 1156.5 612.5 L 1153.5 613 L 1151.5 613.25 L 1140.5 613.25 L 1131.5 611 L 1128.5 609.5 L 1127 608.5 L 1126 608 L 1125 607 L 1124.5 606.25 L 1124 605.75 L 1122.5 603.5 L 1120 602.5 L 1120 596.5 L 1123 592 L 1124.5 590.75 L 1125.5 590 L 1132.5 586.5 L 1141.5 584.25 L 1143 584 L 1154.5 584 L 1160.5 585 L 1162.5 585.5 L 1167.5 588 L 1168.5 588.75 L 1169.5 588 L 1171 587.25 L 1172.5 586.25 L 1174.5 585.25 L 1176 584.75 L 1179 584.25 L 1182 583.5 L 1190 583.5 L 1190.5 580 L 1107.5 580 L 1105.5 589.75 L 1081.5 589.75 L 1075.5 590.75 L 1072.5 591.5 L 1071.5 592 L 1071 592.5 L 1070 593 L 1068.5 594.5 L 1068 595.25 L 1068 598.25 L 1068.5 598.5 L 1068.5 598.75 L 1072.5 600.75 L 1076.5 601.75 L 1078 602 L 1087 602 L 1088 601.75 L 1089 601.75 L 1094 600.5 L 1095.5 600.25 L 1099.5 599.25 L 1102.5 598.25 L 1107 596 L 1111.5 604.75 L 1101.5 607.75 L 1094 609.25 L 1091 609.75 L 1088.5 610 L 1087.5 610 L 1107.5 622 L 1094 627.5 L 1077.5 616.5 L 1058.5 625.5 L 1046.5 619.75 L 1070 609.75 L 1069 609.75 L 1061.5 608.5 L 1060 608 L 1059 607.75 L 1053 604.75 L 1051 603.25 L 1048 598.75 L 1048 594.5 L 1048.5 593.5 L 1051 589.75 L 1055 586.75 L 1062.5 584.25 L 1068.5 582.75 L 1074.5 582 L 1087.5 582 L 1088 579.25 L 976.5 579.25 L 971 608.75 L 952 608.75 L 954 597 L 935.5 597 L 936.5 590 L 955 590 L 957 579 L 935.5 579 L 936 579.25 L 936.5 579.75 L 938 580.5 L 938.5 581 L 938.5 588.75 L 937.5 590.25 L 934 593.75 L 931 595.25 L 922 597.5 L 921 597.5 L 920 597.75 L 913.5 597.75 L 913.5 599.25 L 916 601.75 L 916.5 602 L 920.5 603 L 930 603 L 932.5 602.75 L 935.5 602.5 L 937.5 602.25 L 939 602.25 L 940 602 L 940.5 602 L 939 609.25 L 938.5 609.25 L 937 609.5 L 934.5 609.75 L 933 610 L 917.5 610 L 915 609.75 L 907 608.75 L 905.5 608.5 L 904.5 608.25 L 897.5 604.75 L 897.5 604.25 L 896 601.25 L 896 596.75 L 896.5 595.75 L 890 595.75 L 891 589.5 L 913.5 589.5 L 917.5 588.5 L 919 587.75 L 921 585.75 L 921 583 L 920.5 582.5 L 920.5 582.25 L 920 582 L 920 581.5 L 919 581.25 L 918 580.75 L 916 580.25 L 889 580.25 L 890 575 L 965 575 L 964.5 574.5 L 958.5 570 L 957 569.25 L 955.5 568.75 L 952.5 567.5 L 946.5 565.5 L 944.5 565 L 957 559.5 L 959 560 L 960.5 560.25 L 961.5 560.5 L 963.5 561.5 L 965 562 L 966 562.5 L 967.5 563 L 972 565.25 L 973 566 L 974.5 566.75 L 975.5 567.5 L 977 568.25 L 979 570 L 984 575 Z M 1039 592.25 L 1039 591.75 L 1038.5 591.25 L 1035.5 589.75 L 1019.5 589.75 L 1022 591 L 1022 591.25 L 1022.5 591.5 L 1022.5 596.5 L 1020.5 597.5 L 1014.5 597.5 L 1014 597.25 L 1013.5 597.25 L 1010.5 595.75 L 1010.5 595.5 L 1010 595.25 L 1010 592.75 L 1012 590.75 L 1013.5 590 L 1016.5 589.25 L 1054.5 589.25 L 1055.5 583.75 L 1009 583.75 L 1001.5 585 L 1000 585.5 L 998.5 585.75 L 993.5 588.25 L 992.5 589 L 989 594.25 L 989 597.25 L 993.5 601.75 L 995.5 602.75 L 996.5 603 L 997.5 603.5 L 1005.5 605.5 L 1016.5 605.5 L 1017.5 605.25 L 1018.5 605.25 L 1019.5 605 L 1020.5 605 L 1029.5 602.75 L 1031.5 601.75 L 1032 601.25 L 1033 600.75 L 1037.5 596.25 L 1037.5 592.25 Z M 1039 592.25 "/>
<path style=" stroke:none;fill-rule:nonzero;fill:rgb(100%,100%,100%);fill-opacity:1;" d="M 380.5 530.25 L 756.5 530.25 L 756.5 719.5 L 380.5 719.5 Z M 380.5 530.25 "/>
<path style=" stroke:none;fill-rule:nonzero;fill:rgb(80.784314%,5.882353%,24.313725%);fill-opacity:1;" d="M 693 623.75 L 618.5 587.25 L 571 587.25 L 571 583 L 618.5 583 L 698 623.5 Z M 668.5 624 L 618.5 599.75 L 571 599.75 L 571 595.5 L 600.5 595.25 L 618.5 595.25 L 674 623.75 Z M 600.5 677.75 L 573 691.5 L 572 688.5 L 600.5 674 L 644.5 651.25 L 644.5 627.25 L 653 627.25 L 653.5 651.5 Z M 600.5 661.25 L 620 651 L 620 627 L 628.5 627 L 629 651.25 L 600.5 665.25 L 572.5 679 L 571.5 676.25 Z M 539 633 L 523 624.75 L 539 617 L 571.5 601 L 601 616.5 L 618 625.5 L 601 634 L 570 649.25 Z M 539 668.5 L 520.5 668.5 L 441 628 L 446.5 627.5 L 521 664 L 568.5 664 L 568.5 668.25 Z M 471 627.5 L 521 651.75 L 568.5 651.75 L 568.5 656 L 539 656.25 L 520.5 656.25 L 465 627.75 Z M 567.5 575.25 L 539 590.25 L 519.5 600.5 L 519.5 624.5 L 511 624.5 L 510.5 600.5 L 539 586.25 L 567 572.5 Z M 539 573.75 L 566.5 560.25 L 567.5 563 L 539.5 577.5 L 495.5 600.25 L 495.5 624.25 L 487 624.25 L 486.5 600.25 Z M 620.5 575.5 L 620.5 549.25 L 567.5 549.25 L 539 564.5 L 471.5 600 L 421 600 L 421 625.75 L 518.5 676.5 L 518.5 701.5 L 568 701.5 L 600 685.25 L 666 651.75 L 715 651.75 L 715 623.5 Z M 620.5 575.5 "/>
</g>
</svg>
