<?xml version="1.0" encoding="UTF-8"?>
<svg xmlns="http://www.w3.org/2000/svg" version="1.1" viewBox="0 0 512 512">
  <defs>
    <style>
      .cls-1 {
        fill: #fab90c;
      }

      .cls-1, .cls-2 {
        fill-rule: evenodd;
      }

      .cls-3 {
        fill: #fff;
      }

      .cls-2 {
        fill: #9e173b;
      }
    </style>
  </defs>
  <!-- Generator: Adobe Illustrator 28.6.0, SVG Export Plug-In . SVG Version: 1.2.0 Build 709)  -->
  <g>
    <g id="Layer_1">
      <g>
        <path class="cls-1" d="M230.09,154.85h254.42c13.59,0,24.81,11.75,24.81,26.1v150.37c0,14.34-11.22,26.1-24.8,26.1h-254.42c-13.62,0-24.74-11.76-24.74-26.09v-150.38c0-14.34,11.12-26.1,24.74-26.1"/>
        <path class="cls-3" d="M230.09,157.53c-12.16,0-22.05,10.5-22.05,23.41v150.38c0,12.9,9.89,23.41,22.05,23.41h254.42c12.2,0,22.13-10.51,22.13-23.41v-150.37c0-12.92-9.92-23.41-22.12-23.41h-254.42ZM484.51,360.09h-254.42c-15.1,0-27.41-12.9-27.41-28.77v-150.37c0-15.86,12.3-28.78,27.41-28.78h254.42c15.16,0,27.49,12.92,27.49,28.78v150.37c0,15.87-12.33,28.77-27.48,28.77"/>
        <path class="cls-2" d="M179.6,154.6H28.43c-14.13,0-25.74,11.73-25.74,26.07v150.51c0,14.33,11.62,26.07,25.74,26.07h151.17c14.21,0,25.75-11.74,25.75-26.07v-150.51c0-14.34-11.54-26.07-25.75-26.07"/>
        <path class="cls-3" d="M28.43,157.28c-12.72,0-23.05,10.49-23.05,23.39v150.51c0,12.9,10.33,23.38,23.05,23.38h151.17c12.71,0,23.09-10.49,23.09-23.39v-150.5c0-12.9-10.37-23.39-23.09-23.39H28.43ZM179.6,359.93H28.43c-15.68,0-28.43-12.9-28.43-28.75v-150.5c0-15.86,12.75-28.76,28.43-28.76h151.17c15.67,0,28.44,12.91,28.44,28.76v150.51c0,15.85-12.77,28.75-28.44,28.75"/>
        <g>
          <path class="cls-2" d="M442.02,297.03c22.74,0,41.33-18.29,41.33-40.64,0-27.34-27.82-45.09-54.13-36.67v18.28c14.35-8.42,33.56,0,33.56,16.93,0,11.86-10.38,21.83-22.24,21.83s-22.23-9.97-22.23-21.83c0-24.84-.53-49.64-.53-74.47h-17.45l.02,75.92.42,3.95c.64,19.86,19.1,36.17,41.25,36.7M320.86,294.11h17.87v-39.81c-1.46-23.27,36.69-25.26,35.65,0v39.81h18.07v-40.73c1.55-51.04-74.69-47.7-71.59,0v40.73ZM272.47,215.24c22.75,0,41.23,18.29,41.23,40.63,0,27.34-27.31,45.22-53.59,36.69v-18.3c13.92,8.43,32.93,0,32.93-16.83,0-11.94-9.78-21.92-22.12-21.92s-22.13,9.98-22.13,21.92c0,24.73-.51,49.04-.51,73.86h-17.06v-79.36c.51-19.85,19.12-36.27,41.24-36.69"/>
          <path class="cls-1" d="M142.02,181.07h36.9v149.75h-36.9v-42.4c-32.51,11.89-62.9,12.93-90.83-14.43-11.57-12.04-18.09-28.44-15.36-57.01.47-4.38-1.58-24.67-6.72-35.95h32.78c15.36,24.38-4.77,55.5,18.76,75.36,32.06,20.76,60.02-4.06,61.37-26.47v-48.84ZM105.25,196.52c17.48,0,31.59,14.14,31.59,31.27s-14.12,31.3-31.59,31.3-31.74-14-31.74-31.3,14.27-31.27,31.74-31.27"/>
        </g>
      </g>
    </g>
  </g>
</svg>