<?xml version="1.0" encoding="utf-8"?>
<!-- Generator: Adobe Illustrator 24.3.0, SVG Export Plug-In . SVG Version: 6.00 Build 0)  -->
<svg version="1.1" id="Layer_1" xmlns="http://www.w3.org/2000/svg" xmlns:xlink="http://www.w3.org/1999/xlink" x="0px" y="0px"
	 viewBox="0 0 512 512" style="enable-background:new 0 0 512 512;" xml:space="preserve">
<style type="text/css">
	.st0{fill:#176FC1;}
	.st1{fill:#FFFFFF;}
	.st2{fill:#CE0F3E;}
</style>
<g id="g4879" transform="translate(165.189,569.68201)">
</g>
<g id="g4883" transform="translate(183.83,565.49001)">
</g>
<g id="g4887" transform="translate(188.7399,565.52499)">
</g>
<g id="g4891" transform="translate(198.812,568.894)">
</g>
<g id="g4895" transform="translate(210.17101,563.5731)">
</g>
<g id="g4899" transform="translate(216.716,565.472)">
</g>
<g id="g4903" transform="translate(232.33,562.19099)">
</g>
<g id="g4907" transform="translate(238.875,570.793)">
</g>
<g id="g4911" transform="translate(252.371,562.427)">
</g>
<g id="g4915" transform="translate(260.412,562.19099)">
</g>
<g id="g4919" transform="translate(270.36301,562.716)">
</g>
<g id="g4923" transform="translate(283.427,565.49001)">
</g>
<g id="g4927" transform="translate(296.871,563.5731)">
</g>
<g id="g4931" transform="translate(309.2789,562.19099)">
</g>
<g id="g4935" transform="translate(322.37289,565.778)">
</g>
<g id="g4939" transform="translate(333.005,562.427)">
</g>
<g id="g4943" transform="translate(343.9879,563.5731)">
</g>
<g id="g4947" transform="translate(349.09689,568.2291)">
</g>
<g id="g4951" transform="translate(355.91,565.778)">
</g>
<g id="g4955" transform="translate(366.35001,565.778)">
</g>
<g id="g4959" transform="translate(371.0099,565.52499)">
</g>
<g id="g4963" transform="translate(388.89999,565.49001)">
</g>
<g id="g4967" transform="translate(397.1898,565.534)">
</g>
<g id="g4971" transform="translate(407.74001,568.2291)">
</g>
<g id="g4975" transform="translate(414.75,565.778)">
</g>
<g id="g4979" transform="translate(421.78,565.778)">
</g>
<g id="g4983" transform="translate(435.0601,565.332)">
</g>
<g id="g4987" transform="translate(439.6199,568.2291)">
</g>
<g id="g4991" transform="translate(445.6899,559.347)">
</g>
<g id="g4995" transform="translate(450.74001,559.347)">
</g>
<g id="g4999" transform="translate(455.8,559.347)">
</g>
<g id="g5003" transform="translate(189.476,548.326)">
</g>
<g id="g5007" transform="translate(198.507,544.492)">
</g>
<g id="g5011" transform="translate(210.14391,542.8331)">
</g>
<g id="g5015" transform="translate(217.093,544.356)">
</g>
<g id="g5019" transform="translate(222.298,544.492)">
</g>
<g id="g5023" transform="translate(229.4509,549.08299)">
</g>
<g id="g5027" transform="translate(233.1479,547.439)">
</g>
<g id="g5031" transform="translate(241.369,542.09)">
</g>
<g id="g5035" transform="translate(248.98399,541.63499)">
</g>
<g id="g5039" transform="translate(254.726,546.86301)">
</g>
<g id="g5043" transform="translate(259.94701,547.439)">
</g>
<g id="g5047" transform="translate(266.554,544.492)">
</g>
<g id="g5051" transform="translate(278.19299,542.8331)">
</g>
<g id="g5055" transform="translate(286.996,549.08299)">
</g>
<g id="g5059" transform="translate(294.2159,541.84)">
</g>
<g id="g5063" transform="translate(301.179,541.63499)">
</g>
<g id="g5067" transform="translate(309.79401,542.09)">
</g>
<g id="g5071" transform="translate(317.994,544.356)">
</g>
<g id="g5075" transform="translate(326.3199,546.86301)">
</g>
<g id="g5079" transform="translate(333.5851,544.492)">
</g>
<g id="g5083" transform="translate(344.935,540.211)">
</g>
<g id="g5087" transform="translate(356.39999,541.84)">
</g>
<g id="g5091" transform="translate(361.48,544.742)">
</g>
<g id="g5095" transform="translate(367.7,544.53)">
</g>
<g id="g5099" transform="translate(373.7101,544.492)">
</g>
<g id="g5103" transform="translate(380.9299,544.742)">
</g>
<g id="g5107" transform="translate(387.06979,543.39301)">
</g>
<g id="g5111" transform="translate(402.4398,541.63499)">
</g>
<g id="g5115" transform="translate(412.66991,542.8331)">
</g>
<g id="g5119" transform="translate(418.30991,544.742)">
</g>
<g id="g5123" transform="translate(427.52,541.84)">
</g>
<g id="g5127" transform="translate(436.52,539.173)">
</g>
<g id="g5131" transform="translate(232.431,594.843)">
</g>
<g id="g5135" transform="translate(244.57001,587.3521)">
</g>
<g id="g5139" transform="translate(255.552,588.49899)">
</g>
<g id="g5143" transform="translate(260.66389,593.15401)">
</g>
<g id="g5147" transform="translate(267.673,590.70399)">
</g>
<g id="g5151" transform="translate(277.062,587.116)">
</g>
<g id="g5155" transform="translate(283.69701,595.718)">
</g>
<g id="g5159" transform="translate(294.347,588.75301)">
</g>
<g id="g5163" transform="translate(307.8759,587.116)">
</g>
<g id="g5167" transform="translate(319.6909,588.49899)">
</g>
<g id="g5171" transform="translate(324.71201,595.718)">
</g>
<g id="g5175" transform="translate(341.18291,590.41499)">
</g>
<g id="g5179" transform="translate(349.48,590.459)">
</g>
<g id="g5183" transform="translate(357.5099,594.60699)">
</g>
<g id="g5187" transform="translate(371.3,588.49899)">
</g>
<g id="g5191" transform="translate(379.72,587.6411)">
</g>
<g id="g5195" transform="translate(385.37,593.819)">
</g>
<g id="g5199" transform="translate(393.78999,587.116)">
</g>
<g id="g5203" transform="translate(241.575,666.239)">
</g>
<g id="g5207" transform="translate(237.452,675.088)">
</g>
<g id="g5211" transform="translate(251.85201,661.412)">
</g>
<g id="g5215" transform="translate(266.6329,670.46201)">
</g>
<g id="g5219" transform="translate(261.22301,660.004)">
</g>
<g id="g5223" transform="translate(279.88699,670.46201)">
</g>
<g id="g5227" transform="translate(290.38499,662.619)">
</g>
<g id="g5231" transform="translate(293.80499,674.88699)">
</g>
<g id="g5235" transform="translate(299.05299,662.117)">
</g>
<g id="g5239" transform="translate(322.08099,670.46201)">
</g>
<g id="g5243" transform="translate(331.5919,670.46201)">
</g>
<g id="g5247" transform="translate(326.88699,674.686)">
</g>
<g id="g5251" transform="translate(334.952,659.6021)">
</g>
<g id="g5255" transform="translate(334.407,664.228)">
</g>
<g id="g5259" transform="translate(358.46001,670.46201)">
</g>
<g id="g5263" transform="translate(355.97,674.88699)">
</g>
<g id="g5267" transform="translate(364.16991,675.088)">
</g>
<g id="g5271" transform="translate(374.09,670.46201)">
</g>
<g id="g5275" transform="translate(380.14,667.94901)">
</g>
<g id="g5279" transform="translate(390.24001,670.46201)">
</g>
<g id="g5283" transform="translate(184.036,639.334)">
</g>
<g id="g5287" transform="translate(192.563,642.66901)">
</g>
<g id="g5291" transform="translate(186.9399,646.32001)">
</g>
<g id="g5295" transform="translate(199.422,636)">
</g>
<g id="g5299" transform="translate(209.647,637.58701)">
</g>
<g id="g5303" transform="translate(216.188,642.66901)">
</g>
<g id="g5307" transform="translate(215.3309,645.05)">
</g>
<g id="g5311" transform="translate(223.2059,636.07899)">
</g>
<g id="g5315" transform="translate(219.633,646.32001)">
</g>
<g id="g5319" transform="translate(241.465,642.66901)">
</g>
<g id="g5323" transform="translate(252.897,642.66901)">
</g>
<g id="g5327" transform="translate(249.34,634.174)">
</g>
<g id="g5331" transform="translate(260.67599,642.66901)">
</g>
<g id="g5335" transform="translate(268.282,646.32001)">
</g>
<g id="g5339" transform="translate(271.235,636)">
</g>
<g id="g5343" transform="translate(279.395,638.53999)">
</g>
<g id="g5347" transform="translate(286.85789,636)">
</g>
<g id="g5351" transform="translate(295.145,642.66901)">
</g>
<g id="g5355" transform="translate(300.95799,639.334)">
</g>
<g id="g5359" transform="translate(312.64101,636.07899)">
</g>
<g id="g5363" transform="translate(309.069,646.32001)">
</g>
<g id="g5367" transform="translate(330.55299,639.334)">
</g>
<g id="g5371" transform="translate(339.0789,642.66901)">
</g>
<g id="g5375" transform="translate(342.41299,639.9691)">
</g>
<g id="g5379" transform="translate(359.8,642.66901)">
</g>
<g id="g5385" transform="translate(380.11,642.66901)">
</g>
<g id="g5389" transform="translate(379.8101,646.162)">
</g>
<g id="g5393" transform="translate(387.28,636.476)">
</g>
<g id="g5397" transform="translate(399.16,646.32001)">
</g>
<g id="g5401" transform="translate(407.63989,642.66901)">
</g>
<g id="g5407" transform="translate(420.59,642.66901)">
</g>
<g id="g5411" transform="translate(423.8699,635.52299)">
</g>
<g id="g5415" transform="translate(432.66,636.31599)">
</g>
<g id="g5419" transform="translate(436.78999,636.31599)">
</g>
<g id="g5423" transform="translate(440.92,636.31599)">
</g>
<g id="g5427" transform="translate(178.4949,618.164)">
</g>
<g id="g5431" transform="translate(185.71899,619.513)">
</g>
<g id="g5435" transform="translate(195.245,614.353)">
</g>
<g id="g5439" transform="translate(211.12399,618.164)">
</g>
<g id="g5443" transform="translate(213.903,624.991)">
</g>
<g id="g5447" transform="translate(218.506,615.306)">
</g>
<g id="g5451" transform="translate(230.383,625.14999)">
</g>
<g id="g5455" transform="translate(233.66991,613.718)">
</g>
<g id="g5459" transform="translate(247.6899,621.498)">
</g>
<g id="g5463" transform="translate(256.67599,618.164)">
</g>
<g id="g5467" transform="translate(265.567,619.19501)">
</g>
<g id="g5471" transform="translate(269.93401,616.894)">
</g>
<g id="g5475" transform="translate(280.651,619.513)">
</g>
<g id="g5479" transform="translate(288.6219,621.498)">
</g>
<g id="g5483" transform="translate(294.43201,618.164)">
</g>
<g id="g5487" transform="translate(302.95799,621.498)">
</g>
<g id="g5491" transform="translate(301.229,624.991)">
</g>
<g id="g5495" transform="translate(309.977,614.909)">
</g>
<g id="g5499" transform="translate(306.403,625.14999)">
</g>
<g id="g5503" transform="translate(327.88699,618.164)">
</g>
<g id="g5507" transform="translate(326.297,611.813)">
</g>
<g id="g5511" transform="translate(337.1429,625.14999)">
</g>
<g id="g5515" transform="translate(339.76199,614.353)">
</g>
<g id="g5519" transform="translate(347.25591,622.62601)">
</g>
<g id="g5523" transform="translate(354.08,617.37)">
</g>
<g id="g5527" transform="translate(367.39,621.498)">
</g>
<g id="g5531" transform="translate(376.52,621.498)">
</g>
<g id="g5535" transform="translate(387.6499,621.498)">
</g>
<g id="g5539" transform="translate(387.35001,624.991)">
</g>
<g id="g5543" transform="translate(398.0798,618.164)">
</g>
<g id="g5547" transform="translate(396.49001,611.813)">
</g>
<g id="g5551" transform="translate(404.92,616.894)">
</g>
<g id="g5555" transform="translate(414.5798,625.14999)">
</g>
<g id="g5559" transform="translate(421.42,621.498)">
</g>
<g id="g5563" transform="translate(423.4398,616.894)">
</g>
<g id="g5567" transform="translate(435.38,621.498)">
</g>
<g id="g5573" transform="translate(450.53,615.147)">
</g>
<g id="g5599" transform="translate(207.77901,46.272003)">
</g>
<g id="g5603" transform="translate(212.892,43.9431)">
</g>
<g id="g5607" transform="translate(218.605,46.272003)">
</g>
<g id="g5611" transform="translate(224.0089,46.272003)">
</g>
<g id="g5615" transform="translate(228.8,44.565994)">
</g>
<g id="g5619" transform="translate(230.7299,48.360992)">
</g>
<g id="g5623" transform="translate(241.59689,43.548996)">
</g>
<g id="g5627" transform="translate(243.994,45.639999)">
</g>
<g id="g5631" transform="translate(248.6989,43.9431)">
</g>
<g id="g5635" transform="translate(253.0759,42.727005)">
</g>
<g id="g5639" transform="translate(250.8669,48.360992)">
</g>
<g id="g5643" transform="translate(259.60699,45.639999)">
</g>
<g id="g5647" transform="translate(265.6129,44.123001)">
</g>
<g id="g5651" transform="translate(269.67101,40.806)">
</g>
<g id="g5655" transform="translate(275.269,47.611999)">
</g>
<g id="g5659" transform="translate(278.314,47.611999)">
</g>
<g id="g5663" transform="translate(282.455,42.727005)">
</g>
<g id="g5669" transform="translate(286.814,45.639999)">
</g>
<g id="g5673" transform="translate(291.345,42.106003)">
</g>
<g id="g5677" transform="translate(296.7709,44.218002)">
</g>
<g id="g5681" transform="translate(299.61501,47.253998)">
</g>
<g id="g5685" transform="translate(302.6069,47.253998)">
</g>
<g id="g5689" transform="translate(313.927,44.561005)">
</g>
<g id="g5693" transform="translate(319.41701,43.477997)">
</g>
<g id="g5697" transform="translate(321.162,41.738007)">
</g>
<g id="g5701" transform="translate(325.59689,41.738007)">
</g>
<g id="g5705" transform="translate(331.44299,41.738007)">
</g>
<g id="g5709" transform="translate(334.42909,41.738007)">
</g>
<g id="g5713" transform="translate(343.5089,41.738007)">
</g>
<g id="g5717" transform="translate(344.041,41.738007)">
</g>
<g id="g5721" transform="translate(349.52499,46.488998)">
</g>
<g id="g5725" transform="translate(354.28999,41.738007)">
</g>
<g id="g5729" transform="translate(356.96001,44.074997)">
</g>
<g id="g5733" transform="translate(365.2899,41.738007)">
</g>
<g id="g5737" transform="translate(368.28,44.074997)">
</g>
<g id="g5741" transform="translate(373.6199,46.488998)">
</g>
<g id="g5745" transform="translate(380.02,43.274002)">
</g>
<g id="g5751" transform="translate(386.53,41.738007)">
</g>
<g id="g5755" transform="translate(394.36,43.477997)">
</g>
<g id="g5759" transform="translate(396.11,41.738007)">
</g>
<g id="g5763" transform="translate(404.50999,41.738007)">
</g>
<g id="g5767" transform="translate(405.89,42.830994)">
</g>
<g id="g5771" transform="translate(411.88,41.738007)">
</g>
<g id="g5775" transform="translate(415.22,41.738007)">
</g>
<g id="g6195" transform="translate(44.036896,729.52789)">
</g>
<g id="g6199" transform="translate(54.044006,726.9967)">
</g>
<g id="g6203" transform="translate(60.934906,726.9967)">
</g>
<g id="g6207" transform="translate(64.274994,728.47321)">
</g>
<g id="g6211" transform="translate(72.718002,726.07091)">
</g>
<g id="g6215" transform="translate(77.159897,731.8307)">
</g>
<g id="g6219" transform="translate(84.291,730.858)">
</g>
<g id="g6223" transform="translate(93.718002,726.2291)">
</g>
<g id="g6227" transform="translate(97.462006,724.9693)">
</g>
<g id="g6231" transform="translate(105.18491,728.27991)">
</g>
<g id="g6235" transform="translate(110.76289,728.47321)">
</g>
<g id="g6239" transform="translate(115.55,730.114)">
</g>
<g id="g6243" transform="translate(122.5289,724.0318)">
</g>
<g id="g6247" transform="translate(131.47,731.02789)">
</g>
<g id="g6251" transform="translate(138.9529,731.0631)">
</g>
<g id="g6255" transform="translate(145.7319,731.0631)">
</g>
<g id="g6261" transform="translate(152.98,724.0318)">
</g>
<g id="g6265" transform="translate(161.92101,731.02789)">
</g>
<g id="g6269" transform="translate(169.4039,731.0631)">
</g>
<g id="g6273" transform="translate(173.3179,724.0318)">
</g>
<g id="g6277" transform="translate(109.9019,742.0681)">
</g>
<g id="g6281" transform="translate(118.843,749.0641)">
</g>
<g id="g6285" transform="translate(126.3259,749.0992)">
</g>
<g id="g6289" transform="translate(133.105,749.0992)">
</g>
<g id="g6295" transform="translate(140.353,742.0681)">
</g>
<g id="g6299" transform="translate(149.29401,749.0641)">
</g>
<g id="g6303" transform="translate(156.7769,749.0992)">
</g>
<g id="g6307" transform="translate(160.6909,742.0681)">
</g>
<g id="g6311" transform="translate(43.757004,742.05431)">
</g>
<g id="g6315" transform="translate(51.203903,748.04601)">
</g>
<g id="g6319" transform="translate(55.184006,751.3277)">
</g>
<g id="g6323" transform="translate(59.735001,743.481)">
</g>
<g id="g6327" transform="translate(60.448898,751.25591)">
</g>
<g id="g6331" transform="translate(65.669006,742.12511)">
</g>
<g id="g6335" transform="translate(79.807999,751.3277)">
</g>
<g id="g6339" transform="translate(85.957001,748.04601)">
</g>
<g id="g6343" transform="translate(87.766998,743.9088)">
</g>
<g id="g6347" transform="translate(96.499893,748.04601)">
</g>
<g id="g6351" transform="translate(89.309006,751.3277)">
</g>
<g id="g6355" transform="translate(103.489,748.04601)">
</g>
<g id="g6359" transform="translate(101.72,751.25591)">
</g>
<g id="g6363" transform="translate(520.3101,657.795)">
</g>
<g id="g6367" transform="translate(520.3101,657.795)">
</g>
<g id="g6371" transform="translate(479.87,704.74699)">
</g>
<g id="g6375" transform="translate(480.3199,697.476)">
</g>
<g id="g6379" transform="translate(481.45,691.63499)">
</g>
<g id="g6383" transform="translate(479.92,710.407)">
</g>
<g id="g6387" transform="translate(480.52,715.4034)">
</g>
<g id="g6391" transform="translate(560.75,704.74699)">
</g>
<g id="g6395" transform="translate(560.3,697.476)">
</g>
<g id="g6399" transform="translate(559.17,691.63499)">
</g>
<g id="g6403" transform="translate(560.7,710.407)">
</g>
<g id="g6407" transform="translate(560.0999,715.4034)">
</g>
<g id="g6411" transform="translate(550.81979,675.5051)">
</g>
<g id="XMLID_1_">
	<polygon id="XMLID_57_" class="st0" points="0,321.21 129.47,321.21 129.47,190.75 0,190.75 	"/>
	<rect id="XMLID_58_" x="132.84" y="191.03" class="st0" width="379.16" height="130.31"/>
	<path id="XMLID_86_" class="st1" d="M480.02,284.6v0.42l-0.14,0.42l-0.14,0.42l-0.14,0.42l-0.14,0.42l-0.14,0.42l-0.28,0.28
		l-0.14,0.42l-0.28,0.28l-0.28,0.28l-0.28,0.28l-0.28,0.28l-0.14,0.14l-0.14,0.14h-0.14l-0.14,0.14h-0.28l-0.14,0.14h-0.28h-0.14
		l0,0h-0.28h-0.42h-0.14h-0.42h-0.14h-0.14h-0.14h-0.14h-0.14l-0.14-0.14h-0.14l-0.14-0.14l-0.14-0.14l-0.14-0.14l-0.14-0.14
		l-0.14-0.14l0-0.42l-0.14-0.28l-0.14-0.28l-0.14-0.42v-0.28v-0.42v-0.42v-0.42v-0.42l0.14-0.42l0.14-0.42l0.14-0.42l0.14-0.28
		l0.14-0.42l0.28-0.42l0.28-0.28l0.28-0.28l0.28-0.28l0.28-0.28l0.14-0.14l0.14-0.14l0.14-0.14l0.14-0.14h0.14l0.28-0.14l0.14-0.14
		h0.28l0,0h0.28h0.42h0.14h0.14h0.28h0.14h0.14h0.14l0.14,0.14h0.14h0.14l0.14,0.14l0.14,0.14l0.14,0.14l0.14,0.14l0.14,0.14
		l0.14,0.14l0.14,0.14l0.14,0.28l0.14,0.28l0.14,0.28l0.14,0.42v0.42v0.84H480.02z M481.42,276.46l-0.28,1.82L481,278l-0.14-0.28
		l-0.14-0.14l-0.14-0.28l-0.28-0.14l-0.14-0.14l-0.28-0.14l-0.28-0.14l-0.28-0.14l-0.28-0.14l-0.28-0.14l-0.28-0.14l-0.28-0.14
		h-0.28h-0.28h-0.28h-0.14h-0.84h-0.42l-0.42,0.14h-0.42l-0.42,0.14l-0.42,0.14l-0.42,0.14l-0.42,0.14l-0.42,0.14l-0.28,0.14
		l-0.42,0.28l-0.28,0.28l-0.42,0.28l-0.28,0.28l-0.42,0.28l-0.28,0.28l-0.42,0.28l-0.28,0.42l-0.28,0.42l-0.28,0.42l-0.28,0.42
		l-0.28,0.42l-0.28,0.42l-0.14,0.42l-0.28,0.42l-0.14,0.42l-0.14,0.42l-0.14,0.42l-0.14,0.42l-0.14,0.42l-0.14,0.42l-0.14,0.56
		l-0.14,0.42l-0.14,0.42v0.42v0.42v0.42v0.42v0.42l0.14,0.42v0.42l0.14,0.42l0.14,0.42l0.14,0.42l0.14,0.42l0.14,0.28l0.14,0.42
		l0.28,0.42l0.14,0.28l0.28,0.28l0.28,0.28l0.28,0.28l0.28,0.28l0.28,0.28l0.28,0.14l0.28,0.14l0.28,0.14l0.28,0.14l0.28,0.14
		l0.42,0.14h0.42h0.42h0.42h0.42h0.28h0.14h0.14h0.28h0.28h0.28l0.28-0.14l0.28-0.14l0.28-0.14l0.28-0.14l0.28-0.14h0.14l0.14-0.14
		l0.28-0.14l0.28-0.14l0.28-0.28l0.28-0.28l0.28-0.28l0.28-0.28l0.14-0.28h0.14l-0.42,1.96h5.47l3.23-17.67h-5.05V276.46z
		 M467.39,271.41l0.14-0.28l0.14-0.28l0.14-0.28l0.14-0.42l0.14-0.28v-0.28v-0.28v-0.42v-0.28l-0.14-0.28l-0.14-0.28l-0.14-0.28
		l-0.14-0.28l-0.28-0.28l-0.14-0.14l-0.28-0.14l-0.28-0.14l-0.28-0.14l-0.28-0.14h-0.28h-0.28h-0.28h-0.28l-0.28,0.14l-0.28,0.14
		l-0.28,0.14l-0.28,0.14l-0.28,0.14l-0.28,0.28l-0.28,0.28l-0.28,0.28l-0.28,0.28l-0.14,0.28l-0.14,0.28l-0.14,0.28l-0.14,0.28v0.42
		v0.28v0.42v0.28v0.28v0.28l0.14,0.28l0.14,0.28l0.14,0.28l0.14,0.28l0.14,0.14l0.28,0.14l0.28,0.14l0.28,0.14h0.28h0.28h0.42h0.28
		h0.28h0.28l0.28-0.14l0.28-0.14l0.28-0.14l0.28-0.14l0.28-0.28l0.28-0.28l0.28-0.28L467.39,271.41z M457.71,294.27l3.23-17.67h5.47
		l-3.37,17.67H457.71z M450.7,284.6v0.42v0.42l-0.14,0.42l-0.14,0.42l-0.14,0.42l-0.14,0.42l-0.28,0.28l-0.28,0.42l-0.28,0.28
		l-0.28,0.28l-0.28,0.28l-0.28,0.28l-0.14,0.14l-0.14,0.14h-0.14l-0.14,0.14h-0.14l-0.14,0.14h-0.14h-0.28h-0.14h-0.28h-0.42h-0.28
		h-0.14h-0.14h-0.28h-0.14h-0.14h-0.14h-0.14l-0.14-0.14h-0.14l-0.14-0.14l-0.14-0.14l-0.14-0.14l-0.14-0.14l-0.14-0.14l-0.14-0.14
		l-0.14-0.28l-0.14-0.28l-0.14-0.42l-0.14-0.28v-0.42v-0.42V286l0.14-0.42l0.14-0.42l0.14-0.42l0.14-0.42l0.14-0.28l0.14-0.42
		l0.28-0.42l0.28-0.28l0.28-0.28l0.28-0.28l0.28-0.28l0.14-0.14l0.14-0.14l0.14-0.14l0.14-0.14h0.14l0.14-0.14l0.28-0.14h0.14h0.14
		h0.28h0.42h0.14h0.28h0.14h0.14h0.14h0.14l0.14,0.14h0.14h0.14l0.14,0.14l0.14,0.14l0.14,0.14l0.14,0.14l0.14,0.14l0.14,0.14
		l0.14,0.14l0.14,0.28l0.14,0.28l0.14,0.28v0.42v0.42v0.56H450.7z M454.21,265.52l-2.38,12.76l-0.14-0.28l-0.14-0.28l-0.14-0.14
		l-0.28-0.28l-0.42-0.42l-0.28-0.14l-0.28-0.14l-0.28-0.14l-0.28-0.14l-0.28-0.14l-0.28-0.14l-0.28-0.14l-0.56-0.14h-0.28h-0.14
		h-0.84h-0.42l-0.42,0.14h-0.42l-0.42,0.14l-0.42,0.14l-0.42,0.14l-0.42,0.14l-0.42,0.14l-0.42,0.14l-0.42,0.28l-0.42,0.28
		l-0.28,0.28l-0.42,0.28l-0.28,0.28l-0.42,0.28l-0.28,0.28l-0.28,0.42l-0.28,0.42l-0.28,0.42l-0.28,0.42l-0.28,0.42l-0.28,0.42
		l-0.28,0.42l-0.28,0.42l-0.28,0.42l-0.14,0.42l-0.14,0.42l0.56,0.7l-0.14,0.42l-0.14,0.42l-0.14,0.56l-0.14,0.42l-0.14,0.42v0.42
		v0.42v0.42v0.42v0.42v0.42l0.14,0.42l0.14,0.42l0.14,0.42l0.14,0.42l0.14,0.42l0.14,0.28l0.14,0.42l0.28,0.42l0.28,0.28l0.28,0.28
		l0.28,0.28l0.28,0.28l0.28,0.28l0.28,0.28l0.28,0.14l0.28,0.14l0.28,0.14l0.28,0.14l0.42,0.14l0.42,0.14h0.42h0.42h0.42h0.42h0.28
		h0.14h0.14h0.28h0.28h0.28l0.28-0.14l0.28-0.14l0.28-0.14l0.28-0.14l0.42-0.14h0.14l0.28-0.14l0.28-0.14l0.28-0.14l0.28-0.28
		l0.28-0.28l0.28-0.28l0.28-0.28l0.28-0.28h0.14l-0.42,1.96h5.47l5.33-28.76h-5.89V265.52z M435.83,279.97v0.28v0.28v0.7v0.42
		l-0.14,0.84v0.42l-0.14,0.42l-1.96,10.94h-5.47l1.54-8.7v-0.14v-0.14v-0.14v-0.14v-0.14v-0.14v-0.14v-0.14v-0.14v-0.14v-0.42v-0.28
		v-0.7v-0.28v-0.28v-0.28l-0.14-0.28v-0.14v-0.14l-0.14-0.14l-0.14-0.14l-0.14-0.14l-0.14-0.14h-0.14l-0.14-0.14l-0.28-0.14h-0.28
		h-0.28h-0.56h-0.42h-0.28h-0.14h-0.14h-0.14l-0.14,0.14h-0.14l-0.14,0.14l-0.14,0.14l-0.14,0.14l-0.14,0.14l-0.14,0.14l-0.14,0.14
		l-0.14,0.14l-0.14,0.28l-0.14,0.28l-0.14,0.28l-0.14,0.42l-0.14,0.42l-0.14,0.42l-0.14,0.42l-0.14,0.42l-1.68,9.12h-5.47
		l3.23-17.67h5.47l-0.42,2.24h0.14l0.28-0.42l0.28-0.28l0.28-0.28l0.28-0.28l0.28-0.28l0.28-0.28l0.28-0.28l0.28-0.14l0.28-0.14
		l0.28-0.14l0.42-0.14l0.42-0.14l0.42-0.14h0.42h0.42h0.84h0.42h0.42h0.28l0.28,0.14l0.28,0.14l0.28,0.14l0.28,0.14l0.28,0.14
		l0.28,0.14l0.28,0.14l0.42,0.42l0.14,0.28l0.14,0.28l0.14,0.28l0.14,0.28l0.14,0.28l0.14,0.28l0.14,0.28v0.28l0.14,0.28
		L435.83,279.97z M412.69,268.18l-4.91,26.09h5.89l4.77-26.09H412.69z M400.34,265.52l-0.28-0.14h-0.28h-0.28h-0.28h-0.28h-0.7
		h-0.42h-0.42h-0.42l-0.42,0.14l-0.42,0.14l-0.42,0.14l-0.42,0.14l-0.42,0.14l-0.42,0.14l-0.42,0.28l-0.42,0.28l-0.28,0.28
		l-0.42,0.28l-0.28,0.28l-0.28,0.28l-0.14,0.14l-0.14,0.14l-0.14,0.14l-0.14,0.14l-0.14,0.14l-0.14,0.14l-0.14,0.14l-0.14,0.14
		l-0.28,0.28l-0.14,0.28l-0.14,0.28l-0.14,0.28l-0.14,0.28l-0.14,0.28l-0.14,0.28l-0.14,0.28l-0.14,0.56l-0.14,0.7l-0.14,0.7
		l-0.14,0.7l-0.42,2.24h-1.96l-0.98,5.19H388l-2.38,12.62h5.47l2.38-12.62h3.79l0.98-5.19h-3.79l0.56-2.81l0.14-0.42v-0.28
		l0.14-0.28l0.14-0.28l0.14-0.28l0.14-0.28l0.14-0.28l0.14-0.14l0.14-0.14l0.14-0.14l0.14-0.14l0.14-0.14l0.28-0.14h0.14h0.28h0.28
		h0.14h0.14h0.14h0.14h0.14l0.14,0.14h0.14l0.14,0.14h0.14h0.14l0.14,0.14h0.14l0.98-5.33l-0.28-0.14L400.34,265.52z M379.3,284.6
		v0.42l-0.14,0.42l-0.14,0.42l-0.14,0.42l-0.14,0.42l-0.14,0.42l-0.14,0.28l-0.28,0.42l-0.56,0.56l-0.28,0.28l-0.28,0.28l-0.14,0.14
		l-0.14,0.14h-0.14l-0.14,0.14h-0.14l-0.14,0.14h-0.14h-0.28h-0.14h-0.28h-0.42h-0.14h-0.28h-0.14h-0.14h-0.14h-0.14h-0.14h-0.14
		l-0.14-0.14h-0.14l-0.14-0.14l-0.14-0.14l-0.14-0.14l-0.14-0.14l-0.28-0.28l-0.14-0.28l-0.14-0.28l-0.14-0.42v-0.28v-0.42v-0.42
		V286l0.14-0.42l0.14-0.42l0.14-0.42l0.14-0.42l0.14-0.28l0.14-0.42l0.28-0.42l0.28-0.28l0.28-0.28l0.28-0.28l0.28-0.28l0.14-0.14
		l0.14-0.14l0.14-0.14l0.14-0.14h0.14l0.14-0.14l0.14-0.14h0.14h0.14h0.42h0.42h0.28h0.14h0.14h0.14h0.14h0.14l0.14,0.14h0.14h0.14
		l0.14,0.14l0.14,0.14l0.14,0.14l0.14,0.14l0.14,0.14l0.14,0.14l0.14,0.14l0.14,0.28l0.14,0.28l0.14,0.28l0.14,0.42v0.42v0.56H379.3
		z M385.05,282.35l-0.14-0.42l-0.14-0.42l-0.14-0.42l-0.14-0.42l-0.14-0.42l-0.14-0.42l-0.14-0.28l-0.28-0.42l-0.28-0.28l-0.28-0.28
		l-0.28-0.28l-0.28-0.28l-0.28-0.28l-0.28-0.28l-0.7-0.42l-0.42-0.14l-0.42-0.14l-0.42-0.14l-0.42-0.14l-0.42-0.14l-0.42-0.14
		l-0.42-0.14h-0.42h-0.42h-0.42l0,0h-0.42h-0.42h-0.42h-0.42h-0.14l-0.42,0.14l-0.42,0.14l-0.42,0.14l-0.42,0.14l-0.84,0.42
		l-0.42,0.14l-0.42,0.28l-0.42,0.28l-0.42,0.28l-0.42,0.28l-0.42,0.28l-0.42,0.28l-0.42,0.28l-0.42,0.42l-0.42,0.28l-0.28,0.42
		l-0.28,0.42l-0.28,0.42l-0.56,0.84l-0.14,0.42l-0.28,0.56l-0.14,0.42l-0.14,0.56l-0.14,0.56l-0.14,0.56l-0.14,0.56l-0.14,0.56
		l-0.14,0.56l-0.14,0.56v0.56v0.56v0.42v0.42l0.14,0.42l0.14,0.42l0.14,0.42l0.14,0.42l0.14,0.42l0.28,0.42l0.28,0.28l0.28,0.28
		l0.28,0.28l0.28,0.28l0.28,0.28l0.28,0.28l0.42,0.28l0.28,0.14l0.28,0.14l0.42,0.14l0.42,0.14l0.42,0.14l0.42,0.14l0.42,0.14
		l0.42,0.14h0.42h0.42h0.42h0.42h0.42h0.42h0.42h0.42h0.14l0.42-0.14l0.42-0.14l0.42-0.14l0.42-0.14l0.42-0.14l0.42-0.14l0.42-0.14
		l0.84-0.42l0.42-0.28l0.42-0.28l0.42-0.28l0.84-0.7l0.42-0.42l0.42-0.28l0.28-0.42l0.28-0.42l0.28-0.42l0.28-0.42l0.28-0.42
		l0.28-0.42l0.28-0.42l0.14-0.42l0.14-0.56l0.14-0.42l0.14-0.56l0.28-1.12l0.14-0.56v-0.56v-0.56v-0.42L385.05,282.35z
		 M350.54,276.46l-6.87,6.45l3.23-17.39h-5.47l-5.33,28.76h5.47l1.4-7.29l4.63,7.29h7.72l-6.45-9.54l9.26-8.14h-7.57V276.46z
		 M334.83,279.97v-0.28v-0.28l-0.14-0.28l-0.14-0.28l-0.14-0.28l-0.14-0.28l-0.14-0.28l-0.14-0.28l-0.14-0.28l-0.14-0.28l-0.14-0.14
		l-0.14-0.14l-0.14-0.14l-0.28-0.14l-0.28-0.14l-0.28-0.14l-0.28-0.14l-0.28-0.14l-0.28-0.14h-0.28h-0.28h-0.42h-0.84h-0.42h-0.42
		h-0.28l-0.42,0.14l-0.28,0.14l-0.7,0.28l-0.28,0.14l-0.28,0.28l-0.28,0.28l-0.28,0.28l-0.28,0.28l-0.28,0.28l-0.28,0.28l-0.28,0.42
		h-0.14l0.42-2.24h-5.47l-3.23,17.67h5.47l1.68-9.12l0.14-0.42l0.14-0.42l0.14-0.42l0.14-0.42l0.14-0.42l0.14-0.28l0.14-0.28
		l0.28-0.28l0.14-0.14l0.28-0.28l0.14-0.14l0.14-0.14l0.14-0.14H326l0.14-0.14l0.14-0.14h0.14h0.14h0.14h0.14h0.14h0.28h0.56h0.28
		h0.28l0.28,0.14h0.14h0.14l0.14,0.14v0.14l0,0l0.14,0.14v0.14v0.14v0.28v0.28v0.28v0.28v0.28v0.28v0.28v0.28v0.14v0.14v0.14v0.14
		v0.14v0.14v0.14v0.14v0.14v0.14v0.14v0.14l-1.54,8.7h5.47l1.96-10.94v-0.42v-0.42v-0.42v-0.42v-0.28v-0.42v-0.28v-0.28
		L334.83,279.97z M309.16,284.6v0.42v0.42l-0.14,0.42l-0.14,0.42l-0.14,0.42l-0.14,0.42l-0.14,0.42l-0.28,0.28l-0.28,0.28
		l-0.28,0.28l-0.28,0.28l-0.28,0.28l-0.14,0.14l-0.14,0.14h-0.14l-0.14,0.14l-0.14,0.14l-0.14,0.14h-0.14h-0.14h-0.14h-0.28h-0.42
		h-0.14h-0.42h-0.14h-0.14h-0.14h-0.14l-0.14-0.14l-0.14-0.14h-0.14l-0.14-0.14l-0.14-0.14l-0.14-0.14l-0.14-0.14l-0.14-0.14v-0.14
		l-0.14-0.28l-0.14-0.28l-0.14-0.28v-0.42v-0.28v-0.42v-0.42v-0.42l0.14-0.42l0.14-0.42l0.14-0.42l0.14-0.42l0.14-0.28l0.14-0.42
		l0.28-0.28l0.28-0.28l0.28-0.28l0.28-0.28l0.14-0.14l0.14-0.14l0.14-0.14l0.14-0.14l0.14-0.14l0.14-0.14h0.14h0.14l0,0l0.28-0.14
		h0.42h0.14h0.14h0.14h0.14h0.14h0.14h0.14l0.14,0.14h0.14l0.14,0.14l0.14,0.14l0.14,0.14l0.14,0.14l0.14,0.14l0.14,0.14l0.14,0.14
		l0.14,0.28l0.14,0.28l0.14,0.28l0.14,0.42v0.42v0.56H309.16z M310.29,278.14l-0.14-0.28l-0.14-0.28l-0.14-0.14l-0.14-0.28
		l-0.42-0.14l-0.28-0.14l-0.28-0.14l-0.28-0.14l-0.28-0.14l-0.28-0.14l-0.28-0.14l-0.28-0.14l-0.28-0.14h-0.28h-0.28h-0.28h-0.14
		h-0.84h-0.42l-0.42,0.14l-0.42,0.14l-0.42,0.14l-0.42,0.14l-0.42,0.14l-0.42,0.14l-0.42,0.14l-0.42,0.28l-0.42,0.28l-0.42,0.28
		l-0.42,0.28l-0.28,0.28l-0.28,0.28l-0.28,0.28l-0.28,0.42l-0.28,0.42l-0.28,0.42l-0.28,0.42l-0.28,0.42l-0.28,0.42l-0.28,0.42
		l-0.28,0.42l-0.28,0.42l-0.14,0.42l-0.14,0.42l-0.14,0.42l-0.14,0.42l-0.14,0.42l-0.14,0.42l-0.14,0.42L295.7,286v0.42v0.42v0.42
		v0.42v0.42v0.42v0.42v0.42l0.14,0.42l0.14,0.42l0.14,0.42l0.14,0.42l0.14,0.28l0.14,0.42l0.14,0.42l0.14,0.42l0.42,0.56l0.28,0.28
		l0.28,0.28l0.28,0.28l0.28,0.14l0.28,0.14l0.28,0.14l0.28,0.14l0.28,0.14l0.42,0.14l0.42,0.14h0.42h0.42h0.42h0.28h0.14h0.14h0.28
		h0.28h0.28h0.28l0.28-0.14l0.28-0.14l0.28-0.14l0.28-0.14h0.14h0.14l0.28-0.14l0.28-0.14l0.28-0.28l0.28-0.28l0.28-0.28l0.28-0.28
		l0.28-0.28h0.14l-0.42,1.96h5.47l3.23-17.67h-5.47L310.29,278.14z M288.82,275.48v0.42l-0.14,0.42l-0.14,0.42l-0.14,0.28
		l-0.14,0.28l-0.14,0.14l-0.14,0.14l-0.14,0.14l-0.14,0.14l-0.14,0.14l-0.14,0.14l-0.14,0.14h-0.14l-0.28,0.14l-0.28,0.14
		l-0.28,0.14l-0.28,0.14h-0.28h-0.28h-0.28l0,0h-0.28h-0.14l0,0h-0.7l0.98-5.05h0.98h0.28h0.28h0.28h0.28l0.28,0.14l0.28,0.14
		l0.28,0.14l0.28,0.14l0.14,0.14h0.14l0.14,0.14l0.14,0.14l0,0v0.14v0.14v0.14L288.82,275.48l0,0.28L288.82,275.48z M288.54,285.44
		v0.42l-0.14,0.42l-0.14,0.42l-0.14,0.28l-0.14,0.28l-0.14,0.28l-0.14,0.28l-0.14,0.28l-0.28,0.14l-0.28,0.14l-0.28,0.14l-0.28,0.14
		l-0.28,0.14l-0.56,0.14l-0.28,0.14h-0.28h-0.28h-0.14h-0.28h-0.14h-0.98l0,0l0,0h-0.7l0.98-5.61h2.24h0.28h0.28h0.28h0.28
		l0.28,0.14l0.28,0.14l0.28,0.14l0.28,0.14l0.14,0.14h0.14l0.14,0.14l0.14,0.14v0.14v0.14v0.14v0.14v0.14v0.14L288.54,285.44
		L288.54,285.44L288.54,285.44z M294.44,271.69v-0.28l-0.14-0.28l-0.14-0.28l-0.14-0.28l-0.14-0.28l0-0.28l-0.14-0.28l-0.14-0.14
		l-0.28-0.14l-0.14-0.14l-0.28-0.14l-0.14-0.14l-0.28-0.14l-0.28-0.14l-0.28-0.14l-0.28-0.14l-0.28-0.14l-0.28-0.14h-0.28h-0.28
		h-0.28h-0.42h-0.42h-8.84l-4.77,26.09h9.12h0.42h0.42h0.42h0.42H287l0.42-0.14l0.42-0.14l0.42-0.14l0.42-0.14l0.42-0.14l0.42-0.14
		l0.42-0.14l0.42-0.14l0.42-0.14l0.42-0.14l0.28-0.14l0.28-0.14l0.28-0.28l0.28-0.28l0.28-0.28l0.28-0.28l0.28-0.28l0.28-0.28
		l0.28-0.42l0.28-0.28l0.14-0.42l0.14-0.42l0.14-0.42l0.14-0.42l0.14-0.42l0.14-0.42l0.14-0.42l0.14-0.7v-0.7v-0.56v-0.56v-0.28
		v-0.28v-0.28l-0.14-0.28l-0.14-0.56l-0.14-0.42l-0.14-0.28l-0.14-0.14l-0.14-0.14l-0.14-0.14l-0.14-0.14l-0.14-0.14l-0.14-0.14
		l-0.14-0.14l-0.14-0.14l-0.28-0.14l-0.28-0.14l-0.28-0.14l-0.28-0.14l-0.28-0.14h-0.28h-0.28l0,0l0.42-0.28l0.28-0.28l0.28-0.28
		l0.28-0.28l0.28-0.28l0.28-0.28l0.28-0.28l0.14-0.28l0.14-0.42l0.14-0.28l0.14-0.42l0.14-0.42l0.14-0.42l0.14-0.42l0.14-0.42
		l0.14-0.42v-0.42v-0.42v-0.42v-0.42v-0.84v-0.28L294.44,271.69L294.44,271.69z M256.14,294.13h5.47l5.33-28.76h-5.47L256.14,294.13
		z M248.99,284.6v0.42l-0.14,0.42l-0.14,0.84l-0.14,0.42l-0.14,0.42l-0.14,0.42l-0.14,0.28l-0.28,0.28l-0.28,0.28l-0.28,0.28
		l-0.28,0.28l-0.14,0.14l-0.14,0.14h-0.14l-0.14,0.14l-0.14,0.14l-0.14,0.14h-0.14h-0.14l0,0h-0.28h-0.42h-0.14h-0.42h-0.14h-0.14
		h-0.14h-0.14l-0.14-0.14l-0.14-0.14h-0.14l-0.14-0.14l-0.14-0.14l-0.14-0.14l-0.14-0.14l-0.14-0.14l-0.14-0.14l-0.14-0.28
		l-0.14-0.28l-0.14-0.28v-0.42v-0.28v-0.42v-0.42v-0.42l0.14-0.42l0.14-0.42l0.14-0.42l0.14-0.42l0.28-0.28l0.14-0.42l0.28-0.28
		l0.28-0.28l0.28-0.28l0.28-0.28l0.14-0.14l0.14-0.14l0.14-0.14l0.14-0.14l0.14-0.14l0.14-0.14h0.14h0.14l0,0l0.28-0.14h0.42h0.28
		h0.14h0.14h0.14h0.14h0.14h0.14l0.14,0.14h0.14l0.14,0.14l0.14,0.14l0.14,0.14l0.28,0.28l0.14,0.14l0.14,0.14l0.14,0.28l0.14,0.28
		l0.14,0.28l0.14,0.42v0.42L248.99,284.6L248.99,284.6z M250.11,278.14l-0.14-0.28l-0.14-0.28l-0.14-0.14l-0.14-0.28l-0.28-0.14
		l-0.14-0.14l-0.28-0.14l-0.28-0.14l-0.28-0.14l-0.28-0.14l-0.28-0.14l-0.28-0.14l-0.28-0.14l-0.56-0.14h-0.28h-0.14h-0.84h-0.42
		l-0.42,0.14l-0.42,0.14l-0.42,0.14l-0.42,0.14l-0.42,0.14l-0.42,0.14l-0.42,0.14l-0.42,0.28l-0.42,0.28l-0.42,0.28l-0.42,0.28
		l-0.28,0.28l-0.28,0.28l-0.28,0.28l-0.28,0.42l-0.28,0.42l-0.28,0.42l-0.28,0.42l-0.28,0.42l-0.28,0.42l-0.28,0.42l-0.14,0.42
		l-0.28,0.42l-0.14,0.42l-0.14,0.42l-0.14,0.42l-0.14,0.42l-0.14,0.42l-0.14,0.42l-0.14,0.42v0.42v0.42v0.42v0.42v0.84v0.42v0.42
		v0.42l0.14,0.42l0.14,0.42l0.14,0.42l0.14,0.42l0.28,0.7l0.14,0.42l0.28,0.42l0.14,0.28l0.28,0.28l0.28,0.28l0.28,0.28l0.28,0.28
		l0.28,0.14l0.28,0.14l0.28,0.14l0.28,0.14l0.42,0.14l0.42,0.14l0.42,0.14h0.42h0.42h0.42h0.28h0.14h0.14h0.28h0.28h0.28h0.28
		l0.28-0.14l0.28-0.14l0.28-0.14l0.28-0.14h0.14h0.14l0.28-0.14l0.28-0.14l0.28-0.28l0.28-0.28l0.28-0.28l0.28-0.28l0.28-0.28h0.14
		l-0.28,1.96h5.47l3.23-17.67h-5.47L250.11,278.14L250.11,278.14z M235.94,276.18h1.12l-1.12,6.03h-0.14l-0.14-0.14l-0.14-0.14
		l-0.28-0.14l-0.28-0.14h-0.28h-0.14h-0.28h-0.28h-0.28h-0.28h-0.56h-0.28h-0.28l-0.28,0.14h-0.28l-0.28,0.14l-0.14,0.14l-0.14,0.14
		l-0.28,0.14l-0.14,0.14l-0.14,0.14l-0.14,0.14l-0.14,0.14l-0.14,0.14l-0.14,0.14l-0.28,0.42l-0.28,0.42l-0.14,0.42l-0.14,0.42
		l0.14,0.56l-0.14,0.56l-0.14,0.56l-0.14,0.56l-1.4,7.15h-5.47l3.23-17.67h5.47l-0.56,2.95h0.14l0.28-0.42l0.28-0.42l0.28-0.28
		l0.28-0.28l0.28-0.28l0.42-0.28l0.28-0.28l0.7-0.42l0.42-0.14l0.42-0.14l0.42-0.14l0.42-0.14h0.42h0.42h0.28V276.18z M223.6,276.46
		h-3.09l0.98-5.33h-5.47l-0.98,5.33h-1.82l-0.98,5.19h1.82l-2.24,12.48h5.47l2.24-12.48h3.09L223.6,276.46z M209.85,279.97v-0.28
		l-0.14-0.28v-0.28l-0.14-0.28l-0.14-0.28l-0.14-0.28l-0.14-0.28l-0.14-0.28l-0.14-0.28l-0.14-0.28l-0.14-0.14l-0.14-0.14
		l-0.14-0.14l-0.28-0.14l-0.28-0.14l-0.28-0.14l-0.28-0.14l-0.28-0.14l-0.28-0.14h-0.28h-0.28h-0.42h-0.84h-0.42h-0.42h-0.42
		l-0.28,0.14l-0.28,0.14l-0.7,0.28l-0.28,0.14l-0.28,0.28l-0.28,0.28l-0.28,0.28l-0.28,0.28l-0.28,0.28l-0.28,0.28l-0.28,0.42l0,0
		l0.42-2.24h-5.47l-3.23,17.67h5.47l1.68-9.12l0.14-0.42l0.14-0.42l0.14-0.42l0.14-0.42l0.14-0.42l0.14-0.28l0.14-0.28l0.14-0.28
		l0.14-0.14l0.14-0.14l0.14-0.14l0.14-0.14l0.14-0.14l0.14-0.14h0.14l0.14-0.14l0.14-0.14l0.28-0.14h0.14h0.14h0.14h0.14h0.56h0.28
		h0.28l0.28,0.14h0.14h0.14l0.14,0.14l0.14,0.14l0,0v0.14l0.14,0.14v0.14l0.14,0.28v0.28v0.28v0.28v0.28v0.28v0.28v0.28v0.14v0.14
		v0.14v0.14v0.14v0.14v0.14v0.14v0.14v0.14v0.14v0.14l-1.54,8.7h5.47l1.96-10.94l0.14-0.84v-0.42v-0.42v-0.28v-0.42v-0.28v-0.28
		L209.85,279.97z M179.69,282.77H186v-0.28v-0.28v-0.28l-0.14-0.28l-0.14-0.28l-0.14-0.28l-0.14-0.14l-0.14-0.28l-0.14-0.14
		l-0.14-0.14l-0.28-0.14l-0.28-0.14l-0.28-0.14h-0.28h-0.28h-0.56h-0.28l0,0h-0.28h-0.28l-0.28,0.14l-0.28,0.14l-0.28,0.14
		l-0.28,0.14l-0.28,0.14l-0.28,0.28l-0.14,0.28l-0.28,0.28l-0.14,0.28l-0.14,0.28l-0.14,0.28V282.77z M190.77,282.07v0.56v0.56v0.42
		v0.56v0.56l-0.14,0.56l-0.14,0.56l0,0l-0.14,0.7h-11.5v0.56v0.42v0.42v0.42v0.28l0.14,0.28l0.14,0.28v0.14l0.14,0.14l0.14,0.14
		l0.14,0.14l0.14,0.14l0.14,0.14l0.14,0.14l0.14,0.14h0.14h0.14h0.14h0.14h0.14h0.14h0.42h0.56h0.28h0.28h0.14h0.14h0.14l0,0h0.14
		l0.14-0.14l0.14-0.14l0.14-0.14l0.14-0.14l0.14-0.14l0.14-0.14l0.14-0.14l0.14-0.14l0.14-0.28h5.33l-0.14,0.42l-0.14,0.42
		l-0.14,0.28l-0.14,0.42l-0.28,0.28l-0.14,0.28l-0.28,0.28l-0.28,0.28l-0.28,0.28l-0.28,0.28l-0.28,0.28l-0.28,0.28l-0.28,0.28
		l-0.56,0.42l-0.28,0.14l-0.28,0.14l-0.28,0.14l-0.28,0.14l-0.28,0.14l-0.28,0.14l-0.28,0.14l-0.28,0.14l-0.28,0.14l-0.28,0.14
		l-0.28,0.14l0,0h-0.28l-0.28,0.14h-0.28h-0.28h-0.28h-0.42h-0.42h-0.42h-0.42l-0.42-0.14l-0.42-0.14l-0.42-0.14l-0.42-0.14
		l-0.42-0.14l-0.42-0.14l-0.7-0.42l-0.28-0.28l-0.56-0.42l-0.28-0.28l-0.28-0.28l-0.28-0.28l-0.28-0.28l-0.14-0.42l-0.14-0.42
		l-0.14-0.42l-0.14-0.42l-0.14-0.42l-0.14-0.42v-0.42v-0.42v-0.42v-0.56v-0.56v-0.56l0.14-0.56l0.14-0.56l0.14-0.56l0.14-0.56
		l0.14-0.56l0.14-0.42l0.14-0.56l0.14-0.42l0.28-0.42l0.28-0.42l0.28-0.42l0.28-0.42l0.28-0.42l0.28-0.42l0.28-0.42l0.28-0.28
		l0.28-0.28l0.42-0.28l0.42-0.28l0.42-0.28l0.42-0.28l0.42-0.28l0.42-0.28l0.42-0.14l0.42-0.14l0.42-0.14l0.42-0.14l0.42-0.14
		l0.42-0.14l0.42-0.14h0.42h0.28h0.14h0.42h0.98h0.42l0.42,0.14h0.42l0.42,0.14l0.42,0.14l0.42,0.14l0.42,0.14l0.28,0.14l0.28,0.14
		l0.28,0.28l0.28,0.28l0.28,0.28l0.28,0.28l0.28,0.28l0.28,0.28l0.14,0.42l0.14,0.42l0.14,0.28l0.14,0.42l0.14,0.42l0.14,0.42
		l0.14,0.42v0.42L190.77,282.07z M174.36,268.74l-0.56-0.28l-0.56-0.28l-0.56-0.28l-0.7-0.14h-0.28l-0.28-0.14l-0.28-0.14h-0.7
		h-0.28h-0.28h-0.42h-0.28h-0.56l-0.56,0.14l-0.56,0.14l-0.56,0.14l-0.56,0.14l-0.56,0.28l-0.56,0.28l-0.56,0.28l-0.56,0.28
		l-0.56,0.28l-0.56,0.42l-0.56,0.28l-0.56,0.42l-0.56,0.42l-0.56,0.42l-0.56,0.42l-0.98,0.98l-0.42,0.56l-0.42,0.56l-0.42,0.56
		l-0.42,0.56l-0.42,0.56l-0.28,0.7l-0.28,0.7l-0.28,0.56l-0.28,0.56l-0.28,0.7l-0.14,0.7l-0.56,0.28l-0.14,0.7l-0.14,0.7l-0.14,0.7
		l-0.14,0.7v0.7v0.7v0.7v0.7V286l0.14,0.7l0.14,0.56l0.14,0.56l0.14,0.56l0.28,0.56l0.28,0.56l0.28,0.56l0.28,0.56l0.42,0.42
		l0.42,0.42l0.42,0.42l0.42,0.42l0.42,0.42l0.42,0.28l0.42,0.28l0.42,0.28l0.56,0.28l0.56,0.28l0.56,0.14l0.56,0.14l0.56,0.14
		l0.56,0.14h0.56h0.56h0.56h0.28h0.28h0.28h0.28h0.28h0.28h0.28h0.28l0.42-0.14l0.42-0.14l0.42-0.14l0.42-0.14l0.42-0.14l0.42-0.14
		l0.42-0.14l0.42-0.14l1.54-8.14l-0.28,0.28l-0.28,0.28l-0.28,0.28l-0.28,0.28l-0.28,0.28l-0.28,0.28l-0.28,0.28l-0.42,0.14
		l-0.42,0.14l-0.42,0.14l-0.42,0.14l-0.28,0.14l-0.42,0.14h-0.28h-0.42h-0.7h-0.28h-0.28l-0.28-0.14h-0.28l-0.28-0.14l-0.28-0.14
		l-0.28-0.14l-0.28-0.14l-0.28-0.14l-0.28-0.14l-0.28-0.14l-0.14-0.14l-0.28-0.14l-0.14-0.28l-0.28-0.56l-0.14-0.28l-0.14-0.28
		l-0.14-0.28l-0.14-0.28l-0.14-0.28v-0.28l-0.14-0.28v-0.28v-0.28v-0.7v-0.42v-0.42v-0.28v-0.42l0.14-0.42l0.14-0.28l0.14-0.42
		l0.14-0.42l0.14-0.28l0.14-0.28l0.14-0.28l0.28-0.7l0.14-0.28l0.28-0.28l0.14-0.28l0.28-0.28l0.28-0.28l0.28-0.28l0.28-0.28
		l0.28-0.28l0.28-0.28l0.28-0.28l0.28-0.14l0.28-0.14l0.28-0.14l0.28-0.14l0.28-0.14l0.28-0.14l0.28-0.14l0.28-0.14l0.28-0.14h0.28
		h0.28h0.28h0.7h0.42h0.42h0.28l0.42,0.14l0.28,0.14l0.28,0.14l0.28,0.14l0.28,0.14l0.28,0.28l0.28,0.28l0.28,0.28l0.28,0.28
		l0.28,0.28l0.14,0.28l0.14,0.28L174.36,268.74L174.36,268.74L174.36,268.74z"/>
	<path id="XMLID_104_" class="st1" d="M471.04,238.59l0.7-7.43h-4.35l0.14,0.28l0.28,0.28l0.14,0.28l0.14,0.28l0.14,0.28l0.14,0.42
		v0.42v0.42v0.28v0.28l-0.14,0.28l-0.14,0.28l-0.14,0.28l-0.14,0.28l-0.14,0.28l-0.28,0.42l-0.14,0.28l-0.28,0.14h-0.14l-0.14,0.14
		l-0.28,0.14l-0.28,0.14l-0.28,0.14l-0.28,0.14l-0.42,0.14l-0.42,0.14l-0.42,0.14l-0.42,0.14h-0.42l-0.56,0.14h-0.42h-0.56v0.42
		v0.42l0.14,0.42l0.14,0.42l0.14,0.42l0.14,0.28l0.14,0.28l0.28,0.28l0.14,0.14l0.14,0.14l0.14,0.14l0.14,0.14l0.28,0.14l0.42,0.14
		l0.42,0.14h0.42h0.42h0.42h0.42h0.42h0.42h0.14h0.28l0.42-0.14l0.42-0.14l0.42-0.14l0.42-0.14l0.42-0.28l0.42-0.28l0.42-0.28
		l0.28-0.28l0.28-0.28l0.28-0.42l0.28-0.42L471.04,238.59z M444.81,226.24v-0.42v-0.28v-0.28l-0.14-0.28l-0.14-0.28l-0.14-0.28
		l-0.14-0.28l-0.14-0.14l-0.14-0.14l-0.28-0.14l-0.28-0.14l-0.28-0.14l-0.28-0.14l-0.28-0.14l-0.28-0.14l-0.28-0.14h-0.42h-0.42
		h-0.42h-0.42h-0.42h-0.42h-0.42h-0.56h-0.98l-0.84,0.14h-0.84l-0.84,0.14l-0.7,0.14l-0.7,0.14l-0.28,0.14l-0.28,0.14l-0.28,0.14
		l-0.28,0.14l-0.28,0.14l-0.28,0.14l-0.28,0.14l-0.28,0.14l-0.14,0.14l-0.14,0.14l-0.14,0.14l-0.14,0.14l-0.14,0.14l-0.14,0.14
		l-0.14,0.14l-0.14,0.14l-0.14,0.14v0.14v0.14v0.28v0.42v0.42v0.28l0.14,0.28v0.14l0.14,0.14v0.14l0,0h0.14h0.14h0.14h0.14h0.14
		h0.14l0,0v-0.14h12.48l-0.14-0.14l0.28-0.14l0.28-0.14l0.28-0.28l0.14-0.28l0.14-0.28l0.14-0.28l0.14-0.28L444.81,226.24z
		 M449.02,228.21h41.52l-0.28,2.95h-2.81l-1.54,16.55h-5.47l1.54-16.55h-5.05l-1.54,16.55h-5.33l0.42-3.79l-0.42,0.28l-0.42,0.28
		l-0.42,0.28l-0.42,0.14l-0.42,0.28l-0.42,0.14l-0.42,0.14l-0.42,0.14l-0.42,0.14h-0.28h-0.14l-0.42,0.14l-0.84,0.14h-0.42h-0.42
		h-0.42h-0.7h-0.7l-0.56-0.14l-0.56-0.14l-0.28-0.14l-0.28-0.14l-0.28-0.14l-0.28-0.14l-0.28-0.14l-0.28-0.14l-0.28-0.14l-0.28-0.14
		l-0.28-0.14l-0.28-0.14l-0.28-0.14l-0.14-0.14l-0.28-0.14l-0.14-0.14l-0.14-0.14l-0.28-0.14l-0.14-0.28l-0.28-0.28l-0.14-0.28
		l-0.14-0.28l-0.28-0.56l-0.28-0.56l-0.14-0.56l-0.14-0.56l-0.14-0.56l-0.14-0.56l-0.14-0.7v-0.7v-0.7v-0.7l0.84-0.42l0,0l0,0h0.14
		h0.14h0.28h0.42h0.42h0.42h0.42h0.42h0.42h0.28l0.42-0.14l0.28-0.14l0.42-0.14l0.28-0.14l0.28-0.14l0.14-0.14l0.14-0.14l0.14-0.14
		l0.14-0.14l0.14-0.14l0.14-0.14v-0.14l0.14-0.14v-0.14v-0.14v-0.28v-0.42v-0.14v-0.28v-0.14v-0.14l-0.14-0.14l0.28,0l-0.14-0.14
		l-0.14-0.14l-0.14-0.14l-0.14-0.14l-0.14-0.14l-0.14-0.14l-0.14-0.14h-9.54l-0.42,4.49H442h-0.28h-0.28h-0.14h-0.14h-0.14h-0.14
		l-0.14,0.14v0.14v0.14v0.14v0.14v0.14v0.14v0.14v0.14v0.14v0.14v0.14v0.14l0.14,0.14l0.14,0.14l0.14,0.14h0.14h0.14l0.28,0.14h0.14
		H442h5.61h0.28l0.56,0.14h0.28l0.28,0.14h0.28l0.28,0.14l0.28,0.14l0.14,0.14l0.42,0.28l0.28,0.14l0.28,0.14l0.14,0.14l0.28,0.14
		l0.14,0.14l0.14,0.28l0.14,0.14l0.14,0.14l0.14,0.28l0.14,0.14l0.14,0.28l0.14,0.28l0.14,0.28l0.14,0.28l0.14,0.28v0.28v0.28v0.28
		v0.28v0.28v0.28v0.42l-0.14,0.28l-0.14,0.28l-0.14,0.28l-0.14,0.28l-0.14,0.28l-0.14,0.28l-0.14,0.28l-0.14,0.28L451.4,247
		l-0.28,0.28l-0.28,0.28l-0.28,0.28l-0.28,0.28l-0.56,0.42l-0.28,0.14l-0.28,0.14l-0.28,0.14l-0.42,0.14l-0.28,0.14l-0.42,0.14
		l-0.42,0.14l-0.42,0.14l-0.42,0.14l-0.84,0.14h-0.42h-0.42h-0.84h-0.7l-0.7-0.14l-0.7-0.14l-0.84-0.14l-0.98-0.14l-0.98-0.28
		l-0.84-0.28l-0.84-0.28l-0.84-0.28l-0.7-0.28l-0.42-0.14l-0.28-0.14l-0.28-0.14l-0.28-0.14l-0.28-0.14l-0.14-0.14l-0.28-0.14
		l-0.28-0.14l-0.28-0.14l-0.28-0.28l-0.28-0.28l-0.28-0.28l1.82-4.49l0,0l0,0v0.14l0.14,0.14l0.14,0.14l0.28,0.28l0.28,0.28
		l0.42,0.28l0.56,0.28l0.56,0.28l0.7,0.28l0.7,0.28l0.7,0.28l0.7,0.28l0.7,0.28l0.7,0.14l0.7,0.14l0.56,0.14h0.42h0.42h0.42h0.42
		h0.42h0.42h0.28h0.28l0.28-0.14h0.28l0.28-0.14l0.28-0.14l0.14-0.14l0.14-0.14l0.14-0.14l0.14-0.14l0.14-0.14l0.14-0.14l0.14-0.28
		l0.14-0.14v-0.14v0.14v-0.14l-0.14-0.14l-0.14-0.14l-0.14-0.14l-0.14-0.14l-0.14-0.14l-0.14-0.14l-0.14-0.14h-0.14l-0.14-0.14
		h-0.28h-0.28h-0.28h-4.77h-0.28h-0.28l-0.56-0.14h-0.28h-0.28l-0.28-0.14l-0.28-0.14l-0.42-0.14l-0.28-0.14l-0.28-0.14l-0.28-0.14
		l-0.28-0.14l-0.28-0.14l-0.14-0.14l-0.28-0.14l-0.14-0.14l-0.14-0.28l-0.14-0.14l-0.14-0.28l-0.14-0.28l-0.14-0.14l-0.14-0.28
		l-0.14-0.28l-0.14-0.28l-0.14-0.14v-0.28v-0.28v-0.56v-0.28l0.14-0.28v-0.28l0.14-0.28v-0.28l0.14-0.28l0.14-0.14l0.14-0.28
		l0.14-0.28l0.14-0.14l0.14-0.14l0.14-0.14l0.28-0.14l0.28-0.14l0.14-0.14l0.28-0.14l0.42-0.28l0.42-0.28l0.56-0.28l0.56-0.14
		l0.56-0.14l0.56-0.14h0.56h0.56h5.19l0.14-1.4h-15.15l-1.54,16.55h-5.33l1.54-16.55h-2.81l0.28-2.95h2.1l-0.14-0.14l-0.14-0.14
		v-0.14v-0.28v-0.28v-0.28v-0.14v-0.28l0.14-0.42l0.14-0.42l0.14-0.42l0.14-0.42l0.14-0.42l0.14-0.42l0.28-0.42l0.14-0.42l0.28-0.28
		l0.28-0.42l0.28-0.28l0.28-0.28l0.28-0.28l0.42-0.28l0.42-0.28l0.42-0.28l0.42-0.28l0.42-0.14l0.42-0.28l0.56-0.14l0.56-0.14
		l0.56-0.14l0.56-0.14l0.56-0.14l0.56-0.14l0.56-0.14h0.7h0.7h0.7h0.7h1.54h0.84h0.84h0.84h0.7l0.7,0.14l0.7,0.14l0.7,0.14
		l0.56,0.14l0.56,0.14l0.56,0.14l0.56,0.14l0.56,0.14l0.42,0.28l0.42,0.28l0.42,0.28l0.28,0.28l0.28,0.28l0.28,0.28l0.28,0.28
		l0.14,0.28l0.14,0.28l0.14,0.28l0.14,0.28l0.14,0.28l0.14,0.7l0.14,0.42v0.28v0.42v0.42v0.42v0.42v0.28v0.14v0.28l-0.14,0.14
		l-0.14,0.14l-0.14,0.14l-0.14,0.14l-0.14,0.14l-0.28,0.28L449.02,228.21z M423.77,226.1l0.28-0.28l0.28-0.28l0.28-0.28l0.14-0.28
		l0.14-0.28l0.14-0.28l0.14-0.42v-0.42v-0.42v-0.28v-0.42l-0.14-0.28l-0.14-0.28l-0.14-0.28l-0.14-0.28l-0.28-0.28l-0.28-0.28
		l-0.28-0.28l-0.28-0.14l-0.28-0.14l-0.28-0.14l-0.28-0.14h-0.28h-0.42h-0.42h-0.42l-0.42,0.14l-0.42,0.14l-0.42,0.14l-0.28,0.28
		l-0.28,0.14l-0.42,0.28l-0.28,0.28l-0.28,0.28l-0.28,0.28l-0.28,0.28l-0.14,0.28l-0.14,0.42l-0.14,0.42v0.42v0.42v0.42v0.14v0.14
		v0.14l0.14,0.14v0.14l0.14,0.14l0.14,0.14l0.14,0.14l0.28,0.28l0.28,0.28l0.28,0.28l0.28,0.14l0.28,0.14l0.42,0.14l0.28,0.14
		l0.42,0.14h0.42h0.42h0.42h0.42l0.28-0.14l0.28-0.14l0.28-0.14l0.28-0.14l0.28-0.28L423.77,226.1z M399.5,231.15h14.31l-0.14,1.54
		h-7.15h-0.56l-0.56,0.14l-0.56,0.14l-0.42,0.14l-0.42,0.14l-0.42,0.14l-0.42,0.28l-0.28,0.14l-0.28,0.14l-0.28,0.14l-0.28,0.14
		l-0.14,0.14l-0.14,0.14l-0.14,0.14l-0.14,0.14l-0.14,0.14l-0.14,0.28l-0.14,0.28l-0.14,0.14l-0.14,0.42l-0.14,0.28v0.28v0.42v0.28
		l0.14,0.28v0.28v0.14l0.14,0.14l0.14,0.14l0.14,0.14l0.14,0.14l0.14,0.14l0.14,0.14l0.14,0.14l0.28,0.14l0.14,0.14l0.28,0.14
		l0.42,0.28l0.42,0.14l0.42,0.14l0.42,0.14l0.42,0.14l0.56,0.14h0.56h0.56h4.63h0.28h0.28h0.14h0.14h0.14v0.14l0,0h0.14v0.14v0.14
		v0.14v0.28v0.28l-0.14,0.28l-0.14,0.14l-0.14,0.14l-0.14,0.14l-0.14,0.14l-0.28,0.14h-0.28h-0.28h-0.42h-0.7h-0.84h-0.84h-0.84
		h-0.84l-0.7-0.14l-0.7-0.14l-0.56-0.14l-0.56-0.14l-0.56-0.14l-0.56-0.28l-0.56-0.28l-0.56-0.28l-0.56-0.28l-0.7,3.37l0.42,0.28
		l0.42,0.28l0.56,0.14l0.42,0.14l0.28,0.84l0.28,0.84l0.28,0.7l0.28,0.56l0.14,0.28l0.14,0.28l0.14,0.28l0.28,0.42l0.14,0.14
		l0.14,0.14l0.14,0.14l0.28,0.14l0.28,0.14l0.28,0.14l0.28,0.14l0.42,0.14l0.42,0.14l0.42,0.14l0.42,0.14h0.56l0.56,0.14h0.56h0.56
		h0.56h0.7h0.7h0.7h0.56h0.42h0.28h0.14l0.42-3.37h-1.26h-1.12h-0.42h-0.42h-0.42l-0.42-0.14l-0.28-0.14L408.9,247l-0.28-0.14
		l-0.14-0.14l-0.14-0.14l-0.14-0.14l0,0v-0.14v-0.14h0.14v-0.14v-0.14h0.42h0.56h0.56h0.56H411h0.56h0.56h0.56h0.56l0.56-0.14
		l0.56-0.14l0.42-0.14l0.42-0.14l0.42-0.14l0.42-0.14l0.42-0.14l0.14-0.14l0.14-0.14l0.14-0.14l0.14-0.14l0.28-0.28l0.14-0.28
		l0.14-0.14l0.14-0.28l0.14-0.14l0.14-0.14l0.14-0.28l0.14-0.28l0.14-0.28l0.14-0.28v-0.28l0.14-0.28v-0.28v-0.28v-0.28v-0.28v-0.28
		l-0.14-0.42l-0.14-0.28l-0.14-0.14l-0.14-0.28l-0.14-0.14l-0.14-0.14l-0.14-0.14l-0.14-0.14l-0.14-0.14l-0.14-0.14l-0.28-0.14
		l-0.14-0.14l-0.14-0.14l-0.42-0.14l-0.42-0.14l-0.42-0.14l-0.98,0.56h-0.56h-5.61h-0.42h-0.28h-0.28h-0.14h-0.14h-0.14h-0.14
		l-0.14-0.14v-0.14v-0.14v-0.14v-0.14v-0.28l0.14-0.14l0.14-0.14l0.14-0.14l0.14-0.14l0.14-0.14h0.28h0.28h10.66l0.42-4.63h3.09
		l0.28-2.95h-22.58L399.5,231.15z M368.78,246.3v0.28v0.28v0.56v0.28v0.28l-0.14,0.28l-0.14,0.28l-0.14,0.28l-0.14,0.28l0-0.14
		l-0.28,0.14l-0.28,0.14l-0.28,0.14l-0.28,0.14l-0.28,0.14l-0.28,0.14h-0.28h-0.28h-0.28h-0.28h-0.28l-0.42-0.14l-0.28-0.14
		l-0.28-0.14l-0.28-0.14l-0.28-0.14l0.42-0.14l-0.14-0.14l-0.14-0.14l-0.14-0.28l-0.14-0.28v-0.28v-0.56V247l0.14-0.28l0.28-0.56
		l0.14-0.28l0.14-0.28l0.14-0.14l0.28-0.14l0.28-0.14l0.28-0.14l0.28-0.14l0.28-0.14l0.28-0.14h0.28h0.28h0.28h0.28h0.28l0.28,0.14
		l0.28,0.14l0.28,0.14l0.14,0.14l0.28,0.14l0.14,0.14l0.14,0.28l0.14,0.14l0.14,0.14L368.78,246.3z M366.26,237.46v-0.28v-0.28
		l0.14-0.98l0.14-0.84l0.14-0.84l0.14-0.7l0.14-0.7v-0.56v-0.42v-0.42h5.19l-0.7,7.15l-0.14,0.14l-0.14,0.14l-0.14,0.14l-0.14,0.14
		l-0.28,0.14l-0.28,0.14l-0.14,0.14l-0.28,0.14l-0.28,0.14l-0.28,0.14h-0.28h-0.28h-0.28h-0.28h-0.28h-0.28h-0.28l-0.28-0.14h-0.28
		l-0.14-0.14l-0.14-0.14l-0.14-0.14l-0.14-0.14l-0.14-0.14l-0.14-0.14v-0.28l-0.14-0.28v-0.28v-0.42v-0.28H366.26z M360.22,231.15
		h1.54v0.28v0.42v0.56l-0.14,0.7l-0.14,0.84l-0.14,0.98l-0.14,1.12l-0.14,1.26v0.28v0.28v0.28v0.28v0.28v0.28l0.14,0.28l0.14,0.28
		l0.14,0.28l0.14,0.28l0.14,0.28l0.14,0.28l0.14,0.28l0.14,0.28l0.14,0.28l0.28,0.28l0.14,0.28l0.28,0.28l0.28,0.14l0.28,0.14
		l0.28,0.14l0.28,0.14l0.28,0.14l0.28,0.14l0.28,0.14l0.28,0.14l0.28,0.14l0.56,0.14h0.28h0.28h0.28h0.56h0.56h0.56l0.56-0.14l0,0
		l0.42-0.14l0.42-0.14l0.42-0.14l0.42-0.28l-0.42,4.35h5.33l0.84-8.98l0.14-0.14l0.14-0.14l0.14-0.14l0.14-0.14l0.14-0.14l0.28-0.14
		l0.14-0.14l0.14-0.14l0.28-0.14l0.14-0.14l0.28-0.14h0.28h0.28l0.28-0.14h0.28H380h0.42h0.42h0.28h0.28l0.28,0.14l0.28,0.14
		l0.28,0.14l0.28,0.14l0.14,0.14l0.14,0.14l0.14,0.28l0.14,0.14l0.14,0.28v0.28v0.56v0.28l-0.14,0.28l-0.14,0.14l-0.14,0.28
		l-0.14,0.14l-0.14,0.14l-0.14,0.14l-0.14,0.14l-0.28,0.14l-0.28,0.14l-0.28,0.14h-0.28h-0.28h-0.28h-0.28h-0.42h-0.42h-0.42h-0.14
		h-0.14h-0.14h-0.14l-0.42,3.93l0.14,0.14h0.14l0.14,0.14l0.14,0.14l0.14,0.14h0.14h0.14h0.14h0.42H380h0.56h0.56h0.42h0.42h0.42
		h0.28h0.42l0.28-0.14l0.28-0.14l0.28-0.14l0.28-0.14l0.28-0.14l0.28-0.14l0.28-0.14l0.28-0.14l0.28-0.14l0.28-0.14l0.28-0.14
		l0.28-0.14l0.28-0.28l0.28-0.28l0.28-0.14l0.28-0.28l0.28-0.28l0.14-0.28l0.14-0.28l0.14-0.28l0.14-0.28l0.14-0.28l0.14-0.7
		l0.14-0.28l0.14-0.42v-0.42v-0.42v-0.42v-0.28v-0.42v-0.42l-0.14-0.7l-0.14-0.28l-0.14-0.28l-0.14-0.28l-0.14-0.28l-0.14-0.28
		l-0.14-0.28l-0.14-0.28l-0.28-0.28l-0.28-0.28l-0.28-0.28l-0.28-0.28l-0.28-0.14l-0.28-0.14l-0.28-0.14l-0.28-0.14l-0.28-0.14
		l-0.28-0.14l-0.28-0.14l-0.28-0.14l-0.28-0.14h-0.28l-0.42-0.14h-0.42h-0.42h-0.98l-0.56,0.14l-0.56,0.14l-0.56,0.14l-0.56,0.14
		l-0.56,0.14l-0.56,0.28l-0.56,0.28l0.28-3.09h12.48l0.28-2.95h-29.74L360.22,231.15L360.22,231.15z M360.78,227.08l0.28-0.14
		l0.28-0.14l0.28-0.14l0.28-0.14l0.42-0.28l0.42-0.28l0.42-0.28l0.28-0.42l0.28-0.42l0.28-0.42l0.28-0.42l0.28-0.42l0.28-0.56
		l0.28-0.56l0.28-0.56l0.28-0.56h-5.75v0.28v0.28l-0.14,0.28l-0.14,0.14l-0.14,0.14l-0.14,0.14l-0.14,0.14l-0.28,0.14l-0.28,0.14
		l-0.28,0.14l-0.28,0.14l-0.42,0.14h-0.42h-0.42h-0.42h-0.42h-0.42h-0.42h-0.42l-0.42-0.14h-0.14l-0.14-0.14h-0.14h-0.14l-0.14-0.14
		l-0.14-0.14l-0.14-0.14l-0.14-0.14l-0.14-0.14l-0.14-0.14l-0.14-0.14l-0.14-0.14v-0.14v-0.14v-0.28v-0.14h-5.75l0.14,0.56
		l0.14,0.56l0.14,0.56l0.14,0.56l0.14,0.42l0.14,0.42l0.28,0.42l0.28,0.42l0.28,0.42l0.28,0.42l0.28,0.28l0.42,0.28l0.28,0.14
		l0.28,0.14l0.28,0.14l0.28,0.14l0.28,0.14l0.28,0.14l0.42,0.14l0.42,0.14l0.42,0.14h0.42l0.42,0.14h0.42h0.42h0.42h0.42h0.42h0.56
		h0.42H357h0.42h0.42l0.42-0.14h0.42l0.84-0.28l0.42-0.14l0.42-0.14L360.78,227.08L360.78,227.08z M337.36,231.15l0.28-2.81h21.6
		l-0.28,2.95h-2.81l-1.54,16.55h-5.33l1.54-16.55h-2.81v-0.14h-2.1l-1.54,16.69h-5.33l0.84-8.28h-4.07l0.14-2.24l0.14-1.54h4.07
		l0.42-4.63L337.36,231.15L337.36,231.15z M336.1,241.11v-0.42v-0.14v-0.14l-0.14-0.28l-0.14-0.28l-0.14-0.28l-0.14-0.28l-0.14-0.28
		l-0.28-0.28l-0.28-0.28l-0.28-0.28l-0.28-0.28l-0.28-0.28l-0.42-0.28l0.28-0.14l0.28-0.14l0.56-0.28l0.28-0.28l0.28-0.14l0.28-0.14
		l0.14-0.28l0.14-0.28l0.14-0.28l0.14-0.28l0.28-0.56v-0.14v-0.14v-0.28l0.14-0.28v-0.42v-0.28v-0.28v-0.28l-0.14-0.28l-0.14-0.28
		l-0.14-0.28l-0.14-0.28l-0.14-0.28l-0.14-0.28l-0.28-0.28l-0.14-0.28l-0.28-0.28l-0.28-0.14l-0.28-0.14l-0.28-0.14l-0.28-0.14
		l-0.28-0.14l-0.28-0.14l-0.28-0.14l-0.28-0.14l-0.28-0.14l-0.28-0.14h-0.28l-0.7-0.14l-0.7-0.14h-0.7h-0.84h-0.42h-0.56l-0.42,0.14
		l-0.56,0.14l-0.56,0.14l-0.56,0.14l-0.56,0.14l-0.56,0.14l-0.56,0.28l-0.56,0.28l-0.56,0.14l-0.56,0.28l1.54,3.79l0.56-0.28
		l0.56-0.28l0.56-0.14l0.56-0.14l0.56-0.14l0.56-0.14l1.12-0.14h0.28h0.28h0.28h0.28h0.28l0.14,0.14l0.14,0.14l0.14,0.14l0.14,0.14
		l0.14,0.14l0.14,0.14l0.14,0.14v0.14v0.14v0.14v0.14v0.14v0.14v0.14v0.14l-0.14,0.14l-0.14,0.14l-0.14,0.14l-0.14,0.14l-0.14,0.14
		h-0.14l-0.14,0.14h-0.14h-0.14h-0.14h-4.21l-0.28,3.37h3.79h0.28h0.28h0.28l0.14,0.14h0.14l0.14,0.14l0.14,0.14l0.28,0.28
		l0.14,0.14l0.14,0.14v0.14v0.14v0.14v0.28v0.14v0.28l-0.14,0.28l-0.14,0.28l-0.14,0.28l-0.14,0.28l-0.14,0.14l-0.14,0.14
		l-0.28,0.14l-0.14,0.14l-0.56,0.7l-0.28,0.14h-0.28l-0.28,0.14h-0.42h-0.42h-0.42h-0.28h-0.28h-0.14l-0.56-0.14l-0.28-0.14
		l-0.28-0.14l-0.28-0.14l-0.28-0.14l-0.28-0.14l-0.28-0.14l-0.28-0.14l-0.28-0.14l-0.28-0.28l-0.28-0.14l-0.28-0.14l-0.28-0.28
		l-0.28-0.28l-0.28-0.28l-0.28-0.28l-0.28-0.28l-0.28-0.28l-0.28-0.28l-0.28-0.28l-2.81,3.65l0.14,0.28l0.28,0.28l0.28,0.28
		l0.28,0.28l0.28,0.28l0.7,0.7l0.42,0.28l0.42,0.28l0.42,0.28l0.42,0.28l0.42,0.28l0.42,0.28l0.42,0.14l0.42,0.14l0.42,0.14
		l0.42,0.14l0.42,0.14l0.42,0.14l0.42,0.14l0.42,0.14h0.42h0.42h0.42h0.28h0.28h0.28h0.28h0.42h0.42h0.42h0.42h0.42l0.42-0.14
		l0.42-0.14l0.42-0.14l0.28-0.14l0.42-0.14l0.28-0.14l0.28-0.14l0.28-0.14l0.28-0.14l0.28-0.14l0.28-0.14l0.28-0.28l0.28-0.14
		l0.28-0.14l0.14-0.28l0.28-0.28l0.14-0.28l0.14-0.28l0.14-0.28l0.14-0.28l0.14-0.28l0.14-0.28l0.14-0.28v-0.42v-0.14v-0.28v-0.42
		v-0.42v-0.42v-0.42L336.1,241.11L336.1,241.11z M280.27,231.15h12.2l-0.84,8.7l-0.14,0.14l-0.14,0.14l-0.14,0.14l-0.14,0.14
		l-0.14,0.14l-0.42,0.28l-0.28,0.14l-0.28,0.14l-0.28,0.14h-0.28l-0.28,0.14h-0.28h-0.28h-0.28h-0.28h-0.28h-0.28h-0.14l-0.14-0.14
		l-0.14-0.14l-0.14-0.14l-0.14-0.14l-0.14-0.14l-0.14-0.14l-0.14-0.14l-0.14-0.14v-0.28v-0.28v-0.28v-0.28v0v-0.28l0.14-0.28v-0.28
		l0.14-0.28l0.14-0.14l0.14-0.14l0.14-0.14l0.14-0.14l0.14-0.14l0.14-0.14l0.28-0.14l0.28-0.14l0.28-0.14h0.28h0.28h0.28h0.28h0.28
		h0.28l0.28,0.14l0.28,0.14l0.28,0.14l0.28,0.28l0.28,0.28l0.42-4.07l-0.14-0.14l-0.14-0.14l-0.14-0.14l-0.28-0.14l-0.14-0.14h-0.14
		l-0.28-0.14l-0.28-0.14h-0.28h-0.28h-0.28h-0.28h-0.56h-0.7h-0.28H287h-0.28h-0.28h-0.28l-0.28,0.14l-0.28,0.14l-0.28,0.14
		l-0.28,0.14l-0.28,0.14l-0.7,0.14l-0.28,0.14l-0.28,0.14l-0.28,0.28l-0.28,0.14l-0.28,0.28l-0.28,0.28l-0.14,0.28l-0.28,0.28
		l-0.14,0.28l-0.14,0.28l-0.14,0.28l-0.14,0.28l-0.14,0.28l-0.14,0.28l-0.14,0.28l-0.14,0.28l-0.14,0.28l-0.14,0.28v0.42v0.42v0.42
		v0.42v0.98v0.28v0.28l0.14,0.28v0.28l0.14,0.28l0.28,0.56l0.14,0.28l0.14,0.28l0.14,0.28l0.14,0.28l0.14,0.28l0.14,0.28l0.14,0.14
		l0.28,0.14l0.28,0.14l0.28,0.14l0.28,0.14l0.28,0.14l0.28,0.14l0.28,0.14l0.28,0.14l0.28,0.14h0.28h0.28h0.28h0.28h0.28h0.7h0.7
		l0.7-0.14l0.7-0.14l0.7-0.14l0.7-0.14l0.7-0.28l0.56-0.28l-0.28,3.23h5.33l0.84-8.98l0.14-0.28l0.14-0.14l0.14-0.28l0.14-0.14
		l0.14-0.14l0.28-0.14l0.14-0.14l0.14-0.14l0.14-0.14l0.28-0.14l0.14-0.14h0.14l0.28-0.14h0.14h0.42h0.42h0.28h0.28h0.28h0.28
		l0.14,0.14l0.14,0.14l0.14,0.14l0.14,0.14l0.14,0.14l0.14,0.14v0.14l0.14,0.42v0.28v0.28v0.28v0.28v0.28v0.28l-0.14,0.28
		l-0.14,0.28l-0.14,0.14l-0.14,0.28l-0.14,0.14l-0.14,0.14l-0.14,0.14l-0.14,0.14h-0.28h-0.28h-0.28h-0.28h-0.28h-0.28h-0.14
		l-0.28-0.14h-0.28h-0.28l-0.28-0.14l-0.28-0.14l-0.42,4.91l0.14,0.14l0.14,0.14l0.14,0.14h0.14h0.14h0.14h0.28h0.28h0.28h1.12h0.42
		h0.28h0.28h0.28l0.28-0.14l0.28-0.14l0.28-0.14l0.28-0.14l0.28-0.14l0.28-0.14l0.28-0.14l0.28-0.14l0.28-0.14l0.28-0.14l0.28-0.28
		l0.28-0.14l0.28-0.28l0.28-0.28l0.28-0.28l0.28-0.28l0.28-0.28l0.14-0.28l0.14-0.28l0.14-0.28l0.14-0.28l0.14-0.28l0.28-0.7v-0.28
		l0.14-0.42l0.14-0.7v-0.42v-0.42v-0.7v-0.42v-0.28v-0.28l-0.14-0.28l-0.14-0.28l-0.14-0.28l-0.28-0.56l-0.14-0.28l-0.14-0.28
		l-0.14-0.28l-0.28-0.28l-0.28-0.28l-0.28-0.28l-0.28-0.28l-0.28-0.14l-0.28-0.14l-0.28-0.28l-0.28-0.14l-0.28-0.14l-0.28-0.14
		l-0.28-0.14l-0.28-0.14l-0.28-0.14h-0.42h-0.42h-0.42h-0.56h-0.28h-0.28h-0.28l-0.56,0.14l-0.56,0.14l-0.56,0.14l-0.56,0.28
		l-0.56,0.28l-0.56,0.28l0.28-2.95h14.59l0.28-2.95h-31.84L280.27,231.15L280.27,231.15z M280.83,227.08h-0.42l-0.28-0.14
		l-0.28-0.14l-0.28-0.14l-0.28-0.14l-0.28-0.14l-0.28-0.28l-0.28-0.28l-0.14-0.28l-0.14-0.14l-0.14-0.14l-0.14-0.14v-0.14v-0.14
		v-0.14v-0.14v-0.14V224v-0.42v-0.42l0.14-0.42l0.14-0.42l0.14-0.28l0.14-0.28l0.28-0.28l0.28-0.28l0.28-0.28l0.28-0.28l0.28-0.14
		l0.28-0.28l0.42-0.14l0.42-0.14l0.42-0.14h0.42h0.42h0.42h0.42l0.28,0.14l0.28,0.14l0.28,0.14l0.28,0.14l0.28,0.28l0.28,0.28
		l0.28,0.28l0.14,0.28l0.14,0.28l0.14,0.28l0.14,0.28v0.42v0.28v0.42l-0.14,0.42l-0.14,0.42l-0.14,0.28l-0.14,0.28l-0.14,0.28
		l-0.28,0.28l-0.14,0.28l-0.28,0.28l-0.28,0.28l-0.28,0.28l-0.28,0.14l-0.28,0.14l-0.28,0.14l-0.28,0.14h-0.42h-0.42L280.83,227.08
		L280.83,227.08z M265.26,240.83l-0.56,0.14h-0.28h-0.28h-0.28h-0.14h-0.42h-0.28h-0.28h-0.28h-0.28l-0.28-0.14l-0.28-0.14h-0.14
		l-0.14-0.14l-0.14-0.14l-0.14-0.14l-0.14-0.14l-0.14-0.28v-0.28v-0.28v-0.28v-0.28v-0.28v-0.14v-0.14v-0.14l0.14-0.14l0.14-0.14
		l0.14-0.14l0.14-0.14l0.14-0.14l0.14-0.14l0.14-0.14l1.4,1.26l2.52,2.24L265.26,240.83z M278.72,228.21h-1.4l-0.14-0.28l-0.28-0.56
		l-0.28-0.56l-0.28-0.56l-0.28-0.56l-0.28-0.56l-0.28-0.56l-0.28-0.56l-0.28-0.56l-0.28-0.42l-0.42-0.42l-0.42-0.56l-0.42-0.42
		l-0.42-0.42l-0.42-0.42l-0.42-0.42l-0.42-0.42l-0.28-0.28l-0.42-0.42l-0.42-0.28l-0.42-0.28l-0.42-0.28l0.28-0.28l-3.79,3.09
		l0.56,0.28l0.56,0.28l0.56,0.42l0.42,0.42l0.42,0.42l0.42,0.42l0.42,0.42l0.42,0.42l0.42,0.56l0.42,0.56l0.42,0.56l0.42,0.56
		l0.42,0.56l0.28,0.56l0.28,0.56h-1.82l-0.14-0.14l-0.28-0.56l-0.42-0.56l-0.42-0.56l-0.42-0.56l-0.56-0.56l-0.56-0.56l-0.56-0.56
		l-0.56-0.42l-0.56-0.42l-0.56-0.42l-2.52,3.51h0.28h0.28h0.28l0.28,0.14l0.14,0.14l0.28,0.14l0.14,0.14l0.14,0.14l0.14,0.14
		l0.28,0.42l0.28,0.42l0,0H255.3l-0.28,2.95h14.45l-0.7,8l-0.28,0.14l-0.14,0.14l-0.28,0.14h-0.14l-0.14,0.14l-0.14,0.14l-3.79-3.65
		h0.42h0.28h0.28h0.28h0.28h0.42l0.42,0.14l0.56,0.14l0.42,0.14l0.42,0.14h0.28h0.14l0.42-3.37l-0.14-0.14l-0.14-0.14h-0.14
		l-0.14-0.14l-0.42-0.14l-0.56-0.14l-0.7-0.14h-0.7h-0.84h-0.98h-0.42h-0.14h-0.28h-0.42h-0.42l-0.7,0.14l-0.28,0.14l-0.42,0.14
		l-0.28,0.14l-0.28,0.14l-0.28,0.14l-0.28,0.14l-0.28,0.14l-0.28,0.14l-0.28,0.14l-0.28,0.14l-0.28,0.28l-0.28,0.28l-0.28,0.28
		l-0.28,0.28l-0.28,0.28l-0.28,0.28l-0.14,0.28l-0.14,0.28l-0.14,0.28l-0.14,0.28l-0.14,0.42l-0.14,0.28l-0.14,0.42l-0.14,0.42v0.42
		v0.42v0.42v0.42v0.42v0.28v0.28l0.14,0.28l0.14,0.28l0.14,0.28l0.14,0.28l0.14,0.28l0.14,0.28l0.14,0.28l0.28,0.28l0.28,0.28
		l0.28,0.28l0.28,0.28l0.28,0.14l0.28,0.14l0.28,0.14l0.28,0.14l0.28,0.14l0.28,0.14l0.28,0.14h0.28l0.28,0.14l0.28,0.14h0.28h0.28
		h0.28h0.28h0.7h0.98h0.42l0,0h0.42h0.42h0.42l0.42-0.14h0.42l0.42-0.14l0.42-0.14l0.42-0.14l0.42-0.14l0.42-0.14l0.42-0.14
		l0.28-0.14l0.28-0.14l-0.42,3.93h5.33l1.54-16.55h3.51l0.28-2.1L278.72,228.21L278.72,228.21z M181.23,228.21h68.73l-0.28,2.95
		h-5.05l-0.42,3.51l0.28,0.28l0.14,0.28l0.42,0.56l0.14,0.28l0.14,0.28l0.14,0.42l0.14,0.28l0.14,0.42v0.42v0.42v0.42v0.42v0.42
		v0.42v0.56v0.42l-0.14,0.42l-0.14,0.42l-0.14,0.42l-0.14,0.42l-0.14,0.42l-0.14,0.42l-0.14,0.42l-0.14,0.28l-0.28,0.42l-0.14,0.28
		l-0.28,0.28l-0.28,0.28l-0.28,0.28l0,0.42l-0.28,0.28l-0.28,0.28l-0.28,0.28l-0.28,0.28l-0.28,0.28l-0.28,0.28l-0.28,0.14
		l-0.28,0.14l-0.28,0.14l-0.28,0.14l-0.28,0.14l-0.28,0.14h-0.28h-0.28h-0.42h-0.7h-0.84h-0.84h-0.7l-0.56-0.14h-0.28h-0.28
		l-0.14-0.14h-0.14l-0.14-0.14h-0.14l-0.14-0.14l-0.14-0.14l0.42-4.07l0.14,0.14l0.14,0.14l0.42,0.14l0.42,0.14l0.56,0.14h0.42h0.42
		h0.42h0.28h0.28l0.28-0.14l0.28-0.14l0.56-0.42l0.28-0.14l0.14-0.28l0.14-0.28l0.14-0.28l0.14-0.28l0.14-0.42l0.14-0.42l0.14-0.42
		l0.14-0.42v-0.42v-0.42v-0.42v-0.42v-0.42v-0.28l-0.14-0.28v-0.28l-0.14-0.28l-0.14-0.14l-0.14-0.14l-0.14-0.14v-0.14l-0.14-0.14
		l-0.14-0.14l-0.14-0.14h-0.14h-0.14h-0.14h-0.14h-0.14h-0.28h-0.28h-0.28h-0.28l-0.28,0.14l-0.28,0.14l-0.28,0.14l-0.28,0.14
		l-0.28,0.28l-0.28,0.28l-0.14,0.42l-0.14,0.28l-0.14,0.28l-0.14,0.28l-0.14,1.82h-5.05l0.28-2.1v-0.28v-0.28v-0.14l-0.14-0.14
		l-0.14-0.14l-0.14-0.14l-0.28-0.14l-0.14-0.14l-0.28-0.14h-0.28h-0.28h-0.28h-0.42h-0.28h-0.14l-0.14,0.14h-0.14h-0.14l-0.14,0.14
		l-0.14,0.14l-0.14,0.14l-0.14,0.14l-0.14,0.14l-0.14,0.14l-0.14,0.14l-0.14,0.14l-0.14,0.28l-0.14,0.28l-0.14,0.28l-0.14,0.28
		l-0.14,0.42l-0.14,0.42l-0.14,0.42v0.42v0.42v0.42v0.42v0.42l0.14,0.42l0.14,0.28l0.14,0.14l0.14,0.14l0.14,0.14l0.14,0.14
		l0.14,0.28l0.28,0.14l0.28,0.14l0.28,0.14h0.28l0.28,0.14h0.28h0.28h0.28l0.28-0.14l0.28-0.14l0.28-0.14l0.42-0.14l0.42-0.14
		l0.42-0.14l0.42-0.28l-0.42,4.49l-0.14,0.14l-0.14,0.14l-0.14,0.14h-0.14l-0.42,0.14l-0.42,0.14l-0.56,0.14h-0.56h-0.7h-0.84h-0.7
		h-0.28l-0.28-0.14l-0.28-0.14l-0.28-0.14l-0.28-0.14l-0.56-0.28l-0.28-0.14l-0.28-0.14l-0.28-0.14l-0.28-0.28l-0.28-0.28
		l-0.28-0.28l-0.42-0.56l-0.28-0.28l-0.14-0.28l-0.14-0.28l-0.14-0.42l-0.14-0.28l-0.14-0.42l-0.14-0.42l-0.14-0.42l-0.7-0.56v-0.42
		v-0.42v-0.42v-0.42v-0.42v-0.42v-0.42v-0.42l0.14-0.42l0.14-0.42l0.14-0.42l0.14-0.42l0.14-0.42l0.14-0.42l0.42-0.7l0.28-0.42
		l0.28-0.28l0.28-0.28l0.28-0.28l0.28-0.28l0.28-0.28l0.28-0.28l0.28-0.28l0.28-0.14l0.28-0.14l0.28-0.14l0.28-0.14l0.28-0.14
		l0.28-0.14l0.28-0.14l0.28-0.14l0.28-0.14l0.42-0.14h0.28h0.42h0.42h0.42h0.42h0.42h0.42h0.42l0.42,0.14l0.42,0.14l0.42,0.14
		l0.42,0.14l0.28,0.14l0.28,0.14l0.28,0.28l0.28,0.28l0.28,0.28l0.28,0.28l0.28,0.28l0.28,0.42l0.28-0.42l0.42-0.42l0.42-0.56
		l0.56-0.56l0.42-0.28l0.42-0.14l0.42-0.14l0.28-0.14l0.28-0.14l0.28-0.14h0.28h0.28h0.42h0.42h0.42h0.42l0.14-1.96h-23.29
		l-0.56,5.47h-6.73l-0.42,0.14l-0.42,0.14l-0.42,0.14l-0.42,0.14l-0.28,0.14l-0.28,0.14l-0.28,0.14l-0.28,0.28l-0.14,0.28
		l-0.28,0.28l-0.14,0.28l-0.14,0.28l-0.14,0.28l-0.14,0.42v0.28v0.42v0.56v0.14v0.14v0.14l0.14,0.14v0.14l0.14,0.14l0.14,0.14
		l0.14,0.14l0.14,0.14l0.14,0.14l0.14,0.14l0.14,0.14l0.14,0.14l0.28,0.14l0.28,0.14l0.28,0.14l0.28,0.14l0.42,0.14h0.42h0.42h0.42
		h0.28h0.28h0.42h0.28l0.28-0.14h0.28l0.28-0.14l0.28-0.14l0.28-0.14l0.28-0.14l0.28-0.14l0.42-0.14l0.28-0.14l0.28-0.14l0.28-0.14
		l0.28-0.14l0.42-0.28l0.42-0.28l0.28-0.28l0.28-0.28l0.28-0.28l0.14-0.14l0.14-0.14l0.14-0.14l1.26,4.91l-0.7,0.42l-0.7,0.42
		l-0.7,0.42l-0.7,0.42l-0.7,0.28l-0.7,0.28l-0.7,0.28l-0.84,0.28l-0.7,0.14h-0.28l5.61,6.73l-3.79,3.09l-4.63-6.17l-5.33,5.05
		l-3.37-3.23l6.59-5.61h-0.28l-0.84-0.28l-0.42-0.14l-0.42-0.14l-0.42-0.14l-0.42-0.28l-0.28-0.14l-0.28-0.28l-0.28-0.28l-0.28-0.28
		l-0.28-0.28l-0.28-0.28l-0.28-0.28l-0.28-0.42l-0.28-0.42l-0.14-0.42l-0.14-0.42l-0.14-0.42l-0.14-0.42l-0.14-0.42l-0.14-0.42
		v-0.42v-0.42v-0.42v-0.56v-0.56l0.14-0.56l0.14-0.42l0.14-0.42l0.14-0.42l0.14-0.42l0.14-0.42l0.28-0.42l0.28-0.42l0.28-0.42
		l0.28-0.42l0.42-0.28l0.42-0.28l0.42-0.28l0.42-0.28l0.42-0.28l0.56-0.28l0.56-0.28l0.56-0.28l0.56-0.14l0.56-0.14l0.56-0.14h0.28
		h0.28h0.28h0.28h2.52l0.14-1.54h-31.28l-1.54,16.55h-5.33l0.56-6.59h-5.19l0.28-3.93h5.19l0.56-6.17h-6.03l0.14,0.14l0.14,0.28
		l0.14,0.14l0.14,0.14l0.14,0.14l0.14,0.28v0.14v0.28v0.28v0.28v0.28v0.28v0.28v0.28v0.28v0.28v0.42v0.42v0.42v0.42l-0.14,0.42
		l-0.14,0.42l-0.14,0.28l-0.14,0.28l-0.14,0.28l-0.14,0.28l-0.14,0.28l-0.14,0.28l-0.14,0.28l-0.28,0.28l-0.28,0.28l-0.28,0.28
		l-0.28,0.14l-0.28,0.14l-0.28,0.14l-0.28,0.14l-0.28,0.14l-0.28,0.14l-0.28,0.14l-0.28,0.14l-0.28,0.14h-0.28l-0.28,0.14h-0.28
		h-0.42h-0.7h-0.42v0.28v0.28v0.28l0.14,0.28l0.14,0.28l0.14,0.28l0.14,0.28l0.14,0.28l0.14,0.14l0.28,0.14l0.28,0.14l0.28,0.14
		l0.28,0.14h0.42h0.42h0.42h0.7h0.7l0.7-0.14l0.84-0.14l0.56-0.14h0.42l0.28-0.14h0.14l-0.42,4.07l0,0l0,0l0,0h-0.14l-0.42,0.14
		l-0.7,0.14l-0.42,0.14h-0.42h-0.42h-0.42h-0.42h-0.42h-0.42h-0.42h-0.7h-0.7l-0.7-0.14l-0.56-0.14l-0.56-0.14l-0.56-0.14
		l-0.56-0.14l-0.42-0.14l-0.28-0.14l-0.14-0.14l-0.14-0.14l-0.14-0.14l-0.14-0.14l-0.14-0.14l-0.14-0.14l-0.14-0.14l-0.28-0.28
		l-0.14-0.14l-0.14-0.14l-0.14-0.14l-0.14-0.14l-0.14-0.14v-0.28l-0.14-0.56l-0.14-0.56l-0.14-0.56v-0.56v-0.7v-0.56v-0.7l0.14-0.56
		H155l0.28-3.51h4.21h0.28h0.28h0.28h0.28h0.7h0.28l0.28-0.14l0.28-0.14l0.28-0.14l0.28-0.14l0.14-0.14l0.14-0.14l0.14-0.14
		l0.14-0.28l0.14-0.28l0.14-0.28l0.14-0.28v-0.28v-0.42v-0.28v-0.28v-0.28l-0.14-0.28v-0.14l-0.14-0.14v-0.14v-0.14l-0.28-0.14
		l-0.14-0.14l-0.14-0.14l-0.28-0.14l-0.28-0.14h-0.14h-0.14h-0.14h-7.15l0.28-2.95h21.04l-0.14-0.28l-0.28-0.42l-0.28-0.42
		l-0.28-0.42l-0.28-0.42l-0.28-0.42l-0.28-0.42l-0.42-0.42l-0.42-0.28l-0.84-0.7l-0.42-0.28l-0.42-0.28l-0.42-0.28l-0.42-0.28
		l-0.56-0.28l3.51-3.09l0.28,0.14l0.28,0.14l0.42,0.14l0.28,0.14l0.28,0.28l0.28,0.28l0.42,0.28l0.28,0.28l0.42,0.28l0.42,0.42
		l0.42,0.42l0.42,0.42l0.28,0.42l0.42,0.42l0.28,0.42l0.42,0.42l0.56,0.98l0.28,0.56l0.28,0.56l0.28,0.56l0.28,0.56l0.28,0.56
		L181.23,228.21z M196.8,237.6v-0.28l-0.14-0.28l-0.14-0.14l-0.14-0.14l-0.14-0.14l-0.14-0.14l-0.14-0.14l-0.14-0.14h-4.49
		l0.14,0.14l0.14,0.14l0.14,0.14l0.14,0.14l0.14,0.14v0.14l0.14,0.14v0.14v0.28v0.14v0.28v0.28v0.56v0.56v0.14v0.14v0.14v0.14
		l-0.14,0.14l-0.14,0.14l-0.14,0.14l-0.14,0.14l-0.14,0h-0.14h-0.14h-0.14h-0.42h-0.28h-0.14h-0.14h-0.14l-0.14-0.14h-0.14
		l-0.14-0.14l-0.14-0.14l-0.14-0.14l-0.14-0.14l-0.14-0.14l-0.14-0.14v-0.14l-0.14-0.14v-0.14v-0.14v-0.56v-0.28v-0.28l0.14-0.28
		l0.14-0.28l0.14-0.28l0.14-0.28l0.14-0.14l0.14-0.14l0.14-0.14l0.28-0.14l0.28-0.14l0.28-0.14h0.28h0.28h10.1l0.28-3.09h-11.36
		h-0.42h-0.42h-0.42h-0.42l-0.42,0.14l-0.42,0.14l-0.42,0.14l-0.42,0.14l-0.42,0.14l-0.42,0.28l-0.42,0.14l-0.28,0.28l-0.28,0.28
		l-0.28,0.28l-0.28,0.28l-0.28,0.28l-0.28,0.42l-0.14,0.42l-0.14,0.42l-0.14,0.42l-0.14,0.42l-0.14,0.42l-0.14,0.42l-0.14,0.42v0.28
		v0.28v0.28v0.28v0.28v0.28l0.14,0.28l0.14,0.28l0.14,0.28l0.14,0.28l0.14,0.28l0.14,0.28l0.14,0.28l0.14,0.28l0.14,0.28l0.28,0.28
		l0.28,0.28l0.28,0.14l0.28,0.28l0.28,0.14l0.28,0.14l0.28,0.14l0.28,0.14l0.28,0.14l0.28,0.14l0.28,0.14l0.28,0.14h0.28h0.42h0.42
		h0.42h0.42h0.42h0.42h0.28l0.28-0.14h0.28l0.28-0.14h0.28l0.28-0.14l0.28-0.14l0.28-0.14l0.28-0.14l0.28-0.14l0.28-0.14l0.28-0.14
		l0.28-0.14l0.28-0.14l0.28-0.28l0.28-0.28l0.14-0.28l0.28-0.28l0.14-0.28l0.14-0.28l0.14-0.28l0.14-0.28l0.14-0.28l0.14-0.28
		l0.14-0.28l0.14-0.28l0.14-0.28v-0.28v-0.28v-0.28v-0.42v-0.56v-0.42L196.8,237.6L196.8,237.6z"/>
	<rect id="XMLID_106_" x="12.06" y="202.82" class="st1" width="105.49" height="106.19"/>
	<path id="XMLID_120_" class="st2" d="M99.73,255.28l-20.9-20.48h-5.05h-8.28v-2.38h8.28h5.05l22.3,22.72L99.73,255.28z
		 M92.86,255.42l-14.03-13.61h-5.05h-8.28v-2.38l8.28-0.14h5.05l15.57,15.99L92.86,255.42z M73.78,285.58l-7.72,7.72l-0.28-1.68
		l8-8.14l12.34-12.76v-13.47h2.38l0.14,13.61L73.78,285.58z M73.78,276.32l5.47-5.75V257.1h2.38l0.14,13.61l-8,7.86l-7.86,7.72
		l-0.28-1.54L73.78,276.32z M56.53,260.47l-4.49-4.63l4.49-4.35l9.12-8.98l8.28,8.7l4.77,5.05l-4.77,4.77l-8.7,8.56L56.53,260.47z
		 M56.53,280.39h-5.19l-22.3-22.72l1.54-0.28l20.9,20.48h5.05h8.28v2.38L56.53,280.39z M37.45,257.38l14.03,13.61h5.05h8.28v2.38
		l-8.28,0.14h-5.19l-15.57-15.99L37.45,257.38z M64.53,228.07l-8,8.42l-5.47,5.75v13.47h-2.38l-0.14-13.47l8-8l7.86-7.72
		L64.53,228.07z M56.53,227.22l7.72-7.57l0.28,1.54l-7.86,8.14l-12.34,12.76v13.47h-2.38l-0.14-13.47L56.53,227.22z M79.4,228.21
		v-14.73H64.53l-8,8.56l-18.94,19.92H23.43v14.45l27.35,28.48v14.03h13.89l8.98-9.12l18.52-18.8h13.75v-15.85L79.4,228.21z"/>
</g>
</svg>
