<svg width="2500" height="595" viewBox="0 0 2500 595" fill="none" xmlns="http://www.w3.org/2000/svg">
<g clip-path="url(#clip0_29_504)">
<mask id="mask0_29_504" style="mask-type:luminance" maskUnits="userSpaceOnUse" x="-2213" y="-6244" width="6651" height="7254">
<path d="M-2212.6 1010H4437.13V-6243.82H-2212.6V1010Z" fill="white"/>
</mask>
<g mask="url(#mask0_29_504)">
<path fill-rule="evenodd" clip-rule="evenodd" d="M-2.2334 11.3788H2497.27V762.851H-2.2334V11.3788Z" fill="white"/>
<path fill-rule="evenodd" clip-rule="evenodd" d="M30.8027 563.54H646.485V48.0791H30.8027V563.54Z" fill="#176FC1"/>
<path fill-rule="evenodd" clip-rule="evenodd" d="M662.359 563.54H2464.25V49.1099H662.359V563.54Z" fill="#176FC1"/>
<path fill-rule="evenodd" clip-rule="evenodd" d="M2312.56 418.96L2312.44 420.544L2312.11 422.194L2311.77 423.731L2311.1 425.305L2310.54 426.804L2309.76 428.304L2308.75 429.625L2307.85 431.012L2306.62 432.212L2305.39 433.402L2304.05 434.396L2302.48 435.333L2301.81 435.82L2300.91 436.214L2300.13 436.457L2299.46 436.795L2298.45 436.935L2297.67 437.301L2296.66 437.385L2295.76 437.573L2295.54 437.629L2293.97 437.826L2291.96 437.873H2291.06L2289.16 437.741L2288.38 437.573L2287.59 437.385L2286.81 437.301L2286.02 437.048L2285.35 436.795L2284.57 436.457L2283.9 436.214L2283.34 435.82L2282.78 435.333L2282.11 434.892L2281.66 434.396L2281.32 433.89L2280.76 433.402L2279.98 432.231L2279.31 431.012L2278.75 429.625L2278.52 428.304L2278.41 426.879V425.399L2278.52 423.777L2278.75 422.194L2279.31 420.553L2279.64 418.96L2280.43 417.554L2281.32 416.205L2282.11 414.79L2283.23 413.384L2284.46 412.325L2285.69 411.079L2287.03 409.898L2288.49 408.96L2289.27 408.632L2290.05 408.154L2290.95 407.817L2291.73 407.452L2292.52 407.236L2293.52 406.955L2294.31 406.674L2295.32 406.505H2295.54L2297.11 406.299L2299.12 406.233H2300.02H2300.91L2301.92 406.374L2302.7 406.439L2303.6 406.608L2304.16 406.814L2305.06 407.152L2305.73 407.377L2306.51 407.62L2307.18 408.08L2307.85 408.408L2308.3 408.895L2308.97 409.382L2309.42 409.766L2309.87 410.432L2310.32 410.947L2311.1 412.063L2311.77 413.356L2312.11 414.687L2312.44 416.121L2312.56 417.554V418.96ZM2319.16 386.965L2317.71 393.891L2316.92 392.925L2316.14 391.904L2315.35 391.126L2314.46 390.217L2313.34 389.551L2312.44 388.764L2311.32 388.174L2309.98 387.593L2308.75 387.068L2307.63 386.487L2306.4 386.159L2305.06 385.69L2303.82 385.409L2302.48 385.175L2301.14 384.997L2299.68 384.847L2299.12 384.781H2294.87L2292.97 384.894L2290.95 385.175L2289.05 385.409L2287.03 385.803L2285.35 386.309L2283.34 386.899L2281.55 387.593L2279.64 388.211L2278.08 389.017L2276.17 390.076L2274.61 390.985L2272.81 392.063L2271.25 393.244L2269.57 394.556L2268.11 395.877L2266.32 397.236L2265.09 398.689L2263.63 400.235L2262.29 401.716L2261.06 403.262L2259.83 404.827L2258.6 406.374L2257.7 407.948L2256.69 409.682L2255.91 411.294L2255.01 412.99L2254.12 414.79L2253.67 416.514L2253 418.426L2252.33 420.16L2251.99 422.109L2251.66 423.834L2251.32 425.727L2251.1 427.526L2250.98 429.316V431.012L2251.1 432.756V434.396L2251.54 436.008L2251.77 437.741L2252.33 439.325L2252.66 440.797L2253.34 442.427L2254.12 443.992L2254.68 445.333L2255.57 446.785L2256.58 448.21L2257.48 449.587L2258.6 450.787L2259.83 451.959L2261.06 453.093L2262.29 454.058L2263.63 455.051L2265.09 455.792L2266.55 456.607L2268.11 457.188L2269.68 457.778L2271.25 458.219L2273.04 458.688L2274.72 458.922L2276.84 459.109L2278.75 459.231L2280.76 459.4H2281.88L2282.44 459.231L2283 459.222L2284.46 459.109L2286.02 458.922L2287.48 458.688L2288.82 458.36L2290.39 458.069L2291.96 457.694L2293.52 457.066L2294.87 456.504L2295.54 456.241L2296.32 455.838L2297.78 455.107L2299.12 454.367L2300.35 453.486L2301.59 452.615L2302.82 451.593L2304.05 450.375L2304.94 449.231H2305.39L2303.6 457.038H2329.57L2345.13 386.965H2319.16ZM2252.33 366.665L2253.11 365.428L2253.9 364.219L2254.57 362.926L2255.01 361.511L2255.46 360.143L2255.57 358.765L2255.69 357.434V356.047L2255.57 354.801L2255.24 353.648L2254.68 352.411L2254.12 351.333L2253.34 350.349L2252.33 349.318L2251.54 348.521L2250.42 347.744L2249.31 347.237L2248.07 346.666L2246.84 346.375L2245.5 346.16L2244.04 346.094H2242.59L2241.02 346.328L2239.57 346.628L2238.22 347.069L2236.88 347.725L2235.42 348.4L2234.08 349.224L2232.74 350.208L2231.51 351.277L2230.5 352.28L2229.38 353.592L2228.71 354.782L2227.81 356.047L2227.25 357.387L2226.58 358.69L2226.36 360.143L2226.13 361.511L2226.02 362.926V364.219L2226.24 365.428L2226.47 366.665L2227.03 367.79L2227.59 368.905L2228.48 370.011L2229.38 370.967L2230.16 371.792L2231.39 372.541L2232.4 373.057L2233.74 373.6L2234.98 373.872L2236.21 373.994L2237.89 374.013L2239.34 373.994L2240.69 373.872L2242.14 373.6L2243.48 373.057L2244.94 372.541L2246.39 371.792L2247.63 370.967L2248.86 370.011L2250.2 368.905L2251.32 367.79L2252.33 366.665ZM2206.43 457.038L2221.88 386.965H2248.07L2232.4 457.038H2206.43ZM2173.18 418.96L2173.07 420.544L2172.84 422.194L2172.28 423.731L2171.73 425.305L2171.17 426.804L2170.38 428.304L2169.37 429.625L2168.25 431.012L2167.25 432.212L2166.02 433.402L2164.45 434.396L2163.11 435.333L2162.21 435.82L2161.65 436.214L2160.75 436.457L2159.86 436.795L2159.08 436.935L2158.18 437.301L2157.4 437.385L2156.39 437.573L2156.05 437.629L2154.6 437.826L2152.58 437.873H2151.57L2150.79 437.826L2150.01 437.741L2148.89 437.573L2147.99 437.385L2147.32 437.301L2146.42 437.048L2145.87 436.795L2145.08 436.457L2144.52 436.214L2143.85 435.82L2143.4 435.333L2142.73 434.892L2142.17 434.396L2141.83 433.89L2141.39 433.402L2140.6 432.231L2139.82 431.012L2139.37 429.625L2139.04 428.304L2138.81 426.879V425.399L2139.04 423.777L2139.37 422.194L2139.82 420.553L2140.27 418.96L2141.05 417.554L2141.83 416.205L2142.73 414.79L2143.74 413.384L2144.97 412.325L2146.2 411.079L2147.66 409.898L2149.22 408.96L2150.01 408.632L2150.79 408.154L2151.46 407.817L2152.25 407.452L2153.14 407.236L2154.04 406.955L2155.04 406.674L2155.72 406.505H2156.05L2157.62 406.299L2159.63 406.233H2160.53H2161.54L2162.43 406.374L2163.33 406.439L2164.11 406.608L2165.01 406.814L2165.79 407.152L2166.46 407.377L2167.14 407.62L2167.81 408.08L2168.25 408.408L2168.93 408.895L2169.37 409.382L2170.05 409.766L2170.49 410.432L2170.83 410.947L2171.61 412.063L2172.28 413.356L2172.73 414.687L2172.96 416.121L2173.18 417.554V418.96ZM2189.3 343.611L2178.22 393.891L2177.55 392.925L2176.76 391.904L2175.98 391.126L2174.97 390.217L2172.96 388.764L2171.84 388.174L2170.61 387.593L2169.37 387.068L2168.25 386.487L2166.91 386.159L2165.68 385.69L2164.34 385.409L2161.65 384.997L2160.42 384.847L2159.75 384.781H2155.6L2153.59 384.894L2151.46 385.175L2149.67 385.409L2147.66 385.803L2145.75 386.309L2143.96 386.899L2142.17 387.593L2140.27 388.211L2138.59 389.017L2136.8 390.076L2135.01 390.985L2133.55 392.063L2131.76 393.244L2130.19 394.556L2128.51 395.877L2127.06 397.236L2125.49 398.689L2124.26 400.235L2122.8 401.716L2121.57 403.262L2120.34 404.827L2119.33 406.374L2118.33 407.948L2117.32 409.682L2116.31 411.294L2115.64 412.99L2114.74 414.79L2114.18 416.514L2113.51 418.426L2112.95 420.16L2112.62 422.109L2112.17 423.834L2111.83 425.727L2111.72 427.526L2111.61 429.316V431.012L2111.72 432.756L2111.83 434.396L2111.94 436.008L2112.39 437.741L2112.84 439.325L2113.29 440.797L2113.96 442.427L2114.52 443.992L2115.3 445.333L2116.09 446.785L2117.09 448.21L2118.21 449.587L2119.33 450.787L2120.34 451.959L2121.57 453.093L2122.92 454.058L2124.26 455.051L2125.6 455.792L2127.06 456.607L2128.63 457.188L2130.19 457.778L2131.98 458.219L2133.66 458.688L2135.45 458.922L2137.36 459.109L2139.37 459.231L2141.16 459.4H2142.51L2142.95 459.231L2143.51 459.222L2145.08 459.109L2146.42 458.922L2147.99 458.688L2149.56 458.36L2151.01 458.069L2152.47 457.694L2153.93 457.066L2155.6 456.504L2156.05 456.241L2157.06 455.838L2158.29 455.107L2159.75 454.367L2160.87 453.486L2162.21 452.615L2163.33 451.593L2164.45 450.375L2165.68 449.231H2166.02L2164.22 457.038H2190.31L2215.38 343.611H2189.3ZM2102.43 400.769L2102.54 402.091L2102.65 403.375V406.233L2102.54 407.62L2102.21 410.732L2101.98 412.325L2101.65 413.89L2092.02 457.038H2066.05L2073.55 422.821V422.484L2073.77 422.194V421.762L2073.88 421.378L2074.11 420.76L2074.22 420.113L2074.33 419.457L2074.55 418.707L2074.67 418.004V417.451L2074.89 416.008L2075.11 414.958V411.95L2074.89 411.022L2074.67 410.019L2074.44 409.092L2074.11 408.164L2073.88 407.761L2073.77 407.245L2073.43 406.955L2073.1 406.608L2072.65 406.233L2072.32 405.887L2071.76 405.783L2071.2 405.484L2070.19 405.034L2068.96 404.827L2067.5 404.631H2064.93L2063.14 404.743L2062.13 404.902L2061.46 405.034L2060.56 405.287L2059.78 405.484L2059.11 405.83L2058.32 406.046L2057.76 406.439L2057.09 406.814L2056.31 407.245L2055.86 407.761L2055.19 408.295L2054.63 408.801L2054.18 409.401L2053.28 410.629L2052.39 411.95L2051.6 413.234L2050.82 414.687L2050.15 416.121L2049.59 417.554L2049.25 419.213L2048.92 420.76L2040.86 457.038H2014.77L2030.22 386.965H2056.31L2054.18 395.877H2054.52L2056.08 394.378L2057.65 393.103L2059.11 391.744L2060.56 390.648L2062.13 389.617L2063.7 388.67L2065.15 387.836L2066.72 387.152L2068.28 386.627L2069.85 386.159L2071.53 385.69L2073.21 385.39L2075 385.1L2076.68 384.894L2078.58 384.781H2082.28L2083.96 384.847L2085.75 384.997L2087.32 385.175L2088.66 385.503L2090.23 385.896L2091.46 386.309L2092.8 386.674L2093.81 387.34L2094.93 387.836L2095.94 388.577L2097.84 390.076L2098.62 390.967L2099.18 391.857L2099.74 392.794L2100.41 393.844L2100.86 394.837L2101.31 395.999L2101.76 397.105L2101.98 398.277L2102.32 399.542L2102.43 400.769ZM1992.05 354.013L1968.99 457.038H1997.09L2019.81 354.013H1992.05ZM1933.28 343.62L1932.04 343.217L1930.81 342.945L1929.36 342.683L1928.13 342.467L1926.67 342.392H1923.31L1921.41 342.617L1919.62 342.786L1917.83 343.011L1915.92 343.611L1914.24 343.995L1912.23 344.52L1910.44 345.223L1908.65 346.019L1906.97 346.834L1905.18 347.744L1903.5 348.681L1901.93 349.824L1900.25 350.939L1898.68 352.261L1897.23 353.592L1896.44 354.126L1895.77 354.782L1895.21 355.438L1894.65 355.944L1894.09 356.581L1893.53 357.181L1892.97 357.828L1892.53 358.324L1891.52 359.552L1890.73 360.62L1889.95 361.764L1889.28 362.992L1888.61 364.21L1888.16 365.335L1887.6 366.45L1887.15 367.631L1886.37 370.067L1885.59 372.616L1884.91 375.278L1884.35 378.024L1882.34 386.965H1873.27L1868.68 407.452H1877.75L1866.67 457.038H1892.75L1903.83 407.452H1921.86L1926.45 386.965H1908.42L1910.77 375.737L1911.22 374.257L1911.45 372.973L1911.89 371.651L1912.45 370.461L1913.01 369.496L1913.57 368.502L1914.24 367.546L1914.69 366.787L1915.48 366.056L1916.15 365.606L1917.04 365.053L1917.94 364.744L1919.06 364.341L1919.95 364.21L1921.18 363.994L1922.42 363.938H1923.2L1924.1 363.994L1924.88 364.219L1925.66 364.341L1926.45 364.454L1927.12 364.744L1927.9 365.006L1928.69 365.335L1929.25 365.578L1929.92 365.709L1930.48 366.009L1931.04 366.056L1935.74 344.791L1934.62 344.323L1933.28 343.62ZM1833.42 418.96L1833.19 420.544L1832.86 422.194L1832.41 423.731L1831.96 425.305L1831.18 426.804L1830.39 428.304L1829.5 429.625L1828.49 431.012L1826.14 433.402L1824.69 434.396L1823.12 435.333L1822.45 435.82L1821.66 436.214L1820.88 436.457L1819.98 436.795L1819.2 436.935L1818.3 437.301L1817.52 437.385L1816.51 437.573L1816.18 437.629L1814.61 437.826L1812.71 437.873H1811.81L1810.69 437.826L1810.02 437.741L1809.12 437.573L1808.23 437.385L1807.45 437.301L1806.66 437.048L1805.88 436.795L1805.21 436.457L1804.65 436.214L1803.98 435.82L1803.42 435.333L1802.86 434.892L1802.41 434.396L1801.4 433.402L1800.5 432.231L1799.94 431.012L1799.5 429.625L1799.27 428.304L1799.05 426.879V425.399L1799.16 423.777L1799.5 422.194L1799.94 420.553L1800.5 418.96L1801.18 417.554L1801.85 416.205L1802.74 414.79L1803.86 413.384L1805.09 412.325L1806.33 411.079L1807.78 409.898L1809.24 408.96L1810.02 408.632L1810.69 408.154L1811.59 407.817L1812.48 407.452L1813.27 407.236L1814.16 406.955L1814.95 406.674L1815.84 406.505H1816.18L1817.86 406.299L1819.76 406.233H1820.77H1821.66L1822.56 406.374L1823.45 406.439L1824.24 406.608L1825.02 406.814L1825.69 407.152L1826.48 407.377L1827.15 407.62L1827.93 408.08L1828.49 408.408L1829.16 408.895L1829.61 409.382L1830.06 409.766L1830.62 410.432L1831.07 410.947L1831.74 412.063L1832.3 413.356L1832.86 414.687L1833.19 416.121L1833.42 417.554V418.96ZM1861.18 409.87L1860.84 408.08L1860.4 406.299L1859.95 404.631L1859.39 403L1858.61 401.407L1857.71 399.879L1856.93 398.52L1855.7 397.077L1854.46 395.774L1853.12 394.434L1851.78 393.384L1850.32 392.204L1848.87 391.126L1847.3 390.179L1844.05 388.577L1842.26 387.761L1840.47 387.152L1838.68 386.58L1836.78 386.065L1834.87 385.596L1832.86 385.278L1830.95 384.997L1828.83 384.781L1826.7 384.725L1824.46 384.603V384.781H1822.22L1819.98 384.894L1817.86 385.1L1816.18 385.278L1815.84 385.39L1813.6 385.69L1811.59 386.159L1809.46 386.58L1807.33 387.152L1803.19 388.577L1801.29 389.326L1799.27 390.217L1797.37 391.126L1795.24 392.204L1793.34 393.384L1791.32 394.434L1789.53 395.774L1787.85 397.077L1786.06 398.52L1784.38 399.879L1782.93 401.407L1781.47 403L1780.13 404.631L1777.56 408.08L1776.66 409.87L1775.65 411.894L1774.76 413.656L1773.86 415.727L1773.19 417.854L1772.63 419.879L1772.07 422.194L1771.73 424.405L1771.4 426.598L1771.06 428.595V430.572V432.549L1771.29 434.396L1771.4 436.279L1771.85 438.069L1772.41 439.738L1773.08 441.387L1773.75 442.84L1774.64 444.358L1775.65 445.848L1776.66 447.188L1777.89 448.482L1779.23 449.719L1780.58 450.871L1782.03 451.959L1783.6 453.027L1785.28 453.983L1786.85 454.779L1788.41 455.604L1790.32 456.241L1792.11 457.001L1793.79 457.507L1795.69 458.069L1797.48 458.36L1799.5 458.725L1801.62 458.987L1803.75 459.222L1805.88 459.231L1808.01 459.4L1810.24 459.231L1812.37 459.222L1814.5 458.987L1816.18 458.837L1816.51 458.725L1818.75 458.36L1820.88 458.003L1822.89 457.507L1825.02 456.907L1827.04 456.241L1829.16 455.604L1831.07 454.779L1835.1 453.027L1837 451.921L1839.13 450.787L1840.92 449.653L1844.61 447.151L1846.29 445.726L1847.97 444.358L1849.43 442.765L1850.88 441.19L1852.22 439.691L1853.46 437.873L1854.58 436.214L1855.7 434.349L1856.81 432.456L1857.6 430.572L1858.38 428.501L1859.17 426.598L1859.73 424.274L1860.73 419.879L1861.07 417.854L1861.29 415.727L1861.4 413.656L1861.29 411.894L1861.18 409.87ZM1697.18 386.58L1664.69 411.894L1679.82 343.217H1653.77L1628.76 456.626H1654.58L1661.02 428.088L1683.07 456.626H1719.45L1688.89 418.838L1732.78 386.58H1697.18ZM1621.91 400.404L1621.77 399.176L1621.61 397.883L1621.26 396.74L1620.87 395.596L1620.44 394.434L1620 393.45L1619.43 392.466L1618.86 391.435L1618.14 390.545L1617.37 389.664L1616.5 388.933L1615.58 388.174L1614.66 387.461L1613.49 386.965L1612.32 386.309L1611.03 385.896L1609.63 385.503L1608.26 385.175L1606.86 384.847L1605.21 384.603L1603.62 384.481L1601.84 384.331H1598.17L1596.38 384.491L1594.54 384.725L1592.89 384.997L1591.15 385.278L1589.49 385.69L1586.28 386.796L1584.7 387.461L1583.17 388.296L1581.69 389.205L1580.13 390.217L1578.67 391.37L1577.13 392.691L1575.63 394.04L1574.23 395.484H1573.78L1575.94 386.58H1549.87L1534.39 456.626H1560.36L1568.37 420.357L1568.74 418.838L1569.29 417.236L1569.72 415.727L1570.5 414.274L1571.17 412.887L1571.96 411.603L1572.72 410.273L1573.78 408.998L1574.23 408.408L1575.32 407.377L1575.94 406.955L1576.6 406.439L1577.22 406.046L1577.84 405.783L1578.67 405.409L1579.45 405.09L1580.13 404.902L1580.96 404.631L1581.79 404.499L1582.65 404.321L1583.57 404.293L1584.61 404.256H1587.15L1588.51 404.387L1589.8 404.631L1590.94 405.09L1591.37 405.352L1591.81 405.549L1592.29 405.887L1592.62 406.233L1592.91 406.505L1593.25 406.955L1593.51 407.377L1593.78 407.817L1593.99 408.679L1594.26 409.682L1594.54 410.629L1594.7 411.603L1594.79 412.55V413.581L1594.7 414.649L1594.54 415.652L1594.45 416.364L1594.26 417.105L1594.24 417.686L1593.99 418.426L1593.95 418.96L1593.78 419.738L1593.67 420.31L1593.51 421.069L1593.41 421.378L1593.32 421.762L1593.25 422.194L1593.05 422.484L1585.58 456.626H1611.58L1621.2 413.384L1621.45 411.903L1621.77 410.291L1621.91 408.801L1622.11 407.245V405.887L1622.29 404.387V403.056L1622.11 401.716L1621.91 400.404ZM1500.09 418.613L1500.02 420.113L1499.78 421.762L1499.3 423.384L1498.73 424.949L1498.08 426.448L1497.27 427.929L1496.4 429.316L1495.34 430.572L1494.16 431.715L1492.89 432.99L1491.45 434.002L1490.07 434.949L1489.27 435.398L1488.58 435.82L1487.67 436.008L1486.84 436.326L1485.94 436.617L1485.21 436.907L1484.3 437.048L1483.36 437.235H1482.99L1481.5 437.385L1479.56 437.573H1478.57L1476.74 437.357L1475.92 437.235L1474.98 437.048L1474.33 436.907L1473.54 436.654L1472.82 436.326L1472.04 436.008L1471.42 435.82L1470.87 435.398L1470.27 434.949L1469.74 434.536L1469.1 434.002L1468.58 433.524L1468.3 432.99L1467.48 431.903L1466.85 430.572L1466.37 429.316L1466.07 427.929L1465.82 426.598V424.949L1466.07 423.431L1466.37 421.762L1466.72 420.16L1467.25 418.67L1467.98 417.236L1468.87 415.83L1469.74 414.499L1470.66 413.103L1471.95 411.903L1473.21 410.732L1474.59 409.57L1476.12 408.632L1476.84 408.164L1477.61 407.761L1478.46 407.452L1479.27 407.152L1480.14 406.814L1481.02 406.505L1481.9 406.299L1482.82 406.233L1482.99 406.186L1484.63 405.887L1486.53 405.83L1487.53 405.887H1488.44L1489.4 406.046H1490.21L1491.06 406.233L1491.84 406.439L1492.64 406.674L1493.35 407.021L1494.09 407.245L1494.64 407.62L1495.34 408.08L1495.85 408.501L1496.45 408.96L1496.98 409.401L1497.35 410.019L1497.77 410.497L1498.58 411.781L1499.21 412.99L1499.67 414.274L1500.02 415.727L1500.09 417.208V418.613ZM1505.21 393.45L1504.43 392.466L1503.65 391.501L1502.89 390.77L1501.9 389.936L1501.05 389.111L1499.89 388.324L1498.82 387.761L1497.55 387.152L1496.4 386.627L1495.12 386.159L1493.92 385.69L1492.55 385.39L1491.27 385.1L1489.96 384.847L1488.58 384.603L1487.34 384.481L1486.53 384.331H1482.5L1480.39 384.491L1478.46 384.781L1476.54 385.1L1474.59 385.409L1472.82 385.896L1470.9 386.487L1469.06 387.152L1467.25 387.836L1465.5 388.67L1463.73 389.664L1462.06 390.648L1460.38 391.707L1458.74 392.925L1457.13 394.219L1455.48 395.484L1453.95 396.88L1452.51 398.277L1451.17 399.842L1449.71 401.332L1448.48 402.85L1447.33 404.387L1446.26 406.046L1445.2 407.592L1444.2 409.298L1443.39 410.947L1442.47 412.672L1441.8 414.406L1441.03 416.205L1440.46 417.995L1439.9 419.832L1439.56 421.687L1439.15 423.477L1438.84 425.399L1438.62 427.151L1438.52 428.904V430.675L1438.62 432.456L1438.82 434.002L1439.1 435.633L1439.3 437.357L1439.78 438.95L1440.24 440.431L1440.88 441.996L1441.44 443.599L1442.28 444.948L1443.18 446.382L1444.17 447.779L1445.06 449.231L1447.33 451.593L1448.48 452.68L1449.77 453.655L1451.17 454.63L1452.57 455.445L1454.04 456.241L1455.59 456.776L1457.17 457.394L1458.78 457.825L1460.6 458.219L1462.41 458.538L1464.21 458.725L1466.26 458.922L1468.3 458.987H1469.34L1470.02 458.922L1470.5 458.875L1471.99 458.688L1473.54 458.538L1474.94 458.341L1476.47 458.069L1477.91 457.694L1479.49 457.282L1480.85 456.748L1482.31 456.101L1482.99 455.838L1483.95 455.604L1485.35 454.779L1486.53 453.983L1487.96 453.111L1489.18 452.212L1490.32 451.153L1491.45 450.009L1492.55 448.838H1492.89L1491.21 456.626H1517.21L1532.67 386.58H1506.69L1505.21 393.45ZM1403.51 382.738L1403.27 384.172L1402.79 385.69L1402.39 387.105L1401.7 388.296L1401.04 389.326L1400.63 389.936L1400.1 390.32L1399.75 390.77L1399.18 391.126L1398.65 391.435L1398.24 391.744L1397.56 392.063L1397.04 392.241L1395.77 392.691L1394.46 393.103L1393.26 393.384L1391.96 393.703L1390.72 393.891L1389.45 394.04L1388.17 394.097H1387.85L1386.8 394.219H1386.17L1386.06 394.04H1382.76L1387.28 374.125H1391.96L1393.12 374.172L1394.37 374.257L1395.49 374.51L1396.68 374.566L1397.69 374.913L1398.79 375.278L1399.82 375.672L1400.88 376.018L1401.3 376.318L1401.7 376.487L1402.07 376.937L1402.42 377.284L1402.72 377.509L1402.92 378.024L1403.11 378.511L1403.31 378.896L1403.51 380.123L1403.73 381.295L1403.51 382.738ZM1402.11 422.109L1402.07 423.618L1401.7 425.305L1401.32 426.739L1400.88 428.088L1400.3 429.316L1399.6 430.356L1398.65 431.369L1397.69 432.212L1396.68 432.952L1395.49 433.524L1394.3 434.002L1392.95 434.536L1391.79 434.949L1389.12 435.539L1387.85 435.923L1386.52 435.998L1385.28 436.214L1384.34 436.279H1383.24L1382.34 436.326H1377.51L1377.23 436.279L1377.05 436.214H1373.49L1378.45 414.003H1388.88L1390.21 414.059L1391.5 414.246L1392.84 414.406L1394.2 414.649L1395.4 414.949L1396.6 415.343L1397.83 415.727L1398.96 416.205L1399.32 416.514L1399.9 416.786L1400.33 417.208L1400.71 417.554L1401.04 417.995L1401.32 418.501L1401.59 418.96L1401.85 419.569L1401.91 420.113L1402.07 420.76L1402.11 421.378V422.109ZM1430.43 367.931L1430.15 366.665L1429.66 365.428L1429.23 364.341L1428.7 363.273L1428.04 362.298L1427.35 361.37L1426.55 360.499L1425.63 359.74L1424.6 359.055L1423.63 358.324L1422.56 357.678L1421.57 357.106L1420.31 356.581L1419.05 356.047L1417.81 355.56L1416.48 355.166L1415.06 354.801L1413.63 354.519L1412.1 354.341L1410.51 354.079L1408.95 353.873L1407.25 353.685L1405.56 353.648H1363.85L1340.96 456.626H1384.16L1385.97 456.607L1387.85 456.504L1389.58 456.401L1391.46 456.241L1393.26 456.082L1394.98 455.745L1396.77 455.445L1398.61 455.089L1400.33 454.648L1402.11 454.255L1403.79 453.655L1405.56 453.111L1407.25 452.558L1408.95 451.921L1410.79 451.153L1412.41 450.375L1413.94 449.587L1415.49 448.725L1417 447.713L1418.53 446.673L1419.82 445.576L1421.07 444.358L1422.19 443.112L1423.32 441.724L1424.41 440.375L1425.31 438.8L1426.21 437.235L1426.94 435.539L1427.81 433.758L1428.43 431.931L1428.89 430.019L1429.35 428.088L1429.92 425.446L1430.16 422.896L1430.43 420.544L1430.34 418.239L1430.16 417.105L1430.01 416.008L1429.92 414.958L1429.49 414.003L1429.05 412.053L1428.13 410.273L1427.65 409.401L1427.12 408.632L1426.55 407.817L1425.88 407.152L1425.18 406.374L1424.3 405.83L1423.52 405.202L1422.56 404.631L1421.59 404.04L1420.59 403.628L1419.43 403.262L1418.34 402.756L1417.19 402.466L1416 402.157L1414.64 401.922L1413.15 401.716V401.613L1415.06 400.769L1416.65 399.842L1418.29 398.942L1419.67 397.874L1421.07 396.74L1422.19 395.484L1423.45 394.35L1424.41 392.981L1425.31 391.501L1426.21 390.123L1426.94 388.67L1427.65 387.105L1428.43 385.503L1428.89 383.947L1429.35 382.269L1429.83 380.517L1430.16 378.708L1430.43 376.956L1430.61 375.306L1430.77 373.694V370.639L1430.61 369.299L1430.43 367.931ZM1248.49 456.626H1274.36L1299.37 343.217H1273.54L1248.49 456.626ZM1214.16 418.613L1214.07 420.113L1213.74 421.762L1212.82 424.949L1212.08 426.448L1211.23 427.929L1210.29 429.316L1209.31 430.572L1208.21 431.715L1206.94 432.99L1205.5 434.002L1204.1 434.949L1203.25 435.398L1202.49 435.82L1201.65 436.008L1200.86 436.326L1200.04 436.617L1199.19 436.907L1198.29 437.048L1197.3 437.235H1197.1L1195.49 437.385L1193.59 437.573H1192.63L1190.79 437.357L1189.92 437.235L1189.08 437.048L1188.32 436.907L1187.51 436.654L1186.85 436.326L1186.15 436.008L1185.47 435.82L1184.86 435.398L1184.21 434.949L1183.79 434.536L1183.29 434.002L1182.76 433.524L1182.39 432.99L1181.5 431.903L1180.9 430.572L1180.38 429.316L1180.1 427.929L1179.9 426.598V424.949L1180.03 423.431L1180.27 421.762L1180.73 420.16L1181.3 418.67L1182 417.236L1182.76 415.83L1183.79 414.499L1184.76 413.103L1186.07 411.903L1187.2 410.732L1188.66 409.57L1190.04 408.632L1190.96 408.164L1191.71 407.761L1192.47 407.452L1193.3 407.152L1194.14 406.814L1195.01 406.505L1195.91 406.299L1196.8 406.233L1197.1 406.186L1198.66 405.887L1200.54 405.83L1201.63 405.887H1202.49L1203.38 406.046H1204.3L1205.04 406.233L1205.91 406.439L1206.71 406.674L1207.4 407.021L1208.11 407.245L1208.67 407.62L1209.31 408.08L1209.94 408.501L1210.98 409.401L1211.47 410.019L1211.9 410.497L1212.65 411.781L1213.28 412.99L1213.66 414.274L1214.01 415.727L1214.16 417.208V418.613ZM1219.21 393.45L1218.4 392.466L1217.72 391.501L1216.81 390.77L1215.98 389.936L1214.95 389.111L1213.96 388.324L1212.82 387.761L1211.58 387.152L1210.48 386.627L1209.08 386.159L1207.91 385.69L1206.57 385.39L1205.33 385.1L1202.75 384.603L1201.28 384.481L1200.54 384.331H1196.43L1194.46 384.491L1192.47 384.781L1190.63 385.1L1188.66 385.409L1186.76 385.896L1184.92 386.487L1183.07 387.152L1181.3 387.836L1179.55 388.67L1177.81 389.664L1176.09 390.648L1174.37 391.707L1172.77 392.925L1171.11 394.219L1169.58 395.484L1168.02 396.88L1166.56 398.277L1165.07 399.842L1163.79 401.332L1162.53 402.85L1161.4 404.387L1160.19 406.046L1159.28 407.592L1158.21 409.298L1157.31 410.947L1156.43 412.672L1155.83 414.406L1155.12 416.205L1154.53 417.995L1153.92 419.832L1153.49 421.687L1153.2 423.477L1152.87 425.399L1152.67 427.151L1152.62 428.904V432.456L1152.74 434.002L1152.94 435.633L1153.26 437.357L1153.75 438.95L1154.36 440.431L1154.82 441.996L1155.51 443.599L1157.12 446.382L1158.08 447.779L1159.15 449.231L1160.13 450.375L1161.4 451.593L1162.53 452.68L1163.79 453.655L1165.21 454.63L1166.62 455.445L1168.11 456.241L1169.66 456.776L1171.22 457.394L1172.9 457.825L1174.65 458.219L1176.46 458.538L1178.34 458.725L1180.24 458.922L1182.19 458.987H1183.48L1183.92 458.922L1184.55 458.875L1186.07 458.688L1187.46 458.538L1188.95 458.341L1190.5 458.069L1191.94 457.694L1193.43 457.282L1194.94 456.748L1196.43 456.101L1197.1 455.838L1197.81 455.604L1199.26 454.779L1200.71 453.983L1201.98 453.111L1203.07 452.212L1204.39 451.153L1205.5 450.009L1206.57 448.838H1206.94L1205.29 456.626H1231.1L1246.63 386.58H1220.76L1219.21 393.45ZM1152.09 385.69L1157.12 385.596L1151.8 409.401L1151.27 409.382L1150.88 409.092L1149.96 408.679L1148.85 408.295L1147.85 407.948L1146.84 407.761L1145.9 407.592L1144.73 407.452L1143.65 407.377L1142.51 407.245H1141.29L1138.63 407.452L1137.43 407.498L1136.26 407.62L1135.21 407.93L1134.02 408.164L1132.93 408.501L1131.95 408.801L1131.03 409.298L1129.98 409.729L1129.2 410.16L1128.42 410.76L1127.64 411.35L1126.86 411.95L1126.2 412.672L1125.6 413.356L1124.38 414.958L1123.26 416.636L1122.29 418.426L1121.35 420.16L1120.53 422.194L1119.86 424.18L1119.11 426.355L1118.72 428.463L1112.31 456.626H1086.46L1102.04 386.58H1127.92L1125.39 397.995H1125.74L1127 396.552L1128.28 395.109L1129.72 393.844L1131.22 392.466L1132.73 391.435L1134.42 390.404L1136.04 389.551L1139.41 388.043L1141.11 387.396L1142.94 386.899L1144.73 386.487L1146.57 386.159L1148.28 385.896L1150.16 385.69H1152.09ZM1093.6 386.58H1078.99L1083.67 365.428H1057.63L1052.99 386.58H1044.57L1040.07 407.152H1048.45L1037.55 456.626H1063.55L1074.44 407.152H1089.05L1093.6 386.58ZM1028.4 400.404L1028.24 399.176L1027.87 397.883L1027.65 396.74L1027.21 395.596L1026.82 394.434L1026.31 393.45L1025.81 392.466L1025.14 391.435L1024.48 390.545L1023.7 389.664L1022.89 388.933L1021.9 388.174L1020.94 387.461L1019.82 386.965L1018.62 386.309L1017.44 385.896L1016.08 385.503L1014.77 385.175L1013.14 384.847L1011.58 384.603L1010 384.481L1008.28 384.331H1004.59L1002.75 384.491L1000.89 384.725L999.156 384.997L997.544 385.278L995.887 385.69L992.663 386.796L991.096 387.461L989.652 388.296L988.051 389.205L986.506 390.217L984.928 391.37L983.528 392.691L982.062 394.04L980.506 395.484H980.293L982.331 386.58H956.258L940.63 456.626H966.736L974.74 420.357L975.11 418.838L975.614 417.236L976.207 415.727L976.834 414.274L977.539 412.887L978.278 411.603L979.218 410.273L980.159 408.998L980.64 408.408L981.166 407.93L981.782 407.377L982.364 406.955L983.092 406.439L983.573 406.046L984.267 405.783L984.928 405.409L985.801 405.09L987.447 404.631L988.185 404.499L989.081 404.321L990.044 404.293L990.939 404.256H993.413L995.025 404.387L996.145 404.631L997.298 405.09L997.802 405.352L998.138 405.549L998.597 405.887L999.011 406.233L999.335 406.505L999.582 406.955L999.996 407.377L1000.06 407.817L1000.41 408.679L1000.69 409.682L1000.89 410.629L1001.04 411.603L1001.1 412.55V413.581L1001.04 414.649L1000.89 415.652L1000.85 416.364L1000.69 417.105L1000.6 417.686L1000.41 418.426L1000.32 418.96L1000.06 419.738L1000.02 420.31L999.996 421.069L999.794 421.378L999.705 421.762L999.582 422.194L999.537 422.484L991.947 456.626H1017.92L1027.55 413.384L1028.13 410.291L1028.33 408.801L1028.4 407.245L1028.51 405.887L1028.59 404.387V403.056L1028.51 401.716L1028.4 400.404ZM884.7 411.463H914.803L914.758 410.273L914.635 409.092L914.322 407.948L913.93 407.021L913.493 406.046L912.9 405.09L912.206 404.293L911.333 403.375L910.348 402.756L909.519 402.157L908.467 401.613L907.37 401.238L906.262 400.891L905.053 400.685L903.832 400.516H901.123L899.825 400.685H899.724L898.257 400.891L896.992 401.144L895.649 401.613L894.339 402.016L893.231 402.672L891.955 403.262L890.757 403.909L889.615 404.827L888.63 405.783L887.589 406.674L886.861 407.761L886.033 408.895L885.294 410.066L884.7 411.463ZM937.439 408.998L937.484 410.947L937.551 412.887L937.484 414.79L937.327 416.889L937.126 418.96L936.712 421.097L936.32 423.262V423.187L935.726 425.727H881.118L880.805 427.704L880.592 429.372L880.48 431.012L880.637 432.549L880.872 433.89L881.308 435.155L881.969 436.326L882.293 436.907L882.663 437.385L883.077 438.069L883.491 438.407L883.95 438.8L884.588 439.128L885.159 439.522L885.686 439.906L886.38 440.178L887.04 440.431L887.846 440.703L888.507 440.918L889.29 441.068L890.074 441.19L891.955 441.387H894.821H895.94H896.97L897.798 441.153L898.694 440.918L899.567 440.647L899.825 440.525L900.552 440.375L901.381 440L902.299 439.522L903.049 439.091L903.832 438.585L904.661 438.069L905.422 437.357L906.262 436.617L907 435.923L907.639 435.042H932.693L931.887 436.617L931.013 438.069L930.241 439.447L929.368 440.918L928.36 442.221L927.442 443.486L926.334 444.686L925.237 445.857L924.117 446.991L922.919 448.013L921.699 449.063L920.322 449.99L919.091 450.871L916.247 452.558L914.758 453.242L913.236 453.983L911.635 454.517L910.169 455.107L908.669 455.745L907.224 456.241L905.646 456.748L904.157 457.188L902.545 457.516L900.989 457.825L899.825 458.106L899.522 458.181L897.944 458.36L896.377 458.688L894.821 458.725L893.253 458.875L891.809 458.922L890.074 458.987L887.868 458.922L885.686 458.875L883.648 458.688L881.599 458.36L879.562 458.069L877.704 457.694L875.845 457.066L874.032 456.607L872.364 456.082L869.039 454.517L867.449 453.636L864.673 451.715L863.161 450.628L862.042 449.559L860.799 448.21L859.624 446.991L858.706 445.576L857.889 444.171L857.083 442.69L856.411 441.153L855.907 439.447L855.504 437.826L855.224 435.998L854.922 434.227L854.9 432.306V430.356L854.922 428.304L855.224 426.205L855.571 424.012L855.963 421.762L856.411 419.635L857.083 417.554L857.822 415.436L858.46 413.581L859.288 411.603L860.206 409.729L861.214 407.93L862.333 406.233L863.486 404.499L864.673 402.85L865.826 401.238L867.225 399.757L868.692 398.277L870.225 396.965L871.759 395.596L873.438 394.35L875.118 393.103L876.83 391.932L878.734 390.967L880.48 389.936L882.293 389.017L884.197 388.211L886.1 387.593L888.048 386.899L889.973 386.309L892.022 385.69L894.059 385.39L896.13 384.997L898.257 384.725L899.825 384.603L900.373 384.491L902.545 384.331H907.224L909.385 384.491L911.635 384.781L913.695 384.997L915.721 385.39L917.535 385.803L919.483 386.309L921.24 387.068L922.852 387.63L924.431 388.436L925.931 389.326L927.33 390.217L928.629 391.332L929.894 392.466L931.013 393.6L932.077 394.837L933.062 396.234L933.935 397.677L934.685 399.054L935.402 400.601L935.995 402.157L936.476 403.768L936.935 405.484L937.215 407.236L937.439 408.998ZM859.187 356.15L856.366 355.063L853.5 354.013L850.634 353.039L847.612 352.28L846.112 352.13L844.511 351.802L842.955 351.511L839.72 351.277L838.085 351.071H836.574L834.805 350.939H833.562L830.764 351.127L827.965 351.436L825.144 351.802L822.345 352.28L819.546 352.926L816.636 353.826L813.837 354.716L810.971 355.71L808.105 356.853L805.374 358.165L802.642 359.552L800.012 360.902L797.526 362.448L795.03 364.21L792.578 365.859L790.216 367.631L785.783 371.548L783.678 373.694L781.518 375.756L779.726 377.996L777.868 380.236L776.167 382.579L774.588 385.1L773.099 387.593L771.767 390.076L770.457 392.466L769.248 395.109L768.308 397.621L767.367 400.235L766.673 402.756L765.968 405.409L765.453 408.295L765.072 411.079L764.792 413.759L764.513 416.514V419.12L764.792 421.762L765.072 424.255L765.453 426.804L766.058 429.185L766.763 431.622L767.703 433.89L768.789 436.214L769.931 438.257L771.42 440.403L772.942 442.427L774.678 444.358L776.402 446.129L778.282 447.713L780.141 449.297L782.111 450.787L784.227 452.08L786.354 453.383L788.604 454.517L790.944 455.445L793.351 456.373L795.881 457.188L798.355 457.825L800.806 458.36L803.493 458.875L806.18 459.109L808.867 459.231L811.755 459.4H813.154L814.554 459.231L815.841 459.222L817.229 459.109L818.606 458.922L819.961 458.725L821.27 458.538L822.647 458.341L824.394 458.003L826.185 457.516L827.965 457.066L829.734 456.748L831.637 456.241L833.518 455.745L835.477 455.107L837.447 454.63L844.511 422.559L843.089 423.834L841.6 424.949L840.134 426.167L838.678 427.132L837.033 428.088L835.398 428.932L833.753 429.888L831.894 430.572L830.215 431.369L828.357 431.903L826.577 432.456L824.965 432.756L823.106 433.149L821.461 433.402L819.692 433.524H816.367L814.8 433.412L813.311 433.346L811.979 433.027L810.535 432.756L809.203 432.456L807.915 432.034L806.661 431.622L805.441 431.012L804.344 430.385L803.269 429.888L802.228 429.101L801.31 428.304L800.258 427.507L799.519 426.598L797.985 424.649L797.369 423.618L796.608 422.484L796.127 421.378L795.668 420.235L795.119 418.96L794.918 417.854L794.526 416.636L794.437 415.352L794.291 414.059V411.35L794.38 409.898L794.526 408.501L794.817 407.152L795.075 405.549L795.466 404.04L795.925 402.672L796.317 401.144L796.776 399.757L797.437 398.389L798.075 397.077L798.702 395.774L800.258 393.216L801.109 391.932L802.161 390.845L803.012 389.617L804.064 388.436L805.217 387.396L806.359 386.309L807.512 385.175L808.654 384.172L809.964 383.3L811.251 382.363L812.527 381.604L813.837 380.929L815.236 380.236L816.636 379.636L818.035 379.055L819.546 378.549L820.901 378.118L822.424 377.799L823.845 377.509L825.401 377.284L826.89 377.115L828.435 376.956H831.894L833.562 377.115L835.398 377.387L836.876 377.64L838.544 378.118L840.134 378.549L841.6 379.195L843.112 379.842L844.668 380.629L845.866 381.463L847.198 382.344L848.407 383.375L849.47 384.481L850.478 385.596L851.396 386.899L852.079 388.174L859.288 356.047L859.187 356.15Z" fill="white"/>
<path fill-rule="evenodd" clip-rule="evenodd" d="M2269.45 237.156L2272.81 207.869H2252.21L2253.11 208.891L2254.12 209.987L2254.79 211.281L2255.35 212.546L2255.68 213.839L2256.02 215.273V216.904L2255.91 218.441L2255.68 219.509L2255.46 220.596L2255.13 221.711L2254.68 222.742L2254.12 223.689L2253.67 224.57L2252.89 225.61L2251.32 227.185L2250.42 228.131L2249.3 228.834L2248.86 229.106L2248.18 229.565L2246.95 230.287L2245.72 230.952L2244.38 231.58L2242.92 232.124L2240.91 232.901L2238.78 233.445L2236.65 233.942L2234.41 234.495L2232.18 234.766L2229.82 235.123L2227.59 235.216L2225.12 235.347V237.156L2225.35 238.881L2225.68 240.464L2226.13 241.955L2226.69 243.388L2227.47 244.541L2228.37 245.722L2229.38 246.79L2229.94 247.165L2230.5 247.596L2231.17 247.999L2231.84 248.346L2233.18 248.993L2234.86 249.499L2236.65 249.939L2238.44 250.155L2240.35 250.296L2242.59 250.389L2244.38 250.296L2246.28 250.155L2248.18 249.939L2248.86 249.724L2249.98 249.499L2251.77 248.993L2253.67 248.449L2255.35 247.756L2257.03 246.95L2258.71 246.097L2260.39 245.122L2262.07 243.923L2263.52 242.882L2265.09 241.617L2266.66 240.193L2268 238.778L2269.45 237.156ZM2145.08 188.451V187.045V185.827L2144.97 184.693L2144.63 183.549L2144.18 182.593L2143.74 181.684L2143.06 180.794L2142.28 180.1L2141.61 179.407L2140.6 178.835L2139.48 178.179L2138.36 177.748L2137.13 177.317L2135.68 176.914L2134.22 176.502L2132.77 176.22L2130.97 175.949L2129.3 175.724L2127.28 175.555L2125.27 175.433L2123.03 175.386L2120.79 175.227H2118.55L2116.09 175.386L2111.38 175.555L2107.24 175.949L2103.21 176.22L2099.4 176.67L2095.93 177.317L2092.91 177.926L2091.34 178.376L2089.89 178.77L2088.55 179.107L2087.43 179.66L2086.08 180.1L2084.96 180.541L2083.96 181.094L2082.95 181.684L2082.05 182.125L2081.27 182.743L2080.49 183.409L2079.7 183.999L2079.14 184.693L2078.58 185.377L2078.25 186.117L2077.69 186.792L2077.35 187.56L2077.13 188.376L2076.9 189.116L2076.68 189.96V191.562V192.987V194.224L2077.13 195.161V195.611L2077.46 195.901L2077.69 196.22L2077.91 196.482L2078.25 196.679L2078.58 196.885H2078.92L2079.25 196.932L2079.7 196.885L2080.15 196.745V196.595L2080.26 196.295H2139.59L2138.81 195.611L2140.15 194.917L2141.27 194.224L2142.28 193.296L2143.18 192.462L2143.85 191.562L2144.41 190.672L2144.74 189.566L2145.08 188.451ZM2165.01 196.295H2362.04L2360.58 207.869H2347.26L2339.87 273.322H2314.46L2321.85 207.869H2298.11L2290.84 273.322H2265.31L2266.99 258.402L2265.09 259.489L2263.19 260.483L2261.51 261.439L2259.72 262.226L2257.7 263.069L2255.8 263.791L2254.01 264.344L2252.1 265.037L2250.2 265.628L2248.86 265.843L2248.3 265.984L2246.39 266.406L2242.59 266.94L2240.68 267.015L2238.78 267.268H2236.88L2233.63 267.165L2230.5 266.968L2227.59 266.631L2224.79 266.228L2223.56 265.843L2222.1 265.515L2220.98 265.15L2219.64 264.794L2218.41 264.288L2217.29 263.791L2216.17 263.266L2215.05 262.676L2213.93 262.226L2212.92 261.551L2211.91 260.942L2211.02 260.202L2210.01 259.602L2209.11 258.786L2208.33 257.99L2207.32 257.174L2206.88 256.284L2205.87 255.403L2205.2 254.541L2204.52 253.473L2203.29 251.486L2202.06 249.274L2201.28 247.334L2200.49 245.15L2199.82 242.976L2199.49 240.68L2199.04 238.131L2198.82 235.497L2198.7 232.901V230.043L2202.73 228.384L2202.85 228.515L2202.96 228.647H2203.29H2203.96L2205.31 228.684L2207.1 228.834L2209 228.684L2210.79 228.647H2212.58L2214.26 228.384L2216.06 228.131L2217.51 227.897L2219.19 227.4L2220.64 227.035L2222.55 226.341L2224.12 225.657L2225.57 224.842L2226.35 224.326L2226.69 223.904L2227.25 223.436L2227.7 222.855L2228.15 222.424L2228.48 221.833L2228.71 221.337L2229.04 220.709L2229.27 220.053L2229.38 219.415L2229.49 218.441V216.613L2229.38 215.826L2229.15 214.861L2228.93 214.083L2228.71 213.314L2228.37 212.546L2227.81 211.824L2227.47 211.159L2226.8 210.55L2226.35 209.987L2225.57 209.397L2224.79 208.872L2224 208.375L2223.22 207.869H2177.77L2175.87 225.657H2131.65L2130.3 225.723L2129.3 225.882L2128.62 226.107L2128.06 226.229L2127.73 226.407L2127.28 226.66L2126.5 227.185L2126.27 227.606L2126.16 228.047L2125.94 228.468L2125.71 228.834L2125.6 229.228L2125.49 229.743V230.427V231.018V231.627L2125.71 232.124L2125.94 232.686L2126.16 233.061L2126.5 233.445L2127.06 233.764L2127.5 234.157L2128.06 234.429L2128.74 234.682L2130.3 234.991L2131.2 235.123L2132.09 235.169H2158.74L2159.75 235.216L2162.21 235.497L2163.33 235.657L2164.45 235.994L2165.57 236.219L2166.69 236.575L2167.81 236.95L2168.7 237.344L2170.72 238.468L2171.72 239.012L2172.73 239.565L2173.63 240.211L2174.63 240.961L2175.42 241.636L2176.2 242.489L2177.1 243.295L2177.77 243.923L2178.33 244.925L2178.78 245.722L2179.22 246.603L2179.67 247.596L2180.01 248.449L2180.34 249.443L2180.68 250.389L2180.79 251.439L2180.9 252.404L2181.02 253.473V254.541L2180.9 255.712L2180.68 257.053L2180.46 258.618L2180.01 259.949L2179.67 261.261L2179.22 262.62L2178.78 263.903L2178.1 265.15L2177.32 266.406L2176.65 267.549L2175.87 268.739L2173.96 270.848L2172.84 272.001L2171.72 273.05L2170.6 273.978L2169.37 274.99L2166.46 276.846L2165.12 277.596L2163.55 278.317L2162.1 279.039L2160.19 279.733L2158.63 280.173L2156.72 280.829L2155.04 281.241L2152.92 281.663L2151.13 282.019L2147.09 282.507L2145.08 282.769H2142.95H2140.71H2137.24L2133.66 282.45L2130.19 282.094L2126.5 281.607L2121.57 280.792L2116.87 279.798L2112.61 278.908L2108.58 277.886L2104.89 276.846L2101.64 275.731L2099.96 275.103L2098.51 274.559L2096.94 273.828L2095.82 273.322L2094.7 272.825L2093.81 272.244L2092.8 271.485L2091.68 270.839L2090.67 270.154L2089.67 269.302L2088.55 268.289L2087.54 267.427L2096.16 249.939V250.155L2096.27 250.389L2096.38 250.727L2096.83 251.111L2097.73 251.739L2098.85 252.601L2100.41 253.473L2102.32 254.541L2104.67 255.619L2107.35 256.931L2110.38 258.233L2113.62 259.602L2116.64 260.595L2119.67 261.617L2122.8 262.498L2125.82 263.069L2128.85 263.604L2131.65 264.091L2133.66 264.288L2135.56 264.344L2137.47 264.503L2139.26 264.513L2140.94 264.503L2142.62 264.344L2144.18 264.288L2145.64 264.091L2146.76 263.791L2148.33 263.538L2149.33 263.069L2150.45 262.676L2151.35 262.338L2152.24 261.776L2152.92 261.261L2153.7 260.567L2154.26 259.911L2154.71 259.152L2155.04 258.233L2155.38 257.428L2155.6 256.771V256.078L2155.38 255.478L2155.04 254.925L2154.71 254.316L2154.26 253.763L2153.7 253.257L2152.92 252.732L2152.13 252.207L2151.46 251.758L2150.68 251.486L2150.01 251.12L2149 250.998L2147.99 250.82L2146.42 250.689H2123.7L2122.58 250.567L2121.23 250.445L2118.88 250.155L2117.65 249.939L2116.64 249.705L2115.53 249.274L2114.41 248.852L2112.17 248.065L2111.05 247.596L2110.04 246.95L2109.03 246.406L2107.91 245.778L2106.91 245.122L2106.01 244.373L2104.89 243.651L2103.99 242.882L2103.21 242.02L2102.65 241.233L2101.87 240.399L2101.31 239.565L2100.75 238.778L2100.3 237.906L2099.96 236.95L2099.63 236.013L2099.29 235.216V234.298L2099.18 233.323V231.374L2099.29 230.427L2099.63 229.481L2099.74 228.515L2100.19 227.606L2100.41 226.66L2100.97 225.723L2101.42 224.963L2102.2 224.12L2102.76 223.239L2103.55 222.499L2104.33 221.711L2105.23 220.971L2106.23 220.231L2107.24 219.415L2108.14 218.741L2109.37 218.094L2111.38 217.063L2113.62 216.173L2115.97 215.273L2118.32 214.561L2120.68 214.083L2123.03 213.755L2125.49 213.511L2128.06 213.389H2152.69L2153.36 207.869H2081.27L2073.77 273.322H2048.36L2055.75 207.869H2042.42L2043.88 196.295H2053.84L2053.51 195.611L2053.17 194.917L2053.06 194.224L2052.83 193.296L2052.72 192.462L2052.61 191.562L2052.72 190.756V189.763L2053.06 187.898L2053.51 186.098L2053.95 184.215L2054.51 182.434L2055.19 180.719L2056.08 179.107L2057.09 177.551L2057.98 176.099L2059.22 174.73L2060.45 173.287L2061.79 172.05L2063.36 170.766L2064.92 169.566L2066.6 168.432L2068.4 167.392L2070.3 166.417L2072.31 165.48L2074.44 164.656L2076.68 163.784L2079.14 163.062L2081.49 162.378L2084.18 161.769L2086.75 161.207L2089.55 160.663L2092.46 160.27L2095.37 159.923L2098.51 159.651L2101.87 159.464L2105.23 159.229L2108.58 159.089H2115.97L2119.89 159.229L2123.7 159.398L2127.39 159.567L2130.97 159.792L2134.22 160.157L2137.58 160.626L2140.6 161.047L2143.51 161.591L2146.31 162.163L2149 162.856L2151.35 163.615L2153.7 164.431L2155.71 165.293L2157.73 166.23L2159.52 167.195L2161.09 168.273L2162.21 169.182L2163.44 170.054L2164.45 171.103L2165.34 172.191L2166.13 173.287L2167.02 174.327L2167.58 175.621L2168.14 176.895L2168.92 179.407L2169.26 180.906L2169.37 182.265L2169.6 183.821V185.377L2169.37 187.007L2169.26 188.61V189.51L2169.04 190.278L2168.92 191.15L2168.59 191.928L2168.25 192.602L2167.92 193.221L2167.58 193.793L2167.13 194.336L2165.79 195.611L2165.01 196.295ZM2044.89 187.72L2046.23 186.689L2047.35 185.574L2048.47 184.505L2049.25 183.296L2050.04 181.993L2050.48 180.663L2051.04 179.276L2051.27 177.823L2051.38 176.286L2051.27 174.936L2051.16 173.493L2050.71 172.294L2050.15 171.038L2049.36 169.876L2048.47 168.723L2047.35 167.673L2046.23 166.764L2044.89 165.911L2043.54 165.124L2042.2 164.609L2040.63 164.084L2039.06 163.784L2037.5 163.559L2035.82 163.503H2033.92L2032.12 163.615L2030.44 163.943L2028.77 164.431L2027.09 164.852L2025.52 165.705L2024.06 166.417L2022.38 167.392L2020.93 168.432L2019.81 169.566L2018.69 170.766L2017.68 172.05L2016.9 173.343L2016.34 174.833L2015.89 176.22L2015.67 177.823L2015.56 179.276L2015.67 180.719L2015.78 181.394L2015.89 182.097L2016.12 182.743L2016.56 183.409L2016.68 183.999L2017.01 184.693L2017.46 185.217L2017.91 185.78L2019.03 187.007L2020.15 187.954L2021.49 188.891L2022.94 189.716L2024.18 190.353L2025.85 190.85L2027.42 191.281L2029.1 191.562L2030.78 191.731L2032.46 191.834L2034.14 191.731L2035.93 191.478L2037.5 191.15L2039.06 190.756L2040.63 190.128L2042.09 189.51L2043.54 188.61L2044.89 187.72ZM1929.69 207.869H1997.98L1997.2 214.083H1963.5L1960.92 214.27L1958.57 214.561L1956.22 214.926L1953.98 215.47L1951.75 216.173L1949.73 216.904L1947.6 217.756L1946.48 218.225L1945.48 218.741L1944.47 219.415L1943.46 220.053L1942.57 220.709L1941.78 221.496L1941 222.189L1940.33 222.855L1939.77 223.651L1939.32 224.551L1938.76 225.385L1938.2 226.21L1937.86 228.047L1937.53 228.9L1937.42 229.856V231.767L1937.53 232.686L1937.86 233.567L1937.98 234.429L1938.2 235.216L1938.65 235.994L1939.09 236.8L1939.77 237.531L1940.21 238.131L1941 238.881L1941.78 239.565L1942.57 240.193L1943.57 240.764L1944.47 241.28L1945.48 241.955L1947.49 242.882L1949.51 243.688L1951.63 244.373L1953.76 244.925L1955.89 245.235L1958.35 245.628L1960.92 245.778L1963.39 245.853H1985.55L1986.67 246.022L1987.68 246.097L1988.02 246.163L1988.35 246.406L1988.8 246.603L1989.02 246.931L1989.25 247.165L1989.58 247.372L1989.7 247.737L1989.81 248.065L1989.92 248.852V249.818L1989.7 250.727L1989.36 251.598L1988.91 252.329L1988.35 252.985L1987.68 253.473L1986.9 253.951L1985.89 254.316L1984.66 254.56L1983.2 254.794L1980.96 254.822H1977.72L1973.46 254.925L1969.43 254.822L1965.63 254.691L1961.93 254.429L1958.57 254.101L1955.44 253.613L1952.53 253.051L1949.73 252.329L1947.27 251.598L1944.47 250.445L1941.78 249.443L1938.87 248.346L1936.18 247.268L1933.05 260.773L1935.29 261.907L1937.42 262.919L1939.77 263.725L1942.01 264.344L1943.46 267.774L1944.92 270.839L1946.37 273.65L1947.72 276.068L1948.39 277.165L1949.17 278.177L1949.95 279.039L1951.41 280.792L1952.19 281.438L1952.75 282.094L1953.54 282.507L1954.54 283.256L1955.78 283.978L1957.34 284.493L1958.8 285.14L1960.48 285.646L1962.27 286.115L1964.28 286.508L1966.3 286.93L1968.65 287.174L1971 287.511L1973.58 287.783L1976.37 287.933L1979.17 288.064L1982.2 288.214L1985.22 288.326L1988.58 288.373L1991.15 288.326L1992.94 288.214L1994.29 288.064L1994.85 287.877L1996.86 274.784L1990.82 274.7L1985.55 274.559L1983.31 274.372L1981.19 274.128L1979.28 273.978L1977.61 273.678L1976.26 273.341L1974.92 273.05L1973.8 272.722L1972.9 272.282L1972.23 271.879L1971.9 271.382L1971.67 271.185L1971.56 270.848V270.061L1971.9 269.826L1972.01 269.442L1972.23 269.152H1974.25H1976.82H1979.51L1982.2 269.067L1984.88 268.946H1987.46L1990.03 268.927L1992.61 268.739L1995.41 268.636L1997.98 268.289L2000.44 267.952L2002.68 267.502L2004.81 266.968L2006.6 266.406L2008.28 265.684L2009.96 265.037L2010.85 264.503L2011.64 263.903L2012.42 263.266L2013.32 262.676L2014.66 261.439L2015.22 260.595L2015.89 259.911L2016.56 259.011L2016.9 258.233L2017.35 257.418L2017.68 256.425L2018.02 255.403L2018.35 254.429L2018.69 253.426L2018.8 252.329L2019.14 251.12V250.033V248.852V247.943L2019.03 246.828L2018.8 245.778L2018.13 243.923L2017.68 242.976L2017.23 242.198L2016.68 241.28L2016 240.577L2015.33 239.827L2014.55 239.04L2013.76 238.468L2012.87 237.747L2012.09 237.156L2011.08 236.8L2010.18 236.219L2009.4 235.891L2007.38 235.123L2005.37 234.495L2003.13 233.942L2000.78 233.632L1998.43 233.37H1971.56L1969.43 233.323H1967.98L1966.75 233.267L1965.96 233.061L1965.4 232.901L1964.84 232.686L1964.51 232.442L1964.06 232.039L1963.84 231.73L1963.72 231.205L1963.5 230.708V230.287L1963.72 229.228L1964.17 228.468L1964.84 227.728L1965.51 227.185L1966.3 226.791L1967.19 226.463L1968.2 226.341L1969.54 226.229H2020.37L2022.5 207.869H2037.27L2038.62 196.295H1931.03L1929.69 207.869ZM1783.82 267.737L1784.05 268.636L1784.27 269.555V271.785L1784.05 272.9L1783.82 273.828L1783.49 274.784L1782.93 275.731L1782.14 276.621L1781.47 277.483L1780.69 278.224L1779.68 279.039L1778.67 279.62L1777.55 280.173L1776.43 280.792L1775.31 281.101L1774.2 281.494L1772.85 281.738L1771.73 281.916L1770.39 282.019H1769.16L1767.81 281.822L1765.58 281.298L1764.57 280.904L1763.45 280.36L1762.44 279.798L1761.43 279.095L1760.65 278.317L1759.87 277.633L1759.31 276.846L1758.86 275.899L1758.52 274.99L1758.3 273.978V271.785L1758.52 270.661L1758.86 269.555L1759.87 267.502L1760.54 266.631L1761.32 265.684L1762.22 264.962L1763.22 264.175L1764.34 263.5L1765.46 262.919L1766.58 262.404L1767.7 261.907L1768.93 261.617L1770.28 261.439L1771.4 261.261H1772.74H1774.08L1775.2 261.439L1776.43 261.729L1777.55 262.048L1778.56 262.498L1779.46 263.051L1780.58 263.604L1781.47 264.288L1782.03 265.122L1782.82 265.937L1783.49 266.715L1783.82 267.737ZM1771.73 232.442L1771.84 231.111L1771.96 229.743L1772.4 225.657L1772.74 222.105L1773.08 218.741L1773.52 215.873L1773.86 213.295L1774.08 211.121L1774.2 209.378L1774.42 207.869H1799.38L1796.25 236.013L1795.35 236.8L1794.46 237.344L1793.56 238.056L1792.67 238.628L1791.66 239.209L1790.65 239.565L1789.76 239.949L1788.75 240.399L1787.63 240.764L1786.62 241.055L1785.5 241.233L1784.49 241.458L1783.49 241.552L1782.37 241.617L1781.25 241.636L1780.02 241.617H1778.78L1777.78 241.28L1776.66 241.055L1775.87 240.764L1774.98 240.333L1774.2 239.827L1773.52 239.237L1772.96 238.515L1772.4 237.747L1772.29 236.884L1771.96 235.938L1771.73 234.766V233.745V232.442ZM1742.63 207.869H1749.68L1749.57 208.891L1749.34 210.55L1749.12 212.789L1748.78 215.47L1748.45 218.9L1748.11 222.836L1747.66 227.381L1746.99 232.442L1746.88 233.764V235.123L1746.99 236.406V237.653L1747.22 238.834L1747.44 239.986L1747.89 241.233L1748.22 242.489L1748.78 243.651L1749.23 244.616L1750.01 245.853L1750.8 246.95L1751.47 247.999L1752.37 249.077L1753.26 250.033L1754.27 251.111L1755.16 252.001L1756.28 252.985L1757.4 253.763L1758.52 254.541L1759.75 255.225L1760.87 255.9L1762.1 256.49L1763.45 257.053L1764.79 257.559L1766.02 257.99L1767.37 258.402L1770.28 258.824L1771.73 259.011L1773.19 259.18L1774.75 259.246H1777.55L1780.46 259.18L1782.93 258.927L1785.39 258.627L1785.5 258.618L1787.74 258.233L1789.87 257.671L1792.11 256.95L1793.9 256.078L1792.11 273.322H1817.52L1821.55 238.047L1822.22 237.316L1823.12 236.575L1824.01 236.013L1824.8 235.497L1825.69 234.907L1826.7 234.495L1827.59 233.942L1828.49 233.632L1829.5 233.323L1830.39 233.023L1831.4 232.686L1832.52 232.48L1833.53 232.442L1834.54 232.152H1835.65L1836.77 232.124L1838.57 232.152L1840.24 232.339L1841.81 232.442L1843.16 232.686L1844.39 233.061L1845.51 233.445L1846.51 233.942L1847.52 234.551L1848.19 235.169L1848.86 235.938L1849.42 236.8L1849.87 237.615L1850.21 238.628L1850.32 239.565V241.955L1850.21 242.929L1849.87 243.923L1849.42 244.747L1849.09 245.628L1848.53 246.406L1847.75 247.1L1846.96 247.737L1846.07 248.346L1845.06 248.693L1844.05 249.255L1842.82 249.546L1841.59 249.818L1840.24 250.033L1838.68 250.164L1837.11 250.296L1835.43 250.389L1833.42 250.296L1831.4 250.155L1830.51 250.033L1829.61 249.818L1828.83 249.546L1828.15 249.274L1826.25 264.513L1826.81 264.962L1827.26 265.234L1827.93 265.628L1828.49 265.937L1829.27 266.228L1830.06 266.406L1830.84 266.631L1831.62 266.818L1833.53 267.015L1835.65 267.268L1838.01 267.287L1840.47 267.268L1842.26 267.165L1843.94 266.968L1845.62 266.818L1847.19 266.631L1848.86 266.406L1850.32 266.05L1851.78 265.684L1853.34 265.356L1854.69 265.037L1856.14 264.503L1857.37 263.969L1858.83 263.5L1859.95 262.919L1861.29 262.338L1862.52 261.617L1863.64 260.904L1864.87 260.173L1865.99 259.18L1867.22 258.233L1868.23 257.418L1869.24 256.368L1870.25 255.356L1871.03 254.222L1871.81 253.116L1872.6 252.001L1873.16 250.727L1873.83 249.546L1874.72 246.931L1875.17 245.6L1875.51 244.082L1875.73 242.686L1875.84 241.12L1875.96 239.602V238.309L1875.84 236.884L1875.73 235.497L1875.17 232.77L1874.72 231.58L1874.28 230.287L1873.61 229.106L1873.05 228.047L1872.26 226.791L1871.48 225.844L1870.58 224.757L1869.46 223.689L1868.46 222.836L1867.34 221.955L1866.33 221.102L1864.99 220.409L1863.87 219.687L1862.52 219.097L1861.29 218.441L1859.72 218.047L1858.38 217.457L1856.92 217.063L1855.36 216.735L1853.79 216.398L1852.22 216.173L1850.43 215.873L1848.75 215.704L1846.96 215.526H1842.04L1839.13 215.826L1836.33 216.173L1833.53 216.519L1830.84 217.175L1828.27 217.841L1825.92 218.741L1823.56 219.8L1824.91 207.869H1884.24L1885.58 196.295H1743.97L1742.63 207.869ZM1745.42 191.937L1746.99 191.403L1748.56 190.756L1750.13 189.96L1751.58 189.2L1753.6 188.066L1755.5 186.792L1757.4 185.442L1758.97 183.915L1760.54 182.265L1761.99 180.663L1763.22 178.835L1764.57 176.914L1765.8 174.73L1766.81 172.49L1767.81 170.354L1769.05 168.217H1741.62L1741.39 169.22L1741.17 170.26L1740.61 171.291L1739.94 172.097L1739.27 172.903L1738.48 173.671L1737.59 174.449L1736.47 175.03L1735.24 175.621L1734.01 176.099L1732.55 176.502L1730.87 176.98L1729.08 177.186L1727.4 177.401L1725.39 177.626L1723.37 177.823H1721.13L1719.23 177.626L1717.33 177.401L1715.65 177.101L1714.86 176.895L1714.19 176.483L1713.3 176.22L1712.62 175.949L1711.95 175.433L1711.39 175.03L1710.83 174.608L1710.16 174.056L1709.27 173.484L1708.82 172.706L1708.03 171.881L1707.59 171.216L1707.36 170.494L1707.14 169.707L1707.03 168.873L1707.14 168.217H1680.05L1680.61 170.354L1681.28 172.49L1681.84 174.73L1682.62 176.914L1683.52 178.77L1684.41 180.503L1685.64 182.125L1686.76 183.727L1688.22 185.217L1689.79 186.604L1691.35 187.898L1693.14 189.107L1694.49 189.763L1695.72 190.503L1697.29 191.15L1698.63 191.834L1700.2 192.265L1701.76 192.93L1703.56 193.296L1705.23 193.671L1707.03 194.224L1708.93 194.346L1710.83 194.739L1712.85 194.917L1714.97 195.161L1717.1 195.227L1719.23 195.348L1721.36 195.367H1723.71L1725.95 195.348L1728.3 195.227L1730.31 195.095L1732.33 194.87L1734.45 194.552L1736.36 194.336L1740.16 193.493L1742.07 193.043L1743.75 192.602L1745.42 191.937ZM1634.41 207.56L1635.72 196.295H1738.71L1737.36 207.869H1724.04L1716.65 273.322H1691.13L1698.63 207.869H1685.31V207.56H1675.29L1667.83 273.322H1642.36L1646.1 240.399H1626.54L1627.51 231.767L1628.28 225.657H1647.78L1649.92 207.56H1634.41ZM1627.99 247.334L1627.76 245.853L1627.51 245.347L1627.23 244.541L1626.73 243.173L1626.07 241.955L1625.21 240.68L1624.25 239.49L1623.36 238.346L1622.11 237.156L1620.87 236.013L1619.43 235.123L1617.8 234.007L1616.24 233.061L1614.36 232.124L1615.92 231.58L1617.37 230.83L1619.86 229.537L1621.06 228.684L1622.11 227.934L1623.19 227.119L1624.13 226.21L1624.98 225.245L1625.57 224.242L1626.31 223.239L1627.32 220.999L1627.51 220.427L1627.76 219.846L1627.99 218.694L1628.43 217.457V216.032L1628.52 214.711L1628.43 213.389L1628.28 212.18L1627.95 210.887L1627.51 209.744L1626.88 208.61L1626.31 207.56L1625.57 206.538L1624.71 205.489L1623.67 204.542L1622.71 203.633L1621.45 202.733L1620.19 201.946L1618.72 201.131L1617.15 200.372L1615.88 199.791L1614.48 199.322L1613.15 198.853L1611.75 198.347L1610.21 198.047L1608.67 197.682L1607.18 197.288L1605.67 197.073L1602.3 196.679L1598.83 196.389L1595.37 196.22L1591.67 196.295L1589.4 196.389L1586.93 196.595L1584.7 196.932L1582.25 197.279L1579.83 197.738L1577.45 198.319L1575.04 198.938L1572.61 199.659L1570.11 200.568L1567.49 201.656L1564.94 202.48L1562.36 203.399L1569.49 218.3L1572.06 217.175L1574.58 216.229L1577.27 215.47L1579.83 214.861L1582.47 214.345L1585.16 213.961L1590.59 213.661H1592.01L1593.41 213.689L1594.7 213.755L1595.9 213.961L1597.04 214.176L1597.98 214.486L1598.83 214.786L1599.75 215.123L1600.25 215.526L1600.92 216.032L1601.36 216.613L1601.84 217.175L1602.06 217.756L1602.18 218.441L1602.3 219.237L1602.18 220.053L1602.06 220.709L1601.86 221.496L1601.65 222.105L1601.36 222.63L1600.97 223.202L1600.57 223.651L1600.16 224.12L1599.59 224.551L1599.02 224.842L1598.44 225.104L1597.71 225.385L1596.92 225.507L1596.07 225.61L1595.27 225.657H1575.2L1573.73 238.881H1591.56L1592.77 239.04L1593.95 239.237L1595.09 239.49L1596.07 239.799L1597.04 239.986L1597.78 240.399L1598.46 240.83L1599.75 241.833L1600.16 242.489L1600.57 242.976L1600.8 243.688L1600.97 244.373L1601.15 245.122V246.022V246.828L1600.92 248.168L1600.57 249.546L1600 250.727L1599.48 251.992L1598.74 252.985L1597.98 253.763L1597.04 254.541L1595.9 255.103L1594.95 255.619L1593.9 255.9L1592.73 256.284L1591.37 256.49L1589.95 256.771L1588.27 256.95L1586.42 257.053L1584.61 257.174H1583.44L1582.15 257.053H1580.96L1578.51 256.687L1577.33 256.368L1576.19 256.078L1574.93 255.712L1573.77 255.225L1572.48 254.794L1571.34 254.222L1570.11 253.613L1568.85 253.051L1567.77 252.207L1566.67 251.486L1565.52 250.689L1564 249.705L1562.56 248.655L1561.26 247.596L1560.06 246.537L1558.86 245.366L1557.74 244.204L1556.62 242.976L1555.6 241.73L1542.13 256.284L1542.99 257.559L1544.21 258.786L1545.45 260.024L1546.73 261.261L1548.27 262.62L1551.6 265.122L1553.5 266.275L1555.22 267.427L1556.89 268.402L1558.75 269.442L1560.47 270.323L1562.24 271.185L1564.08 271.879L1565.92 272.619L1567.82 273.191L1569.72 273.791L1571.65 274.316L1573.73 274.784L1575.63 275.187L1577.75 275.581L1579.83 275.824L1582.04 275.899L1584.08 276.171L1585.57 276.218H1587.11L1588.62 276.331H1590.11L1592.29 276.218H1594.45L1596.49 276.068L1598.58 275.899L1600.57 275.731L1602.46 275.393L1604.25 275.103L1605.91 274.784L1607.57 274.372L1609.24 273.828L1610.78 273.341L1612.32 272.9L1613.78 272.282L1615 271.598L1616.34 270.848L1617.66 270.154L1618.72 269.302L1619.86 268.524L1620.87 267.737L1621.77 266.715L1622.77 265.684L1623.49 264.794L1624.25 263.604L1624.98 262.498L1625.57 261.261L1626.09 260.173L1626.57 258.824L1627.16 257.559L1627.46 256.115L1627.51 255.778L1627.76 254.794L1627.99 253.257L1628.15 251.739L1628.28 250.164L1628.15 248.693L1627.99 247.334ZM1362.84 207.869H1421.07L1417.19 242.329L1416.32 242.929L1415.49 243.688L1414.64 244.288L1413.77 244.925L1412.83 245.46L1410.88 246.537L1409.71 246.828L1408.7 247.268L1407.42 247.596L1406.36 247.756L1404.99 248.065L1403.72 248.168L1402.41 248.431L1401.13 248.449L1399.75 248.552H1398.47L1397.46 248.449L1396.49 248.346L1395.51 248.065L1394.63 247.756L1393.72 247.456L1392.84 246.95L1392.12 246.537L1391.44 245.853L1390.94 245.15L1390.39 244.485L1390.08 243.651L1389.8 242.686V241.636V240.68V239.49L1390.06 238.468L1390.39 237.344L1390.72 236.444L1391.11 235.497L1391.75 234.766L1392.37 233.942L1393.1 233.323L1393.88 232.686L1394.82 232.039L1395.77 231.627L1397 231.205L1398.02 230.821L1399.31 230.54L1400.62 230.287L1402.11 230.127L1403.59 230.043H1405.24L1406.66 230.287L1408.19 230.54L1409.5 230.952L1410.88 231.58L1412.1 232.339L1413.43 233.267L1414.64 234.232L1416.48 218.047L1415.67 217.457L1414.92 216.95L1413.93 216.482L1412.9 216.032L1411.91 215.526L1410.92 215.273L1409.71 214.926L1408.7 214.561L1407.42 214.345L1406.22 214.083L1404.84 213.961L1403.51 213.755L1400.62 213.511L1397.46 213.389L1395.94 213.511L1394.2 213.661L1392.75 213.755L1391.11 213.961L1389.5 214.176L1388.1 214.486L1386.56 214.926L1385.28 215.385L1383.79 215.873L1382.57 216.482L1381.18 217.063L1379.89 217.756L1378.69 218.441L1377.36 219.378L1376.33 220.146L1375.12 220.999L1374.01 222.105L1373.03 223.108L1372 224.12L1371.1 225.17L1370.21 226.229L1369.42 227.381L1368.67 228.515L1368.02 229.743L1367.34 231.018L1366.79 232.339L1366.29 233.567L1365.85 234.907L1365.48 236.219L1365.18 237.653L1364.98 239.04L1364.77 240.577L1364.61 242.02V246.059L1364.77 247.334L1364.98 248.552L1365.32 249.724L1365.57 250.998L1365.96 252.104L1366.99 254.222L1367.69 255.225L1368.35 256.284L1369.07 257.174L1369.79 258.149L1370.76 259.011L1371.7 259.911L1372.66 260.726L1373.72 261.439L1374.8 262.048L1375.85 262.676L1377 263.266L1378.23 263.791L1379.39 264.288L1380.62 264.681L1381.95 265.037L1383.24 265.356L1384.57 265.515L1385.97 265.647L1387.53 265.843L1388.95 265.937H1390.54L1393.65 265.684L1396.68 265.515L1399.75 265.122L1402.78 264.503L1405.9 263.725L1408.95 262.919L1412.08 261.776L1415.05 260.595L1413.63 273.322H1439.1L1443.15 238.047L1444.03 237.156L1444.92 236.341L1445.91 235.497L1446.78 234.766L1447.68 234.157L1448.77 233.567L1449.67 233.023L1450.56 232.442L1451.48 232.039L1452.55 231.73L1453.47 231.374L1454.35 231.111L1455.43 230.83L1456.28 230.821L1458.21 230.577L1460.16 230.708L1461.71 230.821L1463.2 230.952L1464.6 231.111L1465.82 231.374L1466.79 231.73L1467.68 232.124L1468.46 232.686L1468.99 233.108L1469.61 233.745L1470.02 234.429L1470.2 235.169L1470.64 236.95L1470.7 238.056V239.237L1470.64 240.464L1470.5 241.636L1470.3 242.789L1470.02 243.782L1469.61 244.616L1468.99 245.6L1468.36 246.256L1467.68 247.1L1467.04 247.596L1466.1 248.065L1465.13 248.655L1464.19 248.993L1462.87 249.255L1461.71 249.499L1460.38 249.546L1459 249.705L1457.91 249.546L1456.88 249.499L1455.98 249.443L1454.83 249.096L1453.71 248.852L1452.59 248.655L1451.53 248.168L1450.5 247.756L1448.29 266.94L1449.07 267.737L1449.93 268.289L1450.56 268.674L1451.17 268.946L1451.99 269.152L1452.93 269.302L1454.1 269.555H1455.37L1456.71 269.648H1461.8L1463.5 269.555L1465.13 269.442L1466.72 269.302L1468.34 269.067L1469.84 268.739L1471.33 268.402L1472.82 267.952L1474.26 267.549L1475.62 267.015L1477.11 266.631L1478.46 265.984L1479.75 265.356L1481.1 264.681L1482.41 263.903L1483.62 263.069L1484.91 262.338L1486.17 261.261L1487.36 260.408L1488.58 259.321L1489.66 258.233L1490.69 257.174L1491.6 256.078L1492.43 254.925L1493.26 253.763L1494.09 252.601L1494.62 251.298L1495.85 248.655L1496.17 247.334L1496.7 245.853L1497.27 242.976L1497.35 241.458L1497.55 239.902V236.95L1497.27 235.497L1497.09 234.232L1496.76 232.901L1496.4 231.58L1495.85 230.287L1495.23 229.05L1493.92 226.66L1493 225.507L1492.13 224.439L1491.21 223.286L1490.07 222.264L1488.87 221.337L1487.66 220.409L1486.53 219.415L1485.21 218.694L1483.95 218.047L1482.61 217.185L1481.19 216.735L1479.73 216.173L1478.26 215.526L1476.74 215.151L1475.11 214.861L1473.54 214.561L1471.81 214.345L1470.09 214.176L1468.36 214.083H1465.43L1464.19 214.176L1462.87 214.27L1461.6 214.486L1459.07 214.861L1456.4 215.47L1453.71 216.229L1450.87 217.175L1448.07 218.441L1445.2 219.612L1446.51 207.869H1514.08L1515.42 196.295H1364.11L1362.84 207.869ZM1365.79 191.731L1364.04 191.562L1362.4 191.281L1360.85 190.85L1359.38 190.353L1357.94 189.716L1356.54 188.891L1355.18 187.954L1353.96 187.007L1352.98 185.78L1352.54 185.217L1352.17 184.693L1351.74 183.999L1351.42 183.409L1351.23 182.743L1351.01 182.097L1350.9 181.394L1350.8 180.719L1350.66 179.276L1350.8 177.823L1350.99 176.22L1351.42 174.833L1352.04 173.343L1352.75 172.05L1353.62 170.766L1354.79 169.566L1356.03 168.432L1357.48 167.392L1358.97 166.417L1360.59 165.705L1362.14 164.852L1363.8 164.431L1365.48 163.943L1367.21 163.615L1369.01 163.503H1370.76L1372.48 163.559L1374.2 163.784L1375.63 164.084L1377.16 164.609L1378.69 165.124L1380.03 165.911L1381.36 166.764L1382.57 167.673L1383.63 168.723L1384.48 169.876L1385.28 171.038L1385.86 172.294L1386.24 173.493L1386.45 174.936V176.286L1386.32 177.823L1385.97 179.276L1385.56 180.663L1385.03 181.993L1384.2 183.296L1383.37 184.505L1382.34 185.574L1381.36 186.689L1380.03 187.72L1378.63 188.61L1377.05 189.51L1375.63 190.128L1374.1 190.756L1372.55 191.15L1371.01 191.478L1369.33 191.731L1367.57 191.834L1365.79 191.731ZM1291.36 245.853L1288.81 246.537L1287.49 246.79L1286.38 246.931L1285.35 246.95L1284.39 247.1L1282.53 247.165H1280.83L1279.36 247.1L1277.87 246.95L1276.65 246.828L1275.47 246.537L1274.46 246.256L1273.72 246.059L1272.73 245.6L1272.02 244.925L1271.42 244.204L1270.9 243.388L1270.53 242.329L1270.35 241.28V240.193L1270.46 238.881L1270.67 237.906L1270.9 236.95L1271.1 236.182L1271.42 235.404L1271.61 234.766L1271.95 234.157L1272.39 233.632L1272.73 233.267L1273.54 232.686L1274.36 232.124L1275.14 231.627L1275.92 231.111L1282.33 235.994L1294.23 245.122L1291.36 245.853ZM1355.67 196.295H1349.26L1348.69 195.002L1347.54 192.771L1346.46 190.756L1345.22 188.61L1344.01 186.464L1342.61 184.402L1341.23 182.434L1339.81 180.4L1338.22 178.376L1336.71 176.483L1335.04 174.552L1333.37 172.603L1331.66 170.766L1329.72 168.873L1327.99 167.13L1326.32 165.705L1324.55 164.084L1323.02 162.762L1321.32 161.375L1319.57 160.12L1317.69 158.798L1315.91 157.608L1314.17 156.324L1296.24 168.61L1298.66 169.876L1301.18 171.216L1303.59 172.706L1305.79 174.215L1308.09 175.827L1310.34 177.551L1312.42 179.276L1314.49 181.169L1316.53 183.174L1318.39 185.217L1320.18 187.41L1322.01 189.613L1323.75 191.937L1325.29 194.346L1326.57 196.295H1318.06L1317.63 195.611L1316.09 193.633L1314.32 191.478L1312.49 189.35L1310.34 187.298L1307.87 185.133L1305.14 182.94L1302.8 181L1300.17 179.107L1297.55 177.317L1294.6 175.555L1282.83 189.2L1283.93 189.285L1285.05 189.51L1286.07 189.716L1287.07 190.053L1287.93 190.353L1288.93 190.85L1289.83 191.403L1290.72 191.937L1291.5 192.612L1293.11 194.224L1294.44 196.051L1294.66 196.295H1244.95L1243.58 207.869H1312.2L1308.55 239.49L1307.08 240.193L1306.16 240.577L1305.14 241.055L1304.26 241.28L1303.59 241.636L1303.06 241.955L1284.94 227.606L1286.7 227.381L1288.33 227.119H1289.83L1291.13 227.035L1292.78 227.119L1294.6 227.381L1296.63 227.672L1299 228.234L1301.05 228.684L1302.8 229.106L1304.11 229.331L1305.03 229.481L1306.98 216.398L1306.5 216.032L1305.79 215.704L1305.12 215.47L1304.26 215.151L1302.21 214.786L1299.69 214.486L1296.63 214.083L1293.11 213.961L1289.07 213.839L1284.54 213.755H1282.66L1282.33 213.83L1280.83 213.839L1279.05 213.961L1277.3 214.083L1273.83 214.561L1272.19 214.861L1270.46 215.151L1268.84 215.526L1267.39 216.032L1265.76 216.482L1264.29 216.95L1262.83 217.457L1261.34 218.094L1259.96 218.741L1258.61 219.415L1257.02 220.409L1255.66 221.337L1254.15 222.264L1253.03 223.239L1251.83 224.326L1250.69 225.385L1249.71 226.603L1248.72 227.728L1247.96 229.05L1247.31 230.287L1246.52 231.73L1245.97 233.061L1245.51 234.495L1245.07 235.994L1244.79 237.531L1244.66 239.04L1244.52 240.577V242.02L1244.66 243.407L1244.79 244.747L1244.98 246.097L1245.44 247.372L1245.89 248.655L1246.38 249.939L1246.95 251.111L1247.68 252.161L1248.51 253.332L1249.49 254.316L1250.55 255.356L1251.59 256.368L1252.73 257.324L1254.08 258.233L1255.26 258.927L1256.45 259.611L1257.6 260.286L1258.94 260.904L1260.14 261.439L1261.56 261.907L1262.83 262.404L1264.11 262.676L1265.58 263.069L1266.96 263.379L1268.49 263.604L1269.96 263.791L1271.47 263.969L1272.99 264.091H1276.08L1280.47 263.903L1282.33 263.725H1282.53L1284.69 263.538L1286.7 263.266L1288.7 263.069L1290.72 262.676L1292.56 262.404L1294.44 261.907L1296.29 261.551L1298.08 261.045L1299.89 260.567L1301.64 259.949L1303.32 259.321L1304.92 258.627L1306.5 258.055L1304.83 273.322H1330.04L1337.56 207.869H1354.08L1355.25 199.397L1355.67 196.295ZM892.333 196.295H1218.84L1217.52 207.869H1193.65L1191.94 221.543L1193.25 222.583L1194.21 223.548L1196.07 225.723L1196.8 227.035L1197.47 228.234L1198 229.734L1198.57 231.111L1198.98 232.686L1199.26 234.157L1199.53 235.891L1199.69 237.615L1199.79 239.396L1199.69 241.12L1199.53 243.042L1199.31 245.122L1199.18 246.828L1198.8 248.552L1198.29 250.164L1197.95 251.758L1197.37 253.426L1196.8 254.925L1196.07 256.425L1195.24 257.99L1194.46 259.321L1193.43 260.773L1192.58 262.123L1191.41 263.5L1190.24 264.794L1189.07 266.05L1187.72 267.268L1186.46 268.402L1185.08 269.555L1183.63 270.661L1182.1 271.598L1180.6 272.469L1179.26 273.341L1177.69 274.128L1176.11 274.784L1174.64 275.393L1173.08 275.899L1171.45 276.434L1169.82 276.94L1168.22 277.211L1166.62 277.483L1164.89 277.633L1161.55 277.83H1157.3L1153.56 277.633L1150.37 277.446L1147.6 277.165L1146.29 276.949L1145.17 276.79L1144.19 276.434L1143.28 276.331L1142.62 275.899L1141.93 275.731L1141.42 275.393L1140.96 275.037L1142.77 258.927L1143.28 259.321L1144.23 259.817L1145.99 260.202L1148.24 260.726L1150.69 261.167L1152.87 261.439L1154.96 261.551H1156.98L1158.47 261.439L1159.93 261.167L1161.24 260.773L1162.42 260.408L1164.89 259.011L1165.9 258.233L1166.89 257.174L1167.76 256.115L1168.59 254.925L1169.34 253.651L1170.01 252.161L1170.58 250.689L1171.11 248.993L1171.52 247.165L1171.85 245.235L1172.11 243.51L1172.33 241.955V240.399L1172.18 239.012L1172.05 237.653L1171.66 236.444L1171.34 235.404L1170.93 234.429L1170.54 233.885L1170.1 233.37L1169.66 233.023L1169.34 232.48L1168.79 232.124L1168.29 231.767L1167.76 231.458L1167.21 231.205L1166.62 230.952L1165.9 230.708L1165.33 230.54L1164.57 230.39L1163.01 230.287H1161.4H1159.93L1158.67 230.54L1157.37 230.83L1156.2 231.374L1155.08 231.983L1153.92 232.686L1152.87 233.567L1151.84 234.551L1150.88 235.938L1149.96 237.156L1149.48 238.468L1148.85 239.49L1148.01 246.537H1124.1L1125.12 238.131L1124.93 237.156L1124.63 236.219L1124.38 235.404L1123.88 234.766L1123.09 234.007L1122.39 233.445L1121.35 233.023L1120.36 232.48L1119.11 232.152L1117.82 231.983L1116.4 231.767L1114.86 231.73H1113.14L1111.48 231.983L1110.8 232.039L1110.13 232.339L1109.42 232.442L1108.77 232.686L1108.07 233.061L1107.41 233.37L1106.83 233.764L1106.3 234.232L1105.8 234.682L1105.25 235.169L1104.79 235.657L1104.31 236.219L1103.69 237.156L1103.23 238.309L1102.65 239.49L1102.15 240.83L1101.71 242.329L1101.33 243.923L1100.92 245.722L1100.61 247.596L1100.5 249.499L1100.38 251.223L1100.5 252.817L1100.73 254.429L1101.18 255.862L1101.79 257.174L1102.15 257.765L1102.52 258.458L1102.98 259.011L1103.46 259.602L1104.42 260.483L1105.45 261.261L1106.47 261.907L1107.57 262.404L1108.77 262.676L1109.84 263.051L1111.15 263.069H1112.38L1113.6 262.919L1115.02 262.62L1116.53 262.226L1118.17 261.776L1119.86 261.261L1121.6 260.567L1123.53 259.817L1125.73 258.927L1123.62 276.434L1123.09 276.846L1122.54 277.165L1121.83 277.446L1121.1 277.633L1119.11 278.177L1116.99 278.561L1114.17 278.908L1111.33 279.095L1107.89 279.226L1104.17 279.292L1100.79 279.095L1099.19 279.039L1097.61 278.72L1096.09 278.317L1094.67 278.008L1093.14 277.483L1090.29 276.331L1088.83 275.581L1087.56 274.784L1086.25 273.978L1085.06 273.05L1084.02 272.001L1082.62 270.848L1080.41 268.636L1079.39 267.287L1078.46 265.984L1077.59 264.681L1076.73 263.266L1076.11 261.907L1075.51 260.483L1074.97 258.927L1074.57 257.428L1074.2 255.9L1073.91 254.316L1073.79 252.732L1073.72 251.12L1073.59 249.499L1073.72 247.737L1073.91 246.059L1074.03 244.288L1074.33 242.517L1074.79 240.83L1075.29 239.209L1075.91 237.615L1076.5 236.013L1077.31 234.551L1078.07 233.108L1079.88 230.287L1080.98 228.9L1082.1 227.672L1083.34 226.407L1084.58 225.245L1085.98 224.12L1087.38 222.948L1088.83 221.955L1090.13 221.102L1091.6 220.334L1092.98 219.509L1094.47 218.741L1095.96 218.094L1097.49 217.457L1099.1 217.063L1100.61 216.613L1102.19 216.21L1103.85 215.873L1105.53 215.47L1107.08 215.273L1108.81 215.123L1110.61 215.067L1112.31 214.926L1114.54 215.067L1116.67 215.123L1118.72 215.273L1120.53 215.526L1122.41 215.91L1124.27 216.482L1126.06 216.95L1127.79 217.653L1129.24 218.441L1130.83 219.237L1132.25 220.231L1133.67 221.337L1134.91 222.264L1136.26 223.548L1137.34 224.842L1138.46 226.229L1139.88 224.757L1141.68 222.948L1143.88 220.971L1146.59 218.694L1148.42 217.756L1150.09 217.063L1151.84 216.482L1153.42 215.873L1155.08 215.47L1156.61 215.151L1158.08 215.067L1159.5 214.926L1161.24 215.067L1163.01 215.123L1164.83 215.273L1166.86 215.526L1167.76 207.869H1057.21L1054.69 229.228H1022.6L1020.41 229.743L1018.47 230.287L1016.72 230.952L1014.93 231.627L1013.39 232.442L1012.02 233.267L1010.69 234.007L1009.48 234.991L1008.58 236.013L1007.43 237.044L1006.62 238.309L1006.03 239.49L1005.5 240.764L1005.04 242.17L1004.74 243.407L1004.61 244.925V247.1L1004.67 247.737L1004.91 248.431L1005.04 248.993L1005.41 249.546L1005.74 250.155L1006.12 250.727L1006.46 251.298L1007.01 251.758L1007.43 252.329L1008.1 252.817L1008.71 253.257L1009.29 253.763L1010.11 254.222L1011.42 254.822L1012.91 255.403L1014.51 256.05L1016.17 256.425L1017.92 256.771L1019.75 256.95L1021.68 257.053L1023.88 257.174L1025.44 257.053H1027L1028.7 256.95L1030.3 256.771L1031.96 256.49L1033.56 256.284L1035.02 255.9L1036.61 255.619L1038.21 255.103L1039.72 254.794L1041.22 254.222L1042.89 253.651L1044.31 253.116L1045.84 252.404L1047.3 251.739L1048.79 250.998L1050.93 249.939L1052.78 248.852L1054.32 247.943L1055.72 247.1L1056.73 246.163L1057.63 245.46L1057.97 244.747L1058.4 244.204L1064.67 263.604L1061.63 265.515L1058.31 267.165L1054.78 268.927L1051.15 270.445L1047.5 271.682L1043.98 272.9L1040.37 273.828L1036.61 274.784L1032.96 275.393L1031.82 275.618L1058.5 302.384L1040.22 314.708L1018.38 290.604L992.997 310.772L977.123 298.017L1008.21 276.134L1007.01 275.899L1003.16 275.037L1001.37 274.559L999.58 273.978L997.912 273.322L996.143 272.469L994.486 271.785L992.885 270.839L991.262 269.911L989.628 268.927L988.027 267.549L986.437 266.406L985.127 265.122L983.896 263.725L982.788 262.338L981.87 260.904L980.952 259.321L980.291 257.765L979.653 256.078L979.217 254.429L978.869 252.732L978.668 250.998L978.59 249.077V247.268L978.758 245.235L978.981 243.173L979.44 241.233L979.989 239.396L980.638 237.531L981.411 235.657L982.194 233.942L983.179 232.339L984.4 230.577L985.687 229.106L986.963 227.606L988.407 226.21L990.087 224.842L991.766 223.511L993.669 222.264L995.572 220.999L997.61 220.053L1000.45 218.694L1003.18 217.457L1006.12 216.482L1008.76 215.704L1011.42 215.067L1014.11 214.561L1015.39 214.486L1016.72 214.27H1017.92L1019.23 214.176H1031.45L1032.16 207.869H883.366L875.978 273.322H850.588L853.499 247.372H829.116L830.717 232.124H855.223L857.976 207.869H829.004L829.732 208.488L830.303 209.378L830.863 210.156L831.322 210.887L831.893 211.665L832.262 212.546L832.553 213.314L832.855 214.27L833.034 215.151L833.292 216.173L833.516 217.063V218.047L833.56 219.097V220.053L833.516 221.102L833.359 222.264L833.034 223.689L832.743 225.385L832.463 226.791L832.139 228.178L831.523 229.565L830.997 230.952L830.303 232.152L829.575 233.445L828.814 234.682L828.086 235.891L827.146 236.913L826.228 237.906L825.287 238.881L824.134 239.902L823.082 240.764L821.772 241.617L820.653 242.329L819.433 243.042L818.145 243.688L816.936 244.288L815.582 244.747L814.317 245.235L812.738 245.722L811.294 246.059L809.85 246.406L808.26 246.603L806.771 246.931L805.126 246.95L803.379 247.165H800.01L798.196 247.1L798.006 248.431V249.724L798.196 250.998L798.588 252.329L799.092 253.613L799.707 254.794L800.625 255.9L801.588 257.174L802.529 257.765L803.626 258.402L804.98 258.786L806.491 259.18L808.014 259.489L809.85 259.714L811.753 259.817L813.835 259.911L816.936 259.817L820.149 259.602L823.675 259.18L827.347 258.627L830.303 258.233L832.463 257.99L833.616 257.681L834.075 257.671L832.161 273.828L832.463 273.978V274.025L832.161 274.128L831.523 274.316L829.362 274.7L825.993 275.187L823.843 275.581L821.683 275.731L819.578 275.899L817.485 276.171L815.47 276.331L813.309 276.415H811.126L808.977 276.434L805.674 276.415L802.327 276.218L799.316 275.899L796.427 275.581L793.629 275.103L791.098 274.559L788.692 273.791L786.61 273.05L785.535 272.469L784.561 272.038L783.598 271.598L782.658 271.185L781.863 270.445L781.124 269.911L780.318 269.302L779.59 268.739L778.168 267.427L777.687 266.631L777.161 265.937L776.556 265.15L776.12 264.344L775.683 263.538L775.437 262.676L774.474 260.286L773.646 257.831L773.097 255.403L772.929 252.985L772.616 250.389L772.773 247.943L772.941 245.366L773.4 242.882H764.656L766.257 229.05H786.475L787.897 229.181L789.151 229.331L790.505 229.481H791.837L795.073 229.228L796.494 229.05L797.894 228.647L799.092 228.234L800.256 227.728L801.375 227.119L802.327 226.463L803.29 225.723L804.129 224.963L804.823 223.989L805.372 222.855L805.92 221.833L806.357 220.568L806.659 219.237L806.928 217.841L806.984 216.482L806.928 215.123L806.771 213.961L806.357 212.789L806.044 212.274L805.697 211.73L805.372 211.346L805.047 210.887L804.04 210.156L803.514 209.744L802.92 209.397L801.588 208.731L800.256 208.178H799.528L799.036 208.038L798.353 207.869H764.511L765.843 196.295H866.048L865.522 195.227L864.38 193.296L863.16 191.403L861.895 189.613L860.495 187.898L859.029 186.333L857.428 184.693L855.682 183.053L853.913 181.684L850.151 178.938L848.091 177.748L845.864 176.502L843.569 175.433L841.251 174.327L838.889 173.343L855.29 161.047L856.868 161.591L858.458 162.331L860.204 163.062L861.783 163.784L863.339 164.768L864.861 165.705L866.529 166.661L868.097 167.673L869.921 168.985L871.69 170.494L873.436 171.881L875.25 173.493L876.829 175.152L878.553 176.895L880.041 178.554L881.721 180.4L884.699 184.215L886.098 186.333L887.587 188.451L888.964 190.503L890.341 192.771L891.606 195.161L892.333 196.295ZM966.32 233.061L966.051 232.039L965.637 231.018L965.29 230.287L964.943 229.481L964.462 228.834L963.913 228.234L963.432 227.897L962.928 227.513H941.322L942.027 227.897L942.486 228.234L943.08 228.684L943.516 229.228L943.908 229.856L944.21 230.54L944.602 231.205L944.893 231.824L945.128 232.686L945.24 233.445L945.263 234.298L945.419 235.216L945.263 237.278L944.938 239.49L944.893 240.193L944.602 240.83L944.345 241.552L944.02 242.198L943.561 242.789L943.124 243.295L942.598 243.688L942.027 244.204L940.605 244.925L939.799 245.122L939.005 245.366L938.132 245.628L936.105 245.778L935.008 245.853L934.247 245.778L933.452 245.722L932.736 245.6L932.165 245.15L931.448 244.925L930.81 244.485L930.15 243.923L929.668 243.388L929.086 242.789L928.627 242.17L928.258 241.552L927.989 240.83L927.642 240.211L927.552 239.565L927.328 239.012V236.913L927.575 235.657L927.81 234.429L928.19 233.267L928.627 232.152L929.209 231.28L929.892 230.39L930.631 229.565L931.515 228.9L932.467 228.384L933.609 227.897L934.784 227.4L936.105 227.119L937.46 226.96L939.005 226.791H986.963L988.34 214.861H934.616L932.467 214.926L930.485 215.067L928.515 215.273L926.634 215.47L924.776 215.873L923.03 216.229L921.317 216.772L919.593 217.353L917.757 218.094L916.033 218.984L914.264 219.8L912.775 220.774L911.309 221.889L909.887 222.948L908.667 224.242L907.413 225.507L906.338 226.96L905.42 228.384L904.592 229.856L903.763 231.58L903.047 233.267L902.543 234.991L902.084 236.884L901.625 238.778L901.58 239.949L901.379 241.233L901.356 242.489L901.379 243.651L901.58 244.747L901.748 246.022L902.084 247.1L902.431 248.065L902.845 249.096L903.372 250.164L903.987 251.223L904.659 252.207L905.342 253.173L906.125 254.101L907.043 254.991L908.118 255.9L909.137 256.931L910.212 257.681L911.465 258.618L912.663 259.246L913.951 259.949L915.372 260.567L916.705 261.167L918.283 261.617L919.75 262.048L921.384 262.498L923.03 262.816L924.642 263.069L926.332 263.266L928.19 263.5L930.116 263.538L932.008 263.604H933.721L935.4 263.538L937.001 263.5L938.546 263.182L940.191 263.069L941.725 262.676L943.292 262.404L944.848 262.048L946.203 261.551L947.714 261.045L949.181 260.483L950.513 259.911L951.823 259.18L953.133 258.458L954.398 257.681L955.741 256.931L956.984 256.05L958.103 255.066L959.099 254.222L960.152 253.257L961.092 252.207L961.876 251.223L962.771 250.164L963.566 249.255L964.159 248.168L964.786 247.165L965.201 246.059L965.637 244.925L966.141 243.782L966.41 242.686L966.577 241.552L966.824 240.211L966.936 238.515V236.575L966.712 234.907L966.32 233.061Z" fill="white"/>
<path fill-rule="evenodd" clip-rule="evenodd" d="M88.1211 515.556H589.258V96.0723H88.1211V515.556Z" fill="white"/>
<path fill-rule="evenodd" clip-rule="evenodd" d="M504.58 303.059L405.46 222.264L381.671 222.424H342.098V212.79L381.671 212.546L405.964 212.274L512.27 302.178L504.58 303.059ZM472.17 303.575L405.46 249.724H381.671L342.187 249.883L342.165 240.193L381.671 239.902L405.987 239.677L479.85 302.637L472.17 303.575ZM381.671 422.485L345.098 452.681L343.911 446.27L381.671 414.003L440.646 363.414V310.369H452.053L452.624 363.892L381.671 422.485ZM381.671 386.159L407.823 363.414V310.369H419.264L419.846 363.892L381.671 395.166L344.505 425.568L343.452 419.214L381.671 386.159ZM299.289 323.593L278.276 305.158L299.289 287.933L342.445 252.676L381.671 287.155L404.307 307.052L381.671 325.627L340.083 359.553L299.289 323.593ZM299.289 402.316L274.951 402.466L168.712 312.647L176.336 311.709L275.455 392.467H299.289L338.773 392.401V401.979L299.289 402.316ZM208.611 311.269L275.41 365.007L299.289 364.988L338.773 364.923V374.566L299.289 374.913L274.817 375.157L201.009 312.159L208.611 311.269ZM337.396 195.611L299.289 228.647L273.093 251.298V304.324H261.618L261.114 250.924L299.289 219.612L336.411 189.154L337.396 195.611ZM299.289 192.265L335.885 162.125L336.937 168.489L299.289 200.794L240.314 251.298V304.324H228.817L228.336 250.924L299.289 192.265ZM408.114 195.901V137.571L337.62 137.758L299.289 171.413L209.618 250.427H142.259V307.679L272.455 420.357V475.745H338.75L381.671 439.823L469.943 365.86H535.041V303.059L408.114 195.901Z" fill="#CE0F3E"/>
</g>
</g>
<defs>
<clipPath id="clip0_29_504">
<rect width="2500" height="595" fill="white"/>
</clipPath>
</defs>
</svg>
