<svg width="2500" height="595" viewBox="0 0 2500 595" fill="none" xmlns="http://www.w3.org/2000/svg">
<g clip-path="url(#clip0_29_1001)">
<path d="M124.712 129.287C234.173 -5.80724 366.494 -40.7071 419.279 51.5952C472.047 143.876 425.855 329.35 316.369 464.418C206.95 599.485 74.6168 634.369 21.8315 542.093C-30.937 449.776 15.2684 264.343 124.712 129.287Z" fill="#F58220"/>
<path d="M197.153 57.2517C185.374 68.253 172.846 81.1197 161.021 95.8294C65.0838 213.431 25.2491 375.126 72.4835 455.963C121.165 536.837 239.218 507.433 336.611 388.023C389.007 324.59 424.429 250.18 439.173 181.292C443.608 130.765 437.697 85.7189 419.246 51.7458C377.206 -19.9289 287.18 -14.423 197.153 57.2517Z" fill="#B02A30"/>
<path d="M251.403 531.066C200.152 578.962 147.229 602.714 95.5732 592.765C117.245 594.167 134.764 564.231 149.116 523.997C163.689 482.795 172.428 444.577 179.422 408.813C189.582 352.192 190.372 311.718 185.19 303.05C176.431 288.638 156.515 292.373 133.973 308.495C123.169 315.933 108.829 310.932 125.783 285.397C142.958 259.566 211.137 197.523 235.67 187.824C262.604 178.156 293.296 191.319 282.905 228.042C275.539 254.847 181.208 563.069 251.403 531.066ZM328.587 53.0126C341.333 68.8944 333.556 103.669 311.83 130.953C289.911 158.024 261.362 167.701 249.001 152.06C235.854 136.422 243.626 101.163 265.557 73.6029C287.694 46.0639 316.21 37.5989 328.587 53.0126Z" fill="white"/>
<path d="M438.136 589.416L502.162 297.997H585.056L521.023 589.416H438.136ZM785.66 391.931C786.567 377.845 783.966 367.245 777.779 360.083C771.601 353.004 761.917 349.456 748.757 349.456C727.705 349.456 709.788 357.473 694.871 373.448C680.043 389.45 669.377 412.157 662.877 441.707C656.623 470.179 657.435 492.02 665.252 507.277C673.07 522.57 687.334 530.185 708.098 530.185C723.292 530.185 736.38 525.836 747.397 517.038C758.328 508.355 766.782 495.447 772.68 478.487H858.511C847.041 516.663 827.527 544.838 800.082 563.028C772.575 581.191 735.468 590.322 688.757 590.322C643.697 590.322 611.421 577.628 591.802 552.172C572.259 526.768 567.508 491.223 577.51 445.629C588.494 395.702 609.903 357.208 641.811 330.148C673.744 303.107 713.817 289.559 761.896 289.559C803.659 289.559 833.71 298.133 852.031 315.323C870.31 332.507 876.724 358.083 871.135 391.931H785.66ZM856.892 589.416L920.929 297.997H1003.8L939.766 589.416H856.892ZM1204.41 391.931C1205.34 377.845 1202.7 367.245 1196.53 360.083C1190.35 353.004 1180.72 349.456 1167.5 349.456C1146.47 349.456 1128.56 357.473 1113.65 373.448C1098.78 389.45 1088.13 412.157 1081.64 441.707C1075.39 470.179 1076.21 492.02 1084.01 507.277C1091.83 522.57 1106.08 530.185 1126.84 530.185C1142.06 530.185 1155.13 525.836 1166.14 517.038C1177.11 508.355 1185.56 495.447 1191.47 478.487H1277.24C1265.81 516.663 1246.31 544.838 1218.82 563.028C1191.35 581.191 1154.21 590.322 1107.54 590.322C1062.47 590.322 1030.18 577.628 1010.57 552.172C991.015 526.768 986.26 491.223 996.282 445.629C1007.25 395.702 1028.65 357.208 1060.59 330.148C1092.5 303.107 1132.57 289.559 1180.67 289.559C1222.41 289.559 1252.49 298.133 1270.82 315.323C1289.07 332.507 1295.47 358.083 1289.88 391.931H1204.41ZM1275.65 589.416L1339.68 297.997H1422.57L1358.53 589.416H1275.65ZM1599.84 357.056L1586.47 417.917H1629.23C1639.67 417.917 1647.98 415.335 1654.26 410.291C1660.52 405.265 1664.8 397.582 1667.01 387.487C1669.23 377.502 1668.31 369.876 1664.23 364.766C1660.11 359.63 1652.92 357.056 1642.61 357.056H1599.84ZM1575.84 466.35L1561.8 530.331H1610.95C1622.6 530.331 1632.01 527.649 1639.15 522.252C1646.32 516.835 1651.07 508.891 1653.38 498.286C1655.69 487.78 1654.47 479.82 1649.77 474.429C1645 469.033 1636.79 466.35 1625.01 466.35H1575.84ZM1470.07 589.416L1534.1 297.997H1684.37C1702.22 297.997 1715.11 298.852 1722.9 300.664C1730.76 302.441 1737.38 305.322 1742.69 309.452C1749.89 314.999 1754.63 322.761 1756.86 332.777C1759.1 342.789 1758.75 354.577 1755.77 368.125C1752.16 384.58 1745.28 398.077 1735.04 408.599C1724.85 419.174 1710.59 427.549 1692.2 433.679C1711.43 439.483 1724.34 448.52 1730.93 460.818C1737.51 473.018 1738.45 489.676 1733.86 510.595C1728.18 536.41 1717.48 555.959 1701.79 569.388C1686.07 582.749 1665.75 589.416 1640.77 589.416H1470.07ZM1891.08 501.344C1865.89 501.344 1848.28 503.276 1838.26 507.277C1828.25 511.194 1822.13 518.142 1819.95 527.982C1818.5 534.639 1819.59 539.905 1823.19 543.692C1826.8 547.401 1832.68 549.281 1840.76 549.281C1854 549.281 1864.82 545.599 1873.07 538.16C1881.33 530.691 1887.11 519.476 1890.37 504.516L1891.08 501.344ZM1879.97 559.35C1869.99 571.07 1858.42 579.764 1845.33 585.442C1832.23 591.125 1817.26 593.953 1800.37 593.953C1776.34 593.953 1759.04 588.817 1748.36 578.576C1737.65 568.242 1734.4 553.735 1738.53 534.853C1744.16 509.225 1759.41 490.686 1784.19 479.284C1809.05 467.871 1847.66 461.938 1900.19 461.401L1900.87 459.125L1901.58 456.682C1903.86 446.254 1902.94 438.493 1898.9 433.305C1894.8 428.148 1887.57 425.585 1877.15 425.585C1867.72 425.585 1860.05 427.492 1854.18 431.184C1848.33 434.971 1844.11 440.628 1841.44 448.134H1769.45C1774.73 425.585 1787.26 408.88 1807.14 397.863C1826.94 386.889 1854.76 381.34 1890.51 381.34C1924.8 381.34 1948.92 387.753 1962.87 400.634C1976.83 413.453 1980.9 433.039 1975.12 459.245L1952.39 562.71C1950.97 569.216 1950.06 574.378 1949.69 578.363C1949.33 582.269 1949.38 585.978 1949.82 589.416H1877.52C1877.12 584.551 1877.2 579.644 1877.6 574.722C1878.02 569.721 1878.82 564.694 1879.97 559.35ZM1975.76 589.416L2012.92 420.267C2014.43 413.386 2015.53 407.119 2016.22 401.333C2016.99 395.53 2017.38 390.504 2017.41 386.274H2095.36C2095.66 389.45 2095.42 393.633 2094.74 398.811C2094.04 404.009 2092.79 410.771 2090.97 419.054C2103.52 406.302 2116.09 396.784 2128.74 390.649C2141.44 384.45 2154.59 381.34 2168.25 381.34C2193.58 381.34 2211.09 389.17 2220.79 404.88C2230.52 420.548 2232.05 443.467 2225.44 473.632L2199.97 589.416H2122.22L2147.01 476.58C2150.41 461.094 2150.42 449.708 2147.01 442.603C2143.59 435.509 2136.51 431.935 2125.78 431.935C2113.16 431.935 2102.7 436.654 2094.36 446.161C2086.06 455.698 2079.79 469.923 2075.58 489.045L2053.54 589.416H1975.76ZM2304.29 589.416H2227.51L2291.57 297.997H2368.33L2330.79 468.913L2408.13 386.274H2500.05L2413.93 476.58L2472.99 589.416H2375.95L2326.77 487.035L2304.29 589.416Z" fill="#004A80"/>
</g>
<defs>
<clipPath id="clip0_29_1001">
<rect width="2500" height="595" fill="white"/>
</clipPath>
</defs>
</svg>
