<svg width="2500" height="595" viewBox="0 0 2500 595" fill="none" xmlns="http://www.w3.org/2000/svg">
<g clip-path="url(#clip0_29_1008)">
<path fill-rule="evenodd" clip-rule="evenodd" d="M5.53857 297.5C5.53857 133.207 200.289 0 440.553 0C680.817 0 875.55 133.207 875.55 297.5C875.55 461.793 680.8 595 440.553 595C200.305 595 5.53857 461.812 5.53857 297.5Z" fill="#003874"/>
<path fill-rule="evenodd" clip-rule="evenodd" d="M387.729 95.5449L488.796 68.9918L489.294 503.426L387.373 530.58L387.729 95.5449ZM1439.03 469.478C1536.15 469.478 1610.12 424.566 1610.12 347.275C1610.12 269.562 1536.15 224.57 1439.03 224.57C1341.96 224.57 1267.98 269.43 1267.98 347.275C1267.98 424.572 1341.95 469.478 1439.03 469.478ZM1439.03 412.889C1392.18 412.889 1373.01 381.883 1373.01 347.275C1373.01 312.211 1392.09 281.304 1439.03 281.304C1485.96 281.304 1505.09 312.271 1505.09 347.275C1505.09 381.883 1486.01 412.889 1439.03 412.889ZM1600.79 286.621H1658.86V381.883C1658.86 437.562 1680.88 469.478 1771.74 469.478C1797.16 469.478 1816.38 466.839 1835.63 464.992L1832.31 412.44C1822.15 413.779 1811.43 415.574 1801.28 415.574C1769.09 415.574 1760.6 401.192 1760.6 372.891V286.621H1831.74V230.019H1760.6L1760.58 149.073L1660.71 177.441V230.019H1600.86V286.621M2187.41 464.102H2289.04V348.192H2290.15L2371.48 464.102H2494.46L2383.79 337.405L2485.97 230.032H2374.77L2290.08 328.42H2288.97V149.377L2187.33 177.46V464.168" fill="#ED1C24"/>
<path fill-rule="evenodd" clip-rule="evenodd" d="M997.375 464.102H1099.04V348.192H1100.15L1181.47 464.102H1304.53L1193.86 337.405L1296.05 230.039H1184.85L1100.17 328.427H1099.06V149.383L997.391 176.035V464.102M2151.26 465.19C2146.67 446.567 2145.45 427.917 2145.45 409.26V321.058C2145.45 248.754 2079.72 222.762 2003.73 222.762C1959.74 222.762 1921.45 227.75 1884.89 239.585L1886.55 295.046C1915.07 282.333 1948.23 277.234 1981.38 277.234C2018.53 277.234 2048.79 285.889 2049.36 318.169C2033.5 316.096 2017.45 315.035 2001.38 314.995C1946.62 314.995 1847.7 323.651 1847.7 395.941C1847.7 447.319 1900.26 470.488 1959.1 470.488C2001.38 470.488 2029.94 457.293 2053.38 427.759H2054.75C2054.75 440.029 2056.46 452.313 2057.03 465.032H2151.34L2151.26 465.19ZM1943.81 390.182C1943.81 367.435 1971.25 358.806 2006.09 358.806C2021.52 358.806 2036.41 359.71 2049.52 360.165C2049.52 387.912 2024.96 416.075 1986.13 416.075C1962.11 416.075 1943.81 406.536 1943.81 390.182Z" fill="#ED1C24"/>
<path fill-rule="evenodd" clip-rule="evenodd" d="M767.697 327.451C758.214 389.595 714.376 452.379 618.652 452.497C562.767 452.577 519.111 422.151 488.879 384.924V341.806C526.711 356.741 562.07 372.772 604.971 373.26C657.819 373.88 705.607 357.724 725.369 327.444H767.705L767.697 327.451ZM447.704 366.472C403.791 408.561 361.355 451.554 281.842 451.554C169.534 451.554 116.263 365.212 116.263 293.027C116.263 223.666 157.894 141.559 267.307 141.559C314.763 141.559 360.443 164.636 387.671 189.045L387.588 247.923C364.84 235.745 313.883 223.798 280.615 223.369C211.232 222.445 150.062 246.36 151.124 300.818C151.846 338.309 198.563 363.794 245.04 363.794C316.223 363.794 359.348 312.086 395.387 272.84C409.837 257.859 424.121 242.778 438.238 227.598C478.268 183.121 524.587 142.516 604.1 142.516C697.766 142.516 750.349 202.549 765.216 264.35H722.905C705.897 244.308 673.184 232.044 640.961 232.044C567.372 232.044 523.401 285.876 486.598 325.511L447.605 366.465" fill="white"/>
</g>
<defs>
<clipPath id="clip0_29_1008">
<rect width="2500" height="595" fill="white"/>
</clipPath>
</defs>
</svg>
