<svg width="2500" height="595" viewBox="0 0 2500 595" fill="none" xmlns="http://www.w3.org/2000/svg">
<g clip-path="url(#clip0_29_1016)">
<path d="M0.0957031 0.167236H2500.1V595.167H0.0957031V0.167236Z" fill="#A20E37"/>
<path d="M1078.9 441.415H1090.17L1088 456.422H1076.73L1078.9 441.415Z" fill="white"/>
<path d="M1099.93 441.415H1111.21L1109.04 456.422H1097.76L1099.93 441.415Z" fill="white"/>
<path d="M1120.97 441.415H1132.24L1130.07 456.422H1118.8L1120.97 441.415Z" fill="white"/>
<path d="M1158.05 456.685C1156.31 456.948 1154.14 456.948 1151.54 456.948C1147.64 456.948 1145.03 456.158 1143.73 454.315C1142.43 452.473 1142 449.577 1142.65 445.364L1147.64 411.928H1142.22L1143.73 401.661H1149.15L1151.32 386.917H1161.95L1159.78 401.661H1166.07L1164.55 411.928H1158.26L1153.49 442.731C1153.27 443.785 1153.49 444.574 1154.14 445.364C1154.58 445.891 1155.66 446.154 1156.96 446.154L1159.56 445.891L1158.05 456.685Z" fill="white"/>
<path d="M1164.98 456.422L1176.26 382.441H1181.46H1186.67L1182.77 408.506L1183.85 407.189C1187.1 402.45 1191.22 400.081 1195.99 400.081C1200.33 400.081 1203.37 401.66 1205.32 405.083C1207.27 408.506 1207.7 412.981 1206.84 419.037L1201.2 456.422H1195.99H1190.79L1195.99 422.722C1196.43 419.3 1196.43 416.667 1195.56 415.087C1194.69 413.508 1193.17 412.455 1191.01 412.455C1188.19 412.455 1186.02 413.508 1184.07 415.877C1182.12 417.983 1181.03 421.143 1180.38 425.092L1175.61 456.422H1170.41H1164.98Z" fill="white"/>
<path d="M1227.65 457.738C1222.45 457.738 1218.33 456.158 1215.51 452.736C1212.69 449.313 1211.39 444.574 1211.39 438.256C1211.39 436.939 1211.39 435.36 1211.61 434.043C1211.82 432.464 1211.82 430.884 1212.04 429.304C1213.34 420.09 1216.16 412.981 1220.28 407.979C1224.4 402.977 1229.6 400.344 1235.46 400.344C1240.45 400.344 1244.35 401.924 1246.95 405.346C1249.55 408.769 1250.85 413.508 1250.85 420.09C1250.85 421.669 1250.85 423.512 1250.64 425.355C1250.42 427.198 1250.2 429.041 1249.99 431.147L1249.77 432.99H1222.23V433.78C1222.01 434.833 1222.01 435.623 1222.01 436.676C1222.01 440.099 1222.66 442.468 1223.97 444.048C1225.27 445.627 1227 446.417 1229.6 446.417C1231.34 446.417 1233.07 445.891 1234.59 444.838C1236.11 443.784 1237.19 442.468 1237.84 440.625H1248.47C1246.52 445.891 1243.92 450.103 1240.01 453.262C1236.11 456.158 1232.21 457.738 1227.65 457.738ZM1240.45 423.249V421.406C1240.45 418.247 1240.01 415.877 1238.71 414.298C1237.63 412.718 1235.89 411.928 1233.72 411.928C1230.9 411.928 1228.52 413.508 1226.78 416.404C1225.7 418.247 1224.83 420.353 1223.97 423.249H1240.45Z" fill="white"/>
<path d="M1274.06 456.422L1282.3 401.661H1287.5H1292.71L1291.62 409.559L1293.14 407.189C1296.39 402.451 1300.51 400.081 1305.28 400.081C1309.62 400.081 1312.87 401.661 1314.61 405.083C1316.56 408.506 1316.99 412.982 1316.12 419.037L1310.49 456.422H1305.28H1300.08L1305.28 422.723C1305.72 419.3 1305.72 416.667 1304.85 415.088C1303.98 413.508 1302.46 412.455 1300.29 412.455C1297.69 412.455 1295.31 413.508 1293.36 415.878C1291.4 417.984 1290.32 421.143 1289.67 425.092L1284.9 456.422H1279.69H1274.06Z" fill="white"/>
<path d="M1330.22 457.738C1326.97 457.738 1324.36 456.685 1322.41 454.579C1320.46 452.473 1319.59 449.576 1319.59 445.627C1319.59 445.101 1319.59 444.311 1319.59 443.521C1319.59 442.731 1319.81 441.942 1319.81 441.152C1320.46 436.676 1322.2 432.727 1324.8 429.831C1327.4 426.672 1330.65 424.829 1334.34 424.039L1343.23 422.196C1344.1 421.933 1344.96 421.669 1345.62 421.406C1346.48 420.88 1347.35 420.09 1347.78 419.3C1348.22 418.247 1348.43 417.194 1348.43 415.877C1348.43 414.561 1348 413.508 1347.35 412.718C1346.48 411.665 1344.75 411.138 1342.36 411.138C1340.63 411.138 1338.89 411.665 1337.81 412.981C1336.51 414.298 1335.64 416.141 1334.77 418.773H1324.8C1325.88 412.455 1328.05 407.716 1331.52 404.557C1334.99 401.397 1339.54 399.818 1345.18 399.818C1350.39 399.818 1354.07 401.134 1356.46 404.03C1358.19 406.136 1359.06 408.769 1359.06 412.192C1359.06 413.245 1359.06 414.561 1358.84 415.877L1354.29 445.627C1353.86 447.997 1353.86 449.84 1353.86 451.156C1354.07 452.472 1354.51 453.262 1355.16 453.789L1354.94 455.632H1349.3H1343.66C1343.45 453.526 1343.45 451.419 1343.66 449.313C1339.76 455.105 1335.21 457.738 1330.22 457.738ZM1345.62 436.413L1346.7 429.831C1345.62 430.621 1344.53 431.147 1343.45 431.674L1339.11 432.727C1336.29 433.517 1334.34 434.57 1333.04 435.623C1331.74 436.676 1331.09 438.519 1330.65 440.625C1330.65 440.888 1330.65 440.888 1330.65 440.625C1330.65 440.888 1330.65 441.415 1330.44 441.678C1330.44 441.942 1330.44 442.205 1330.44 442.731C1330.44 444.311 1330.87 445.364 1331.52 446.417C1332.17 447.207 1333.26 447.734 1334.56 447.734C1337.81 447.734 1340.84 445.891 1343.45 442.205C1343.88 441.678 1344.31 440.888 1344.75 439.572C1345.18 438.519 1345.62 437.466 1345.62 436.413Z" fill="white"/>
<path d="M1362.31 456.422L1370.55 401.661H1375.76H1380.96L1379.66 409.296L1381.18 406.663C1384.21 402.187 1387.9 400.081 1392.24 400.081C1396.14 400.081 1398.96 401.661 1400.69 404.557C1401.56 405.873 1401.99 407.189 1402.21 409.032L1403.73 406.663C1406.55 402.187 1410.24 400.081 1414.36 400.081C1418.69 400.081 1421.73 401.661 1423.68 405.083C1424.98 407.453 1425.63 410.085 1425.63 413.508C1425.63 415.088 1425.41 416.931 1425.2 418.774L1419.56 456.158H1414.36H1408.93L1414.36 420.616C1414.79 417.72 1414.79 415.614 1413.92 414.035C1413.27 412.718 1411.97 411.928 1410.02 411.928C1407.63 411.928 1405.68 412.982 1404.16 414.824C1402.65 416.667 1401.56 419.3 1401.13 422.986L1396.14 455.895H1390.94H1385.51L1390.94 420.88C1391.37 417.72 1391.37 415.614 1390.5 414.035C1389.85 412.455 1388.33 411.928 1386.6 411.928C1384.21 411.928 1382.26 412.982 1380.96 414.824C1379.44 416.667 1378.58 419.3 1377.93 422.986L1372.94 455.895H1367.73H1362.31V456.422Z" fill="white"/>
<path d="M1446.23 457.738C1441.03 457.738 1436.91 456.158 1434.09 452.736C1431.27 449.313 1429.97 444.574 1429.97 438.256C1429.97 436.939 1429.97 435.36 1430.19 434.043C1430.4 432.464 1430.4 430.884 1430.62 429.304C1431.92 420.09 1434.74 412.981 1438.86 407.979C1442.98 402.977 1447.97 400.344 1454.04 400.344C1459.03 400.344 1462.93 401.924 1465.53 405.346C1468.13 408.769 1469.43 413.508 1469.43 420.09C1469.43 421.669 1469.43 423.512 1469.22 425.355C1469 427.198 1468.78 429.041 1468.57 431.147L1468.35 432.99H1440.81V433.78C1440.59 434.833 1440.59 435.623 1440.59 436.676C1440.59 440.099 1441.24 442.468 1442.55 444.048C1443.85 445.627 1445.58 446.417 1448.18 446.417C1449.92 446.417 1451.65 445.891 1453.17 444.838C1454.69 443.784 1455.77 442.468 1456.21 440.625H1466.83C1464.88 445.891 1462.28 450.103 1458.38 453.262C1454.69 456.158 1450.57 457.738 1446.23 457.738ZM1459.03 423.249V421.406C1459.03 418.247 1458.59 415.877 1457.29 414.298C1456.21 412.718 1454.47 411.928 1452.3 411.928C1449.48 411.928 1447.1 413.508 1445.36 416.404C1444.28 418.247 1443.41 420.353 1442.55 423.249H1459.03Z" fill="white"/>
<path d="M1537.09 401.661L1515.19 455.895C1511.07 465.9 1508.03 472.481 1505.65 475.114C1503.48 477.747 1500.01 479.327 1495.89 479.327C1493.94 479.327 1492.2 479.327 1490.9 479.063L1492.64 467.479C1492.85 467.743 1493.5 467.743 1494.8 467.743C1497.62 467.743 1499.58 466.953 1500.66 465.373C1501.31 464.32 1502.18 462.214 1503.26 458.791L1496.97 401.661H1502.83H1508.68L1511.07 442.468L1525.81 401.661H1531.45H1537.09Z" fill="white"/>
<path d="M1552.92 457.738C1547.71 457.738 1543.59 455.895 1540.56 452.209C1537.52 448.523 1536 443.258 1536 436.939C1536 435.886 1536 434.57 1536.22 433.254C1536.44 431.937 1536.44 430.621 1536.66 429.304C1537.96 420.353 1540.99 413.245 1545.33 408.242C1549.88 402.977 1555.3 400.344 1561.59 400.344C1566.8 400.344 1570.92 402.187 1573.95 405.873C1576.99 409.559 1578.51 414.824 1578.51 421.406C1578.51 422.459 1578.51 423.776 1578.29 425.092C1578.07 426.408 1578.07 427.988 1577.86 429.304C1576.55 437.992 1573.74 445.101 1569.18 450.103C1564.63 455.105 1559.21 457.738 1552.92 457.738ZM1554.65 445.627C1557.91 445.627 1560.51 444.048 1562.46 441.415C1564.41 438.519 1565.93 434.307 1566.8 428.515C1567.01 427.461 1567.01 426.672 1567.23 425.619C1567.23 424.565 1567.45 423.776 1567.45 422.986C1567.45 419.563 1566.8 416.931 1565.5 415.088C1564.19 413.245 1562.24 412.192 1559.86 412.192C1556.61 412.192 1554 413.771 1552.05 416.667C1550.1 419.563 1548.58 424.039 1547.71 429.831C1547.5 430.621 1547.5 431.674 1547.5 432.464C1547.5 433.517 1547.28 434.307 1547.5 435.096C1547.5 438.519 1548.15 441.152 1549.45 442.731C1550.32 444.838 1552.27 445.627 1554.65 445.627Z" fill="white"/>
<path d="M1599.97 401.661L1594.77 435.36C1594.34 438.782 1594.34 441.415 1595.2 442.995C1596.07 444.574 1597.59 445.627 1599.76 445.627C1602.36 445.627 1604.74 444.574 1606.7 442.205C1608.65 440.099 1609.73 436.939 1610.38 432.99L1615.15 401.661H1620.36H1625.78L1617.54 456.422H1612.33H1607.13L1608.21 448.523C1607.78 449.313 1607.35 450.103 1606.7 450.893C1603.44 455.632 1599.32 458.001 1594.55 458.001C1590.22 458.001 1587.18 456.158 1585.23 452.473C1583.93 450.103 1583.49 446.944 1583.49 443.521C1583.49 441.678 1583.71 439.572 1583.93 437.466L1589.35 402.187H1594.55L1599.97 401.661Z" fill="white"/>
<path d="M1685.85 436.413C1684.11 442.995 1681.29 448.26 1677.39 451.946C1673.48 455.895 1669.15 457.738 1663.94 457.738C1659.17 457.738 1655.49 456.158 1652.88 452.736C1650.28 449.577 1648.98 444.838 1648.98 438.519C1648.98 437.203 1648.98 435.623 1649.2 434.043C1649.42 432.464 1649.63 430.884 1649.85 429.041C1651.15 419.827 1653.97 412.718 1658.09 407.716C1662.21 402.714 1667.41 400.081 1673.48 400.081C1678.69 400.081 1682.59 401.924 1684.98 405.61C1687.15 408.769 1688.23 412.718 1688.23 417.72L1688.01 421.143H1677.39C1677.39 417.984 1676.74 415.877 1675.87 414.298C1675 412.981 1673.48 412.192 1671.75 412.192C1668.93 412.192 1666.76 413.771 1664.81 416.667C1663.08 419.563 1661.56 424.039 1660.69 429.831C1660.47 430.884 1660.47 431.937 1660.26 433.254C1660.26 434.307 1660.04 435.36 1660.04 436.413C1660.04 439.572 1660.47 441.942 1661.56 443.521C1662.43 445.101 1663.94 446.154 1665.68 446.154C1667.63 446.154 1669.58 445.364 1671.32 443.521C1673.05 441.678 1674.14 439.572 1675 436.676L1685.85 436.413Z" fill="white"/>
<path d="M1699.94 457.738C1696.69 457.738 1694.09 456.685 1692.13 454.579C1690.18 452.473 1689.31 449.576 1689.31 445.627C1689.31 445.101 1689.31 444.311 1689.31 443.521C1689.31 442.731 1689.53 441.942 1689.53 441.152C1690.18 436.676 1691.92 432.727 1694.52 429.831C1697.12 426.672 1700.37 424.829 1704.06 424.039L1712.95 422.196C1713.82 421.933 1714.69 421.669 1715.34 421.406C1716.2 420.88 1717.07 420.09 1717.5 419.3C1717.94 418.247 1718.15 417.194 1718.15 415.877C1718.15 414.561 1717.72 413.508 1717.07 412.718C1716.2 411.665 1714.47 411.138 1712.08 411.138C1710.35 411.138 1708.61 411.665 1707.53 412.981C1706.23 414.298 1705.36 416.141 1704.49 418.773H1694.52C1695.6 412.455 1697.77 407.716 1701.24 404.557C1704.71 401.397 1709.26 399.818 1714.9 399.818C1720.11 399.818 1723.79 401.134 1726.18 404.03C1727.91 406.136 1728.78 408.769 1728.78 412.192C1728.78 413.245 1728.78 414.561 1728.56 415.877L1724.01 445.627C1723.58 447.997 1723.58 449.84 1723.58 451.156C1723.79 452.472 1724.23 453.262 1724.88 453.789L1724.66 455.632H1719.02H1713.38C1713.17 453.526 1713.17 451.419 1713.38 449.313C1709.48 455.105 1704.93 457.738 1699.94 457.738ZM1715.55 436.413L1716.64 429.831C1715.55 430.621 1714.47 431.147 1713.38 431.674L1709.05 432.727C1706.23 433.517 1704.28 434.57 1702.98 435.623C1701.67 436.676 1701.02 438.519 1700.59 440.625C1700.59 440.888 1700.59 440.888 1700.59 440.625C1700.59 440.888 1700.59 441.415 1700.37 441.678C1700.37 441.942 1700.37 442.205 1700.37 442.731C1700.37 444.311 1700.81 445.364 1701.46 446.417C1702.11 447.207 1703.19 447.734 1704.49 447.734C1707.75 447.734 1710.78 445.891 1713.38 442.205C1713.82 441.678 1714.25 440.888 1714.69 439.572C1715.12 438.519 1715.34 437.466 1715.55 436.413Z" fill="white"/>
<path d="M1732.25 456.422L1740.49 401.661H1745.69H1750.9L1749.6 409.559L1751.11 407.189C1754.37 402.451 1758.49 400.081 1763.26 400.081C1767.59 400.081 1770.85 401.661 1772.58 405.083C1774.53 408.506 1774.97 412.982 1774.1 419.037L1768.46 456.422H1763.26H1757.84L1763.04 422.723C1763.47 419.3 1763.47 416.667 1762.61 415.088C1761.74 413.508 1760.22 412.455 1758.05 412.455C1755.23 412.455 1753.07 413.508 1751.11 415.878C1749.16 417.984 1748.08 421.143 1747.43 425.092L1742.66 456.422H1737.45H1732.25Z" fill="white"/>
<path d="M1800.34 456.422L1811.61 382.441H1817.25H1838.29C1842.84 382.441 1846.31 383.758 1848.7 386.391C1851.08 389.023 1852.38 392.709 1852.38 397.448C1852.38 398.238 1852.38 399.291 1852.16 400.344C1852.16 401.397 1851.95 402.45 1851.73 403.24C1850.86 408.242 1848.7 412.191 1845.01 415.351C1844.36 415.877 1843.71 416.404 1843.06 416.667C1843.92 417.194 1844.58 417.457 1845.23 418.247C1848.04 420.879 1849.35 424.565 1849.35 429.304C1849.35 430.094 1849.35 430.884 1849.13 431.674C1849.13 432.464 1848.91 433.253 1848.91 434.306C1847.83 441.152 1845.23 446.68 1841.11 450.63C1836.99 454.579 1831.78 456.422 1825.28 456.422H1805.98H1800.34ZM1820.72 395.342L1818.34 411.402H1831.56C1834.17 411.402 1836.34 410.875 1837.64 409.559C1839.15 408.242 1840.02 406.399 1840.46 403.503C1840.46 402.977 1840.46 402.714 1840.67 402.187C1840.67 401.924 1840.67 401.397 1840.67 400.871C1840.67 399.028 1840.24 397.448 1839.15 396.658C1838.07 395.868 1836.33 395.342 1834.17 395.342H1820.72ZM1816.39 424.039L1813.35 443.521H1826.36C1829.61 443.521 1832 442.731 1833.73 441.152C1835.47 439.572 1836.55 437.202 1837.2 433.78C1837.2 433.253 1837.42 432.727 1837.42 432.2C1837.42 431.674 1837.42 431.41 1837.42 430.884C1837.42 428.514 1836.77 426.672 1835.68 425.618C1834.6 424.565 1832.65 423.776 1830.26 423.776H1816.39V424.039Z" fill="white"/>
<path d="M1850.65 456.422L1881.66 382.441H1888.16H1894.67L1902.26 456.422H1896.18H1889.9L1888.59 440.888H1868.43L1862.36 456.422H1856.28H1850.65ZM1885.34 398.764L1873.42 428.778H1887.73L1885.34 398.764Z" fill="white"/>
<path d="M1919.39 456.422H1914.18H1908.98L1920.25 382.441H1926.11H1931.96L1946.06 434.833L1954.08 382.441H1959.29H1964.49L1953.21 456.422H1947.58H1941.94L1927.41 403.24L1919.39 456.422Z" fill="white"/>
<path d="M1964.92 456.422L1976.2 382.441H1981.84H1987.48L1982.92 412.981L2008.73 382.441H2016.1H2023.47L1996.8 413.245L2013.28 456.422H2005.91H1998.32L1986.83 424.302L1979.89 432.2L1976.2 456.422H1970.56H1964.92Z" fill="white"/>
<path d="M2057.95 401.661L2052.75 435.36C2052.31 438.782 2052.31 441.415 2053.18 442.995C2054.05 444.574 2055.56 445.627 2057.73 445.627C2060.34 445.627 2062.72 444.574 2064.67 442.205C2066.62 440.099 2067.71 436.939 2068.36 432.99L2073.13 401.661H2078.33H2083.75L2075.51 456.422H2070.31H2065.11L2066.19 448.523C2065.76 449.313 2065.32 450.103 2064.67 450.893C2061.42 455.632 2057.3 458.001 2052.53 458.001C2048.19 458.001 2045.16 456.158 2043.2 452.473C2041.9 450.103 2041.47 446.944 2041.47 443.521C2041.47 441.678 2041.69 439.572 2041.9 437.466L2047.32 402.187H2052.53L2057.95 401.661Z" fill="white"/>
<path d="M2093.08 401.661H2098.07H2103.05L2101.97 409.559L2102.84 408.506C2106.74 402.977 2111.29 400.344 2116.06 400.344C2120.18 400.344 2123.44 401.924 2125.61 405.346C2127.99 408.769 2129.07 413.508 2129.07 419.3C2129.07 420.616 2128.86 422.196 2128.86 424.039C2128.64 425.619 2128.42 427.461 2128.21 429.041C2126.91 437.203 2124.3 444.048 2120.18 449.576C2116.06 455.105 2111.73 457.738 2106.74 457.738C2101.97 457.738 2098.5 455.105 2096.33 450.103V449.84L2091.99 477.747H2086.79H2081.59L2093.08 401.661ZM2105.44 445.891C2108.04 445.891 2110.43 444.311 2112.59 441.415C2114.76 438.519 2116.06 434.57 2116.93 429.568C2117.15 428.515 2117.15 427.461 2117.37 426.408C2117.58 425.355 2117.58 424.302 2117.58 423.249C2117.58 419.826 2116.93 417.194 2115.85 415.351C2114.55 413.508 2113.03 412.455 2110.86 412.455C2108.26 412.455 2105.87 414.034 2103.7 416.93C2101.54 419.827 2100.23 423.776 2099.58 428.515C2098.72 434.043 2098.93 438.256 2100.02 441.415C2100.67 444.574 2102.62 445.891 2105.44 445.891Z" fill="white"/>
<path d="M2149.46 457.738C2144.25 457.738 2140.13 455.895 2137.1 452.209C2134.06 448.523 2132.54 443.258 2132.54 436.939C2132.54 435.886 2132.54 434.57 2132.76 433.254C2132.98 431.937 2132.98 430.621 2133.19 429.304C2134.5 420.353 2137.53 413.245 2141.87 408.242C2146.42 402.977 2151.84 400.344 2158.13 400.344C2163.34 400.344 2167.46 402.187 2170.49 405.873C2173.53 409.559 2175.05 414.824 2175.05 421.406C2175.05 422.459 2175.05 423.776 2174.83 425.092C2174.61 426.408 2174.61 427.988 2174.39 429.304C2173.09 437.992 2170.27 445.101 2165.72 450.103C2160.95 455.105 2155.75 457.738 2149.46 457.738ZM2151.19 445.627C2154.45 445.627 2157.05 444.048 2159 441.415C2160.95 438.519 2162.47 434.307 2163.34 428.515C2163.55 427.461 2163.55 426.672 2163.77 425.619C2163.77 424.565 2163.99 423.776 2163.99 422.986C2163.99 419.563 2163.34 416.931 2162.03 415.088C2160.73 413.245 2158.78 412.192 2156.4 412.192C2153.14 412.192 2150.54 413.771 2148.59 416.667C2146.64 419.563 2145.12 424.039 2144.25 429.831C2144.04 430.621 2144.04 431.674 2144.04 432.464C2144.04 433.517 2143.82 434.307 2144.04 435.096C2144.04 438.519 2144.69 441.152 2145.99 442.731C2146.86 444.838 2148.81 445.627 2151.19 445.627Z" fill="white"/>
<path d="M2177.43 456.422L2185.67 401.661H2190.88H2196.08L2194.78 409.559L2196.3 407.189C2199.77 402.451 2203.67 400.081 2208.44 400.081C2212.78 400.081 2215.81 401.661 2217.76 405.083C2219.72 408.506 2220.15 412.982 2219.28 419.037L2213.64 456.422H2208.44H2203.24L2208.44 422.723C2208.87 419.3 2208.87 416.667 2208.01 415.088C2207.14 413.508 2205.62 412.455 2203.45 412.455C2200.85 412.455 2198.47 413.508 2196.51 415.878C2194.56 417.984 2193.48 421.143 2192.83 425.092L2188.06 456.422H2182.85C2182.64 456.422 2177.43 456.422 2177.43 456.422Z" fill="white"/>
<path d="M2231.64 436.15L2234.03 400.608L2236.85 382.705H2242.7H2248.56L2245.74 400.608L2237.28 436.15H2234.46H2231.64ZM2227.96 441.678H2239.01L2236.85 456.158H2225.79L2227.96 441.678Z" fill="white"/>
<path d="M469.13 116.798H539.171V447.47H469.13V366.119C407.763 393.762 350.299 396.395 297.389 332.683C275.488 304.512 263.344 266.601 268.549 199.729C269.199 189.988 265.296 148.391 255.538 122.063H317.772C346.613 178.931 308.665 245.276 353.335 291.349C413.835 339.791 466.961 282.134 469.347 229.743V116.798H469.13ZM399.523 152.34C432.483 152.34 459.589 184.986 459.589 225.004C459.589 265.021 432.7 297.667 399.523 297.667C366.346 297.667 339.457 265.021 339.457 225.004C339.674 185.249 366.562 152.34 399.523 152.34Z" fill="#FBBC09"/>
<path d="M641.088 222.371C667.977 222.371 690.095 249.488 690.095 282.661C690.095 323.468 657.351 349.796 626.342 337.422V310.041C643.473 322.415 665.591 309.778 665.591 284.767C665.591 267.127 653.882 252.647 639.57 252.647C625.258 252.647 613.549 267.127 613.549 284.767C613.549 321.889 612.898 359.01 612.898 396.132H592.515V282.661L592.731 277.132C592.948 247.119 614.85 222.634 641.088 222.371Z" fill="white"/>
<path d="M697.251 227.373H718.718V286.61C717.2 321.362 761.87 323.995 760.786 286.61V227.373H782.254V288.189C784.422 363.749 693.998 358.484 697.034 288.189V227.373H697.251Z" fill="white"/>
<path d="M793.747 339.791H815.214V280.291C813.696 245.539 858.366 242.906 857.282 280.291V339.528H878.75V278.712C880.918 203.152 790.494 208.417 793.53 278.712V339.791H793.747Z" fill="white"/>
<path d="M1089.96 344.004C1116.84 344.004 1138.96 316.886 1138.96 283.714C1138.96 242.906 1106.22 216.579 1075.21 228.689V256.07C1092.34 243.696 1114.46 256.333 1114.46 281.344C1114.46 298.984 1102.75 313.464 1088.44 313.464C1074.13 313.464 1062.42 298.984 1062.42 281.344C1062.42 244.223 1061.77 207.101 1061.77 169.979H1041.38V283.45L1041.6 288.979C1041.82 319.256 1063.72 343.477 1089.96 344.004Z" fill="white"/>
<path d="M884.821 254.753V227.636H927.54V336.895C927.756 370.857 908.457 397.185 880.701 400.081V375.596C894.362 368.751 904.988 359.01 905.205 336.632V254.753H884.821Z" fill="white"/>
<path d="M935.346 290.822C933.178 258.703 952.477 236.324 970.909 229.216C997.147 220.001 1029.67 236.324 1030.97 281.344V338.211H1011.02L1011.24 280.554C1009.94 254.227 976.98 243.169 963.536 268.18C957.898 281.344 956.597 301.616 971.993 312.147C979.365 315.307 987.606 316.886 998.014 314.78V339.265C981.534 345.32 965.271 343.74 949.224 325.838C940.984 315.833 937.081 304.249 935.346 290.822Z" fill="white"/>
<path d="M1171.92 339.791H1193.39V280.291C1191.87 245.539 1236.54 242.906 1235.46 280.291V339.528H1256.93V278.712C1259.09 203.152 1168.67 208.417 1171.71 278.712V339.791H1171.92Z" fill="white"/>
<path d="M1266.68 290.822C1264.52 258.703 1283.81 236.324 1302.25 229.216C1328.48 220.001 1361.01 236.324 1362.31 281.344V338.211H1342.36L1342.58 280.554C1341.28 254.227 1308.32 243.169 1294.87 268.18C1289.24 281.344 1287.93 301.616 1303.33 312.147C1310.7 315.307 1318.94 316.886 1329.35 314.78V339.265C1312.87 345.32 1296.61 343.74 1280.56 325.838C1272.32 315.833 1268.42 304.249 1266.68 290.822Z" fill="white"/>
<path d="M1570.7 339.791H1592.17V280.291C1590.65 245.539 1635.32 242.906 1634.24 280.291V339.528H1655.7V278.712C1657.87 203.152 1567.45 208.417 1570.48 278.712V339.791H1570.7Z" fill="white"/>
<path d="M1665.46 290.822C1663.29 258.703 1682.59 236.324 1701.02 229.216C1727.26 220.001 1759.79 236.324 1761.09 281.344V338.211H1741.14L1741.36 280.554C1740.06 254.227 1707.1 243.169 1693.65 268.18C1688.01 281.344 1686.71 301.616 1702.11 312.147C1709.48 315.307 1717.72 316.886 1728.13 314.78V339.265C1711.65 345.32 1695.39 343.74 1679.34 325.838C1671.1 315.833 1667.2 304.249 1665.46 290.822Z" fill="white"/>
<path d="M1445.58 173.138C1454.91 173.138 1462.71 182.353 1462.71 193.937C1462.71 205.258 1455.12 214.736 1445.58 214.736C1436.26 214.736 1428.45 205.521 1428.45 193.937C1428.45 182.353 1436.26 173.138 1445.58 173.138Z" fill="white"/>
<path d="M1434.52 228.426H1458.59V339.528H1434.52V228.426Z" fill="white"/>
<path d="M1374.02 189.725H1397.01V228.689H1425.2V255.543H1397.01V273.973C1396.14 306.619 1404.6 313.727 1423.68 319.519V341.371C1386.6 345.32 1373.59 318.203 1374.02 273.709V189.725Z" fill="white"/>
<path d="M1514.75 227.9C1488.52 227.9 1467.05 253.964 1467.05 285.82C1467.05 317.676 1488.52 343.74 1514.75 343.74C1540.99 343.74 1562.46 317.676 1562.46 285.82C1562.46 253.964 1541.21 227.9 1514.75 227.9ZM1514.75 316.097C1501.09 316.097 1490.03 302.67 1490.03 286.083C1490.03 269.497 1501.09 256.07 1514.75 256.07C1528.42 256.07 1539.47 269.497 1539.47 286.083C1539.69 302.67 1528.42 316.097 1514.75 316.097Z" fill="white"/>
<path d="M1970.78 290.822C1968.61 258.703 1987.91 236.324 2006.34 229.216C2032.58 220.001 2065.11 236.324 2066.41 281.344V338.211H2046.46L2046.67 280.554C2045.37 254.227 2012.41 243.169 1998.97 268.18C1993.33 281.344 1992.03 301.616 2007.43 312.147C2014.8 315.307 2023.04 316.886 2033.45 314.78V339.265C2016.97 345.32 2000.7 343.74 1984.66 325.838C1976.63 315.833 1972.73 304.249 1970.78 290.822Z" fill="white"/>
<path d="M2078.98 339.791H2100.45V280.291C2098.93 245.539 2143.6 242.906 2142.52 280.291V339.528H2163.99V278.712C2166.16 203.152 2075.73 208.417 2078.77 278.712V339.791H2078.98Z" fill="white"/>
<path d="M1915.7 344.004C1942.59 344.004 1964.71 316.886 1964.71 283.714C1964.71 242.906 1931.96 216.579 1900.95 228.689V256.07C1918.09 243.696 1940.2 256.333 1940.2 281.344C1940.2 298.984 1928.49 313.464 1914.18 313.464C1899.87 313.464 1888.16 298.984 1888.16 281.344C1888.16 244.223 1887.51 207.101 1887.51 169.979H1867.13V283.45L1867.34 288.979C1867.34 319.256 1889.25 343.477 1915.7 344.004Z" fill="white"/>
<path d="M1772.58 172.085H1793.62V266.074C1792.31 303.723 1805.98 313.2 1828.31 316.886V341.371C1786.89 345.583 1772.37 315.57 1772.8 265.811V172.085H1772.58Z" fill="white"/>
<path d="M2175.05 170.769H2198.68V258.176C2205.62 235.535 2221.88 219.212 2240.75 219.212C2242.05 219.212 2243.35 219.212 2244.87 219.475V246.855C2229.69 250.804 2218.2 265.811 2218.2 283.714C2218.2 301.616 2229.47 316.623 2244.87 320.572V344.53C2243.57 344.793 2242.27 344.793 2240.75 344.793C2221.88 344.793 2205.62 328.734 2198.68 305.829V339.528H2175.05C2175.05 339.791 2175.05 170.769 2175.05 170.769Z" fill="white"/>
</g>
<defs>
<clipPath id="clip0_29_1016">
<rect width="2500" height="595" fill="white"/>
</clipPath>
</defs>
</svg>
