<?xml version="1.0" encoding="UTF-8"?>
<svg xmlns="http://www.w3.org/2000/svg" xmlns:xlink="http://www.w3.org/1999/xlink" width="2500px" height="914px" viewBox="0 0 2500 914" version="1.1">
<g id="surface1">
<path style=" stroke:none;fill-rule:nonzero;fill:rgb(42.745098%,15.294118%,42.745098%);fill-opacity:1;" d="M 0 67.488281 C 825 67.488281 1650 67.488281 2500 67.488281 C 2500 324.566406 2500 581.644531 2500 846.511719 C 1675 846.511719 850 846.511719 0 846.511719 C 0 589.433594 0 332.355469 0 67.488281 Z M 0 67.488281 "/>
<path style=" stroke:none;fill-rule:nonzero;fill:rgb(92.156863%,40.784314%,12.156863%);fill-opacity:1;" d="M 751.503906 146.066406 C 753.515625 146.066406 755.523438 146.0625 757.59375 146.0625 C 790.089844 146.097656 821.621094 147.195312 853.390625 152.332031 C 856.277344 152.800781 856.277344 152.800781 859.222656 153.273438 C 934.839844 166.09375 1002.410156 193.816406 1058.535156 231.390625 C 1059.832031 232.253906 1061.128906 233.117188 1062.464844 234.003906 C 1121.175781 273.253906 1161.464844 322.734375 1181.621094 377.941406 C 1182.425781 379.886719 1183.234375 381.832031 1184.066406 383.839844 C 1214.472656 459.976562 1190.785156 544.039062 1138.027344 612.105469 C 1120.214844 634.363281 1098.292969 653.632812 1073.277344 672.085938 C 1069.589844 674.808594 1065.953125 677.5625 1062.316406 680.316406 C 1010.191406 718.699219 941.207031 744.339844 869.121094 758.535156 C 866.796875 758.992188 864.472656 759.453125 862.078125 759.929688 C 826.65625 766.496094 790.867188 768.195312 754.410156 768.054688 C 752.445312 768.050781 750.480469 768.046875 748.457031 768.042969 C 629.378906 767.640625 522.789062 735.03125 438.320312 676.101562 C 365.527344 624.132812 314.628906 550.222656 311.816406 476.28125 C 311.746094 474.9375 311.675781 473.59375 311.601562 472.207031 C 309.03125 419.089844 322.226562 367.886719 355.578125 320.09375 C 356.417969 318.875 357.257812 317.660156 358.121094 316.40625 C 377.0625 289.242188 401.175781 265.597656 431.015625 243.871094 C 434.9375 241.007812 438.796875 238.105469 442.660156 235.195312 C 506.964844 187.507812 595.214844 158.800781 686.542969 148.476562 C 689.699219 148.117188 692.855469 147.757812 696.105469 147.382812 C 714.460938 145.847656 733.042969 146.078125 751.503906 146.066406 Z M 751.503906 146.066406 "/>
<path style=" stroke:none;fill-rule:nonzero;fill:rgb(43.137255%,15.294118%,42.352941%);fill-opacity:1;" d="M 575.9375 328.527344 C 579.382812 328.542969 582.828125 328.558594 586.375 328.574219 C 598.101562 329.949219 603.421875 332.226562 612.691406 337.445312 C 616.84375 342.105469 620.121094 346.300781 623.3125 351.253906 C 624.226562 352.609375 625.144531 353.964844 626.089844 355.363281 C 628.96875 359.660156 631.777344 363.976562 634.574219 368.300781 C 635.457031 369.648438 636.339844 370.996094 637.25 372.386719 C 643.664062 382.195312 649.902344 392.050781 656.113281 401.921875 C 658.097656 405.066406 660.085938 408.210938 662.070312 411.351562 C 682.480469 443.671875 702.640625 476.070312 722.746094 508.484375 C 724.003906 510.503906 724.003906 510.503906 725.28125 512.566406 C 726.09375 513.882812 726.90625 515.195312 727.742188 516.546875 C 729.566406 519.453125 731.429688 522.34375 733.324219 525.226562 C 734.316406 526.746094 735.308594 528.265625 736.328125 529.832031 C 737.238281 531.199219 738.144531 532.570312 739.078125 533.980469 C 742.871094 540.988281 742.636719 545.9375 741.246094 553.414062 C 735.496094 561.230469 730.9375 565.605469 719.367188 568.839844 C 712.792969 569.488281 712.792969 569.488281 705.859375 569.5625 C 703.578125 569.617188 701.296875 569.671875 698.949219 569.726562 C 689.460938 568.511719 685.1875 565.859375 678.335938 561.125 C 673.796875 555.988281 673.796875 555.988281 669.960938 550.28125 C 667.914062 547.238281 667.914062 547.238281 665.824219 544.132812 C 650.984375 520.742188 650.984375 520.742188 650.984375 514.847656 C 601.339844 514.847656 551.695312 514.847656 500.546875 514.847656 C 497.839844 520.574219 495.132812 526.300781 492.339844 532.203125 C 476.179688 562.964844 476.179688 562.964844 459.519531 568.839844 C 446.796875 570.253906 436.105469 569.960938 424.132812 566.550781 C 414.695312 560.703125 410.636719 556.214844 409.515625 547.296875 C 410.433594 538.492188 414.011719 532.390625 419.324219 524.503906 C 420.28125 523.027344 421.242188 521.546875 422.230469 520.023438 C 424.308594 516.828125 426.402344 513.636719 428.511719 510.449219 C 433.035156 503.621094 437.476562 496.765625 441.925781 489.910156 C 444.253906 486.324219 446.585938 482.734375 448.925781 479.152344 C 460.363281 461.574219 471.398438 443.875 482.367188 426.148438 C 485.484375 421.117188 488.613281 416.085938 491.75 411.058594 C 500.324219 397.308594 508.875 383.550781 517.246094 369.738281 C 519.601562 365.925781 521.953125 362.109375 524.308594 358.296875 C 525.742188 355.863281 525.742188 355.863281 527.203125 353.378906 C 537.203125 337.390625 549.9375 328.039062 575.9375 328.527344 Z M 575.9375 328.527344 "/>
<path style=" stroke:none;fill-rule:nonzero;fill:rgb(42.745098%,15.294118%,42.352941%);fill-opacity:1;" d="M 815.097656 329.734375 C 828.363281 334.5 835.1875 339.945312 842.449219 349.015625 C 843.796875 355.402344 843.796875 355.402344 843.769531 362.414062 C 843.78125 363.703125 843.792969 364.988281 843.800781 366.316406 C 843.820312 369.09375 843.808594 371.871094 843.78125 374.648438 C 843.730469 379.0625 843.753906 383.472656 843.792969 387.886719 C 843.871094 398.847656 843.835938 409.8125 843.804688 420.773438 C 843.78125 430.042969 843.804688 439.308594 843.882812 448.578125 C 843.902344 452.894531 843.859375 457.210938 843.808594 461.527344 C 843.816406 480.195312 847.800781 493.957031 861.9375 509.785156 C 879.394531 521.023438 898.832031 523.796875 922.050781 523.1875 C 939.863281 521.78125 955.542969 518.292969 968.269531 509.0625 C 984.824219 491.726562 985.460938 474.589844 985.433594 454.222656 C 985.429688 449.859375 985.464844 445.496094 985.511719 441.136719 C 985.636719 428.742188 985.707031 416.351562 985.722656 403.960938 C 985.738281 396.351562 985.804688 388.746094 985.902344 381.136719 C 985.929688 378.253906 985.9375 375.367188 985.921875 372.480469 C 985.902344 368.441406 985.949219 364.410156 986.011719 360.371094 C 986.019531 358.078125 986.027344 355.789062 986.035156 353.425781 C 987.714844 345.730469 991.515625 341.566406 998.359375 335.519531 C 1010.289062 329.914062 1019.699219 328.328125 1033.917969 329.734375 C 1044.65625 333.734375 1051.789062 338.027344 1058.535156 345.160156 C 1059.246094 351.191406 1059.246094 351.191406 1059.285156 358.726562 C 1059.300781 360.101562 1059.3125 361.472656 1059.328125 362.890625 C 1059.367188 367.441406 1059.363281 371.996094 1059.355469 376.546875 C 1059.367188 379.726562 1059.378906 382.90625 1059.390625 386.082031 C 1059.414062 392.761719 1059.410156 399.4375 1059.398438 406.113281 C 1059.382812 414.613281 1059.425781 423.113281 1059.492188 431.613281 C 1059.53125 438.1875 1059.535156 444.761719 1059.527344 451.339844 C 1059.527344 454.46875 1059.539062 457.597656 1059.570312 460.726562 C 1059.828125 494.078125 1052.34375 522.277344 1018.691406 547.132812 C 988.53125 566.859375 951.316406 571.398438 911.515625 571.613281 C 908.929688 571.632812 906.339844 571.652344 903.675781 571.671875 C 866.15625 571.34375 831.65625 562.457031 804.253906 544.195312 C 779.140625 524.894531 768.492188 498.066406 768.027344 472.300781 C 768 470.964844 767.976562 469.632812 767.949219 468.257812 C 767.867188 463.867188 767.808594 459.476562 767.753906 455.085938 C 767.738281 453.582031 767.71875 452.074219 767.699219 450.523438 C 767.613281 442.554688 767.546875 434.589844 767.492188 426.621094 C 767.441406 420.042969 767.347656 413.46875 767.210938 406.894531 C 767.046875 398.929688 766.960938 390.96875 766.9375 383.003906 C 766.914062 379.980469 766.859375 376.957031 766.78125 373.933594 C 766.109375 347.359375 766.109375 347.359375 776.226562 338.621094 C 788.019531 330.71875 798.882812 328.550781 815.097656 329.734375 Z M 815.097656 329.734375 "/>
<path style=" stroke:none;fill-rule:nonzero;fill:rgb(98.823529%,98.431373%,98.823529%);fill-opacity:1;" d="M 1341.046875 598.832031 C 1346.539062 598.847656 1352.03125 598.789062 1357.523438 598.730469 C 1362.757812 598.734375 1362.757812 598.734375 1368.09375 598.734375 C 1371.28125 598.730469 1374.464844 598.726562 1377.746094 598.722656 C 1390.792969 600.125 1399.238281 604.496094 1408.238281 611.148438 C 1414.03125 618.472656 1412.796875 626.273438 1411.378906 634.402344 C 1405.835938 643.101562 1405.835938 643.101562 1397.703125 645.96875 C 1399.054688 646.761719 1400.402344 647.550781 1401.792969 648.367188 C 1403.546875 649.40625 1405.300781 650.445312 1407.105469 651.515625 C 1408.851562 652.542969 1410.59375 653.574219 1412.394531 654.632812 C 1418.140625 658.382812 1419.441406 660.519531 1420.332031 666.007812 C 1421.175781 682.738281 1421.175781 682.738281 1413.941406 689.355469 C 1393.175781 701.816406 1372.746094 700.90625 1346.417969 700.804688 C 1342.753906 700.84375 1339.085938 700.882812 1335.421875 700.921875 C 1331.957031 700.921875 1328.492188 700.917969 1324.917969 700.917969 C 1321.761719 700.921875 1318.601562 700.925781 1315.347656 700.929688 C 1307.441406 699.960938 1307.441406 699.960938 1302.910156 696.59375 C 1298.785156 691.71875 1298.195312 689.117188 1298.171875 683.5 C 1298.148438 681.78125 1298.121094 680.0625 1298.09375 678.292969 C 1298.109375 676.453125 1298.128906 674.613281 1298.144531 672.71875 C 1298.136719 670.816406 1298.128906 668.914062 1298.121094 666.957031 C 1298.113281 662.941406 1298.128906 658.925781 1298.164062 654.910156 C 1298.207031 648.757812 1298.164062 642.605469 1298.113281 636.453125 C 1298.117188 632.554688 1298.128906 628.652344 1298.144531 624.753906 C 1298.128906 622.90625 1298.109375 621.0625 1298.09375 619.164062 C 1298.132812 616.597656 1298.132812 616.597656 1298.171875 613.976562 C 1298.179688 612.472656 1298.183594 610.964844 1298.191406 609.414062 C 1301.960938 595.167969 1325.296875 598.761719 1341.046875 598.832031 Z M 1341.046875 598.832031 "/>
<path style=" stroke:none;fill-rule:nonzero;fill:rgb(97.647059%,96.862745%,97.647059%);fill-opacity:1;" d="M 1553.269531 336.722656 C 1561.816406 337.445312 1561.816406 337.445312 1567.734375 340.101562 C 1575.570312 347.996094 1574.269531 355.703125 1574.113281 365.113281 C 1574.117188 367.058594 1574.121094 369 1574.125 371.003906 C 1574.121094 375.109375 1574.089844 379.214844 1574.035156 383.320312 C 1573.953125 389.613281 1573.976562 395.90625 1574.011719 402.199219 C 1573.996094 406.1875 1573.972656 410.175781 1573.941406 414.164062 C 1573.949219 416.050781 1573.960938 417.9375 1573.96875 419.878906 C 1573.914062 422.503906 1573.914062 422.503906 1573.863281 425.183594 C 1573.847656 426.722656 1573.832031 428.261719 1573.816406 429.847656 C 1572.484375 434.886719 1570.324219 436.605469 1564.550781 439.644531 C 1550.617188 440.875 1550.617188 440.875 1543.613281 437.402344 C 1538.488281 432.46875 1538.753906 428.828125 1538.535156 422.75 C 1538.4375 420.59375 1538.339844 418.4375 1538.242188 416.214844 C 1538.148438 412.839844 1538.148438 412.839844 1538.054688 409.394531 C 1537.960938 407.121094 1537.867188 404.847656 1537.769531 402.507812 C 1537.542969 396.890625 1537.355469 391.273438 1537.199219 385.652344 C 1534.972656 388.058594 1534.972656 388.058594 1532.699219 390.511719 C 1529.765625 393.65625 1529.765625 393.65625 1526.769531 396.863281 C 1524.835938 398.941406 1522.898438 401.023438 1520.90625 403.167969 C 1509.929688 414.21875 1509.929688 414.21875 1500.371094 415.4375 C 1491.089844 414.289062 1489.085938 411.96875 1483.691406 406.625 C 1482.164062 405.148438 1480.636719 403.671875 1479.066406 402.148438 C 1473.761719 396.679688 1468.535156 391.175781 1463.347656 385.652344 C 1463.292969 387.085938 1463.238281 388.515625 1463.183594 389.988281 C 1462.921875 396.457031 1462.625 402.925781 1462.320312 409.394531 C 1462.238281 411.648438 1462.152344 413.898438 1462.066406 416.214844 C 1461.90625 419.449219 1461.90625 419.449219 1461.746094 422.75 C 1461.660156 424.738281 1461.574219 426.730469 1461.484375 428.777344 C 1460.613281 433.859375 1460.613281 433.859375 1455.140625 439.644531 C 1445.738281 440.488281 1445.738281 440.488281 1435.996094 439.644531 C 1430.128906 436.210938 1428.058594 433.328125 1427.039062 428.003906 C 1426.699219 422.957031 1426.652344 417.945312 1426.699219 412.890625 C 1426.691406 411.035156 1426.683594 409.183594 1426.675781 407.273438 C 1426.671875 403.355469 1426.6875 399.441406 1426.71875 395.523438 C 1426.765625 389.53125 1426.71875 383.542969 1426.667969 377.550781 C 1426.671875 373.742188 1426.683594 369.9375 1426.699219 366.128906 C 1426.683594 364.339844 1426.667969 362.546875 1426.648438 360.699219 C 1426.839844 348.425781 1426.839844 348.425781 1431.308594 342.132812 C 1437.832031 338.296875 1443.953125 337.820312 1452.300781 338.191406 C 1463.882812 340.648438 1468.394531 347.820312 1474.289062 354.800781 C 1476.449219 357.289062 1478.609375 359.777344 1480.773438 362.265625 C 1486.917969 369.378906 1492.933594 376.539062 1498.90625 383.726562 C 1505.523438 379.398438 1510.164062 374.902344 1514.902344 369.496094 C 1516.332031 367.878906 1517.761719 366.261719 1519.234375 364.597656 C 1520.707031 362.914062 1522.175781 361.234375 1523.695312 359.5 C 1526.625 356.164062 1529.5625 352.824219 1532.507812 349.492188 C 1533.804688 348.011719 1535.097656 346.535156 1536.429688 345.011719 C 1541.664062 339.472656 1543.671875 337.605469 1553.269531 336.722656 Z M 1553.269531 336.722656 "/>
<path style=" stroke:none;fill-rule:nonzero;fill:rgb(97.647059%,96.862745%,97.647059%);fill-opacity:1;" d="M 1611.050781 597.765625 C 1633.421875 612.191406 1651.1875 630.125 1669.175781 647.25 C 1673.40625 651.457031 1673.40625 651.457031 1676.695312 653.683594 C 1676.734375 652.195312 1676.777344 650.707031 1676.816406 649.171875 C 1677.019531 642.441406 1677.285156 635.710938 1677.550781 628.976562 C 1677.613281 626.636719 1677.675781 624.292969 1677.738281 621.878906 C 1677.835938 619.636719 1677.929688 617.390625 1678.03125 615.082031 C 1678.101562 613.011719 1678.175781 610.941406 1678.25 608.808594 C 1679.429688 603.546875 1679.429688 603.546875 1683.109375 599.980469 C 1690.195312 596.511719 1695.683594 597.027344 1704.046875 597.765625 C 1709.820312 600.804688 1711.984375 602.523438 1713.3125 607.558594 C 1713.328125 609.097656 1713.34375 610.640625 1713.359375 612.226562 C 1713.394531 613.976562 1713.429688 615.726562 1713.464844 617.53125 C 1713.457031 619.417969 1713.449219 621.300781 1713.441406 623.246094 C 1713.453125 625.1875 1713.46875 627.128906 1713.484375 629.132812 C 1713.5 633.242188 1713.496094 637.347656 1713.472656 641.457031 C 1713.449219 647.746094 1713.527344 654.035156 1713.617188 660.324219 C 1713.621094 664.3125 1713.617188 668.304688 1713.609375 672.296875 C 1713.65625 675.121094 1713.65625 675.121094 1713.703125 678 C 1713.515625 691.007812 1713.515625 691.007812 1707.128906 697.292969 C 1699.789062 700.660156 1696.230469 701.140625 1687.636719 699.960938 C 1662.65625 686.417969 1644.183594 663.292969 1625.675781 645.566406 C 1622.324219 642.261719 1622.324219 642.261719 1619.257812 640.1875 C 1619.230469 641.722656 1619.203125 643.257812 1619.179688 644.84375 C 1619.03125 651.808594 1618.804688 658.769531 1618.570312 665.734375 C 1618.515625 669.363281 1618.515625 669.363281 1618.453125 673.0625 C 1618.367188 675.386719 1618.277344 677.710938 1618.1875 680.105469 C 1618.128906 682.246094 1618.074219 684.386719 1618.015625 686.59375 C 1616.203125 693.453125 1613.457031 695.835938 1605.578125 699.960938 C 1597.03125 699.839844 1597.03125 699.839844 1589.167969 698.035156 C 1583.480469 692.015625 1583 690.597656 1582.902344 683.75 C 1582.867188 682.039062 1582.832031 680.324219 1582.796875 678.5625 C 1582.792969 676.71875 1582.785156 674.875 1582.777344 672.972656 C 1582.761719 671.074219 1582.742188 669.175781 1582.722656 667.21875 C 1582.695312 663.199219 1582.683594 659.179688 1582.683594 655.164062 C 1582.671875 649.011719 1582.574219 642.867188 1582.46875 636.71875 C 1582.453125 632.8125 1582.441406 628.910156 1582.4375 625.007812 C 1582.398438 623.167969 1582.359375 621.328125 1582.316406 619.433594 C 1582.441406 606.722656 1582.441406 606.722656 1588.746094 600.46875 C 1596.964844 596.699219 1601.425781 596.519531 1611.050781 597.765625 Z M 1611.050781 597.765625 "/>
<path style=" stroke:none;fill-rule:nonzero;fill:rgb(97.647059%,96.862745%,97.647059%);fill-opacity:1;" d="M 1810.722656 468.570312 C 1821.980469 475.574219 1831.160156 483.804688 1840.46875 492.070312 C 1841.8125 493.246094 1843.15625 494.417969 1844.539062 495.628906 C 1855.796875 505.578125 1866.136719 515.933594 1876.367188 526.417969 C 1876.421875 524.871094 1876.476562 523.324219 1876.53125 521.730469 C 1876.792969 514.734375 1877.09375 507.742188 1877.394531 500.746094 C 1877.476562 498.3125 1877.5625 495.878906 1877.648438 493.371094 C 1877.753906 491.039062 1877.859375 488.710938 1877.96875 486.308594 C 1878.054688 484.15625 1878.140625 482.007812 1878.230469 479.789062 C 1879.101562 474.355469 1879.101562 474.355469 1884.574219 468.570312 C 1901.234375 467.289062 1901.234375 467.289062 1908.367188 470.964844 C 1912.894531 475.277344 1912.964844 477.726562 1912.988281 483.0625 C 1913.011719 484.820312 1913.039062 486.574219 1913.066406 488.386719 C 1913.050781 490.277344 1913.03125 492.167969 1913.015625 494.121094 C 1913.023438 496.066406 1913.03125 498.011719 1913.039062 500.019531 C 1913.042969 504.136719 1913.03125 508.253906 1912.996094 512.371094 C 1912.953125 518.679688 1912.996094 524.988281 1913.046875 531.296875 C 1913.042969 535.296875 1913.03125 539.292969 1913.015625 543.289062 C 1913.039062 546.128906 1913.039062 546.128906 1913.066406 549.023438 C 1913.039062 550.78125 1913.015625 552.539062 1912.988281 554.347656 C 1912.980469 555.894531 1912.972656 557.4375 1912.96875 559.03125 C 1911.65625 564.09375 1909.480469 565.757812 1903.71875 568.839844 C 1895.171875 570.40625 1895.171875 570.40625 1884.574219 568.839844 C 1874.972656 563.265625 1867.511719 556.472656 1859.957031 549.558594 C 1858.578125 548.296875 1857.203125 547.039062 1855.785156 545.738281 C 1847.300781 537.921875 1838.945312 530.042969 1830.6875 522.105469 C 1826.800781 518.382812 1822.867188 514.6875 1818.929688 510.992188 C 1818.886719 512.539062 1818.847656 514.085938 1818.808594 515.679688 C 1818.601562 522.675781 1818.339844 529.667969 1818.074219 536.660156 C 1817.980469 540.3125 1817.980469 540.3125 1817.886719 544.039062 C 1817.789062 546.371094 1817.691406 548.699219 1817.59375 551.101562 C 1817.519531 553.253906 1817.449219 555.402344 1817.375 557.617188 C 1816.191406 563.054688 1816.191406 563.054688 1812.609375 566.648438 C 1804.832031 570.335938 1797.867188 569.535156 1788.839844 568.839844 C 1783.09375 562.761719 1782.675781 561.289062 1782.617188 554.347656 C 1782.59375 552.589844 1782.566406 550.835938 1782.539062 549.023438 C 1782.542969 547.132812 1782.542969 545.238281 1782.546875 543.289062 C 1782.535156 541.34375 1782.523438 539.394531 1782.511719 537.390625 C 1782.496094 533.273438 1782.496094 529.15625 1782.507812 525.039062 C 1782.515625 518.730469 1782.449219 512.421875 1782.382812 506.109375 C 1782.375 502.113281 1782.375 498.117188 1782.375 494.121094 C 1782.351562 492.226562 1782.324219 490.335938 1782.300781 488.386719 C 1782.316406 486.628906 1782.332031 484.871094 1782.351562 483.0625 C 1782.351562 481.515625 1782.347656 479.972656 1782.347656 478.378906 C 1785.140625 467.390625 1797.042969 467.238281 1810.722656 468.570312 Z M 1810.722656 468.570312 "/>
<path style=" stroke:none;fill-rule:nonzero;fill:rgb(98.823529%,98.431373%,98.823529%);fill-opacity:1;" d="M 1500.617188 467.242188 C 1508.160156 467.445312 1511.707031 468.09375 1517.730469 471.363281 C 1523.753906 476.027344 1529.101562 480.875 1534.464844 485.925781 C 1537.257812 488.507812 1540.054688 491.089844 1542.851562 493.675781 C 1549.867188 500.195312 1556.804688 506.753906 1563.6875 513.34375 C 1567.597656 517.074219 1571.542969 520.78125 1575.492188 524.488281 C 1575.53125 523.070312 1575.570312 521.648438 1575.613281 520.1875 C 1575.816406 513.746094 1576.082031 507.308594 1576.347656 500.867188 C 1576.410156 498.632812 1576.46875 496.398438 1576.535156 494.097656 C 1576.632812 491.945312 1576.726562 489.796875 1576.828125 487.582031 C 1576.898438 485.601562 1576.972656 483.621094 1577.046875 481.582031 C 1578.386719 475.5625 1580.289062 472.824219 1586.433594 468.570312 C 1596.175781 467.726562 1596.175781 467.726562 1605.578125 468.570312 C 1611.335938 474.65625 1611.738281 476.109375 1611.757812 483.0625 C 1611.777344 484.820312 1611.792969 486.574219 1611.808594 488.386719 C 1611.800781 490.277344 1611.789062 492.167969 1611.777344 494.121094 C 1611.785156 497.039062 1611.785156 497.039062 1611.792969 500.019531 C 1611.796875 504.136719 1611.785156 508.253906 1611.761719 512.371094 C 1611.734375 518.679688 1611.761719 524.988281 1611.796875 531.296875 C 1611.792969 535.296875 1611.789062 539.292969 1611.777344 543.289062 C 1611.789062 545.183594 1611.800781 547.074219 1611.808594 549.023438 C 1611.792969 550.78125 1611.777344 552.539062 1611.757812 554.347656 C 1611.753906 555.894531 1611.75 557.4375 1611.746094 559.03125 C 1611.050781 563.054688 1611.050781 563.054688 1605.578125 568.839844 C 1596.59375 570.019531 1592.238281 570.464844 1583.699219 568.839844 C 1575.679688 564.648438 1570.398438 559.0625 1564.550781 553.414062 C 1561.886719 550.9375 1559.214844 548.464844 1556.539062 545.996094 C 1543.421875 533.828125 1530.601562 521.523438 1518.050781 509.0625 C 1518 510.667969 1517.945312 512.273438 1517.886719 513.929688 C 1517.675781 519.890625 1517.4375 525.851562 1517.183594 531.8125 C 1517.027344 535.660156 1516.898438 539.507812 1516.769531 543.355469 C 1516.613281 546.980469 1516.613281 546.980469 1516.449219 550.679688 C 1516.363281 552.910156 1516.277344 555.144531 1516.1875 557.441406 C 1515.316406 563.054688 1515.316406 563.054688 1509.847656 568.839844 C 1500.273438 569.441406 1500.273438 569.441406 1490.699219 568.839844 C 1483.929688 564.066406 1484.539062 562.683594 1484.523438 556.109375 C 1484.503906 554.269531 1484.488281 552.429688 1484.46875 550.535156 C 1484.480469 548.539062 1484.492188 546.546875 1484.503906 544.496094 C 1484.496094 542.457031 1484.492188 540.414062 1484.488281 538.3125 C 1484.484375 533.996094 1484.492188 529.675781 1484.515625 525.359375 C 1484.546875 518.730469 1484.515625 512.105469 1484.480469 505.476562 C 1484.484375 501.289062 1484.492188 497.101562 1484.503906 492.914062 C 1484.488281 489.925781 1484.488281 489.925781 1484.46875 486.875 C 1484.488281 485.035156 1484.503906 483.195312 1484.523438 481.300781 C 1484.527344 479.675781 1484.53125 478.050781 1484.535156 476.378906 C 1485.84375 468.933594 1490.730469 468.566406 1500.617188 467.242188 Z M 1500.617188 467.242188 "/>
<path style=" stroke:none;fill-rule:nonzero;fill:rgb(98.039216%,97.254902%,98.039216%);fill-opacity:1;" d="M 1504.28125 596.6875 C 1513.015625 598.378906 1515.59375 602.238281 1520.789062 607.40625 C 1524.878906 612.8125 1528.414062 618.367188 1531.933594 623.96875 C 1532.941406 625.554688 1533.953125 627.140625 1534.992188 628.773438 C 1537.113281 632.113281 1539.226562 635.457031 1541.328125 638.804688 C 1544.539062 643.90625 1547.792969 648.996094 1551.050781 654.085938 C 1553.113281 657.34375 1555.175781 660.601562 1557.234375 663.859375 C 1558.683594 666.128906 1558.683594 666.128906 1560.167969 668.445312 C 1565.082031 676.320312 1569.203125 683.546875 1570.023438 692.25 C 1565.75 696.949219 1565.75 696.949219 1559.082031 699.960938 C 1551.046875 700.683594 1551.046875 700.683594 1542.667969 698.035156 C 1538.15625 691.671875 1533.644531 685.308594 1528.992188 678.75 C 1508.234375 678.113281 1487.472656 677.476562 1466.082031 676.824219 C 1463.375 682.550781 1460.667969 688.277344 1457.878906 694.175781 C 1449.671875 699.960938 1449.671875 699.960938 1442.832031 700.683594 C 1435.996094 699.960938 1435.996094 699.960938 1430.867188 697.914062 C 1426.117188 692.148438 1428.398438 686.882812 1430.523438 680.679688 C 1433.667969 674.378906 1437.433594 668.304688 1441.273438 662.203125 C 1442.34375 660.476562 1443.414062 658.75 1444.515625 656.96875 C 1446.769531 653.34375 1449.039062 649.714844 1451.316406 646.09375 C 1454.804688 640.542969 1458.238281 634.972656 1461.671875 629.402344 C 1463.871094 625.875 1466.078125 622.34375 1468.285156 618.816406 C 1469.308594 617.148438 1470.335938 615.480469 1471.394531 613.765625 C 1472.859375 611.457031 1472.859375 611.457031 1474.351562 609.101562 C 1475.625 607.070312 1475.625 607.070312 1476.921875 604.996094 C 1483.484375 597.1875 1492.449219 597.183594 1504.28125 596.6875 Z M 1504.28125 596.6875 "/>
<path style=" stroke:none;fill-rule:nonzero;fill:rgb(98.039216%,97.254902%,98.039216%);fill-opacity:1;" d="M 1697.039062 465.316406 C 1707.796875 466.777344 1710.472656 468.691406 1717.042969 474.621094 C 1723.25 481.144531 1727.570312 488.1875 1731.964844 495.382812 C 1733.484375 497.824219 1733.484375 497.824219 1735.035156 500.308594 C 1737.15625 503.730469 1739.265625 507.152344 1741.359375 510.578125 C 1744.5625 515.808594 1747.828125 521.019531 1751.097656 526.230469 C 1753.15625 529.566406 1755.214844 532.902344 1757.269531 536.238281 C 1758.242188 537.789062 1759.214844 539.335938 1760.21875 540.933594 C 1765.203125 549.179688 1768.707031 555.839844 1766.957031 564.984375 C 1761.488281 568.839844 1761.488281 568.839844 1751.574219 569.082031 C 1748.527344 569 1745.480469 568.921875 1742.339844 568.839844 C 1737.828125 562.476562 1733.316406 556.113281 1728.664062 549.558594 C 1707.90625 549.558594 1687.144531 549.558594 1665.753906 549.558594 C 1661.242188 555.921875 1656.730469 562.285156 1652.078125 568.839844 C 1642.847656 569.082031 1642.847656 569.082031 1632.933594 568.839844 C 1627.460938 564.984375 1627.460938 564.984375 1626.472656 560.0625 C 1627.8125 551.050781 1632.507812 543.929688 1637.847656 535.75 C 1638.914062 534.078125 1639.980469 532.40625 1641.078125 530.679688 C 1643.335938 527.15625 1645.609375 523.632812 1647.894531 520.117188 C 1651.378906 514.75 1654.808594 509.367188 1658.234375 503.984375 C 1660.4375 500.550781 1662.644531 497.121094 1664.859375 493.691406 C 1665.878906 492.089844 1666.898438 490.488281 1667.949219 488.839844 C 1681.9375 467.445312 1681.9375 467.445312 1697.039062 465.316406 Z M 1697.039062 465.316406 "/>
<path style=" stroke:none;fill-rule:nonzero;fill:rgb(98.823529%,98.431373%,98.823529%);fill-opacity:1;" d="M 1375.628906 207.175781 C 1384.46875 208.855469 1386.992188 212.660156 1392.230469 217.894531 C 1396.371094 223.414062 1399.933594 229.089844 1403.472656 234.8125 C 1404.488281 236.4375 1405.503906 238.058594 1406.550781 239.730469 C 1408.6875 243.15625 1410.8125 246.582031 1412.921875 250.011719 C 1416.152344 255.238281 1419.441406 260.441406 1422.734375 265.648438 C 1424.808594 268.988281 1426.878906 272.328125 1428.945312 275.667969 C 1430.417969 277.984375 1430.417969 277.984375 1431.921875 280.347656 C 1437.417969 289.390625 1440.351562 296.5625 1438.730469 306.59375 C 1433.261719 310.453125 1433.261719 310.453125 1425.398438 311.414062 C 1416.847656 310.453125 1416.847656 310.453125 1410.695312 305.269531 C 1405.90625 298.882812 1405.90625 298.882812 1400.4375 289.242188 C 1379.675781 288.605469 1358.917969 287.96875 1337.527344 287.3125 C 1334.820312 293.039062 1332.113281 298.765625 1329.320312 304.667969 C 1326.613281 306.574219 1323.90625 308.484375 1321.117188 310.453125 C 1311.03125 309.847656 1311.03125 309.847656 1301.96875 308.523438 C 1297.734375 296.289062 1301.359375 289.210938 1308.851562 278.015625 C 1309.867188 276.433594 1310.882812 274.847656 1311.929688 273.214844 C 1315.175781 268.179688 1318.488281 263.164062 1321.800781 258.148438 C 1323.988281 254.761719 1326.171875 251.375 1328.347656 247.984375 C 1354.179688 208.066406 1354.179688 208.066406 1375.628906 207.175781 Z M 1375.628906 207.175781 "/>
<path style=" stroke:none;fill-rule:nonzero;fill:rgb(98.823529%,98.431373%,98.823529%);fill-opacity:1;" d="M 1668.488281 337.445312 C 1680.644531 343.804688 1685.441406 353.25 1691.367188 362.734375 C 1692.449219 364.445312 1693.535156 366.15625 1694.648438 367.921875 C 1696.925781 371.535156 1699.191406 375.15625 1701.441406 378.777344 C 1704.886719 384.304688 1708.410156 389.804688 1711.9375 395.308594 C 1714.144531 398.828125 1716.347656 402.351562 1718.546875 405.878906 C 1719.605469 407.515625 1720.660156 409.148438 1721.75 410.835938 C 1727.835938 420.804688 1729.949219 427.125 1725.929688 437.71875 C 1723.195312 439.644531 1723.195312 439.644531 1713.449219 439.765625 C 1710.347656 439.726562 1707.246094 439.6875 1704.046875 439.644531 C 1701.753906 436.515625 1699.480469 433.382812 1697.210938 430.246094 C 1695.941406 428.5 1694.671875 426.753906 1693.363281 424.957031 C 1690.371094 420.363281 1690.371094 420.363281 1690.371094 416.507812 C 1669.613281 417.144531 1648.851562 417.777344 1627.460938 418.433594 C 1622.949219 424.796875 1618.433594 431.160156 1613.785156 437.71875 C 1611.050781 439.644531 1611.050781 439.644531 1603.015625 440.007812 C 1594.640625 439.644531 1594.640625 439.644531 1589.167969 435.789062 C 1587.746094 425.257812 1590.730469 418.222656 1596.96875 408.710938 C 1597.777344 407.457031 1598.589844 406.203125 1599.425781 404.914062 C 1602.011719 400.933594 1604.652344 396.96875 1607.289062 393.003906 C 1609 390.382812 1610.703125 387.761719 1612.40625 385.136719 C 1617.339844 377.566406 1622.375 370.035156 1627.460938 362.515625 C 1628.253906 361.339844 1629.042969 360.167969 1629.859375 358.960938 C 1632.082031 355.683594 1634.332031 352.421875 1636.585938 349.160156 C 1637.863281 347.308594 1639.140625 345.460938 1640.457031 343.554688 C 1647.03125 335.511719 1656.304688 336.707031 1668.488281 337.445312 Z M 1668.488281 337.445312 "/>
<path style=" stroke:none;fill-rule:nonzero;fill:rgb(98.431373%,98.039216%,98.431373%);fill-opacity:1;" d="M 1761.488281 597.765625 C 1767.066406 600.753906 1769.378906 602.523438 1770.875 607.390625 C 1770.949219 608.816406 1771.019531 610.238281 1771.09375 611.707031 C 1771.191406 613.253906 1771.289062 614.800781 1771.386719 616.394531 C 1771.449219 618 1771.511719 619.609375 1771.574219 621.265625 C 1771.714844 623.707031 1771.714844 623.707031 1771.855469 626.203125 C 1772.082031 630.21875 1772.261719 634.238281 1772.429688 638.257812 C 1774.082031 637.03125 1775.738281 635.804688 1777.441406 634.539062 C 1783.617188 629.988281 1789.828125 625.464844 1796.066406 620.957031 C 1798.757812 619.003906 1801.429688 617.039062 1804.089844 615.066406 C 1807.921875 612.222656 1811.804688 609.417969 1815.699219 606.621094 C 1818.023438 604.925781 1820.34375 603.230469 1822.734375 601.480469 C 1831.359375 596.988281 1835.785156 596.808594 1846.28125 597.765625 C 1851.410156 600.054688 1851.410156 600.054688 1854.484375 603.546875 C 1855.53125 609.515625 1855.523438 612.203125 1850.371094 617.097656 C 1848.515625 618.316406 1846.65625 619.53125 1844.742188 620.78125 C 1842.761719 622.09375 1840.785156 623.402344 1838.746094 624.753906 C 1830.417969 629.992188 1822.035156 635.148438 1813.457031 640.1875 C 1815.089844 646.828125 1818.429688 650.34375 1824.738281 655.347656 C 1826.445312 656.742188 1828.152344 658.132812 1829.910156 659.570312 C 1833.515625 662.460938 1837.132812 665.34375 1840.765625 668.21875 C 1851.386719 676.933594 1856.871094 682.550781 1857.222656 694.175781 C 1850.800781 698.53125 1847.671875 699.957031 1838.628906 699.984375 C 1826.328125 697.246094 1821.8125 692.230469 1814.484375 685.019531 C 1813.214844 683.820312 1811.945312 682.621094 1810.636719 681.386719 C 1808.152344 679.042969 1805.683594 676.683594 1803.242188 674.316406 C 1800.09375 671.332031 1796.75 668.453125 1793.390625 665.585938 C 1788.839844 661.398438 1788.839844 661.398438 1788.839844 657.539062 C 1781.304688 660.589844 1777.359375 662.265625 1772.429688 667.179688 C 1771 673.65625 1770.71875 679.800781 1770.785156 686.351562 C 1769.695312 692.25 1769.695312 692.25 1764.691406 696.890625 C 1758.753906 699.960938 1758.753906 699.960938 1750.207031 699.839844 C 1742.339844 698.035156 1742.339844 698.035156 1736.871094 692.25 C 1736.15625 688.226562 1736.15625 688.226562 1736.121094 683.542969 C 1736.09375 681.785156 1736.066406 680.027344 1736.039062 678.21875 C 1736.042969 676.324219 1736.046875 674.433594 1736.046875 672.484375 C 1736.035156 670.539062 1736.023438 668.589844 1736.011719 666.585938 C 1735.996094 662.46875 1735.996094 658.351562 1736.007812 654.234375 C 1736.015625 647.921875 1735.953125 641.613281 1735.882812 635.304688 C 1735.875 631.308594 1735.875 627.308594 1735.878906 623.3125 C 1735.851562 621.421875 1735.828125 619.527344 1735.800781 617.578125 C 1735.816406 615.824219 1735.835938 614.066406 1735.851562 612.257812 C 1735.851562 610.710938 1735.847656 609.164062 1735.847656 607.574219 C 1738.433594 597.40625 1748.507812 596.621094 1761.488281 597.765625 Z M 1761.488281 597.765625 "/>
<path style=" stroke:none;fill-rule:nonzero;fill:rgb(99.607843%,99.215686%,99.607843%);fill-opacity:1;" d="M 2107.835938 467.988281 C 2109.871094 467.980469 2111.902344 467.972656 2113.996094 467.964844 C 2118.292969 467.953125 2122.585938 467.953125 2126.882812 467.960938 C 2133.457031 467.96875 2140.027344 467.921875 2146.601562 467.871094 C 2150.773438 467.867188 2154.949219 467.867188 2159.121094 467.867188 C 2161.089844 467.851562 2163.054688 467.832031 2165.078125 467.816406 C 2173.082031 467.867188 2178.664062 467.953125 2185.425781 471.128906 C 2188.183594 474.355469 2188.183594 474.355469 2187.5 480.378906 C 2185.449219 485.925781 2185.449219 485.925781 2182.714844 487.851562 C 2177.242188 488.019531 2171.765625 488.058594 2166.292969 488.039062 C 2162.96875 488.035156 2159.644531 488.027344 2156.222656 488.023438 C 2152.722656 488.003906 2149.222656 487.988281 2145.617188 487.972656 C 2142.105469 487.964844 2138.597656 487.957031 2134.980469 487.945312 C 2126.273438 487.921875 2117.566406 487.890625 2108.863281 487.851562 C 2108.863281 494.851562 2108.863281 501.851562 2108.863281 509.0625 C 2115.578125 508.996094 2115.578125 508.996094 2122.429688 508.925781 C 2128.28125 508.890625 2134.128906 508.855469 2139.976562 508.820312 C 2142.929688 508.789062 2145.882812 508.757812 2148.929688 508.722656 C 2151.75 508.710938 2154.570312 508.699219 2157.476562 508.6875 C 2161.386719 508.65625 2161.386719 508.65625 2165.375 508.625 C 2171.773438 509.0625 2171.773438 509.0625 2177.242188 512.917969 C 2177.925781 518.703125 2177.925781 518.703125 2177.242188 524.488281 C 2171.773438 528.347656 2171.773438 528.347656 2165.375 528.785156 C 2162.769531 528.761719 2160.164062 528.742188 2157.476562 528.722656 C 2153.246094 528.703125 2153.246094 528.703125 2148.929688 528.683594 C 2145.972656 528.652344 2143.019531 528.621094 2139.976562 528.585938 C 2137 528.570312 2134.023438 528.550781 2130.957031 528.535156 C 2123.59375 528.488281 2116.226562 528.417969 2108.863281 528.347656 C 2108.863281 535.34375 2108.863281 542.34375 2108.863281 549.558594 C 2110.972656 549.527344 2113.085938 549.496094 2115.261719 549.464844 C 2124.808594 549.34375 2134.359375 549.269531 2143.90625 549.195312 C 2147.230469 549.148438 2150.554688 549.097656 2153.976562 549.046875 C 2158.75 549.019531 2158.75 549.019531 2163.621094 548.992188 C 2166.554688 548.960938 2169.492188 548.929688 2172.519531 548.898438 C 2179.976562 549.558594 2179.976562 549.558594 2185.136719 552.109375 C 2188.183594 555.339844 2188.183594 555.339844 2187.671875 561.367188 C 2186.9375 563.195312 2186.203125 565.027344 2185.449219 566.910156 C 2176.972656 569.898438 2168 569.152344 2158.695312 569.164062 C 2156.589844 569.171875 2154.484375 569.175781 2152.316406 569.183594 C 2147.867188 569.191406 2143.414062 569.199219 2138.964844 569.195312 C 2132.140625 569.203125 2125.3125 569.234375 2118.488281 569.273438 C 2114.167969 569.277344 2109.847656 569.28125 2105.527344 569.285156 C 2103.480469 569.296875 2101.429688 569.3125 2099.320312 569.324219 C 2084.871094 569.28125 2084.871094 569.28125 2078.773438 564.984375 C 2078.0625 561.03125 2078.0625 561.03125 2078.023438 556.109375 C 2077.996094 554.269531 2077.972656 552.429688 2077.945312 550.535156 C 2077.945312 548.539062 2077.949219 546.546875 2077.953125 544.496094 C 2077.941406 542.457031 2077.929688 540.414062 2077.917969 538.3125 C 2077.902344 533.996094 2077.898438 529.675781 2077.910156 525.359375 C 2077.917969 518.730469 2077.855469 512.105469 2077.785156 505.476562 C 2077.78125 501.289062 2077.777344 497.101562 2077.78125 492.914062 C 2077.753906 490.921875 2077.730469 488.929688 2077.703125 486.875 C 2077.722656 485.035156 2077.738281 483.195312 2077.757812 481.300781 C 2077.753906 479.675781 2077.753906 478.050781 2077.75 476.378906 C 2078.089844 475.074219 2078.425781 473.769531 2078.773438 472.425781 C 2088.761719 467.734375 2096.285156 467.980469 2107.835938 467.988281 Z M 2107.835938 467.988281 "/>
<path style=" stroke:none;fill-rule:nonzero;fill:rgb(98.823529%,98.431373%,98.823529%);fill-opacity:1;" d="M 1465.914062 207.652344 C 1474.289062 208.253906 1474.289062 208.253906 1478.847656 210.324219 C 1484.421875 216 1483.550781 220.929688 1483.605469 227.761719 C 1483.636719 229.101562 1483.664062 230.4375 1483.695312 231.816406 C 1483.789062 236.09375 1483.832031 240.371094 1483.863281 244.648438 C 1483.902344 250.269531 1483.996094 255.886719 1484.117188 261.507812 C 1484.136719 264.003906 1484.15625 266.503906 1484.175781 269.074219 C 1485.289062 276.128906 1487.464844 279.75 1493.433594 285.382812 C 1502.792969 290.332031 1512.164062 290.082031 1523.523438 289.242188 C 1532.792969 285.121094 1536.449219 283.113281 1539.933594 275.742188 C 1540.222656 271.289062 1540.359375 266.832031 1540.414062 262.371094 C 1540.480469 259.703125 1540.542969 257.03125 1540.613281 254.363281 C 1540.707031 250.164062 1540.789062 245.96875 1540.824219 241.769531 C 1540.867188 237.710938 1540.976562 233.652344 1541.097656 229.59375 C 1541.140625 227.164062 1541.179688 224.738281 1541.21875 222.238281 C 1542.667969 215.964844 1542.667969 215.964844 1547.703125 211.242188 C 1553.609375 208.253906 1553.609375 208.253906 1562.15625 208.496094 C 1570.023438 210.179688 1570.023438 210.179688 1575.492188 214.039062 C 1576.140625 218.789062 1576.457031 223.320312 1576.507812 228.078125 C 1576.542969 230.183594 1576.542969 230.183594 1576.582031 232.332031 C 1576.621094 235.316406 1576.644531 238.296875 1576.65625 241.28125 C 1576.6875 245.785156 1576.824219 250.285156 1576.960938 254.789062 C 1577.214844 271.183594 1576.054688 285.160156 1561.816406 298.882812 C 1554.808594 303.703125 1554.808594 303.703125 1548.140625 306.59375 C 1546.636719 307.277344 1545.136719 307.960938 1543.589844 308.667969 C 1534.433594 311.222656 1525.527344 311.085938 1515.832031 311.054688 C 1513.953125 311.085938 1512.074219 311.117188 1510.140625 311.148438 C 1492.898438 311.160156 1480.335938 308.15625 1466.765625 300.328125 C 1453.789062 289.148438 1451.167969 279.144531 1451.414062 265.160156 C 1451.410156 263.648438 1451.410156 262.132812 1451.410156 260.578125 C 1451.414062 257.40625 1451.441406 254.234375 1451.488281 251.0625 C 1451.550781 246.195312 1451.542969 241.332031 1451.527344 236.464844 C 1451.539062 233.375 1451.558594 230.285156 1451.585938 227.195312 C 1451.582031 225.742188 1451.578125 224.285156 1451.578125 222.785156 C 1451.847656 208.707031 1451.847656 208.707031 1465.914062 207.652344 Z M 1465.914062 207.652344 "/>
<path style=" stroke:none;fill-rule:nonzero;fill:rgb(98.431373%,97.647059%,98.431373%);fill-opacity:1;" d="M 1392.765625 342.90625 C 1397.972656 345.285156 1401.921875 347.59375 1405.90625 350.945312 C 1406.761719 355.886719 1406.761719 355.886719 1405.90625 360.585938 C 1400.4375 364.441406 1400.4375 364.441406 1391.71875 365.046875 C 1380.285156 364.386719 1372.589844 361.871094 1362.144531 358.660156 C 1350.695312 357.882812 1347.238281 357.949219 1337.527344 362.515625 C 1337.972656 367.25 1337.972656 367.25 1340.261719 372.15625 C 1345.410156 374.527344 1345.410156 374.527344 1352.015625 375.644531 C 1354.414062 376.167969 1356.8125 376.695312 1359.28125 377.238281 C 1361.804688 377.746094 1364.328125 378.257812 1366.929688 378.785156 C 1385.914062 382.632812 1397.503906 385.363281 1408.644531 397.222656 C 1413.910156 404.648438 1412.835938 412.882812 1409.699219 420.679688 C 1404.164062 429.859375 1397.628906 434.503906 1384.558594 438.328125 C 1361.746094 443.335938 1338.230469 442.457031 1316.46875 435.285156 C 1309.960938 432.539062 1304.542969 429.964844 1299.234375 426.148438 C 1297.355469 419.878906 1297.355469 419.878906 1299.234375 414.578125 C 1304.703125 410.722656 1304.703125 410.722656 1313.9375 410.117188 C 1324.445312 410.757812 1327.097656 411.828125 1334.792969 416.507812 C 1342.75 418.320312 1350.046875 418.695312 1358.382812 418.675781 C 1360.507812 418.679688 1362.628906 418.6875 1364.816406 418.691406 C 1370.539062 418.679688 1370.539062 418.679688 1375.820312 416.507812 C 1376.503906 411.847656 1376.503906 411.847656 1375.820312 406.863281 C 1364.390625 401.492188 1352.238281 399.980469 1339.011719 397.601562 C 1324.792969 394.21875 1312.066406 389.402344 1304.703125 379.871094 C 1302.40625 369.390625 1302.871094 359.746094 1308.808594 349.980469 C 1331.894531 333.707031 1364.015625 332.925781 1392.765625 342.90625 Z M 1392.765625 342.90625 "/>
<path style=" stroke:none;fill-rule:nonzero;fill:rgb(98.431373%,97.647059%,98.431373%);fill-opacity:1;" d="M 2046.25 473.796875 C 2051.421875 476.28125 2051.421875 476.28125 2056.894531 480.140625 C 2057.804688 486.1875 2058.339844 490.101562 2053.644531 495.324219 C 2046.679688 498.371094 2043.121094 498.425781 2035.011719 497.492188 C 2032.585938 496.222656 2030.160156 494.949219 2027.660156 493.636719 C 2015.339844 488.394531 2005.3125 488.183594 1991.246094 489.78125 C 1978.800781 494.089844 1972.78125 498.488281 1966.628906 507.136719 C 1964.363281 517.832031 1964.648438 527.328125 1971.246094 537.144531 C 1981.246094 544.574219 1988.460938 547.925781 2003.042969 548.472656 C 2014.824219 548.238281 2022.710938 545.65625 2032.863281 541.65625 C 2039.480469 539.296875 2044.164062 538.890625 2051.421875 539.914062 C 2056.550781 542.085938 2056.550781 542.085938 2059.628906 545.699219 C 2060.3125 551.125 2060.3125 551.125 2056.894531 557.269531 C 2036.824219 569.792969 2017.953125 571.476562 1991.867188 571.308594 C 1972.574219 570.125 1958.394531 562.816406 1944.75 553.414062 C 1929.148438 537.8125 1929.140625 521.734375 1931.070312 503.277344 C 1936.019531 489.746094 1950.433594 479.460938 1966.523438 471.800781 C 1992.175781 462.222656 2021.511719 463.921875 2046.25 473.796875 Z M 2046.25 473.796875 "/>
<path style=" stroke:none;fill-rule:nonzero;fill:rgb(98.039216%,97.254902%,98.039216%);fill-opacity:1;" d="M 1328.296875 467.867188 C 1331.34375 467.867188 1331.34375 467.867188 1334.457031 467.867188 C 1338.75 467.871094 1343.046875 467.890625 1347.339844 467.921875 C 1353.914062 467.96875 1360.484375 467.960938 1367.058594 467.949219 C 1371.234375 467.957031 1375.40625 467.972656 1379.582031 467.988281 C 1381.546875 467.988281 1383.515625 467.984375 1385.539062 467.984375 C 1395.640625 468.085938 1400.011719 468.371094 1408.644531 472.425781 C 1409.710938 478.320312 1410.390625 482.226562 1405.460938 487.222656 C 1398.382812 490.828125 1393.34375 490.4375 1384.679688 490.34375 C 1381.621094 490.328125 1378.5625 490.308594 1375.410156 490.289062 C 1372.214844 490.242188 1369.023438 490.191406 1365.734375 490.140625 C 1362.511719 490.117188 1359.285156 490.089844 1355.964844 490.0625 C 1347.992188 489.996094 1340.027344 489.898438 1332.058594 489.78125 C 1332.058594 496.144531 1332.058594 502.507812 1332.058594 509.0625 C 1336.078125 508.972656 1340.097656 508.882812 1344.238281 508.792969 C 1349.523438 508.71875 1354.808594 508.648438 1360.09375 508.582031 C 1364.066406 508.484375 1364.066406 508.484375 1368.117188 508.386719 C 1387.714844 508.195312 1387.714844 508.195312 1396.828125 512.632812 C 1400.4375 516.777344 1400.4375 516.777344 1400.097656 521.839844 C 1397.703125 526.417969 1397.703125 526.417969 1392.230469 530.273438 C 1385.835938 530.710938 1385.835938 530.710938 1377.9375 530.652344 C 1373.703125 530.632812 1373.703125 530.632812 1369.386719 530.613281 C 1366.433594 530.582031 1363.480469 530.546875 1360.433594 530.515625 C 1357.460938 530.496094 1354.484375 530.480469 1351.417969 530.460938 C 1344.050781 530.417969 1336.6875 530.351562 1329.320312 530.273438 C 1329.386719 532.734375 1329.449219 535.195312 1329.515625 537.730469 C 1329.566406 540.949219 1329.613281 544.167969 1329.664062 547.386719 C 1329.710938 549.011719 1329.753906 550.632812 1329.800781 552.304688 C 1329.820312 553.859375 1329.835938 555.414062 1329.855469 557.015625 C 1329.882812 558.449219 1329.914062 559.882812 1329.941406 561.359375 C 1329.320312 564.984375 1329.320312 564.984375 1323.851562 568.839844 C 1314.277344 569.320312 1314.277344 569.320312 1304.703125 568.839844 C 1297.996094 564.109375 1298.535156 562.816406 1298.484375 556.316406 C 1298.457031 554.523438 1298.429688 552.726562 1298.402344 550.875 C 1298.40625 548.933594 1298.410156 546.988281 1298.410156 544.984375 C 1298.398438 542.992188 1298.386719 541 1298.375 538.945312 C 1298.359375 534.726562 1298.359375 530.507812 1298.371094 526.289062 C 1298.378906 519.820312 1298.316406 513.355469 1298.246094 506.890625 C 1298.238281 502.796875 1298.238281 498.703125 1298.242188 494.609375 C 1298.214844 492.667969 1298.191406 490.726562 1298.164062 488.730469 C 1298.179688 486.925781 1298.199219 485.125 1298.214844 483.269531 C 1298.214844 481.683594 1298.210938 480.097656 1298.210938 478.464844 C 1301.089844 466.898438 1314.460938 467.746094 1328.296875 467.867188 Z M 1328.296875 467.867188 "/>
<path style=" stroke:none;fill-rule:nonzero;fill:rgb(97.647059%,96.862745%,97.647059%);fill-opacity:1;" d="M 1759.949219 336.605469 C 1769.550781 337.757812 1772.101562 339.644531 1777.898438 345.160156 C 1778.855469 351 1779.179688 356.117188 1778.96875 361.941406 C 1778.953125 363.558594 1778.9375 365.171875 1778.921875 366.835938 C 1778.859375 371.984375 1778.722656 377.132812 1778.582031 382.28125 C 1778.527344 385.773438 1778.476562 389.269531 1778.433594 392.765625 C 1778.3125 401.320312 1778.125 409.878906 1777.898438 418.433594 C 1779.761719 418.40625 1781.625 418.375 1783.542969 418.34375 C 1791.976562 418.222656 1800.410156 418.148438 1808.839844 418.074219 C 1811.773438 418.023438 1814.707031 417.976562 1817.726562 417.925781 C 1820.539062 417.90625 1823.347656 417.890625 1826.246094 417.871094 C 1830.136719 417.824219 1830.136719 417.824219 1834.101562 417.777344 C 1840.808594 418.433594 1840.808594 418.433594 1845.757812 421.0625 C 1850.40625 425.566406 1850.171875 428.421875 1849.015625 433.859375 C 1846.078125 437.007812 1846.078125 437.007812 1840.808594 439.644531 C 1831.972656 440.394531 1831.972656 440.394531 1821.148438 440.414062 C 1819.238281 440.417969 1817.328125 440.425781 1815.355469 440.429688 C 1811.320312 440.433594 1807.28125 440.425781 1803.246094 440.398438 C 1797.066406 440.367188 1790.894531 440.398438 1784.714844 440.4375 C 1780.792969 440.433594 1776.867188 440.425781 1772.941406 440.414062 C 1769.371094 440.40625 1765.796875 440.402344 1762.117188 440.394531 C 1753.28125 439.644531 1753.28125 439.644531 1748.695312 437.261719 C 1744.054688 432.898438 1744.039062 430.398438 1744.015625 424.976562 C 1743.988281 423.179688 1743.964844 421.386719 1743.9375 419.535156 C 1743.953125 417.601562 1743.96875 415.667969 1743.988281 413.675781 C 1743.980469 411.683594 1743.972656 409.695312 1743.964844 407.644531 C 1743.957031 403.4375 1743.972656 399.230469 1744.007812 395.019531 C 1744.050781 388.570312 1744.007812 382.125 1743.953125 375.671875 C 1743.960938 371.589844 1743.96875 367.503906 1743.988281 363.417969 C 1743.96875 361.484375 1743.953125 359.550781 1743.9375 357.558594 C 1743.960938 355.761719 1743.988281 353.964844 1744.015625 352.117188 C 1744.019531 350.535156 1744.027344 348.957031 1744.035156 347.328125 C 1745.785156 340.453125 1750.398438 337.8125 1759.949219 336.605469 Z M 1759.949219 336.605469 "/>
<path style=" stroke:none;fill-rule:nonzero;fill:rgb(97.647059%,96.862745%,97.647059%);fill-opacity:1;" d="M 1877.5625 336.605469 C 1887.164062 337.757812 1889.714844 339.644531 1895.515625 345.160156 C 1896.46875 351 1896.792969 356.117188 1896.582031 361.941406 C 1896.566406 363.558594 1896.550781 365.171875 1896.535156 366.835938 C 1896.476562 371.984375 1896.335938 377.132812 1896.199219 382.28125 C 1896.144531 385.773438 1896.09375 389.269531 1896.046875 392.765625 C 1895.929688 401.320312 1895.738281 409.878906 1895.515625 418.433594 C 1897.28125 418.40625 1899.046875 418.375 1900.863281 418.34375 C 1908.882812 418.222656 1916.898438 418.148438 1924.917969 418.074219 C 1927.695312 418.023438 1930.476562 417.976562 1933.335938 417.925781 C 1936.015625 417.90625 1938.695312 417.890625 1941.457031 417.871094 C 1943.921875 417.839844 1946.386719 417.808594 1948.921875 417.777344 C 1957.054688 418.566406 1960.753906 420.234375 1966.628906 424.21875 C 1967.960938 429.585938 1967.980469 432.421875 1963.679688 437.007812 C 1955.605469 441.058594 1948.566406 440.394531 1938.765625 440.414062 C 1936.851562 440.417969 1934.941406 440.425781 1932.972656 440.429688 C 1928.933594 440.433594 1924.898438 440.425781 1920.859375 440.398438 C 1914.683594 440.367188 1908.507812 440.398438 1902.332031 440.4375 C 1898.40625 440.433594 1894.480469 440.425781 1890.554688 440.414062 C 1886.984375 440.40625 1883.414062 440.402344 1879.734375 440.394531 C 1870.898438 439.644531 1870.898438 439.644531 1866.308594 437.261719 C 1861.667969 432.898438 1861.652344 430.398438 1861.628906 424.976562 C 1861.605469 423.179688 1861.578125 421.386719 1861.550781 419.535156 C 1861.566406 417.601562 1861.585938 415.667969 1861.601562 413.675781 C 1861.59375 411.683594 1861.585938 409.695312 1861.578125 407.644531 C 1861.574219 403.4375 1861.585938 399.230469 1861.621094 395.019531 C 1861.664062 388.570312 1861.621094 382.125 1861.570312 375.671875 C 1861.574219 371.589844 1861.585938 367.503906 1861.601562 363.417969 C 1861.585938 361.484375 1861.570312 359.550781 1861.550781 357.558594 C 1861.578125 355.761719 1861.601562 353.964844 1861.628906 352.117188 C 1861.636719 350.535156 1861.644531 348.957031 1861.648438 347.328125 C 1863.398438 340.453125 1868.011719 337.8125 1877.5625 336.605469 Z M 1877.5625 336.605469 "/>
<path style=" stroke:none;fill-rule:nonzero;fill:rgb(91.372549%,40.392157%,12.54902%);fill-opacity:1;" d="M 574.398438 391.4375 C 582.621094 398.246094 587.066406 405.917969 591.78125 414.109375 C 592.621094 415.546875 593.457031 416.980469 594.324219 418.460938 C 596.082031 421.480469 597.835938 424.507812 599.582031 427.53125 C 602.265625 432.175781 604.972656 436.8125 607.6875 441.445312 C 609.394531 444.386719 611.101562 447.324219 612.808594 450.265625 C 613.621094 451.65625 614.433594 453.046875 615.269531 454.476562 C 620.898438 464.265625 620.898438 464.265625 620.898438 468.570312 C 591.109375 468.570312 561.324219 468.570312 530.632812 468.570312 C 533.128906 459.777344 536.925781 452.347656 541.917969 444.203125 C 542.757812 442.8125 543.597656 441.421875 544.460938 439.992188 C 547.132812 435.574219 549.824219 431.164062 552.515625 426.75 C 554.328125 423.761719 556.136719 420.773438 557.945312 417.78125 C 571.011719 396.210938 571.011719 396.210938 574.398438 391.4375 Z M 574.398438 391.4375 "/>
<path style=" stroke:none;fill-rule:nonzero;fill:rgb(97.254902%,96.078431%,97.254902%);fill-opacity:1;" d="M 1449.671875 468.570312 C 1455.464844 471.617188 1457.613281 473.320312 1458.902344 478.378906 C 1458.898438 479.925781 1458.898438 481.46875 1458.894531 483.0625 C 1458.914062 484.820312 1458.929688 486.574219 1458.949219 488.386719 C 1458.921875 490.277344 1458.898438 492.167969 1458.871094 494.121094 C 1458.871094 496.066406 1458.875 498.011719 1458.875 500.019531 C 1458.867188 504.136719 1458.84375 508.253906 1458.796875 512.371094 C 1458.734375 518.679688 1458.742188 524.988281 1458.757812 531.296875 C 1458.742188 535.296875 1458.722656 539.292969 1458.699219 543.289062 C 1458.703125 546.128906 1458.703125 546.128906 1458.707031 549.023438 C 1458.683594 550.78125 1458.65625 552.539062 1458.628906 554.347656 C 1458.617188 555.894531 1458.601562 557.4375 1458.589844 559.03125 C 1457.878906 563.054688 1457.878906 563.054688 1452.40625 568.839844 C 1447.277344 569.609375 1447.277344 569.609375 1441.464844 569.5625 C 1439.546875 569.578125 1437.628906 569.59375 1435.652344 569.609375 C 1430.523438 568.839844 1430.523438 568.839844 1425.054688 563.054688 C 1424.339844 559.03125 1424.339844 559.03125 1424.304688 554.347656 C 1424.277344 552.589844 1424.25 550.835938 1424.222656 549.023438 C 1424.226562 547.132812 1424.230469 545.238281 1424.230469 543.289062 C 1424.21875 541.34375 1424.207031 539.394531 1424.195312 537.390625 C 1424.179688 533.273438 1424.179688 529.15625 1424.191406 525.039062 C 1424.199219 518.730469 1424.136719 512.421875 1424.066406 506.109375 C 1424.058594 502.113281 1424.058594 498.117188 1424.0625 494.121094 C 1424.035156 492.226562 1424.011719 490.335938 1423.984375 488.386719 C 1424 486.628906 1424.019531 484.871094 1424.035156 483.0625 C 1424.035156 481.515625 1424.03125 479.972656 1424.03125 478.378906 C 1426.617188 468.210938 1436.691406 467.425781 1449.671875 468.570312 Z M 1449.671875 468.570312 "/>
<path style=" stroke:none;fill-rule:nonzero;fill:rgb(47.058824%,21.568627%,47.058824%);fill-opacity:1;" d="M 1329.320312 657.539062 C 1336.789062 657.332031 1344.246094 657.179688 1351.714844 657.058594 C 1353.820312 656.992188 1355.921875 656.929688 1358.089844 656.863281 C 1369.382812 656.726562 1374.457031 656.90625 1384.164062 661.425781 C 1385.925781 662.691406 1387.683594 663.953125 1389.496094 665.253906 C 1388.664062 670.671875 1387.921875 673.992188 1382.660156 678.089844 C 1372.507812 681.933594 1363.210938 681.300781 1351.886719 681.039062 C 1349.71875 681.015625 1347.550781 680.988281 1345.316406 680.960938 C 1339.984375 680.894531 1334.652344 680.789062 1329.320312 680.679688 C 1329.320312 673.042969 1329.320312 665.40625 1329.320312 657.539062 Z M 1329.320312 657.539062 "/>
<path style=" stroke:none;fill-rule:nonzero;fill:rgb(43.921569%,17.254902%,43.921569%);fill-opacity:1;" d="M 1329.320312 618.976562 C 1335.933594 618.816406 1342.539062 618.703125 1349.152344 618.613281 C 1351.015625 618.566406 1352.882812 618.515625 1354.804688 618.464844 C 1363.761719 618.375 1369.402344 618.566406 1377.144531 621.890625 C 1378.511719 622.835938 1379.882812 623.785156 1381.292969 624.757812 C 1380.265625 630.421875 1380.265625 630.421875 1378.554688 636.328125 C 1369.835938 639.402344 1360.425781 638.453125 1350.863281 638.378906 C 1348.800781 638.371094 1346.734375 638.359375 1344.609375 638.351562 C 1339.515625 638.328125 1334.417969 638.292969 1329.320312 638.257812 C 1329.320312 631.894531 1329.320312 625.53125 1329.320312 618.976562 Z M 1329.320312 618.976562 "/>
<path style=" stroke:none;fill-rule:nonzero;fill:rgb(46.27451%,20.392157%,46.27451%);fill-opacity:1;" d="M 1367.613281 237.175781 C 1375.058594 241.75 1378.25 246.148438 1381.804688 252.601562 C 1382.746094 254.273438 1383.6875 255.945312 1384.65625 257.664062 C 1386.761719 262.246094 1386.761719 262.246094 1386.761719 268.03125 C 1375.027344 268.03125 1363.292969 268.03125 1351.203125 268.03125 C 1356.039062 257.476562 1361.199219 247.300781 1367.613281 237.175781 Z M 1367.613281 237.175781 "/>
<path style=" stroke:none;fill-rule:nonzero;fill:rgb(45.098039%,18.823529%,45.098039%);fill-opacity:1;" d="M 1657.550781 366.371094 C 1664.28125 371.117188 1666.585938 375.597656 1670.199219 381.796875 C 1671.417969 383.867188 1672.640625 385.933594 1673.898438 388.0625 C 1676.695312 393.367188 1676.695312 393.367188 1676.695312 397.222656 C 1664.058594 397.222656 1651.421875 397.222656 1638.402344 397.222656 C 1641.074219 392.441406 1643.75 387.660156 1646.4375 382.882812 C 1647.195312 381.519531 1647.957031 380.15625 1648.738281 378.75 C 1654.503906 368.519531 1654.503906 368.519531 1657.550781 366.371094 Z M 1657.550781 366.371094 "/>
<path style=" stroke:none;fill-rule:nonzero;fill:rgb(44.313725%,18.039216%,44.313725%);fill-opacity:1;" d="M 1695.84375 495.566406 C 1702.273438 501.152344 1706.332031 506.46875 1710.03125 513.160156 C 1710.972656 514.835938 1711.914062 516.511719 1712.882812 518.238281 C 1714.988281 522.5625 1714.988281 522.5625 1714.988281 526.417969 C 1703.253906 526.417969 1691.519531 526.417969 1679.429688 526.417969 C 1684.265625 515.867188 1689.425781 505.6875 1695.84375 495.566406 Z M 1695.84375 495.566406 "/>
<path style=" stroke:none;fill-rule:nonzero;fill:rgb(45.098039%,18.823529%,45.098039%);fill-opacity:1;" d="M 1496.171875 624.757812 C 1504.757812 627.785156 1505.527344 632.90625 1508.820312 639.101562 C 1510.042969 641.367188 1511.261719 643.628906 1512.519531 645.964844 C 1515.316406 651.753906 1515.316406 651.753906 1515.316406 655.613281 C 1503.582031 655.613281 1491.847656 655.613281 1479.757812 655.613281 C 1485.175781 645.429688 1490.589844 635.25 1496.171875 624.757812 Z M 1496.171875 624.757812 "/>
</g>
</svg>
